<svg width="201" height="51" viewBox="0 0 201 51" fill="none" xmlns="http://www.w3.org/2000/svg">
<path d="M0.438477 25C0.438477 15.0589 8.49735 7 18.4385 7H182.438C192.38 7 200.438 15.0589 200.438 25C200.438 34.9411 192.38 43 182.438 43H18.4385C8.49735 43 0.438477 34.9411 0.438477 25Z" fill="white"/>
<path d="M52.5691 7.49201C52.842 7.49074 53.9398 7.49383 54.415 7.4933C53.8763 7.50671 51.5846 7.49662 52.5691 7.49201ZM101.316 6.51792C100.922 6.52123 100.528 6.52455 100.133 6.52787C101.254 6.53002 102.76 6.52759 103.8 6.53073C103.97 6.53126 103.529 6.54086 103.931 6.54129C104.334 6.54172 104.256 6.5286 104.841 6.52719C105.498 6.52566 108.505 6.5348 109.546 6.53458C113.441 6.53369 117.369 6.5262 121.271 6.53165C117.242 6.54136 121.302 6.55124 122.43 6.54703C122.68 6.54606 122.64 6.52166 126.682 6.5278C129.251 6.5317 126.879 6.56658 131.165 6.54911C127.869 6.52471 131.11 6.52642 133.694 6.52561C134.14 6.52546 137.737 6.52913 139.326 6.52805C139.87 6.52767 140.698 6.51489 141.419 6.51456C141.916 6.51434 142.291 6.52132 143.028 6.52097C146.464 6.51939 149.842 6.51885 153.284 6.52121C151.273 6.55405 154.863 6.53521 155.024 6.53678C155.844 6.54569 152.135 6.54823 153.602 6.55381C155.651 6.55279 157.701 6.55177 159.75 6.55075C158.068 6.54672 161.977 6.5231 162.697 6.53385C162.38 6.50483 172.038 6.5591 173.508 6.54941C173.814 6.54736 171.81 6.53302 176.459 6.53958C176.963 6.54031 176.772 6.54907 177.037 6.54825C177.195 6.54776 178.152 6.51994 179.172 6.53531C179.544 6.54092 177.162 6.5592 182.394 6.55185C181.948 6.5458 182.025 6.54163 182.438 6.53889C184.034 6.24061 190.115 7.83547 191.225 8.76524C190.918 8.59441 190.604 8.43158 190.287 8.27846C191.849 9.05169 192.092 9.26581 192.428 9.46615C193.771 10.3067 195.41 11.7598 196.362 12.885C197.458 14.2118 197.499 14.1992 198.527 15.9264C198.296 15.5093 198.048 15.1006 197.785 14.7026C198.559 15.856 199.203 17.0971 199.699 18.3954C198.417 15.445 200.003 19.0222 200.016 19.293C200.141 19.6851 199.958 19.1242 200.159 19.7803C200.174 19.8495 200.177 19.7429 200.431 20.7711C200.882 22.9389 200.746 22.6095 200.85 23.5293C200.846 23.6139 200.881 23.3167 200.918 24.9198C200.918 24.9468 200.918 24.9735 200.918 25C200.674 29.2997 200.927 26.0663 200.912 25C200.911 24.8361 200.909 24.724 200.908 24.6981C200.906 24.5694 200.902 24.9432 200.893 24.8065C200.864 24.6711 200.951 24.0185 200.624 21.8767C200.846 23.3128 200.796 23.4653 200.818 23.6269C200.823 23.6989 200.87 24.3422 200.869 25C200.872 25.6762 200.822 26.3533 200.816 26.4241C200.708 27.654 200.82 26.5729 200.8 26.8128C200.839 27.0194 200.279 30.0008 200.019 30.6709C199.494 32.0312 200.406 29.9027 200.711 27.4801C200.787 27.1324 200.296 29.758 200.211 29.8824C199.155 33.158 199.739 31.3459 199.505 32.0615C199.369 32.4354 198.749 33.6965 199.317 32.5299C197.927 35.3371 198.751 33.6249 198.671 33.8106C198.53 34.0827 197.965 35.0212 197.882 35.1313C197.77 35.2983 198.151 34.7117 197.709 35.3704C197.636 35.4799 196.912 36.5351 197.857 35.1827C196.596 36.9902 196.647 36.8041 196.152 37.3618C195.145 38.498 195.371 38.1371 194.941 38.5499C193.752 39.5991 194.101 39.3007 194.043 39.3622C193.675 39.8404 189.88 42.1008 188.792 42.3455C189.213 42.2359 191.974 40.9155 192.511 40.4759C193.449 39.8291 192.795 40.2963 192.043 40.7539C191.29 41.2116 190.427 41.6272 191.153 41.235C190.548 41.5697 189.922 41.871 189.281 42.1354C188.074 42.5322 189.814 42.0646 186.521 42.9726C185.989 43.1497 188.849 42.3289 188.276 42.4933C187.952 42.6408 186.027 43.1216 185.984 43.1091C185.95 43.141 187.692 42.7081 187.417 42.7763C186.861 43.1807 180.333 43.7324 185.287 43.2295C184.092 43.4066 183.392 43.4178 182.438 43.4252C182.299 43.4252 182.154 43.4258 182.001 43.427C181.717 43.4294 182.137 43.4368 182.438 43.4448C182.704 43.4507 182.881 43.4561 182.438 43.4637C182.027 43.4683 181.066 43.4706 179.104 43.4682C178.967 43.4536 181.667 43.4639 181.737 43.4628C181.836 43.4612 181.347 43.4282 181.262 43.4265C180.964 43.4212 174.416 43.4389 173.033 43.4223C173.58 43.4413 168.085 43.4257 167.486 43.4315C167.327 43.4331 167.923 43.4448 167.752 43.446C166.69 43.4534 163.815 43.4325 162.482 43.432C160.99 43.4314 161.179 43.4415 161.096 43.4414C160.439 43.4409 160.964 43.434 160.562 43.434C159.956 43.4341 155.789 43.4327 155.58 43.4341C155.519 43.4346 156.199 43.4461 155.29 43.4483C155.133 43.4486 155.233 43.435 152.543 43.4409C149.303 43.448 154.792 43.4579 153.446 43.4722C151.365 43.4518 151.433 43.472 150.868 43.4704C150.673 43.4698 149.219 43.4527 147.639 43.4538C148.773 43.451 149.906 43.4482 151.04 43.4454C149.926 43.4424 147.762 43.4461 146.843 43.4427C146.396 43.4411 146.765 43.427 145.792 43.4273C145.585 43.4275 144.766 43.4619 147.315 43.4464C147.518 43.4587 146.305 43.4507 145.743 43.4542C145.658 43.4547 145.322 43.4752 144.604 43.4625C144.431 43.4594 146.309 43.3996 141.466 43.4428C141.31 43.4442 141.852 43.4517 141.699 43.4533C141.595 43.4543 140.359 43.4513 140.222 43.4524C140.082 43.4535 140.679 43.4617 140.513 43.4633C139.66 43.4716 138.541 43.4391 140.299 43.4416C139.712 43.4376 139.124 43.4336 138.536 43.4296C139.165 43.454 137.613 43.4365 136.799 43.4372C131.587 43.442 135.077 43.4579 134.181 43.4662C132.74 43.4794 133.841 43.4375 131.701 43.4501C131.503 43.4513 134.09 43.469 129.039 43.459C129.784 43.4583 130.53 43.4576 131.275 43.4569C130.845 43.4333 128.584 43.4586 128.41 43.4589C126.426 43.4621 127.767 43.4536 124.822 43.4658C124.559 43.4669 123.986 43.461 123.424 43.464C121.093 43.4759 126.5 43.4712 126.648 43.4808C126.718 43.4855 120.903 43.4843 120.703 43.4821C119.855 43.4722 123.339 43.4777 122.675 43.4655C122.433 43.4611 114.144 43.4701 112.481 43.4653C110.563 43.4597 109.699 43.4277 109.687 43.4637C109.145 43.4284 108.667 43.4525 108.421 43.4522C105.454 43.449 105.448 43.4486 102.904 43.452C102.342 43.4527 101.867 43.442 101.669 43.4438C101.553 43.4449 101.769 43.4564 101.203 43.4599C100.415 43.4648 95.685 43.453 95.3333 43.4466C94.9818 43.4403 97.331 43.4439 96.91 43.4334C95.2095 43.4324 93.5788 43.435 91.867 43.4339C91.156 43.4334 91.5214 43.4261 91.2142 43.4259C91.0834 43.4258 88.6282 43.4323 88.7322 43.435C88.9759 43.4412 96.5574 43.437 94.561 43.4498C94.1759 43.4523 92.815 43.4354 93.0314 43.4559C86.2581 43.4513 79.4848 43.4466 72.7115 43.442C76.6031 43.4267 80.9827 43.4404 85.0589 43.4389C85.6177 43.4388 87.5063 43.4407 87.2767 43.4304C83.8104 43.4277 79.5011 43.4331 76.1727 43.4264C76.0661 43.4261 76.4572 43.4168 76.0583 43.4154C75.3125 43.4126 72.8842 43.4276 72.4759 43.4237C72.4061 43.4228 73.788 43.4106 73.3677 43.4028C72.289 43.3828 72.0152 43.4271 71.0877 43.4265C70.3705 43.4261 65.5507 43.4047 64.3503 43.4182C63.0738 43.4326 67.9023 43.4266 67.5457 43.4384C64.2787 43.4502 60.9707 43.4376 57.8837 43.4391C57.8294 43.4391 58.3016 43.4483 57.6128 43.4496C56.4142 43.4519 56.0996 43.4388 55.5162 43.4367C54.8871 43.4344 52.6621 43.4363 52.3646 43.4315C52.3266 43.4309 52.7774 43.4179 52.8458 43.4176C53.815 43.4122 54.1593 43.4291 54.2475 43.4293C54.5788 43.4299 54.9044 43.4235 55.2066 43.4239C55.7043 43.4245 55.9783 43.4305 56.6352 43.431C57.0884 43.4314 56.651 43.4199 57.0878 43.4204C57.2482 43.4207 58.9778 43.4469 59.139 43.4201C59.189 43.4117 45.0452 43.4009 43.6315 43.4076C44.8441 43.4108 46.0568 43.414 47.2694 43.4173C44.8069 43.4094 41.8487 43.4308 41.6392 43.3992C33.9056 43.397 26.1721 43.3948 18.4385 43.3926C17.0093 43.3925 15.58 43.2276 14.1897 42.8981C12.5877 42.449 13.4314 42.7867 10.8938 41.7588C11.5371 42.0559 12.1962 42.3151 12.8704 42.5358C11.4033 42.3723 6.0978 39.0238 5.54717 38.1075C5.46237 38.0088 5.28091 37.9306 4.26906 36.747C3.3996 35.6736 3.30756 35.4639 2.90437 34.8473C2.57144 34.3245 2.23566 33.7141 2.15239 33.5508C2.08781 33.4253 2.06783 33.3729 1.91896 33.0677C1.46926 32.0964 1.80147 32.8973 1.4097 31.9088C1.50777 32.1476 1.61155 32.3857 1.71989 32.6205C1.17764 31.4452 0.665599 29.7538 1.29496 31.5481C1.41412 31.8526 1.30436 31.594 1.39406 31.8208C6.10226 40.11 1.8311 33.7469 0.921509 30.479C0.609884 29.7839 -0.0122468 26.0658 0.0960397 25C0.0961325 24.8448 0.0979694 24.7484 0.0985131 24.7279C0.107241 24.5058 0.0960964 25.3282 0.133001 24.2509C0.130753 24.1385 0.220766 22.4725 0.522074 21.1563C0.80864 19.8396 1.16275 18.8721 0.826366 19.9781C0.633744 20.423 0.104337 23.4638 0.145891 24.2138C0.108238 22.445 1.20076 18.4748 1.47043 18.0822C2.16248 16.36 0.196983 21.413 1.73601 17.5256C3.17152 14.6504 1.78931 17.332 2.35349 16.2317C2.59833 15.5612 4.81522 12.6655 4.789 12.7715C5.63695 11.8517 5.15058 12.3996 5.25554 12.2863C5.33521 12.1529 7.14785 10.486 7.83269 10.0653C7.91175 10.0095 7.67147 10.1971 7.75336 10.1397C7.89068 9.99457 9.91283 8.75821 10.0149 8.74585C10.0675 8.71586 9.56444 8.97219 9.76768 8.86014C9.98797 8.69509 12.0788 7.77805 12.2096 7.76443C12.3569 7.65621 9.78125 8.79754 10.2107 8.60958C11.3622 7.99858 13.3753 7.3178 14.2161 7.13735C14.0106 7.17776 12.7943 7.51802 12.3845 7.67372C12.5593 7.53969 15.1887 6.88109 14.2926 7.11818C14.866 6.98275 14.4727 7.06493 14.7959 6.98992C14.8784 6.96654 15.7065 6.8222 15.8646 6.80226C15.8857 6.79397 15.0302 6.92724 15.2008 6.89641C15.5035 6.78881 18.0351 6.56679 18.2455 6.60979C18.8307 6.59643 16.7589 6.6648 16.5923 6.71905C16.5656 6.7037 18.3225 6.62402 18.3509 6.64514C18.4516 6.63637 16.4992 6.72868 16.7248 6.74075C17.2055 6.69891 17.6891 6.67589 18.1723 6.67173C16.2971 6.61879 12.9146 7.42367 12.1111 7.81378C14.7018 6.8042 17.6371 6.69719 17.6235 6.7381C17.6221 6.74312 16.438 6.84221 16.485 6.84934C16.658 6.82422 18.3019 6.72781 18.3651 6.74573C18.4155 6.74632 18.4385 6.74713 18.4385 6.74785C18.4385 6.74785 18.4385 6.74785 18.4385 6.74785C18.4339 6.72089 16.094 6.87182 15.9803 6.92838C15.7845 6.95604 16.826 6.85837 16.8238 6.87118C16.7872 6.85737 15.1346 7.09162 15.6937 7.02296C16.2534 6.92993 17.7133 6.82951 17.7619 6.84041C18.0402 6.80188 15.4986 7.03105 15.4303 7.09063C15.3904 7.08736 16.7486 6.91994 16.7884 6.93206C16.8232 6.92674 15.7901 7.04586 15.3892 7.13294C15.0892 7.18925 15.9676 7.05312 15.8132 7.08026C15.6951 7.05845 13.3499 7.57512 13.2469 7.64852C13.079 7.69972 13.6205 7.55035 13.5428 7.57599C13.4306 7.60584 12.6908 7.8345 12.7882 7.80892C12.8463 7.72838 15.7753 7.07773 15.7683 7.14516C15.7284 7.12825 12.6201 7.74754 15.522 7.21966C15.5431 7.21309 16.2506 7.10937 16.2717 7.11063C16.7121 7.07394 14.4313 7.33557 17.224 7.04429C12.0539 7.75772 16.5774 7.10424 15.8158 7.23725C15.5149 7.25854 13.5478 7.70736 13.5443 7.73646C13.7358 7.69059 14.3562 7.52514 14.5722 7.48651C14.685 7.4449 12.9451 7.92248 13.3404 7.8271C13.5362 7.74484 15.4033 7.32454 15.4866 7.3365C16.2369 7.22597 15.3195 7.37732 15.4849 7.3572C15.5943 7.33265 16.7385 7.18913 16.7687 7.19576C16.8167 7.1784 15.2627 7.39225 14.9488 7.47962C14.7063 7.52839 15.6203 7.3649 15.4512 7.39904C14.4205 7.55749 12.2877 8.15763 14.3566 7.63942C14.4829 7.60684 15.2729 7.44715 15.297 7.4476C15.7885 7.36604 14.3292 7.63904 14.0786 7.72817C13.6386 7.84416 15.7096 7.35196 13.9893 7.76746C15.281 7.4623 16.0145 7.33035 17.5658 7.23398C15.4103 7.34666 14.0071 7.79042 13.7019 7.87564C13.4016 8.00011 14.1611 7.64735 16.529 7.35695C15.0248 7.54352 15.1997 7.57808 14.7563 7.65864C14.472 7.68346 12.3638 8.29239 13.34 8.04653C13.4585 8.00325 14.7489 7.67504 14.347 7.78685C11.273 8.64886 14.2763 7.78302 14.2864 7.81053C14.2747 7.82879 12.3412 8.26002 10.4505 9.23792C8.5376 10.1745 6.78333 11.6754 6.31141 12.1459C5.17611 13.2131 4.36625 14.3423 4.16976 14.6143C3.52875 15.5211 4.05043 14.7613 3.90445 14.9623C3.69585 15.1303 2.19722 17.914 2.19709 18.0887C1.95782 18.6508 2.18383 18.0733 2.15928 18.1319C1.73225 18.7846 0.710172 22.9261 0.794302 24.1375C0.772545 24.0967 1.03991 21.7272 0.885562 23.2094C0.781698 24.4566 0.798015 24.8562 0.780793 25C0.776854 25.055 0.773855 25.0719 0.773455 25.0845C0.672313 33.1118 6.78604 40.6556 14.6438 42.2557C14.5977 42.2369 13.3004 41.9566 12.0655 41.469C10.8239 40.9997 9.66984 40.3324 9.62075 40.3009C9.3262 40.1083 11.0504 41.2055 13.2031 41.8551C15.3419 42.5559 17.8282 42.6611 18.3622 42.6487C17.5431 42.641 16.7286 42.5777 15.9198 42.4578C16.5159 42.5345 17.4274 42.6281 18.4385 42.6288C19.797 42.6318 21.321 42.6387 22.4921 42.6331C23.157 42.6299 21.88 42.6213 21.9065 42.6207C22.6539 42.6121 23.8531 42.6187 22.9565 42.6304C24.7811 42.6192 24.5145 42.6315 25.9146 42.6324C25.9868 42.6325 25.3856 42.6235 26.4934 42.6197C27.0125 42.618 29.781 42.618 30.1516 42.6101C30.3041 42.6068 28.8997 42.5719 28.7264 42.6019C25.7152 42.5873 27.7642 42.6156 26.5944 42.6149C26.415 42.6148 26.8278 42.598 23.8819 42.6059C24.443 42.5756 27.8352 42.5983 28.4167 42.5946C29.6159 42.5871 24.6742 42.5715 23.7675 42.595C24.1912 42.5714 23.417 42.5918 22.3154 42.5909C21.1096 42.5898 21.6351 42.5828 20.9827 42.5828C19.1984 42.5826 19.9381 42.5992 18.4671 42.5842C18.9336 42.5993 18.8301 42.6053 18.4385 42.606C17.6399 42.6378 15.6416 42.4126 14.9055 42.2231C16.0671 42.4587 17.2526 42.5753 18.4385 42.5736C19.0986 42.5728 19.7588 42.5719 20.419 42.5711C20.3119 42.5687 20.2048 42.5662 20.0976 42.5638C20.5912 42.5641 21.0848 42.5645 21.5784 42.5648C21.4993 42.5672 21.4202 42.5695 21.3411 42.5718C23.8863 42.5566 24.5073 42.5737 24.7149 42.5739C27.3865 42.5759 30.4725 42.5757 33.1737 42.5758C33.5789 42.5758 33.3008 42.5606 36.2547 42.5725C37.1968 42.5763 36.3073 42.5881 37.3753 42.5864C38.7113 42.5542 38.6859 42.5798 39.0832 42.5799C40.223 42.5799 40.9197 42.5719 41.025 42.5718C42.4332 42.5706 44.4958 42.5719 46.0428 42.5707C46.0718 42.5706 45.2668 42.5607 46.2716 42.5637C46.6246 42.5647 49.7896 42.6069 52.5564 42.5931C51.8368 42.5903 51.1172 42.5874 50.3975 42.5846C51.2438 42.5886 57.173 42.5779 55.7232 42.5666C54.8345 42.5597 52.6648 42.5869 52.4268 42.5608C54.3999 42.5686 65.2973 42.5569 66.1457 42.563C66.263 42.5638 65.541 42.5723 65.7031 42.5734C65.8286 42.5742 68.3248 42.5722 68.6562 42.5755C68.8535 42.5774 67.7504 42.5826 67.8401 42.5857C67.9186 42.5879 71.0359 42.5915 71.2139 42.5809C70.4483 42.5851 68.2968 42.5814 69.4252 42.5724C69.5703 42.5713 70.3225 42.5782 70.4988 42.5768C72.1349 42.5637 67.2456 42.5669 66.4889 42.5668C69.5601 42.5532 74.3104 42.5692 77.8689 42.5604C79.3068 42.5692 75.7371 42.5739 77.3641 42.5812C80.7391 42.5964 78.2621 42.569 78.3669 42.5679C79.2052 42.5589 82.0606 42.6068 82.0621 42.5704C83.2856 42.5759 82.8896 42.5804 84.6164 42.5757C84.3892 42.5732 84.1621 42.5706 83.9349 42.5681C85.852 42.547 89.9096 42.6002 89.6055 42.6043C88.7878 42.6152 86.6747 42.5982 86.4943 42.5986C86.227 42.5992 85.4887 42.6362 82.5652 42.6031C81.3681 42.6279 87.1987 42.6199 84.5457 42.6368C86.3375 42.634 93.7085 42.6513 94.7697 42.6404C94.8962 42.639 94.3065 42.6143 96.1276 42.6268C96.9921 42.6328 94.9074 42.6331 95.3031 42.6387C96.5203 42.656 113.076 42.645 116.22 42.644C116.424 42.644 116.35 42.6517 116.55 42.6516C117.166 42.6514 119.412 42.64 120.515 42.6435C118.23 42.6293 122.667 42.6282 123.796 42.6298C125.509 42.6321 125.403 42.6456 126.143 42.6485C128.996 42.6596 133.416 42.6275 135.632 42.6575C135.51 42.6277 139.465 42.672 141.264 42.6723C142.673 42.6725 144.717 42.6528 142.815 42.6409C145.247 42.6422 147.808 42.6367 150.089 42.6349C150.466 42.6346 149.947 42.6434 150.591 42.6426C150.649 42.6424 150.73 42.6338 151.282 42.6329C155.844 42.6254 153.624 42.6437 154.478 42.6491C154.955 42.6521 155.308 42.6536 155.566 42.6541C152.908 42.6558 149.841 42.6592 149.021 42.6594C149.72 42.6784 154.914 42.6558 156.435 42.6609C156.487 42.6611 156.304 42.6716 156.357 42.6716C156.358 42.6716 156.359 42.6716 156.361 42.6716C156.931 42.6724 160.561 42.6686 159.813 42.6561C159.613 42.6527 157.942 42.6527 155.96 42.6539C156.496 42.6515 156.096 42.6398 156.191 42.6393C157.338 42.6335 160.15 42.6449 161.148 42.6465C161.376 42.6468 161.359 42.6393 161.397 42.6393C162.304 42.641 161.932 42.6625 162.862 42.6403C164.505 42.6671 159.784 42.6443 160.116 42.6617C160.372 42.6751 170.86 42.6679 170.828 42.6468C170.864 42.649 171.009 42.6518 171.304 42.655C171.96 42.6621 174.879 42.6599 175.383 42.656C175.468 42.6552 175.434 42.6348 175.54 42.6346C175.803 42.6341 179.371 42.6502 180.704 42.6381C179.984 42.6352 179.265 42.6323 178.545 42.6295C182.891 42.6293 182.219 42.6232 180.771 42.6171C180.699 42.617 180.628 42.6162 180.559 42.6161C179.437 42.6116 177.998 42.6073 177.976 42.6056C177.926 42.6019 180.628 42.5992 182.438 42.6019C183.584 42.6013 184.36 42.5014 183.819 42.5618C183.734 42.5707 183.05 42.6183 182.438 42.6149C181.641 42.6145 180.979 42.6151 181.929 42.6227C182.002 42.6233 182.192 42.6235 182.438 42.6235C183.173 42.6361 184.398 42.5214 184.483 42.5054C184.914 42.4576 183.569 42.648 182.438 42.6426C181.581 42.6481 180.851 42.6539 181.101 42.66C181.513 42.6552 181.966 42.653 182.438 42.652C183.285 42.6514 184.191 42.5879 185.024 42.4621C185.613 42.3715 185.752 42.3261 185.824 42.3136C186.895 42.086 186.296 42.2213 186.652 42.1398C186.853 42.1263 188.894 41.4299 188.515 41.5808C191.812 40.2322 192.091 39.6992 191.313 40.2422C190.512 40.7306 188.356 41.7914 186.212 42.2283C187.572 41.9749 190.098 40.9834 191.129 40.3366C191.504 40.117 191.28 40.2454 191.902 39.8549C192.539 39.4592 194.345 38.1938 195.789 36.4888C197.268 34.8136 198.307 32.7618 198.66 31.8951C198.191 32.9498 198.346 32.6505 198.702 31.8324C199.037 31.0071 198.742 31.6949 198.806 31.5333C198.985 31.3979 200.059 27.3481 199.986 26.6311C199.542 29.745 199.709 29.0541 200.024 26.3999C199.997 26.7837 199.957 27.1711 199.905 27.5528C199.999 26.907 200.091 25.9578 200.091 25C200.103 23.6582 199.911 22.3249 199.807 21.8049C199.782 21.6651 199.861 22.1699 199.846 22.0915C199.773 21.2934 198.984 18.7031 198.892 18.6019C198.858 18.5014 199.239 19.5888 199.092 19.1872C199.064 19.1045 198.707 18.0466 198.205 17.0725C198.019 16.7113 198.122 16.9334 198.074 16.8428C197.658 16.0996 197.95 16.511 197.108 15.1991C196.462 14.2589 195.937 13.5822 194.829 12.4598C198.204 16.3847 195.527 12.9312 193.83 11.5677C193.552 11.3612 193.824 11.4915 192.13 10.3031C195.691 12.905 191.188 9.43826 190.038 9.09978C189.98 9.07371 189.968 9.04798 189.447 8.81829C189.403 8.80046 189.465 8.82879 188.976 8.63053C186.627 7.75195 186.141 7.80212 186.205 7.78104C186.26 7.78912 186.81 7.91377 186.347 7.8024C185.959 7.66732 183.538 7.34896 182.878 7.38079C182.75 7.37842 182.78 7.37131 182.438 7.36848C182.375 7.36821 182.298 7.36806 182.206 7.36811C181.15 7.36866 180.205 7.3768 179.508 7.37745C179.427 7.37748 179.424 7.36541 178.103 7.36933C177.732 7.37042 177.315 7.37471 177.843 7.37818C178.978 7.38559 180.776 7.37985 182.438 7.37805C183.32 7.3762 184.154 7.44572 184.827 7.54174C185.96 7.72893 184.031 7.36724 182.438 7.39189C181.57 7.39249 180.811 7.39262 180.708 7.39264C180.6 7.39268 181.71 7.38669 180.582 7.3855C179.619 7.38452 177.859 7.40536 176.424 7.40082C176.315 7.40049 175.168 7.38281 175.221 7.38178C175.269 7.38103 177.03 7.37719 176.774 7.37207C176.744 7.37149 175.624 7.37161 175.478 7.3678C175.299 7.36317 174.817 7.31767 174.578 7.31653C173.965 7.31371 174.364 7.32409 173.967 7.32337C173.117 7.32184 170.166 7.30839 170.07 7.32416C170.558 7.3251 171.045 7.32603 171.532 7.32697C168.821 7.32859 169.977 7.3353 169.592 7.33826C169.179 7.34146 169.295 7.3276 168.381 7.3263C168.182 7.32601 164.357 7.3289 164.427 7.33472C166.542 7.32546 165.758 7.34259 165.855 7.3429C166.226 7.34401 166.699 7.33441 167.196 7.3346C170.693 7.3361 167.167 7.35127 167.992 7.35517C168.276 7.35648 168.842 7.34828 168.963 7.3487C169.355 7.35006 169.361 7.3608 169.623 7.35993C170.233 7.35791 169.52 7.34271 169.569 7.34192C170.114 7.33241 172.25 7.34425 170.92 7.36078C171.718 7.36674 171.812 7.34664 172.444 7.35468C173.703 7.37059 171.818 7.3665 171.307 7.36914C169.475 7.37867 168.931 7.37096 166.338 7.3736C165.404 7.37453 164.298 7.3843 163.865 7.38483C163.592 7.38517 161.014 7.3512 160.938 7.40436C159.936 7.39922 158.365 7.36419 157.332 7.36579C156.406 7.36725 156.7 7.38606 156.614 7.38678C156.481 7.38793 155.361 7.38645 154.982 7.3891C154.538 7.39224 154.759 7.39942 154.055 7.40235C152.301 7.40961 152.347 7.39041 152.167 7.38917C150.074 7.37474 150.99 7.40205 150.526 7.40424C150.094 7.40625 144.037 7.39574 142.762 7.40265C143.281 7.39881 143.8 7.39496 144.319 7.39112C143.39 7.37914 142.406 7.39868 142.389 7.3772C142.2 7.41187 140.284 7.3887 139.708 7.38959C139.481 7.38996 139.499 7.39587 139.215 7.39612C138.106 7.39716 135.605 7.39246 135.003 7.39545C132.401 7.40835 139.055 7.4298 139.579 7.4311C138.53 7.43072 132.598 7.43848 135.325 7.45515C135.746 7.45772 136.493 7.4422 136.73 7.4416C138.332 7.4376 137.072 7.4515 137.198 7.45283C137.411 7.45496 138.466 7.44152 138.744 7.44312C138.837 7.44364 138.239 7.45622 139.767 7.45649C139.015 7.46869 134.72 7.45875 134.157 7.46162C133.956 7.46264 135.214 7.48872 131.539 7.46339C131.581 7.46581 131.624 7.46823 131.667 7.47065C129.62 7.47165 127.573 7.47264 125.526 7.47364C125.749 7.46806 126.898 7.45686 125.451 7.45924C124.617 7.46061 125.234 7.47304 125.158 7.4734C124.41 7.47682 111.175 7.47268 108.611 7.47407C107.738 7.47452 105.306 7.4845 105.121 7.48469C104.012 7.48569 100.085 7.47919 99.302 7.4806C98.8129 7.4815 99.2779 7.49189 98.841 7.4914C98.4348 7.49094 98.8555 7.4809 98.7349 7.48048C97.7357 7.47684 90.1452 7.49001 88.3427 7.48054C89.4443 7.48338 94.9417 7.46332 94.8311 7.45625C94.8072 7.45527 93.4712 7.44764 93.1956 7.45136C92.7403 7.44267 91.1769 7.46913 90.3266 7.46394C90.2305 7.46335 90.6092 7.4485 89.0915 7.44581C88.5688 7.44489 87.1998 7.45646 85.8221 7.44349C83.8276 7.44972 73.341 7.43047 72.6215 7.44642C72.6002 7.44726 74.0769 7.45275 73.0792 7.4593C71.7529 7.468 72.944 7.43869 71.3982 7.43616C71.1653 7.43578 66.8646 7.43875 66.7238 7.44056C65.4212 7.45701 69.1792 7.46367 69.1266 7.46558C68.9956 7.4704 65.873 7.47331 65.7461 7.47218C65.6253 7.47099 68.1719 7.4492 65.1117 7.45747C65.4623 7.46007 65.8129 7.46267 66.1634 7.46528C64.7243 7.47035 64.5871 7.45527 64.2384 7.45435C63.1546 7.45144 61.982 7.47434 60.2455 7.44605C59.7863 7.43855 60.5486 7.43021 60.4911 7.42908C59.9395 7.41898 59.2358 7.44601 58.4063 7.42585C58.3438 7.42435 60.2742 7.41227 56.9003 7.41224C57.1325 7.41417 57.3647 7.4161 57.5969 7.41804C57.1212 7.42235 53.7051 7.42492 53.2455 7.4239C51.903 7.42091 53.0738 7.40704 51.7244 7.4087C52.5899 7.42771 48.4865 7.43019 48.7225 7.41382C48.1494 7.43438 44.6636 7.41852 43.025 7.41804C41.991 7.41774 39.8821 7.42671 39.5536 7.42567C39.1534 7.42438 39.275 7.41035 38.5524 7.40723C38.3464 7.40634 36.1952 7.41662 34.307 7.40211C33.9411 7.39931 33.1726 7.37552 33.8527 7.36957C35.0169 7.3594 37.2192 7.37856 37.1911 7.36451C37.1581 7.34947 34.1918 7.35841 33.3933 7.35645C29.7072 7.34737 31.8358 7.33139 31.7409 7.32654C31.4951 7.31478 29.481 7.31515 29.397 7.31409C29.0487 7.30939 30.4759 7.30009 30.4975 7.29291C30.5235 7.28356 28.5821 7.2667 29.0234 7.26355C29.6552 7.25908 31.4394 7.27313 31.5525 7.27246C33.025 7.2634 31.0066 7.24181 30.4503 7.2312C30.2817 7.22794 30.9536 7.22257 30.8138 7.22162C28.6796 7.2071 30.3639 7.25196 28.9443 7.24896C27.6778 7.24629 29.3074 7.2321 29.259 7.23132C29.1965 7.23046 27.6821 7.22969 27.4451 7.22467C27.3283 7.22216 31.2642 7.19456 31.0998 7.18219C29.844 7.18491 28.5882 7.18764 27.3323 7.19037C27.2339 7.17423 29.0402 7.18611 29.227 7.18445C29.6031 7.18111 28.5544 7.17294 28.5994 7.16784C28.6235 7.1646 29.8544 7.15302 28.7424 7.14825C28.3602 7.1466 27.5582 7.15791 26.1662 7.14636C31.0104 7.1316 27.6535 7.12253 27.5107 7.11682C27.3708 7.1111 29.6835 7.09765 26.8763 7.10003C26.7546 7.06863 26.9368 7.09011 27.7345 7.08459C28.7116 7.07781 26.4533 7.06747 30.0246 7.07531C29.8214 7.06061 26.9509 7.06165 26.7989 7.06048C26.6677 7.05942 27.3058 7.05219 27.0783 7.04974C24.3872 7.02133 26.2356 7.0343 25.4562 7.01617C25.3868 7.01454 22.8434 7.00782 24.7797 7.00518C28.3074 7.00038 29.7818 7.02121 30.3746 6.97667C27.7653 6.95733 24.6037 6.98607 23.8105 6.98656C22.5964 6.98726 23.8541 6.97818 23.7045 6.97564C23.6525 6.97481 22.6063 6.97556 22.5922 6.97484C21.8462 6.94088 27.2498 6.97428 28.9511 6.96837C28.4951 6.96329 28.0391 6.9582 27.5831 6.95311C28.2017 6.95291 28.8204 6.95271 29.439 6.9525C26.4917 6.94228 29.3351 6.94863 30.0701 6.92113C30.235 6.91495 28.2988 6.92555 30.5075 6.90837C28.8785 6.90441 29.3981 6.89879 27.923 6.90654C27.961 6.89552 31.2799 6.88308 32.589 6.87743C27.9644 6.86504 30.6017 6.90547 26.6037 6.88408C25.8624 6.89773 27.7706 6.89507 27.615 6.89733C27.0567 6.90543 25.748 6.89256 24.1689 6.92095C23.9118 6.92561 24.9997 6.93995 23.3898 6.93926C23.2118 6.93916 22.186 6.9269 22.2002 6.92601C22.3362 6.91641 23.3513 6.92001 23.3932 6.916C23.4325 6.91221 22.3 6.91449 22.2961 6.91344C22.2613 6.90141 23.241 6.90884 23.0987 6.90508C22.7914 6.89689 18.7178 6.87101 24.0343 6.87859C19.6183 6.89218 23.4689 6.89187 25.1886 6.88664C25.6272 6.88533 25.7382 6.87815 26.3631 6.87566C27.1669 6.87243 28.1077 6.87588 28.5237 6.87456C28.971 6.8731 26.4293 6.85612 30.1054 6.86119C28.2345 6.8443 24.9298 6.86231 23.092 6.85045C19.3842 6.82648 25.6773 6.82134 26.3328 6.81901C26.5075 6.81838 25.9219 6.80868 26.0384 6.80809C26.2288 6.80718 29.8003 6.81166 30.1525 6.80363C30.5037 6.79561 28.8443 6.804 28.734 6.79564C28.6592 6.79 32.9678 6.78002 30.6354 6.77617C29.0278 6.77353 26.0647 6.79616 25.5655 6.77183C27.9297 6.76982 30.2938 6.7678 32.658 6.76579C31.364 6.75653 30.0701 6.74727 28.7761 6.73802C31.4296 6.73508 33.7236 6.74553 36.2438 6.73228C30.1878 6.70262 38.2101 6.70861 38.2983 6.705C38.3278 6.70284 35.9442 6.67876 35.5606 6.67436C37.6728 6.66509 44.0911 6.66057 40.336 6.63084C41.0176 6.63755 42.6681 6.62098 42.6464 6.61973C42.4368 6.60659 38.8369 6.61511 39.424 6.60325C40.1044 6.58948 41.0578 6.60816 42.1045 6.60666C47.4757 6.59889 46.0021 6.53032 51.3879 6.54117C51.2807 6.53873 51.1736 6.53629 51.0665 6.53385C56.9205 6.53773 62.7745 6.54162 68.6285 6.54551C70.9189 6.52457 77.0145 6.51182 80.0085 6.51413C80.6113 6.51458 83.5712 6.52557 83.7945 6.5275C84.2081 6.53119 81.9338 6.5326 82.9616 6.53952C83.1785 6.54094 88.1895 6.54556 87.8312 6.53385C87.2697 6.53249 85.5124 6.53838 85.2247 6.53562C83.2044 6.51591 98.6528 6.53165 99.4181 6.52371C99.076 6.51991 98.7338 6.51611 98.3917 6.5123C99.3665 6.51417 100.341 6.51604 101.316 6.51792ZM56.5217 7.45881C55.9367 7.47056 54.4703 7.46174 53.6039 7.46503C52.4069 7.46966 50.3721 7.51492 51.2482 7.46955C53.006 7.46597 54.7639 7.46239 56.5217 7.45881ZM82.2128 7.47633C81.034 7.47001 81.9483 7.44467 82.9144 7.45521C83.0216 7.4564 83.8076 7.48482 82.2128 7.47633ZM69.8552 7.4643C69.9048 7.46397 70.9235 7.46464 70.959 7.46503C71.8726 7.47521 68.8014 7.47313 69.8552 7.4643ZM129.551 7.4513C128.253 7.4524 129.193 7.47543 130.001 7.46595C130.051 7.46535 129.637 7.45125 129.551 7.4513ZM128.628 7.45069C127.619 7.43006 125.587 7.47187 127.202 7.46766C127.359 7.46723 128.674 7.4517 128.628 7.45069ZM78.0111 7.46626C78.1438 7.45835 79.3597 7.46217 79.8789 7.46406C79.8648 7.47128 78.5203 7.46537 78.0111 7.46626ZM108.839 7.46406C108.891 7.45784 104.665 7.45819 104.377 7.46638C105.044 7.4629 108.791 7.46964 108.839 7.46406ZM119.678 7.45533C119.57 7.45426 118.11 7.45589 118.153 7.46137C118.866 7.46857 120.16 7.46019 119.678 7.45533ZM141.219 7.4557C141.298 7.45432 140.205 7.41942 142.796 7.44239C143.176 7.44575 141.818 7.45487 141.953 7.45612C142.236 7.45857 142.46 7.4597 142.639 7.45991C141.433 7.4628 140.179 7.46416 140.058 7.46204C139.489 7.45205 141.184 7.45627 141.219 7.4557ZM152.528 7.42969C152.777 7.424 154.365 7.42705 154.726 7.42939C154.788 7.42983 154.518 7.44479 155.232 7.44367C155.806 7.44275 154.949 7.42743 156.067 7.42988C157.197 7.43234 155.687 7.44326 155.786 7.44404C155.918 7.44506 157.666 7.43818 157.612 7.44709C157.571 7.45369 155.699 7.44923 155.236 7.45063C154.643 7.45243 155.362 7.46343 154.371 7.46107C153.748 7.45959 154.093 7.44025 153.962 7.43928C153.852 7.43849 151.675 7.44962 152.532 7.42976C152.531 7.42973 152.529 7.42971 152.528 7.42969ZM142.966 7.45905C142.875 7.45971 142.768 7.46005 142.639 7.45991C142.749 7.45965 142.858 7.45934 142.966 7.45905ZM59.9274 7.45032C60.5402 7.45629 58.7215 7.46394 58.0327 7.45612C58.0208 7.44982 59.8299 7.4494 59.9274 7.45032ZM144.085 7.44331C145.877 7.44815 144.559 7.45481 142.966 7.45905C143.472 7.45541 143.483 7.44169 144.085 7.44331ZM93.1956 7.45136C93.2712 7.4528 93.3191 7.45505 93.3251 7.45875C93.1264 7.45471 93.1087 7.45254 93.1956 7.45136ZM97.377 7.45795C98.8105 7.4467 95.8981 7.44715 95.9165 7.45521C95.9252 7.45825 97.3196 7.4584 97.377 7.45795ZM131.217 7.4524C131.086 7.4513 133.123 7.41732 130.166 7.44282C131.744 7.44682 130.079 7.45052 130.103 7.4535C130.168 7.46205 132.819 7.45383 133.406 7.45753C133.866 7.44222 131.65 7.45603 131.221 7.4524C131.22 7.4524 131.218 7.4524 131.217 7.4524ZM172.911 7.43793C172.551 7.4469 171.412 7.44402 170.642 7.44349C171.002 7.43452 172.141 7.43741 172.911 7.43793ZM47.2476 42.5608C52.5178 42.5525 53.2005 42.589 48.3783 42.5746C48.2839 42.5743 46.9276 42.5645 47.2476 42.5608ZM92.4778 42.5702C92.9745 42.5862 91.331 42.5887 90.2517 42.5821C90.0074 42.5807 89.1043 42.5645 90.1356 42.5614C90.1027 42.5807 91.6975 42.5881 92.4778 42.5702ZM145.098 7.43311C145.62 7.4225 147.226 7.43005 148.073 7.43165C147.556 7.44039 145.846 7.43643 145.098 7.43311ZM64.5656 42.5798C65.1211 42.581 65.4962 42.5672 65.4002 42.566C64.971 42.5607 63.9327 42.5719 64.5656 42.5798ZM139.912 7.43146C139.838 7.42512 141.966 7.41902 142.114 7.4347C141.659 7.43356 139.964 7.43544 139.912 7.43146ZM171.46 7.43317C171.13 7.42995 172.841 7.42417 173.358 7.42737C173.317 7.43413 171.677 7.43527 171.46 7.43317ZM73.5091 42.5751C74.0066 42.5763 75.2493 42.5767 75.3869 42.5711C75.5578 42.5641 73.7355 42.5665 73.5091 42.5751ZM3.10102 16.3869C3.11817 16.3272 2.26441 18.0038 1.99378 18.796C1.39891 20.2676 2.96241 16.395 3.10102 16.3869ZM59.3073 42.587C57.7385 42.5738 59.4803 42.5866 59.4116 42.5727C58.356 42.5722 55.73 42.5715 57.5354 42.5851C57.8871 42.5878 58.8152 42.5861 59.3073 42.587ZM60.7544 42.5916C60.9226 42.5871 62.0532 42.573 61.0758 42.574C60.6239 42.5745 59.8955 42.5902 60.7544 42.5916ZM1.05456 27.6419C1.18336 28.4285 0.831877 26.6797 0.850551 25C0.844369 23.7821 1.01079 22.627 1.02267 22.5534C1.03697 22.459 1.0473 22.3975 1.05346 22.3625C1.07315 22.1302 1.30662 20.9639 1.35859 20.8349C1.2657 21.1796 1.08784 22.1357 1.07512 22.2493C1.06707 22.2976 1.06117 22.3336 1.05703 22.3581C1.02804 22.5595 0.855821 23.7778 0.86279 25C0.852553 26.2616 1.03405 27.5128 1.05456 27.6419ZM5.49436 36.916C4.42994 35.756 4.33317 35.4753 4.40585 35.5914C5.47845 36.9239 4.76818 36.0638 4.79714 36.1078C4.86305 36.2089 5.68014 37.1095 5.49102 36.9124C5.49213 36.9136 5.49324 36.9148 5.49436 36.916ZM1.49658 29.7334C1.46675 29.6739 1.16642 28.388 1.16881 28.3333C1.07844 27.801 1.18593 28.4535 1.33669 29.0834C1.48509 29.7117 1.67119 30.3148 1.49658 29.7334ZM161.053 7.40815C162.02 7.41121 161.071 7.42254 160.429 7.41846C160.376 7.41806 160.2 7.40544 161.053 7.40815ZM61.5267 42.5886C61.751 42.5907 67.4864 42.5988 67.1418 42.5817C66.6548 42.5837 60.1355 42.5749 61.5267 42.5886ZM104.39 42.5927C103.378 42.5926 104.481 42.5764 105.02 42.5825C105.221 42.5847 104.644 42.5927 104.39 42.5927ZM137.043 7.41682C135.993 7.42568 136.21 7.39594 137.12 7.40613C137.156 7.40653 137.084 7.41647 137.043 7.41682ZM96.3093 42.5834C99.7974 42.5736 98.9714 42.6248 94.4365 42.6075C94.5784 42.6053 94.7203 42.603 94.8622 42.6007C89.6279 42.593 94.5042 42.5971 95.786 42.5942C96.2731 42.5931 95.8647 42.5846 96.3059 42.5834C96.307 42.5834 96.3082 42.5834 96.3093 42.5834ZM109.708 42.5937C113.068 42.63 106.655 42.6063 104.815 42.6111C106.598 42.5961 108.92 42.5984 105.763 42.583C110.379 42.58 108.457 42.5945 108.642 42.5957C108.86 42.597 109.565 42.5921 109.708 42.5937ZM100.847 42.5939C100.653 42.595 99.1903 42.5876 98.6634 42.5888C99.4003 42.5764 102.137 42.5867 100.847 42.5939ZM14.8621 42.2214C14.7444 42.2009 14.4497 42.176 13.3653 41.8564C13.6996 41.955 14.3976 42.1333 14.8621 42.2214ZM55.4111 7.40766C54.616 7.40696 53.0326 7.4033 53.5181 7.41352C53.5713 7.41439 55.4087 7.4134 55.4111 7.40766ZM78.1852 42.5964C78.3544 42.5976 82.728 42.5984 81.2174 42.5877C80.7618 42.5845 76.7823 42.5858 78.1852 42.5964ZM55.5364 42.5952C55.9024 42.5953 57.3894 42.5935 57.421 42.5912C57.5216 42.5832 55.6964 42.5876 55.5364 42.5952ZM51.3996 7.39771C51.2949 7.3967 48.8661 7.39849 49.1331 7.4032C49.6399 7.41212 51.7586 7.40118 51.3996 7.39771ZM164.571 7.38538C164.774 7.38502 165.043 7.39558 165.113 7.3957C165.278 7.39585 168.995 7.39179 167.575 7.40534C167.338 7.40761 161.991 7.40241 161.295 7.40107C161.026 7.38657 163.31 7.40036 163.866 7.39887C163.964 7.39859 164.027 7.38646 164.57 7.38544C164.57 7.38542 164.571 7.3854 164.571 7.38538ZM9.4077 40.1044C9.19266 40.1347 5.8409 37.4741 5.9622 37.4133C6.99373 38.4483 8.15389 39.3549 9.4077 40.1044ZM11.332 41.1032C12.1643 41.4776 10.2057 40.6209 9.67771 40.2714C9.66612 40.28 11.2015 41.0684 11.332 41.1032ZM63.8236 42.6296C64.2626 42.6274 62.9124 42.6139 63.2145 42.6113C63.408 42.6097 64.3891 42.6147 64.7019 42.6105C64.7907 42.6092 63.79 42.5966 63.5005 42.5971C63.0894 42.5978 63.4881 42.6078 63.0395 42.6078C61.5499 42.6081 60.2292 42.601 58.8328 42.6011C58.7067 42.6012 59.6846 42.6082 58.609 42.6081C58.4428 42.6081 57.4441 42.5976 56.1573 42.5992C53.3156 42.6316 51.229 42.5998 47.6228 42.6114C47.7589 42.6145 50.4558 42.6227 50.6146 42.623C53.629 42.6283 59.0292 42.6289 62.1863 42.629C62.9964 42.629 62.6031 42.6221 62.952 42.6219C63.2277 42.6217 62.8999 42.6344 63.8236 42.6296ZM55.8335 7.40064C55.4545 7.38796 54.125 7.39599 53.2758 7.39533C53.5747 7.40677 55.0037 7.39783 55.8335 7.40064ZM30.5739 42.6069C30.9996 42.6064 32.3192 42.6102 32.4283 42.6064C32.5687 42.6014 30.664 42.5982 30.5739 42.6069ZM185.448 7.64499C185.489 7.6446 186.47 7.84561 186.505 7.86155C187.379 8.05149 184.435 7.45876 185.448 7.64499ZM200.034 24.322C200.043 24.551 200.048 24.7819 200.049 25C200.05 25.5034 200.027 25.9248 200.008 26.1044C200.025 25.8609 200.044 25.399 200.043 25C200.043 24.601 200.029 24.2778 200.034 24.322ZM177.613 42.6089C177.773 42.6224 175.436 42.6136 174.995 42.6124C175.158 42.6064 177.495 42.5992 177.613 42.6089ZM15.0148 42.2954C13.6477 41.9987 13.9318 42.0708 13.0832 41.8104C12.9472 41.7558 12.5057 41.6083 13.9787 42.0403C14.2484 42.1029 13.1875 41.8828 15.0148 42.2954ZM93.6978 42.6071C93.3344 42.616 92.1987 42.6134 91.4312 42.6127C91.6033 42.606 93.1518 42.6077 93.6978 42.6071ZM47.0129 7.38752C46.3428 7.37493 43.2465 7.38427 44.0127 7.39258C44.1216 7.39367 46.5785 7.38704 47.0129 7.38752ZM148.731 7.39246C150.005 7.38255 147.366 7.37948 146.533 7.38917C146.91 7.38853 148.645 7.39311 148.731 7.39246ZM185.644 42.3254C185.587 42.3487 184.278 42.5331 184.217 42.5266C183.678 42.569 184.34 42.5199 184.981 42.4264C185.623 42.3346 186.238 42.2039 185.644 42.3254ZM198.027 16.7674C198.322 17.1549 199.466 20.0808 199.55 20.7881C199.513 20.0885 197.818 16.2119 198.027 16.7674ZM20.801 42.6218C19.9836 42.6221 19.1998 42.6206 18.4385 42.6181C18.2532 42.6175 18.07 42.614 17.8887 42.6077C17.939 42.6074 18.1499 42.6135 18.4385 42.6134C19.2696 42.613 20.7214 42.618 20.801 42.6218ZM180.771 42.6171C180.699 42.617 180.628 42.6162 180.559 42.6161C180.631 42.6164 180.702 42.6168 180.771 42.6171ZM43.6163 42.6266C44.4706 42.6293 44.2932 42.6167 44.2406 42.6163C43.5979 42.6123 42.6493 42.6235 43.6163 42.6266ZM54.8575 7.38196C54.5614 7.37061 53.1247 7.37942 52.2982 7.37671C52.538 7.38568 54.1918 7.38315 54.8575 7.38196ZM113.306 42.6169C114.379 42.6292 110.013 42.6435 109.093 42.6356C109.025 42.628 113.149 42.6153 113.306 42.6169ZM144.775 7.37543C144.689 7.36654 142.856 7.37727 143.245 7.38147C143.492 7.38415 144.826 7.38096 144.775 7.37543ZM106.897 42.6304C106.486 42.6331 105.53 42.6244 105.867 42.619C106.299 42.6122 107.003 42.6297 106.897 42.6304ZM70.0882 42.6376C70.2676 42.6389 72.6799 42.6298 71.6833 42.6207C70.9918 42.6144 70.8817 42.6273 70.7192 42.6273C70.5375 42.6273 66.6649 42.6115 70.0882 42.6376ZM137.762 42.6247C136.852 42.6281 135.751 42.6241 134.799 42.6244C135.187 42.6189 137.375 42.6174 137.762 42.6247ZM151.845 7.37305C151.624 7.36945 145.603 7.36729 149.023 7.37836C149.223 7.37899 152.517 7.38395 151.845 7.37305ZM15.0148 42.2954C15.1874 42.3294 15.3875 42.3667 15.6212 42.4051C15.389 42.3675 15.1885 42.33 15.0148 42.2954ZM31.1494 42.6289C30.8205 42.6354 32.4777 42.6371 32.9667 42.6337C33.1173 42.6258 31.1947 42.628 31.1494 42.6289ZM134.726 42.6334C134.178 42.6371 133.181 42.6332 132.502 42.6336C132.617 42.6276 134.489 42.6273 134.726 42.6334ZM173.268 42.6402C172.178 42.6366 170.837 42.6383 170.816 42.6456C170.794 42.6445 170.741 42.6433 170.653 42.642C170.565 42.6408 169.397 42.6442 168.89 42.6417C165.853 42.6268 180.617 42.6329 172.06 42.6537C172.463 42.6492 172.865 42.6447 173.268 42.6402ZM195.627 13.2818C195.248 12.805 193.995 11.6559 194.314 11.9607C194.565 12.1439 196.034 13.7322 195.627 13.2818ZM197.046 34.9053C197.167 34.7674 198.011 33.3391 198.011 33.2905C197.579 34.1421 196.57 35.5805 197.046 34.9053ZM192.116 10.234C191.799 10.0222 191.374 9.78697 191.412 9.81075C191.746 10.0049 192.643 10.5951 192.116 10.234ZM17.8905 42.6582C18.0189 42.663 18.2116 42.6677 18.4385 42.6672C19.2209 42.6659 20.3917 42.658 20.7017 42.6506C20.7763 42.6525 20.9774 42.6549 21.3462 42.6578C21.3451 42.6578 21.3439 42.6578 21.3428 42.6578C21.8406 42.6616 36.7242 42.6658 26.7408 42.6475C26.4282 42.6469 26.8552 42.6554 25.5831 42.6539C25.499 42.6538 25.4573 42.6468 25.1978 42.6465C24.6003 42.6457 21.4186 42.6413 20.7791 42.647C20.7737 42.6457 20.7323 42.6444 20.6445 42.6433C20.1748 42.6373 19.116 42.6456 18.4385 42.654C17.9906 42.6591 17.7146 42.6501 17.8905 42.6582ZM194.958 37.4397C195.202 37.2111 195.904 36.421 195.964 36.3284C195.643 36.7446 194.407 37.984 194.958 37.4397ZM151.658 7.34772C150.965 7.34264 149.207 7.35214 149.738 7.35718C150.064 7.36029 152.458 7.35355 151.658 7.34772ZM199.793 28.2069C198.883 31.9946 199.592 29.115 199.462 29.6976C199.594 29.2053 199.705 28.7067 199.793 28.2069ZM3.10173 33.7277C3.4149 34.265 3.0172 33.6495 2.71524 33.0347C2.62003 32.8423 2.92692 33.4264 3.10173 33.7277ZM10.0154 9.48716C9.52888 9.70227 11.8598 8.56841 10.9546 9.01672C10.9101 9.03074 10.0456 9.46405 10.0154 9.48716ZM0.796026 25.676C0.82998 26.0957 0.819639 26.3728 0.975924 27.5524C0.770433 25.8036 0.908861 27.4318 0.796026 25.676ZM170.828 42.6468C170.821 42.6464 170.815 42.646 170.816 42.6456C170.824 42.646 170.828 42.6464 170.828 42.6468ZM188.864 8.55594C188.417 8.35421 187.107 7.95684 187.494 8.08544C187.534 8.08806 188.679 8.47832 188.864 8.55594ZM20.7017 42.6506C20.6355 42.649 20.6693 42.6479 20.7791 42.647C20.7842 42.6482 20.7558 42.6493 20.7017 42.6506ZM194.965 12.5549C194.945 12.5064 196.329 14.0634 196.358 14.1481C197.096 15.0896 195.608 13.1342 194.965 12.5549ZM137.618 7.33814C137.509 7.33885 138.215 7.35645 138.648 7.34955C138.983 7.3442 138.028 7.33543 137.618 7.33814ZM1.09543 21.654C1.21319 21.0043 1.46019 20.1078 1.52085 19.9478C1.37858 20.3666 1.0889 21.668 1.09543 21.654ZM9.13235 9.98787C8.46492 10.3915 7.02992 11.4551 6.22215 12.2582C6.16257 12.2243 8.46867 10.3171 9.13235 9.98787ZM16.1073 42.5092C16.1589 42.5359 17.8094 42.6704 17.5848 42.6371C17.2521 42.6295 15.6449 42.4503 16.1073 42.5092ZM140.893 7.34748C141.647 7.34151 139.911 7.32319 139.116 7.33734C138.707 7.34459 140.766 7.34848 140.893 7.34748ZM184.738 7.48638C183.77 7.36043 186.164 7.69808 186.489 7.80962C186.052 7.69863 185.082 7.52231 184.738 7.48638ZM198.426 32.5371C199.645 29.7096 198.945 31.2368 198.757 31.7481C198.733 31.8209 198.397 32.6067 198.426 32.5371ZM39.2322 7.33533C38.7883 7.33896 40.4433 7.3521 40.6574 7.34345C40.7898 7.33803 39.5161 7.33302 39.2322 7.33533ZM155.566 42.6541C155.699 42.654 155.83 42.6539 155.96 42.6539C155.863 42.6543 155.734 42.6544 155.566 42.6541ZM175.754 7.3031C177.962 7.33997 177.73 7.31155 177.922 7.31171C178.336 7.31211 179.299 7.32207 180.08 7.32044C179.186 7.32459 178.291 7.32874 177.397 7.33289C177.85 7.33459 180.535 7.34078 182.438 7.34343C183.487 7.34405 184.286 7.4426 184.332 7.44344C184.514 7.43419 182.624 7.31347 182.566 7.337C182.541 7.33649 182.495 7.33371 182.438 7.33038C182.311 7.32298 182.129 7.31154 182.005 7.31092C181.711 7.30948 176.577 7.30899 175.754 7.3031ZM200.055 26.3477C200.013 26.8398 199.984 26.9789 199.959 27.2075C199.95 27.2851 199.958 27.2993 199.923 27.5637C199.981 27.1613 200.025 26.7532 200.055 26.3477ZM171.802 7.33625C171.177 7.32532 173.978 7.32947 174.068 7.33069C174.547 7.3381 172.312 7.34517 171.802 7.33625ZM194.216 11.8331C194.161 11.7416 192.499 10.4376 192.493 10.4755C192.987 10.75 195.097 12.6283 194.216 11.8331ZM199.873 27.8904C199.768 28.6254 199.394 29.9799 199.445 29.8265C199.445 29.8255 199.445 29.8244 199.445 29.8234C199.624 29.1867 199.767 28.5423 199.873 27.8904ZM143.474 7.31903C142.073 7.29758 142.737 7.32469 143.977 7.33161C144.353 7.32198 143.704 7.32252 143.474 7.31903ZM138.991 7.30304C138.602 7.29918 134.586 7.30341 135.199 7.31476C135.416 7.31881 137.726 7.3086 137.832 7.30939C137.993 7.31055 137.257 7.32311 138.488 7.32062C138.416 7.31637 139.125 7.30433 138.991 7.30304ZM142.315 7.3053C140.923 7.28899 140.61 7.31907 141.657 7.31916C142.066 7.31921 142.513 7.30765 142.315 7.3053ZM148 7.30786C147.499 7.30501 146.165 7.30085 145.246 7.31085C146.476 7.31171 147.707 7.31256 148.938 7.31342C149.079 7.30775 148.438 7.31037 147.997 7.30786C147.998 7.30786 147.999 7.30786 148 7.30786ZM16.8379 7.33398C15.7531 7.41873 18.2525 7.21053 18.3638 7.25321C18.679 7.25396 17.3228 7.27881 16.8379 7.33398ZM30.5934 7.062C30.2861 7.0586 30.0852 7.04741 29.4088 7.05328C30.0891 7.06154 30.7695 7.0698 31.4498 7.07806C31.9786 7.05913 30.9292 7.06576 30.5934 7.062ZM27.9953 6.99285C28.0914 6.99239 27.5664 6.96329 28.808 6.98272C29.647 6.99584 25.0849 7.00862 24.2615 6.99572C25.1714 6.98972 27.168 6.99659 27.9953 6.99285ZM20.0043 6.86687C19.9517 6.86455 21.6849 6.86114 21.8855 6.86278C22.9389 6.8714 20.2889 6.8793 20.0043 6.86687ZM25.5336 6.87242C24.7207 6.86677 26.5214 6.86313 27.0581 6.86638C27.1101 6.8718 25.6591 6.87325 25.5336 6.87242ZM6.56784 11.2581C5.88675 11.8285 5.34978 12.4154 6.3403 11.4772C6.38803 11.4331 6.59681 11.2339 6.56784 11.2581ZM21.6987 6.83751C22.5116 6.84316 20.7109 6.8468 20.1742 6.84355C20.1243 6.83814 21.575 6.83668 21.6987 6.83751ZM6.07036 11.6401C5.20534 12.4457 5.5467 12.1982 5.64924 12.0926C6.06296 11.6461 7.6625 10.3101 8.0274 10.0867C5.54835 11.9761 6.50907 11.2987 6.07036 11.6401ZM2.70322 15.8939C2.15247 16.8394 3.58167 14.4351 3.9422 14.0342C3.60202 14.4591 2.84676 15.6177 2.70322 15.8939ZM0.473455 22.1151C0.354834 22.6924 0.225748 24.4429 0.249528 24.7369C0.232619 24.0948 0.422809 22.3571 0.473455 22.1151ZM0.28966 23.4359C0.21326 24.3557 0.234916 24.5788 0.293707 23.5164C0.29664 23.4753 0.293101 23.4023 0.28966 23.4359ZM0.567354 28.5957C0.675826 29.193 0.872437 29.8545 0.649322 28.9008C0.587818 28.6154 0.556675 28.5329 0.567354 28.5957ZM4.98918 12.653C4.40212 13.2929 3.70652 14.1674 4.91269 12.7633C4.47874 13.2474 4.07054 13.7546 3.69063 14.2818C5.17627 12.3678 5.12256 12.5521 5.59371 12.0415C6.29339 11.3648 6.26489 11.4478 6.12301 11.5817C6.65474 10.984 9.39611 8.94502 11.2421 8.24486C9.63693 8.87828 7.26943 10.4123 6.04719 11.6C5.68996 11.9287 5.36281 12.2678 5.08056 12.5702C4.63186 13.0586 5.02202 12.6172 4.99149 12.6505C4.99072 12.6513 4.98995 12.6522 4.98918 12.653ZM3.11617 34.8742C4.11061 36.349 3.47457 35.4198 2.93738 34.572C2.91389 34.536 3.09168 34.8374 3.11617 34.8742ZM19.3699 6.74955C21.7163 6.76165 20.0108 6.77769 24.9194 6.75334C22.8572 6.77057 24.8053 6.76573 24.4028 6.77269C24.0799 6.77819 22.8699 6.77363 23.5732 6.78471C22.6488 6.77265 18.6352 6.77599 18.4562 6.77403C18.4579 6.77403 18.4596 6.77403 18.4613 6.77403C18.3538 6.77287 18.6212 6.74571 19.3699 6.74955ZM0.397365 22.1116C0.277712 22.6943 0.28173 22.9307 0.183743 24.0963C0.184422 24.8735 0.172086 23.7966 0.358627 22.4513C0.527971 21.1029 1.00059 19.525 1.13944 19.1987C0.259151 22.2479 0.588893 21.2505 0.900812 20.0012C1.26055 18.7648 1.8239 17.3408 1.04829 19.4187C2.3465 16.0048 1.46378 18.2956 1.65458 17.7645C1.85575 17.1911 2.87144 15.3856 2.82416 15.4802C2.82356 15.4812 2.82297 15.4821 2.82237 15.4831C2.16311 16.5642 1.61683 17.7137 1.19603 18.9077C1.64303 17.7528 0.743751 20.1776 0.58186 21.0455C0.509391 21.401 0.448556 21.7531 0.397365 22.1116ZM2.89048 15.4547C2.77929 15.5352 1.54735 17.9914 1.66143 17.8493C1.71534 17.4653 3.70806 14.1127 2.89048 15.4547ZM12.0521 7.90095C11.1209 8.23092 9.75337 8.91717 9.29998 9.20769C10.1466 8.6975 11.5477 8.08658 12.0521 7.90095ZM18.4402 43.2499C18.8222 43.2472 18.7245 43.2451 18.4385 43.2438C17.7831 43.2609 16.1758 43.1151 16.9464 43.1888C17.0007 43.2058 18.354 43.2627 18.4385 43.2499C18.4391 43.2499 18.4397 43.2499 18.4402 43.2499ZM0.175614 24.9638C0.175488 24.976 0.175378 24.9881 0.175284 25C0.184308 26.0923 0.199855 25.7458 0.191601 25C0.191575 24.9025 0.191895 24.7984 0.192687 24.6899C0.192821 24.6349 0.175653 24.9042 0.175614 24.9638ZM21.2713 6.7454C21.3557 6.73703 24.7601 6.74291 25.3636 6.74284C25.0207 6.75062 21.1746 6.755 21.2713 6.7454ZM13.6975 7.34171C11.7637 7.77368 9.40302 9.07755 9.16869 9.24685C8.91816 9.39446 9.30399 9.1507 9.24696 9.18443C9.08048 9.20561 6.55624 11.0104 6.48313 11.1601C6.40256 11.2309 6.8382 10.878 6.35935 11.3015C7.14841 10.2595 12.1883 7.60932 12.5446 7.70242C12.7642 7.64048 11.1144 8.12074 13.6942 7.3426C13.6953 7.3423 13.6964 7.34201 13.6975 7.34171ZM8.54421 9.62742C9.19559 9.20924 7.37984 10.3996 6.98994 10.7566C6.06912 11.4742 8.42677 9.63366 8.54421 9.62742ZM4.60932 13.0351C4.41782 13.1991 3.08124 14.9976 3.01484 15.1819C3.56262 14.2708 4.97524 12.6072 4.60932 13.0351ZM3.86906 36.0508C4.20546 36.5266 5.27279 37.7188 5.35284 37.7689C4.92965 37.3669 3.91871 36.1281 3.86906 36.0508ZM32.8868 6.6796C31.9361 6.6733 34.1389 6.67072 34.7815 6.67374C34.8164 6.67877 32.9678 6.68015 32.8868 6.6796ZM0.104381 25.1823C0.102898 25.3532 0.11662 27.2119 0.563707 29.0941C0.973667 30.982 1.83467 32.8153 2.06659 33.2475C1.84373 32.8224 0.994751 31.0087 0.586041 29.1444C0.140921 27.2852 0.118274 25.4513 0.116144 25.2955C0.113859 25.203 0.104379 25.1381 0.104381 25.1823ZM5.93632 11.5837C6.40171 11.1355 6.73955 10.8811 6.8018 10.8289C7.40633 10.3046 8.79041 9.3924 8.49434 9.60382C7.2595 10.3066 5.0142 12.4821 5.93632 11.5837ZM4.13722 36.4756C5.65058 38.3251 2.7938 34.7334 3.19444 35.1846C3.20662 35.2234 3.97147 36.2911 4.13722 36.4756ZM0.110095 24.3937C0.110309 24.1349 0.179606 22.2236 0.698966 20.3194C1.18159 18.4029 2.125 16.5696 2.40859 16.0839C1.93732 16.9795 1.56412 17.7104 1.11039 18.9937C0.991938 19.3411 1.0314 19.2511 1.01859 19.2884C0.826064 19.8951 0.961107 19.4382 0.84733 19.813C0.808852 19.9298 0.439762 21.2317 0.282732 22.4479C0.110129 23.6621 0.110826 24.7652 0.110095 24.3937ZM6.20327 11.3293C6.40954 10.9539 10.0806 8.50968 10.3041 8.54305C10.908 8.26683 9.84077 8.73011 8.68528 9.46052C7.51875 10.1759 6.32627 11.212 6.20327 11.3293ZM0.0855934 25.0412C0.0852382 25.0283 0.0849038 25.0145 0.0845954 25C-0.00428091 24.1596 0.46096 20.8398 0.177836 23.181C0.152756 23.4024 0.075396 24.3337 0.0853054 25C0.0853812 25.0139 0.0854774 25.0276 0.0855934 25.0412ZM3.96422 36.2867C4.00412 36.4067 5.68066 38.2566 5.74592 38.2552C5.41926 38.0656 3.12836 35.2394 3.96422 36.2867ZM3.18723 35.2514C3.22416 35.2992 2.89352 34.816 3.56585 35.7746C3.63087 35.847 3.68998 36.0329 4.65353 37.1465C4.85058 37.371 5.17551 37.7009 5.15323 37.6759C3.993 36.6406 1.57603 32.6887 3.18723 35.2514ZM6.25629 11.2677C6.07588 11.4222 6.48849 11.0237 6.89691 10.7068C7.07304 10.5725 6.75007 10.8304 6.25629 11.2677ZM10.0011 41.3098C8.68482 40.6963 12.8094 42.6413 13.0846 42.576C12.9239 42.5861 10.1051 41.4329 10.0011 41.3098ZM35.113 6.60184C35.1119 6.60184 35.1108 6.60184 35.1097 6.60184C36.3064 6.60413 35.5651 6.61251 35.6212 6.61277C38.1703 6.62508 37.4942 6.6061 37.8928 6.60386C38.7476 6.59901 38.6098 6.62209 40.0517 6.61252C37.6684 6.62666 39.8378 6.62073 39.9053 6.62894C40.1724 6.66245 36.7321 6.61325 35.5438 6.62028C35.3782 6.62125 36.6007 6.63194 36.1765 6.63499C34.7973 6.64484 30.5209 6.59311 35.113 6.60184ZM7.20849 10.4585C7.57792 9.98931 11.3637 7.93969 10.3687 8.49919C10.1386 8.46899 6.51145 10.9132 7.20849 10.4585ZM170.446 43.3867C169.434 43.3952 171.78 43.4052 172.215 43.3986C172.43 43.3953 170.891 43.3829 170.446 43.3867ZM186.952 42.8661C188.147 42.5634 189.35 42.0678 187.902 42.566C187.751 42.6213 186.815 42.9001 186.952 42.8661ZM107.921 43.4049C109.177 43.4176 109.102 43.394 108.181 43.3943C107.855 43.3944 107.882 43.4045 107.921 43.4049ZM155.851 43.4018C155.976 43.4026 157.428 43.4011 157.375 43.3957C156.839 43.3925 155.038 43.3962 155.851 43.4018ZM107.523 43.4082C108.267 43.404 106.986 43.3869 106.076 43.4036C106.538 43.4022 107.446 43.4087 107.523 43.4082ZM0.22792 27.685C0.310128 28.3186 0.696116 30.0836 1.06182 31.0554C1.04508 31.1786 0.273074 28.4317 0.22792 27.685ZM181.787 43.4088C182.926 43.4 180.487 43.3928 180.711 43.4044C180.742 43.4051 181.743 43.4092 181.787 43.4088ZM67.406 43.4095C68.2336 43.402 65.6059 43.392 66.3291 43.4051C66.3647 43.4057 67.3606 43.4099 67.406 43.4095ZM55.9318 43.4052C56.5596 43.4077 59.2371 43.4069 58.195 43.3996C58.0332 43.3985 55.979 43.3983 55.9318 43.4052ZM37.9635 6.59482C37.6252 6.58193 39.5888 6.585 39.8699 6.58725C39.9804 6.58819 38.4047 6.61159 37.9635 6.59482ZM116.077 43.4069C116.727 43.4053 118.412 43.4083 118.709 43.4016C117.914 43.403 115.864 43.3934 116.077 43.4069ZM176.596 43.4089C177.588 43.4229 179.282 43.4215 178.863 43.4032C176.992 43.4044 179.094 43.4197 176.596 43.4089ZM103.338 43.4233C103.859 43.4244 104.258 43.4068 104.199 43.406C103.635 43.3981 102.82 43.4165 103.338 43.4233ZM142.438 43.4088C142.468 43.4163 144.138 43.4129 143.916 43.4081C143.842 43.4065 142.414 43.4028 142.438 43.4088ZM14.6143 43.0115C15.3785 43.189 13.0372 42.6807 12.3834 42.3961C12.0526 42.3032 14.5055 43.0334 14.6143 43.0115ZM88.8887 43.4189C88.811 43.4301 91.4217 43.4238 90.393 43.4145C90.1355 43.4122 88.9159 43.4152 88.8887 43.4189ZM63.8959 43.4323C65.6471 43.419 58.2937 43.4095 60.226 43.4261C60.3642 43.4273 63.7435 43.4334 63.8959 43.4323ZM51.8867 43.424C52.1888 43.4254 52.0383 43.4629 50.7879 43.4485C50.6238 43.4466 51.3915 43.4367 51.2574 43.4344C51.1785 43.4331 48.4599 43.4279 48.3346 43.4287C48.1999 43.4297 48.3585 43.4417 48.2218 43.4431C48.0678 43.4446 46.3943 43.434 45.5178 43.4339C43.8661 43.4337 43.6878 43.4437 43.5524 43.4438C43.1578 43.4438 42.4946 43.4367 41.6947 43.4367C37.663 43.4368 31.4967 43.4453 28.3006 43.4241C31.1449 43.4326 33.8552 43.4236 36.6854 43.4208C35.8566 43.4417 40.849 43.4047 37.9289 43.4288C39.2734 43.4236 50.8964 43.4194 51.8833 43.424C51.8845 43.424 51.8856 43.424 51.8867 43.424ZM191.458 41.0801C190.836 41.5154 194.111 39.4217 194.291 39.1123C193.934 39.4896 191.565 41.0763 191.458 41.0801ZM174.15 43.4648C173.798 43.467 173.464 43.492 171.617 43.4793C171.616 43.4793 171.614 43.4793 171.612 43.4793C171.073 43.4756 171.688 43.4695 171.589 43.4674C171.553 43.4665 169.869 43.4541 171.267 43.4521C173.4 43.449 171.468 43.4706 172.605 43.4709C172.744 43.4709 174.896 43.4574 174.771 43.4544C174.758 43.4541 174.11 43.457 174.003 43.4557C173.6 43.4511 173.796 43.4433 173.739 43.4429C173.553 43.4419 170.15 43.4552 169.655 43.4436C169.495 43.4399 175.08 43.4312 175.297 43.4332C175.435 43.4344 175.377 43.4561 175.52 43.4582C175.593 43.4593 177.839 43.4512 178.131 43.4532C178.216 43.4537 178.28 43.4543 178.328 43.4549C177.988 43.4482 180.022 43.4486 179.96 43.4562C179.925 43.4592 178.524 43.4575 178.474 43.4569C178.452 43.4567 178.433 43.4564 178.415 43.4562C178.705 43.4644 173.964 43.464 174.988 43.4762C173.613 43.4828 175.183 43.4583 174.15 43.4648ZM167.544 43.4782C167.686 43.4759 167.827 43.4736 167.969 43.4713C165.563 43.4769 162.787 43.4659 160.015 43.466C159.312 43.466 160.121 43.48 159.199 43.4762C158.461 43.4731 157.643 43.4602 158.045 43.4573C158.143 43.4566 159.646 43.465 160.399 43.4641C162.621 43.4616 162.059 43.4496 162.189 43.4493C162.333 43.449 163.731 43.4574 164.495 43.457C166.415 43.456 167.291 43.4487 169.915 43.4583C168.401 43.4662 169.23 43.4833 167.544 43.4782ZM77.8621 43.4527C77.7707 43.4602 76.1962 43.4536 75.6242 43.4547C75.7142 43.4471 77.2898 43.4538 77.8621 43.4527ZM108.94 6.53751C108.457 6.54985 112.081 6.55291 111.126 6.54264C110.915 6.54036 109.396 6.5376 108.94 6.53751ZM125.224 6.54502C125.708 6.5416 123.756 6.53272 123.76 6.54227C123.763 6.54533 125.161 6.54546 125.224 6.54502ZM136.443 43.466C136.351 43.4664 135.017 43.4637 134.975 43.463C134.092 43.4499 138.482 43.4575 136.443 43.466ZM145.019 6.52982C143.329 6.53791 148.415 6.54142 146.861 6.5311C146.784 6.5306 145.1 6.52943 145.019 6.52982ZM152.089 6.52756C151.684 6.52799 149.885 6.52398 149.861 6.52774C149.825 6.53382 151.885 6.53797 152.089 6.52756ZM102.986 43.4699C103.181 43.4838 100.809 43.4733 99.9843 43.4751C99.7884 43.4611 102.162 43.4717 102.986 43.4699ZM117.96 43.4802C107.959 43.4912 110.164 43.4614 118.556 43.4734C118.568 43.4823 118.591 43.4795 117.96 43.4802ZM105.153 43.4785C105.517 43.4696 106.653 43.4723 107.42 43.473C107.282 43.4792 105.707 43.4769 105.153 43.4785ZM104.624 6.5184C105.252 6.50715 108.029 6.52103 107.535 6.52567C107.42 6.52667 104.394 6.52459 104.624 6.5184ZM135.605 43.4779C135.838 43.4915 132.834 43.4859 132.605 43.4829C131.678 43.4709 135.362 43.4809 135.605 43.4779ZM88.7911 43.4818C88.2608 43.4924 86.7546 43.487 85.7858 43.4868C86.2269 43.4778 87.9691 43.4816 88.7911 43.4818ZM95.7843 43.4901C95.7235 43.4905 94.3724 43.4896 94.312 43.4891C93.2049 43.4788 97.027 43.4814 95.7843 43.4901ZM33.4539 6.50009C33.4989 6.49975 34.5221 6.50043 34.5577 6.50083C35.471 6.511 32.4002 6.50892 33.4539 6.50009Z" fill="white"/>
<g filter="url(#filter0_d_570_670)">
<path d="M36.4365 27.7C36.4965 27.74 36.5165 27.8 36.5165 27.84C36.5165 27.98 36.3565 28.1 36.1965 27.98C35.4165 27.4 34.5965 26.9 33.7365 26.48C32.3965 29.1 30.5965 31.26 28.2365 33.1C28.1765 33.14 28.1565 33.14 28.1165 33.14C27.9765 33.14 27.8965 33 28.0165 32.86C29.7565 30.9 31.1965 28.5 32.2565 25.84C31.1365 25.4 29.9165 25.08 28.6565 24.86C28.5165 24.84 28.4565 24.74 28.4565 24.66C28.4565 24.58 28.5565 24.48 28.6965 24.5C29.9965 24.72 31.2365 25.06 32.3965 25.5C33.1365 23.62 33.6965 21.64 34.0565 19.56H28.9765C28.2365 21.94 26.8965 24.26 25.4765 25.9C25.3565 26.04 25.1965 25.98 25.1965 25.84C25.1965 25.8 25.1965 25.78 25.2165 25.74C26.3765 23.42 27.1965 20.64 27.5965 18.24H27.0165C26.9165 18.24 26.8565 18.18 26.8565 18.08C26.8565 17.98 26.9165 17.92 27.0165 17.92H28.6565C29.1165 17.94 29.3365 18.24 29.2165 18.7C29.1765 18.88 29.1165 19.06 29.0765 19.24H35.2365C35.7765 19.24 36.0365 19.56 35.9165 20.1C35.4365 22.34 34.7765 24.36 33.8965 26.16C34.7765 26.6 35.6365 27.12 36.4365 27.7ZM52.0765 33H50.9365V24.18C49.2365 25.3 47.3165 26.12 45.1565 26.78C45.0165 26.82 44.9365 26.74 44.9365 26.66C44.9365 26.56 44.9765 26.52 45.0565 26.48C49.0965 24.64 51.9165 22 53.9365 18.46H53.0165C52.9165 18.46 52.8565 18.4 52.8565 18.3C52.8565 18.2 52.9165 18.14 53.0165 18.14H55.1765C55.6165 18.14 55.8565 18.34 55.8565 18.64C55.8565 18.76 55.8165 18.92 55.7165 19.08C54.8765 20.5 53.9365 21.68 52.8565 22.66V32.22C52.8565 32.74 52.5965 33 52.0765 33ZM76.7765 26.82C76.8965 26.86 76.9565 26.94 76.9565 27.04C76.9565 27.16 76.8565 27.26 76.6965 27.22C74.3365 26.68 72.1965 25.98 70.2765 25.12V32.02C70.2765 32.54 70.0165 32.8 69.4965 32.8H68.3565V24.14C67.3765 23.6 66.4365 22.98 65.5565 22.32C65.4965 22.26 65.4565 22.2 65.4565 22.14C65.4565 22 65.6165 21.88 65.7965 22C66.5965 22.62 67.4565 23.18 68.3565 23.68V17.82H67.8165C67.7165 17.82 67.6565 17.76 67.6565 17.66C67.6565 17.56 67.7165 17.5 67.8165 17.5H69.4965C70.0165 17.5 70.2765 17.76 70.2765 18.28V24.66C72.1965 25.56 74.3565 26.26 76.7765 26.82ZM86.2204 18.2H87.6804C88.1204 18.2 88.3804 18.46 88.3804 18.9C88.3804 26.24 87.0804 30.04 83.6404 32.8C83.5004 32.92 83.3404 32.84 83.3404 32.72C83.3404 32.68 83.3604 32.64 83.4004 32.58C86.4204 28.86 86.7804 24.76 86.7804 20.24V18.52H86.2204C86.1204 18.52 86.0604 18.46 86.0604 18.36C86.0604 18.26 86.1204 18.2 86.2204 18.2ZM96.7404 27.08C96.9204 26.88 97.1604 27 97.1604 27.18C97.1604 27.24 97.1404 27.3 97.1004 27.34C95.4404 29.36 92.9404 31.46 90.3004 33.18V18.52H89.8004C89.7204 18.52 89.6604 18.46 89.6604 18.36C89.6604 18.26 89.7204 18.2 89.8004 18.2H91.3404C91.8204 18.2 92.0604 18.46 92.0604 18.98V31.44C93.8604 30.12 95.5004 28.62 96.7404 27.08ZM105.8 33.2H104.9V18.82H104.36C104.26 18.82 104.2 18.76 104.2 18.66C104.2 18.56 104.26 18.5 104.36 18.5H105.8C106.26 18.5 106.5 18.74 106.5 19.2V32.5C106.5 32.96 106.26 33.2 105.8 33.2ZM113.1 23.82H111.84L113.72 19.9H109.52C109.42 19.9 109.36 19.84 109.36 19.74C109.36 19.64 109.42 19.58 109.52 19.58H114.84C115.44 19.58 115.68 19.96 115.42 20.5L114.06 23.24C113.86 23.64 113.54 23.82 113.1 23.82ZM112.72 32.34C110.52 32.34 109.08 30.92 109.08 29.08C109.08 27.44 110.16 26.22 110.82 25.66C110.86 25.62 110.92 25.6 110.96 25.6C111.06 25.6 111.16 25.7 111.16 25.8C111.16 25.86 111.12 25.92 111.06 25.98C110.44 26.5 109.48 27.6 109.48 29.08C109.48 30.7 110.76 31.94 112.72 31.94C114.02 31.94 115.2 31.44 116 30.6C116.16 30.42 116.34 30.54 116.34 30.7C116.34 30.74 116.32 30.8 116.28 30.84C115.4 31.82 114.12 32.34 112.72 32.34ZM130.68 33.06H130.6C128.5 33.06 126.76 32.06 126.76 28.78V25.66H123.82C123.72 25.66 123.66 25.6 123.66 25.5C123.66 25.4 123.72 25.34 123.82 25.34H126.76V21.46H123.82C123.72 21.46 123.66 21.4 123.66 21.3C123.66 21.2 123.72 21.14 123.82 21.14H126.76V18.42H126.22C126.12 18.42 126.06 18.36 126.06 18.26C126.06 18.16 126.12 18.1 126.22 18.1H127.9C128.42 18.1 128.68 18.36 128.68 18.88V21.14H134.44C134.54 21.14 134.6 21.2 134.6 21.3C134.6 21.4 134.54 21.46 134.44 21.46H128.68V25.34H134.44C134.54 25.34 134.6 25.4 134.6 25.5C134.6 25.6 134.54 25.66 134.44 25.66H128.68V28.78C128.68 31.28 129.2 32.66 130.98 32.66C132.78 32.66 134.68 30.98 135.72 28.46C135.82 28.26 136.1 28.32 136.1 28.5C136.1 28.54 136.1 28.56 136.06 28.66C134.98 31.26 133.04 33.06 130.68 33.06ZM150.16 32.92H150.08C146.86 32.92 143.86 31.12 143.86 27.84C143.86 24.84 146.28 22.96 149.26 22.68V18.22H148.72C148.62 18.22 148.56 18.16 148.56 18.06C148.56 17.96 148.62 17.9 148.72 17.9H150.28C150.78 17.9 151.02 18.16 151.02 18.64V22.7C152.56 22.9 154 23.56 155.16 24.66C155.22 24.72 155.24 24.76 155.24 24.82C155.24 24.96 155.06 25.06 154.92 24.94C153.72 23.86 152.22 23.22 151.02 23.08V26.16C151.02 26.66 150.78 26.9 150.28 26.9H149.26V23.18C147.08 23.68 145.7 25.52 145.7 27.84C145.7 30.56 147.46 32.52 150.34 32.52C152.06 32.52 153.62 31.86 155.08 30.66C155.22 30.54 155.4 30.68 155.4 30.82C155.4 30.88 155.38 30.94 155.32 30.98C153.78 32.24 152.12 32.92 150.16 32.92ZM153.76 21.98C153.52 21.98 153.32 21.9 153.14 21.72C152.96 21.54 152.88 21.34 152.88 21.1C152.88 20.86 152.96 20.66 153.14 20.48C153.3 20.3 153.5 20.22 153.76 20.22C154.02 20.22 154.24 20.3 154.4 20.48C154.56 20.66 154.64 20.86 154.64 21.1C154.64 21.34 154.56 21.54 154.4 21.72C154.22 21.9 154.02 21.98 153.76 21.98ZM156.12 21.98C155.88 21.98 155.68 21.9 155.5 21.72C155.32 21.54 155.24 21.34 155.24 21.1C155.24 20.86 155.32 20.66 155.5 20.48C155.66 20.3 155.86 20.22 156.12 20.22C156.38 20.22 156.6 20.3 156.76 20.48C156.92 20.66 157 20.86 157 21.1C157 21.34 156.92 21.54 156.76 21.72C156.58 21.9 156.38 21.98 156.12 21.98ZM169.98 32.66H169.86C168.42 32.66 167.12 31.88 167.12 30.68C167.12 29.74 167.86 29.08 168.8 29.08C170.06 29.08 171.26 30.06 171.84 31.44C172.92 30.64 173.74 29.26 173.74 27.48C173.74 25.48 172.6 23.72 170.32 23.72C169.4 23.72 168.6 24.02 167.82 24.58L165.86 26.68C165.52 27.06 165.16 27.08 164.74 26.72L164.3 26.34L171.4 18.62H165.34C165.24 18.62 165.18 18.56 165.18 18.46C165.18 18.36 165.24 18.3 165.34 18.3H172.5C173.12 18.3 173.3 18.72 172.88 19.16L168.62 23.72C169.22 23.48 169.9 23.36 170.76 23.36C173.3 23.36 175.66 24.76 175.66 27.5C175.66 30.56 172.6 32.66 169.98 32.66ZM169.6 32.26C170.24 32.26 170.9 32.06 171.5 31.68C170.98 30.4 169.9 29.48 168.8 29.48C168.04 29.48 167.52 29.98 167.52 30.68C167.52 31.56 168.52 32.26 169.6 32.26Z" fill="#622688"/>
</g>
<defs>
<filter id="filter0_d_570_670" x="8.19629" y="0.5" width="184.464" height="49.7" filterUnits="userSpaceOnUse" color-interpolation-filters="sRGB">
<feFlood flood-opacity="0" result="BackgroundImageFix"/>
<feColorMatrix in="SourceAlpha" type="matrix" values="0 0 0 0 0 0 0 0 0 0 0 0 0 0 0 0 0 0 127 0" result="hardAlpha"/>
<feOffset/>
<feGaussianBlur stdDeviation="8.5"/>
<feComposite in2="hardAlpha" operator="out"/>
<feColorMatrix type="matrix" values="0 0 0 0 0 0 0 0 0 0 0 0 0 0 0 0 0 0 0.38 0"/>
<feBlend mode="normal" in2="BackgroundImageFix" result="effect1_dropShadow_570_670"/>
<feBlend mode="normal" in="SourceGraphic" in2="effect1_dropShadow_570_670" result="shape"/>
</filter>
</defs>
</svg>
