<svg width="209" height="51" viewBox="0 0 209 51" fill="none" xmlns="http://www.w3.org/2000/svg">
<path d="M54.1947 7.49201C54.4761 7.49074 55.6082 7.49383 56.0981 7.4933C55.5427 7.50671 53.1796 7.49662 54.1947 7.49201ZM104.462 6.51792C104.055 6.52123 103.648 6.52455 103.242 6.52787C104.397 6.53002 105.95 6.52759 107.023 6.53073C107.198 6.53126 106.743 6.54086 107.158 6.54129C107.573 6.54172 107.493 6.5286 108.097 6.52719C108.774 6.52566 111.874 6.5348 112.948 6.53458C116.964 6.53369 121.015 6.5262 125.039 6.53165C120.884 6.54136 125.07 6.55124 126.234 6.54703C126.492 6.54606 126.451 6.52166 130.619 6.5278C133.268 6.5317 130.821 6.56658 135.241 6.54911C131.842 6.52471 135.185 6.52642 137.849 6.52561C138.308 6.52546 142.018 6.52913 143.657 6.52805C144.217 6.52767 145.071 6.51489 145.815 6.51456C146.327 6.51434 146.714 6.52132 147.474 6.52097C151.017 6.51939 154.501 6.51885 158.049 6.52121C155.976 6.55405 159.677 6.53521 159.844 6.53678C160.689 6.54569 156.865 6.54823 158.377 6.55381C160.491 6.55279 162.604 6.55177 164.718 6.55075C162.983 6.54672 167.014 6.5231 167.756 6.53385C167.429 6.50483 177.388 6.5591 178.904 6.54941C179.22 6.54736 177.153 6.53302 181.947 6.53958C182.467 6.54031 182.27 6.54907 182.543 6.54825C182.706 6.54776 183.693 6.51994 184.745 6.53531C185.129 6.54092 182.672 6.5592 188.067 6.55185C187.209 6.54055 188.229 6.53582 189.876 6.53468C192.446 6.4141 196.336 7.57051 197.296 8.09569C196.964 7.94574 196.63 7.80666 196.29 7.67653C197.963 8.33556 198.229 8.53774 198.591 8.71516C200.042 9.46788 201.84 10.8356 202.901 11.9243C204.124 13.2098 204.166 13.1944 205.34 14.9015C205.074 14.4879 204.792 14.0846 204.493 13.693C205.37 14.8262 206.115 16.0613 206.707 17.3662C205.2 14.4122 207.06 17.9907 207.088 18.2705C207.24 18.6664 207.018 18.0992 207.265 18.7637C207.284 18.8343 207.281 18.7232 207.603 19.7676C208.192 21.9733 208.032 21.6424 208.189 22.5843C208.188 22.6719 208.21 22.3631 208.33 24.0132C208.35 24.3942 208.356 24.7212 208.357 25C208.281 27.3314 208.34 26.1359 208.352 25C208.352 24.4129 208.314 23.8503 208.309 23.7853C208.3 23.6528 208.315 24.0381 208.299 23.8977C208.262 23.7599 208.323 23.0821 207.866 20.8945C208.175 22.3611 208.131 22.5211 208.162 22.6863C208.184 22.7944 208.322 24.1851 208.307 25C208.308 25.3068 208.3 25.5283 208.299 25.5673C208.246 26.8401 208.31 25.7199 208.3 25.9681C208.352 26.1794 207.909 29.2764 207.666 29.9769C207.179 31.3987 208.038 29.1702 208.24 26.6597C208.304 26.2976 207.916 29.0242 207.832 29.1567C206.877 32.5752 207.404 30.6827 207.19 31.4298C207.065 31.8204 206.472 33.1435 207.014 31.9195C205.682 34.8628 206.47 33.0683 206.394 33.263C206.26 33.5479 205.708 34.5341 205.626 34.6499C205.515 34.8258 205.89 34.2087 205.455 34.9023C205.383 35.0173 204.67 36.1268 205.601 34.7037C204.357 36.606 204.402 36.4107 203.908 36.9999C202.898 38.1965 203.123 37.8197 202.69 38.2557C201.489 39.3651 201.84 39.0482 201.782 39.113C201.415 39.6173 197.541 42.0145 196.419 42.2748C196.853 42.1598 199.681 40.7572 200.225 40.292C201.18 39.6072 200.515 40.1025 199.748 40.5874C198.98 41.0728 198.095 41.5145 198.839 41.0989C198.22 41.4537 197.579 41.7725 196.921 42.0532C195.682 42.4753 197.471 41.9793 194.084 42.9439C193.537 43.1311 196.479 42.2598 195.889 42.4338C195.556 42.5903 193.576 43.1007 193.53 43.0875C193.497 43.1209 195.289 42.6613 195.006 42.7334C194.438 43.1619 187.705 43.7501 192.813 43.2156C191.581 43.4039 190.859 43.4173 189.876 43.4252C189.732 43.4252 189.583 43.4258 189.425 43.427C189.132 43.4294 189.565 43.4368 189.876 43.4448C190.15 43.4506 190.333 43.4559 189.876 43.4637C189.452 43.4683 188.461 43.4706 186.437 43.4682C186.296 43.4536 189.081 43.4639 189.153 43.4628C189.254 43.4612 188.751 43.4282 188.663 43.4265C188.355 43.4212 181.604 43.4389 180.177 43.4223C180.742 43.4413 175.075 43.4257 174.458 43.4315C174.294 43.4331 174.908 43.4448 174.732 43.446C173.636 43.4534 170.672 43.4325 169.298 43.432C167.759 43.4314 167.954 43.4415 167.868 43.4414C167.191 43.4409 167.732 43.434 167.318 43.434C166.693 43.4341 162.396 43.4327 162.18 43.4341C162.117 43.4346 162.818 43.4461 161.882 43.4483C161.719 43.4486 161.822 43.435 159.048 43.4409C155.707 43.448 161.368 43.4579 159.98 43.4722C157.834 43.4518 157.904 43.472 157.322 43.4704C157.12 43.4698 155.621 43.4527 153.992 43.4538C155.161 43.451 156.33 43.4482 157.499 43.4454C156.35 43.4424 154.118 43.4461 153.171 43.4427C152.709 43.4411 153.09 43.427 152.087 43.4273C151.874 43.4275 151.029 43.4619 153.657 43.4464C153.867 43.4587 152.617 43.4507 152.036 43.4542C151.949 43.4547 151.603 43.4752 150.862 43.4625C150.684 43.4594 152.621 43.3996 147.626 43.4428C147.465 43.4442 148.024 43.4517 147.867 43.4533C147.759 43.4543 146.484 43.4513 146.343 43.4524C146.199 43.4535 146.815 43.4617 146.644 43.4633C145.764 43.4716 144.61 43.4391 146.423 43.4416C145.817 43.4376 145.211 43.4336 144.605 43.4296C145.254 43.454 143.653 43.4365 142.814 43.4372C137.439 43.442 141.038 43.4579 140.114 43.4662C138.628 43.4794 139.763 43.4375 137.557 43.4501C137.353 43.4513 140.02 43.469 134.812 43.459C135.58 43.4583 136.349 43.4576 137.118 43.4569C136.675 43.4333 134.342 43.4586 134.163 43.4589C132.118 43.4621 133.5 43.4536 130.464 43.4658C130.192 43.4669 129.602 43.461 129.022 43.464C126.618 43.4759 132.194 43.4712 132.346 43.4808C132.418 43.4855 126.422 43.4843 126.216 43.4821C125.342 43.4722 128.934 43.4777 128.25 43.4655C128 43.4611 119.453 43.4701 117.738 43.4653C115.759 43.4597 114.869 43.4277 114.856 43.4637C114.298 43.4284 113.804 43.4525 113.551 43.4522C110.491 43.449 110.486 43.4486 107.862 43.452C107.282 43.4527 106.793 43.442 106.588 43.4438C106.469 43.4449 106.692 43.4564 106.107 43.4599C105.296 43.4648 100.418 43.453 100.055 43.4466C99.6928 43.4403 102.115 43.4439 101.681 43.4334C99.9276 43.4324 98.246 43.435 96.4809 43.4339C95.7477 43.4334 96.1245 43.4261 95.8077 43.4259C95.6729 43.4258 93.1411 43.4323 93.2484 43.435C93.4997 43.4412 101.318 43.437 99.2589 43.4498C98.8617 43.4523 97.4585 43.4354 97.6816 43.4559C90.6971 43.4513 83.7127 43.4466 76.7282 43.442C80.7411 43.4267 85.2573 43.4404 89.4606 43.4389C90.0367 43.4388 91.9842 43.4407 91.7475 43.4304C88.1731 43.4277 83.7295 43.4331 80.2973 43.4264C80.1874 43.4261 80.5907 43.4168 80.1793 43.4154C79.4103 43.4126 76.9062 43.4276 76.4852 43.4237C76.4133 43.4228 77.8382 43.4106 77.4049 43.4028C76.2925 43.3828 76.0102 43.4271 75.0537 43.4265C74.3141 43.4261 69.3441 43.4047 68.1063 43.4182C66.7901 43.4326 71.769 43.4266 71.4013 43.4384C68.0324 43.4502 64.6213 43.4376 61.4381 43.4391C61.3821 43.4391 61.869 43.4483 61.1588 43.4496C59.9228 43.4519 59.5984 43.4388 58.9968 43.4367C58.348 43.4344 56.0537 43.4363 55.7469 43.4315C55.7078 43.4309 56.1726 43.4179 56.2431 43.4176C57.2425 43.4122 57.5976 43.4291 57.6885 43.4293C58.0302 43.4299 58.3658 43.4235 58.6775 43.4239C59.1907 43.4245 59.4733 43.4305 60.1507 43.431C60.618 43.4314 60.167 43.4199 60.6174 43.4204C60.7828 43.4207 62.5662 43.4469 62.7326 43.4201C62.7841 43.4117 48.1994 43.4009 46.7415 43.4076C47.992 43.4108 49.2425 43.414 50.4929 43.4173C47.9536 43.4094 44.9032 43.4308 44.6871 43.3992C36.1248 43.3968 27.5624 43.3945 19 43.3921C18.1246 43.3918 17.2556 43.3308 16.3899 43.2076C14.7031 42.8948 15.5999 43.1679 12.901 42.3378C13.5876 42.5862 14.29 42.7935 15.0009 42.9577C13.4743 42.9338 7.7394 39.9311 7.10882 39.0216C7.01441 38.9262 6.82103 38.8603 5.69426 37.7163C4.72273 36.6746 4.61397 36.4652 4.15632 35.8583C3.77793 35.3434 3.39227 34.7382 3.29534 34.5748C3.22054 34.4499 3.19634 34.3976 3.02333 34.0935C2.49704 33.1222 2.89176 33.9262 2.42436 32.9333C2.54077 33.1737 2.66245 33.4115 2.78897 33.6461C2.15487 32.4718 1.52467 30.7616 2.28302 32.5699C2.42459 32.8756 2.29573 32.6165 2.40222 32.844C7.80199 41.0574 2.96505 34.8045 1.83289 31.4927C1.34734 30.7067 0.51738 25.7995 0.668333 25.6197C0.666358 25.3905 0.694754 26.2387 0.679906 25.1259C0.679927 25.1104 0.679686 25.067 0.679729 25C0.450209 24.0246 1.67959 18.5138 1.20026 20.6921C1.03211 21.1439 0.621108 24.1019 0.6908 25C0.690808 25.0316 0.690899 25.0606 0.691037 25.0868C0.691306 25.0585 0.691622 25.0295 0.691992 25C0.577482 23.1335 1.53241 19.122 1.78801 18.7132C2.43523 16.9102 0.604349 22.1953 2.04006 18.129C3.41689 15.1134 2.08719 17.9285 2.63075 16.7735C2.85721 16.0721 5.05635 13.0212 5.03477 13.1331C5.88463 12.1627 5.39751 12.74 5.50267 12.6205C5.58057 12.48 7.41015 10.7187 8.10893 10.2724C8.18931 10.2133 7.94513 10.4112 8.02839 10.3503C8.16608 10.1971 10.229 8.88699 10.3354 8.8733C10.3895 8.84135 9.87395 9.11449 10.0822 8.99558C10.3064 8.8208 12.4501 7.84717 12.5851 7.83282C12.7352 7.71833 10.0945 8.92983 10.5355 8.73082C11.7126 8.08277 13.7828 7.35937 14.6486 7.16823C14.4365 7.2111 13.1848 7.57292 12.765 7.73802C12.9424 7.59729 15.6496 6.89677 14.7273 7.14795C15.3172 7.00455 14.912 7.09223 15.2455 7.01281C15.3313 6.9879 16.1821 6.83483 16.3467 6.81358C16.3687 6.80474 15.4865 6.94701 15.6625 6.91443C15.9745 6.80035 18.584 6.56425 18.801 6.60986C19.4044 6.59533 17.2682 6.66765 17.0964 6.72486C17.0691 6.70844 18.8803 6.62279 18.9097 6.64515C19.0135 6.63493 17.0004 6.73374 17.2333 6.74575C17.7283 6.70111 18.2275 6.67644 18.7255 6.67185C16.7898 6.61493 13.3088 7.47074 12.4837 7.88455C15.1458 6.81178 18.1737 6.69782 18.1598 6.73923C18.1574 6.74374 16.9384 6.84844 16.9857 6.85591C17.1647 6.82831 18.859 6.72674 18.9244 6.74574C18.9763 6.74632 19 6.74713 19 6.74785C19 6.74785 19 6.74785 19 6.74785C18.9955 6.71869 16.582 6.87895 16.4658 6.93878C16.2638 6.96784 17.3378 6.86235 17.3353 6.87565C17.2967 6.86095 15.5938 7.10972 16.1702 7.03605C16.7472 6.93646 18.2517 6.82969 18.3024 6.84119C18.589 6.79988 15.9697 7.04311 15.8988 7.10639C15.8574 7.10285 17.2569 6.92411 17.2988 6.93674C17.3347 6.9309 16.2703 7.05704 15.8565 7.14916C15.5472 7.2086 16.4531 7.06338 16.2938 7.09221C16.171 7.06905 13.7561 7.61854 13.6517 7.69612C13.4792 7.75035 14.0356 7.59126 13.9558 7.61834C13.8409 7.64969 13.0792 7.89321 13.1798 7.86569C13.2395 7.77974 16.2531 7.08661 16.2475 7.15756C16.2052 7.13888 13.0055 7.79907 15.9932 7.23459C16.0145 7.22764 16.7446 7.11745 16.7659 7.11882C17.2198 7.07919 14.8695 7.35637 17.7477 7.04685C12.4212 7.80416 17.0796 7.10955 16.2964 7.24927C15.9856 7.27141 13.9598 7.74856 13.9574 7.77915C14.1536 7.7299 14.7934 7.55426 15.0151 7.51301C15.1313 7.46854 13.3411 7.97538 13.7479 7.8735C13.9476 7.7862 15.8717 7.33903 15.9569 7.35189C16.7309 7.23374 15.7842 7.3944 15.9552 7.37261C16.0677 7.34632 17.2465 7.1937 17.2785 7.20062C17.3271 7.18215 15.7258 7.40871 15.4034 7.50115C15.1538 7.55272 16.0945 7.37868 15.9205 7.41484C14.858 7.5828 12.6649 8.22206 14.7933 7.66911C14.9227 7.63448 15.7373 7.46455 15.7617 7.46509C16.2679 7.37774 14.7648 7.66798 14.5073 7.76214C14.0551 7.88439 16.1857 7.36193 14.4149 7.80304C15.7447 7.47797 16.5001 7.33768 18.1002 7.23531C15.8771 7.355 14.4345 7.82583 14.1195 7.91602C13.8106 8.04773 14.5915 7.67205 17.031 7.36342C15.4801 7.56201 15.6628 7.597 15.2045 7.68296C14.9128 7.70901 12.742 8.35817 13.7477 8.09348C13.8687 8.04735 15.1973 7.69878 14.7836 7.81691C11.621 8.73341 14.7096 7.8126 14.7213 7.8415C14.7081 7.86035 12.7182 8.31863 10.7825 9.35657C8.82333 10.3508 7.0479 11.9387 6.57321 12.4355C5.42825 13.563 4.62648 14.751 4.43216 15.0374C3.79951 15.9914 4.31393 15.1928 4.16981 15.4044C3.95789 15.5829 2.50854 18.5044 2.51765 18.6842C2.29203 19.2742 2.50393 18.6689 2.48084 18.7304C2.06107 19.4199 1.18627 23.7302 1.33516 24.9759C1.30978 24.934 1.47473 22.4816 1.38439 24.0149C1.36561 24.4244 1.36191 24.7458 1.36087 25C1.36465 25.8492 1.36277 25.9143 1.35998 25.952C1.65392 34.2316 8.55971 41.6397 16.7923 42.5276C16.7443 42.5131 15.3837 42.3476 14.072 41.9573C12.7547 41.5871 11.5112 40.998 11.4589 40.9701C10.9 40.8098 16.0173 42.8952 19 42.6454C19.8173 42.6462 20.439 42.6474 20.6833 42.6489C20.1222 42.6461 19.5611 42.6434 19 42.6407C18.7058 42.6392 18.4133 42.6305 18.1228 42.6149C18.3675 42.623 18.6641 42.6302 19 42.6289C20.651 42.6228 23.1835 42.6413 24.9431 42.6331C25.6287 42.6299 24.312 42.6213 24.3392 42.6207C25.11 42.6121 26.3466 42.6187 25.4219 42.6304C27.3034 42.6192 27.0286 42.6315 28.4723 42.6324C28.5467 42.6325 27.9268 42.6235 29.0692 42.6197C29.6044 42.618 32.4592 42.618 32.8414 42.6101C32.9987 42.6068 31.5504 42.5719 31.3717 42.6019C28.2667 42.5873 30.3796 42.6156 29.1733 42.6149C28.9883 42.6148 29.4139 42.598 26.3763 42.6059C26.9548 42.5756 30.4528 42.5983 31.0525 42.5946C32.2889 42.5871 27.1932 42.5715 26.2583 42.595C26.6952 42.5714 25.8968 42.5918 24.7609 42.5909C23.5175 42.5898 24.0594 42.5828 23.3866 42.5828C21.5466 42.5826 22.3095 42.5992 20.7926 42.5842C21.7435 42.6141 20.3978 42.6081 19 42.5968C18.2381 42.5929 17.4682 42.5234 17.0575 42.4721C17.7017 42.5421 18.3487 42.5765 19 42.5757C20.2685 42.5742 21.5369 42.5726 22.8054 42.5711C22.6949 42.5687 22.5844 42.5662 22.4739 42.5638C22.9829 42.5641 23.4919 42.5645 24.0009 42.5648C23.9193 42.5672 23.8378 42.5695 23.7562 42.5718C26.3807 42.5566 27.0211 42.5737 27.2352 42.5739C29.9901 42.5759 33.1722 42.5757 35.9577 42.5758C36.3755 42.5758 36.0888 42.5606 39.1347 42.5725C40.1063 42.5763 39.1889 42.5881 40.2903 42.5864C41.6679 42.5542 41.6418 42.5798 42.0515 42.5799C43.2268 42.5799 43.9452 42.5719 44.0538 42.5718C45.5059 42.5706 47.6328 42.5719 49.228 42.5707C49.2579 42.5706 48.4279 42.5607 49.464 42.5637C49.828 42.5647 53.0916 42.6069 55.9447 42.5931C55.2026 42.5903 54.4606 42.5874 53.7185 42.5846C54.5911 42.5886 60.7053 42.5779 59.2102 42.5666C58.2939 42.5597 56.0565 42.5869 55.8111 42.5608C57.8457 42.5686 69.0828 42.5569 69.9576 42.563C70.0786 42.5638 69.3341 42.5723 69.5013 42.5734C69.6307 42.5742 72.2047 42.5722 72.5465 42.5755C72.7498 42.5774 71.6124 42.5826 71.7049 42.5857C71.7859 42.5879 75.0004 42.5915 75.1839 42.5809C74.3945 42.5851 72.1759 42.5814 73.3394 42.5724C73.4891 42.5713 74.2647 42.5782 74.4464 42.5768C76.1335 42.5637 71.0919 42.5669 70.3116 42.5668C73.4786 42.5532 78.3769 42.5692 82.0463 42.5604C83.5291 42.5692 79.8481 42.5739 81.5258 42.5812C85.0061 42.5964 82.4518 42.569 82.5599 42.5679C83.4244 42.5589 86.3687 42.6068 86.3703 42.5704C87.632 42.5759 87.2236 42.5804 89.0042 42.5757C88.77 42.5732 88.5357 42.5706 88.3015 42.5681C90.2784 42.547 94.4624 42.6002 94.1489 42.6043C93.3057 42.6152 91.1267 42.5982 90.9406 42.5986C90.6651 42.5992 89.9037 42.6362 86.8891 42.6031C85.6547 42.6279 91.6671 42.6199 88.9313 42.6368C90.779 42.634 98.3798 42.6513 99.474 42.6404C99.6046 42.639 98.9965 42.6143 100.874 42.6268C101.766 42.6328 99.6161 42.6331 100.024 42.6387C101.279 42.656 118.351 42.645 121.594 42.644C121.804 42.644 121.727 42.6517 121.934 42.6516C122.569 42.6514 124.884 42.64 126.022 42.6435C123.666 42.6293 128.241 42.6282 129.405 42.6298C131.172 42.6321 131.062 42.6456 131.826 42.6485C134.767 42.6596 139.325 42.6275 141.61 42.6575C141.485 42.6277 145.563 42.672 147.418 42.6723C148.87 42.6725 150.979 42.6528 149.017 42.6409C151.525 42.6422 154.166 42.6367 156.518 42.6349C156.907 42.6346 156.372 42.6434 157.035 42.6426C157.096 42.6424 157.179 42.6338 157.749 42.6329C162.452 42.6254 160.163 42.6437 161.044 42.6491C161.536 42.6521 161.899 42.6536 162.166 42.6541C159.425 42.6558 156.262 42.6592 155.417 42.6594C156.138 42.6784 161.493 42.6558 163.062 42.6609C163.116 42.6611 162.926 42.6716 162.982 42.6716C162.983 42.6716 162.984 42.6716 162.985 42.6716C163.573 42.6724 167.316 42.6686 166.546 42.6561C166.339 42.6527 164.616 42.6527 162.572 42.6539C163.125 42.6515 162.712 42.6398 162.81 42.6393C163.994 42.6335 166.893 42.6449 167.922 42.6465C168.157 42.6468 168.14 42.6393 168.178 42.6393C169.114 42.641 168.73 42.6625 169.69 42.6403C171.384 42.6671 166.515 42.6443 166.858 42.6617C167.122 42.6751 177.936 42.6679 177.904 42.6468C177.941 42.649 178.09 42.6518 178.395 42.655C179.071 42.6621 182.081 42.6599 182.601 42.656C182.689 42.6552 182.654 42.6348 182.762 42.6346C183.034 42.6341 186.713 42.6502 188.087 42.6381C187.345 42.6352 186.603 42.6323 185.861 42.6295C190.342 42.6293 189.65 42.6232 188.157 42.6171C188.082 42.617 188.009 42.6162 187.938 42.6161C186.781 42.6116 185.297 42.6073 185.275 42.6056C185.223 42.6019 188.009 42.5992 189.876 42.6019C191.058 42.6011 191.857 42.4946 191.299 42.5584C191.212 42.5678 190.506 42.6185 189.876 42.6149C189.054 42.6145 188.372 42.6151 189.351 42.6227C189.426 42.6233 189.622 42.6235 189.876 42.6235C190.633 42.637 191.896 42.515 191.985 42.4979C192.428 42.4468 191.042 42.6488 189.876 42.6426C188.992 42.6481 188.239 42.6539 188.497 42.66C188.921 42.6552 189.389 42.653 189.876 42.652C190.749 42.6515 191.684 42.5837 192.542 42.4502C193.149 42.3538 193.291 42.3064 193.366 42.2931C194.469 42.0512 193.852 42.1945 194.218 42.1079C194.427 42.0932 196.523 41.3551 196.134 41.5131C199.516 40.0822 199.792 39.5183 198.999 40.0942C198.182 40.6118 195.974 41.7378 193.766 42.2027C195.165 41.9341 197.761 40.8797 198.811 40.1947C199.194 39.9624 198.967 40.0983 199.6 39.685C200.251 39.2659 202.089 37.9249 203.531 36.1267C205.01 34.3591 206.008 32.2064 206.338 31.3C205.895 32.4032 206.043 32.0894 206.379 31.2336C206.692 30.3699 206.415 31.0903 206.474 30.9213C206.658 30.7748 207.592 26.5585 207.479 25.8205C207.164 29.0487 207.306 28.3304 207.506 25.5807C207.497 25.9763 207.474 26.3792 207.438 26.7736C207.484 26.3031 207.525 25.6767 207.526 25C207.551 23.3696 207.218 21.4993 207.046 20.8612C207.012 20.7187 207.122 21.2337 207.102 21.1537C206.983 20.3352 206.015 17.7171 205.912 17.6188C205.871 17.5169 206.331 18.6132 206.155 18.2088C206.121 18.1241 205.688 17.0587 205.107 16.0887C204.892 15.7294 205.013 15.9509 204.958 15.8608C204.48 15.1232 204.808 15.5269 203.852 14.2347C203.122 13.3124 202.534 12.6527 201.31 11.5817C205.069 15.3723 202.067 12.0095 200.215 10.7406C199.913 10.5506 200.205 10.6601 198.366 9.57641C202.235 11.9663 197.329 8.75898 196.114 8.51757C196.053 8.49586 196.038 8.47021 195.483 8.28049C195.436 8.26614 195.503 8.28943 194.982 8.12912C192.489 7.4381 191.994 7.54005 192.058 7.51147C192.116 7.51458 192.691 7.59103 192.206 7.52035C191.942 7.47886 190.83 7.3612 189.876 7.37227C189.323 7.37391 188.825 7.37534 188.574 7.37543C188.415 7.37546 188.488 7.36781 187.873 7.36811C186.785 7.36866 185.81 7.3768 185.092 7.37745C185.008 7.37748 185.004 7.36541 183.643 7.36933C183.26 7.37042 182.83 7.37471 183.374 7.37818C184.968 7.38827 187.827 7.374 189.876 7.37843C190.141 7.379 190.39 7.38577 190.62 7.39665C191.382 7.44599 190.817 7.393 189.876 7.38996C188.552 7.39227 186.506 7.39261 186.329 7.39264C186.217 7.39268 187.361 7.38669 186.199 7.3855C185.206 7.38452 183.391 7.40536 181.911 7.40082C181.798 7.40049 180.616 7.38281 180.67 7.38178C180.72 7.38103 182.536 7.37719 182.272 7.37207C182.24 7.37149 181.087 7.37161 180.936 7.3678C180.751 7.36317 180.254 7.31767 180.008 7.31653C179.375 7.31371 179.787 7.32409 179.378 7.32337C178.501 7.32184 175.458 7.30839 175.359 7.32416C175.862 7.3251 176.364 7.32603 176.867 7.32697C174.071 7.32859 175.263 7.3353 174.866 7.33826C174.44 7.34146 174.56 7.3276 173.617 7.3263C173.412 7.32601 169.468 7.3289 169.54 7.33472C171.721 7.32546 170.912 7.34259 171.013 7.3429C171.395 7.34401 171.883 7.33441 172.396 7.3346C176.002 7.3361 172.365 7.35127 173.216 7.35517C173.509 7.35648 174.093 7.34828 174.217 7.3487C174.622 7.35006 174.628 7.3608 174.898 7.35993C175.527 7.35791 174.792 7.34271 174.842 7.34192C175.404 7.33241 177.606 7.34425 176.235 7.36078C177.058 7.36674 177.155 7.34664 177.807 7.35468C179.105 7.37059 177.161 7.3665 176.634 7.36914C174.745 7.37867 174.185 7.37096 171.511 7.3736C170.548 7.37453 169.407 7.3843 168.96 7.38483C168.679 7.38517 166.021 7.3512 165.943 7.40436C164.909 7.39922 163.289 7.36419 162.224 7.36579C161.269 7.36725 161.572 7.38606 161.483 7.38678C161.347 7.38793 160.191 7.38645 159.8 7.3891C159.342 7.39224 159.571 7.39942 158.844 7.40235C157.036 7.40961 157.083 7.39041 156.897 7.38917C154.74 7.37474 155.684 7.40205 155.206 7.40424C154.76 7.40625 148.514 7.39574 147.2 7.40265C147.735 7.39881 148.27 7.39496 148.805 7.39112C147.847 7.37914 146.832 7.39868 146.814 7.3772C146.62 7.41187 144.644 7.3887 144.05 7.38959C143.816 7.38996 143.835 7.39587 143.542 7.39612C142.398 7.39716 139.819 7.39246 139.199 7.39545C136.516 7.40835 143.377 7.4298 143.917 7.4311C142.836 7.43072 136.719 7.43848 139.53 7.45515C139.965 7.45772 140.735 7.4422 140.979 7.4416C142.631 7.4376 141.332 7.4515 141.462 7.45283C141.682 7.45496 142.769 7.44152 143.056 7.44312C143.152 7.44364 142.535 7.45622 144.111 7.45649C143.336 7.46869 138.907 7.45875 138.326 7.46162C138.119 7.46264 139.417 7.48872 135.626 7.46339C135.67 7.46581 135.714 7.46823 135.758 7.47065C133.648 7.47165 131.537 7.47264 129.427 7.47364C129.656 7.46806 130.841 7.45686 129.349 7.45924C128.489 7.46061 129.125 7.47304 129.047 7.4734C128.276 7.47682 114.628 7.47268 111.983 7.47407C111.084 7.47452 108.576 7.4845 108.385 7.48469C107.241 7.48569 103.192 7.47919 102.385 7.4806C101.88 7.4815 102.36 7.49189 101.909 7.4914C101.49 7.49094 101.924 7.4809 101.8 7.48048C100.769 7.47684 92.9423 7.49001 91.0837 7.48054C92.2196 7.48338 97.8883 7.46332 97.7743 7.45625C97.7497 7.45527 96.372 7.44764 96.0878 7.45136C95.6183 7.44267 94.0062 7.46913 93.1294 7.46394C93.0302 7.46335 93.4207 7.4485 91.8558 7.44581C91.3167 7.44489 89.9051 7.45646 88.4844 7.44349C86.4277 7.44972 75.6142 7.43047 74.8723 7.44642C74.8503 7.44726 76.3731 7.45275 75.3443 7.4593C73.9766 7.468 75.2048 7.43869 73.6109 7.43616C73.3706 7.43578 68.9359 7.43875 68.7907 7.44056C67.4475 7.45701 71.3227 7.46367 71.2684 7.46558C71.1333 7.4704 67.9134 7.47331 67.7825 7.47218C67.658 7.47099 70.2839 7.4492 67.1284 7.45747C67.4899 7.46007 67.8514 7.46267 68.2129 7.46528C66.7288 7.47035 66.5874 7.45527 66.2279 7.45435C65.1102 7.45144 63.9011 7.47434 62.1104 7.44605C61.6369 7.43855 62.423 7.43021 62.3637 7.42908C61.7949 7.41898 61.0692 7.44601 60.2139 7.42585C60.1495 7.42435 62.14 7.41227 58.6609 7.41224C58.9004 7.41417 59.1398 7.4161 59.3793 7.41804C58.8887 7.42235 55.3661 7.42492 54.8922 7.4239C53.5078 7.42091 54.7151 7.40704 53.3237 7.4087C54.2161 7.42771 49.9848 7.43019 50.2282 7.41382C49.6372 7.43438 46.0427 7.41852 44.353 7.41804C43.2869 7.41774 41.1122 7.42671 40.7734 7.42567C40.3608 7.42438 40.4862 7.41035 39.741 7.40723C39.5285 7.40634 37.3103 7.41662 35.3633 7.40211C34.9859 7.39931 34.1934 7.37552 34.8948 7.36957C36.0953 7.3594 38.3663 7.37856 38.3373 7.36451C38.3033 7.34947 35.2444 7.35841 34.4211 7.35645C30.6201 7.34737 32.815 7.33139 32.7172 7.32654C32.4637 7.31478 30.3868 7.31515 30.3002 7.31409C29.941 7.30939 31.4127 7.30009 31.4349 7.29291C31.4618 7.28356 29.4598 7.2667 29.915 7.26355C30.5664 7.25908 32.4062 7.27313 32.5229 7.27246C34.0413 7.2634 31.96 7.24181 31.3864 7.2312C31.2125 7.22794 31.9053 7.22257 31.7611 7.22162C29.5604 7.2071 31.2972 7.25196 29.8334 7.24896C28.5274 7.24629 30.2078 7.2321 30.1579 7.23132C30.0934 7.23046 28.5319 7.22969 28.2874 7.22467C28.1669 7.22216 32.2256 7.19456 32.0561 7.18219C30.7611 7.18491 29.4661 7.18764 28.1711 7.19037C28.0696 7.17423 29.9323 7.18611 30.1249 7.18445C30.5127 7.18111 29.4313 7.17294 29.4777 7.16784C29.5026 7.1646 30.7719 7.15302 29.6252 7.14825C29.2311 7.1466 28.404 7.15791 26.9687 7.14636C31.9639 7.1316 28.5023 7.12253 28.3551 7.11682C28.2108 7.1111 30.5956 7.09765 27.7009 7.10003C27.5754 7.06863 27.7633 7.09011 28.5858 7.08459C29.5935 7.07781 27.2647 7.06747 30.9474 7.07531C30.7379 7.06061 27.7778 7.06165 27.6211 7.06048C27.4858 7.05942 28.1437 7.05219 27.9091 7.04974C25.1342 7.02133 27.0402 7.0343 26.2365 7.01617C26.165 7.01454 23.5422 7.00782 25.5389 7.00518C29.1766 7.00038 30.697 7.02121 31.3083 6.97667C28.6176 6.95733 25.3574 6.98607 24.5395 6.98656C23.2876 6.98726 24.5845 6.97818 24.4302 6.97564C24.3766 6.97481 23.2978 6.97556 23.2833 6.97484C22.514 6.94088 28.0861 6.97428 29.8403 6.96837C29.3701 6.96329 28.8999 6.9582 28.4297 6.95311C29.0676 6.95291 29.7056 6.95271 30.3435 6.9525C27.3043 6.94228 30.2364 6.94863 30.9942 6.92113C31.1643 6.91495 29.1677 6.92555 31.4453 6.90837C29.7655 6.90441 30.3013 6.89879 28.7802 6.90654C28.8194 6.89552 32.2418 6.88308 33.5917 6.87743C28.823 6.86504 31.5424 6.90547 27.4198 6.88408C26.6553 6.89773 28.6231 6.89507 28.4626 6.89733C27.887 6.90543 26.5374 6.89256 24.9091 6.92095C24.644 6.92561 25.7658 6.93995 24.1057 6.93926C23.9221 6.93916 22.8643 6.9269 22.879 6.92601C23.0192 6.91641 24.066 6.92001 24.1092 6.916C24.1497 6.91221 22.9819 6.91449 22.9779 6.91344C22.942 6.90141 23.9523 6.90884 23.8055 6.90508C23.4887 6.89689 19.288 6.87101 24.7703 6.87859C20.2166 6.89218 24.1873 6.89187 25.9606 6.88664C26.4128 6.88533 26.5273 6.87815 27.1717 6.87566C28.0006 6.87243 28.9707 6.87588 29.3996 6.87456C29.8609 6.8731 27.2399 6.85612 31.0306 6.86119C29.1014 6.8443 25.6937 6.86231 23.7986 6.85045C19.9752 6.82648 26.4645 6.82134 27.1405 6.81901C27.3206 6.81838 26.7168 6.80868 26.8368 6.80809C27.0332 6.80718 30.7161 6.81166 31.0792 6.80363C31.4414 6.79561 29.7303 6.804 29.6165 6.79564C29.5394 6.79 33.9823 6.78002 31.5772 6.77617C29.9195 6.77353 26.8639 6.79616 26.3493 6.77183C28.7871 6.76982 31.225 6.7678 33.6628 6.76579C32.3285 6.75653 30.9942 6.74727 29.6599 6.73802C32.3961 6.73508 34.7616 6.74553 37.3604 6.73228C31.1156 6.70262 39.388 6.70861 39.479 6.705C39.5095 6.70284 37.0515 6.67876 36.656 6.67436C38.834 6.66509 45.4524 6.66057 41.5803 6.63084C42.2831 6.63755 43.9851 6.62098 43.9626 6.61973C43.7465 6.60659 40.0344 6.61511 40.6398 6.60325C41.3414 6.58948 42.3245 6.60816 43.4039 6.60666C48.9425 6.59889 47.423 6.53032 52.9766 6.54117C52.8662 6.53873 52.7557 6.53629 52.6452 6.53385C58.6818 6.53773 64.7183 6.54162 70.7548 6.54551C73.1166 6.52457 79.4023 6.51182 82.4895 6.51413C83.1112 6.51458 86.1633 6.52557 86.3936 6.5275C86.8201 6.53119 84.4749 6.5326 85.5347 6.53952C85.7585 6.54094 90.9257 6.54556 90.5562 6.53385C89.9772 6.53249 88.165 6.53838 87.8685 6.53562C85.7851 6.51591 101.715 6.53165 102.504 6.52371C102.152 6.51991 101.799 6.51611 101.446 6.5123C102.451 6.51417 103.456 6.51604 104.462 6.51792ZM58.2705 7.45881C57.6673 7.47056 56.1552 7.46174 55.2618 7.46503C54.0275 7.46966 51.9292 7.51492 52.8326 7.46955C54.6453 7.46597 56.4579 7.46239 58.2705 7.45881ZM84.7626 7.47633C83.5471 7.47001 84.4898 7.44467 85.4861 7.45521C85.5966 7.4564 86.4071 7.48482 84.7626 7.47633ZM72.0197 7.4643C72.0709 7.46397 73.1213 7.46464 73.158 7.46503C74.1 7.47521 70.9331 7.47313 72.0197 7.4643ZM133.577 7.4513C132.238 7.4524 133.208 7.47543 134.04 7.46595C134.093 7.46535 133.665 7.45125 133.577 7.4513ZM132.625 7.45069C131.584 7.43006 129.489 7.47187 131.155 7.46766C131.316 7.46723 132.673 7.4517 132.625 7.45069ZM80.4299 7.46626C80.5667 7.45835 81.8205 7.46217 82.3559 7.46406C82.3414 7.47128 80.955 7.46537 80.4299 7.46626ZM112.219 7.46406C112.273 7.45784 107.915 7.45819 107.618 7.46638C108.306 7.4629 112.169 7.46964 112.219 7.46406ZM123.395 7.45533C123.285 7.45426 121.779 7.45589 121.823 7.46137C122.558 7.46857 123.893 7.46019 123.395 7.45533ZM145.609 7.4557C145.69 7.45432 144.563 7.41942 147.234 7.44239C147.627 7.44575 146.226 7.45487 146.365 7.45612C146.657 7.45857 146.888 7.4597 147.073 7.45991C145.829 7.4628 144.536 7.46416 144.411 7.46204C143.824 7.45205 145.572 7.45627 145.609 7.4557ZM157.27 7.42969C157.527 7.424 159.164 7.42705 159.536 7.42939C159.6 7.42983 159.322 7.44479 160.059 7.44367C160.651 7.44275 159.767 7.42743 160.919 7.42988C162.085 7.43234 160.528 7.44326 160.63 7.44404C160.766 7.44506 162.568 7.43818 162.512 7.44709C162.47 7.45369 160.54 7.44923 160.062 7.45063C159.451 7.45243 160.192 7.46343 159.17 7.46107C158.528 7.45959 158.884 7.44025 158.749 7.43928C158.635 7.43849 156.391 7.44962 157.274 7.42976C157.273 7.42973 157.272 7.42971 157.27 7.42969ZM147.41 7.45905C147.316 7.45971 147.206 7.46005 147.073 7.45991C147.186 7.45965 147.298 7.45934 147.41 7.45905ZM61.7824 7.45032C62.4143 7.45629 60.5389 7.46394 59.8287 7.45612C59.8164 7.44982 61.6818 7.4494 61.7824 7.45032ZM148.563 7.44331C150.412 7.44815 149.052 7.45481 147.41 7.45905C147.931 7.45541 147.943 7.44169 148.563 7.44331ZM96.0878 7.45136C96.1657 7.4528 96.2152 7.45505 96.2214 7.45875C96.0165 7.45471 95.9982 7.45254 96.0878 7.45136ZM100.4 7.45795C101.878 7.4467 98.8745 7.44715 98.8935 7.45521C98.9025 7.45825 100.34 7.4584 100.4 7.45795ZM135.295 7.4524C135.16 7.4513 137.26 7.41732 134.21 7.44282C135.838 7.44682 134.121 7.45052 134.146 7.4535C134.213 7.46205 136.947 7.45383 137.552 7.45753C138.026 7.44222 135.741 7.45603 135.298 7.4524C135.297 7.4524 135.296 7.4524 135.295 7.4524ZM178.288 7.43793C177.918 7.4469 176.742 7.44402 175.949 7.44349C176.32 7.43452 177.495 7.43741 178.288 7.43793ZM50.4704 42.5608C55.9049 42.5525 56.6089 42.589 51.6364 42.5746C51.539 42.5743 50.1405 42.5645 50.4704 42.5608ZM97.1108 42.5702C97.6229 42.5862 95.9282 42.5887 94.8152 42.5821C94.5633 42.5807 93.6321 42.5645 94.6955 42.5614C94.6615 42.5807 96.306 42.5881 97.1108 42.5702ZM149.608 7.43311C150.146 7.4225 151.803 7.43005 152.676 7.43165C152.143 7.44039 150.38 7.43643 149.608 7.43311ZM68.3284 42.5798C68.9011 42.581 69.2879 42.5672 69.189 42.566C68.7463 42.5607 67.6756 42.5719 68.3284 42.5798ZM144.26 7.43146C144.185 7.42512 146.379 7.41902 146.532 7.4347C146.063 7.43356 144.315 7.43544 144.26 7.43146ZM176.792 7.43317C176.452 7.42995 178.216 7.42417 178.75 7.42737C178.707 7.43413 177.016 7.43527 176.792 7.43317ZM77.5506 42.5751C78.0636 42.5763 79.3451 42.5767 79.487 42.5711C79.6633 42.5641 77.7841 42.5665 77.5506 42.5751ZM3.38616 16.8976C3.40141 16.8348 2.57991 18.5927 2.33315 19.4203C1.77716 20.96 3.23982 16.9097 3.38616 16.8976ZM62.9061 42.587C61.2884 42.5738 63.0845 42.5866 63.0136 42.5727C61.9251 42.5722 59.2173 42.5715 61.079 42.5851C61.4416 42.5878 62.3986 42.5861 62.9061 42.587ZM64.3983 42.5916C64.5717 42.5871 65.7376 42.573 64.7297 42.574C64.2637 42.5745 63.5127 42.5902 64.3983 42.5916ZM1.78172 28.5708C1.979 29.5145 1.3556 26.8958 1.41273 25C1.41249 24.1031 1.48812 23.3922 1.49335 23.3331C1.5037 23.2355 1.5115 23.1714 1.51627 23.1347C1.52578 22.8942 1.71478 21.6822 1.76263 21.5477C1.68175 21.9057 1.541 22.8998 1.53334 23.0168C1.52726 23.0668 1.52283 23.1042 1.51966 23.1299C1.50582 23.2925 1.4236 24.0715 1.42498 25C1.39741 26.5278 1.73781 28.4104 1.78172 28.5708ZM6.94908 37.8185C5.76948 36.7033 5.65054 36.4206 5.73326 36.5351C6.93173 37.8293 6.14011 36.995 6.17291 37.0382C6.2478 37.1376 7.1541 38.0043 6.94537 37.815C6.94661 37.8162 6.94784 37.8174 6.94908 37.8185ZM2.35749 30.6983C2.32298 30.6392 1.93883 29.3336 1.93829 29.2759C1.81498 28.7329 1.96242 29.3999 2.15422 30.0386C2.34406 30.6778 2.57179 31.2857 2.35749 30.6983ZM166.061 7.40815C167.058 7.41121 166.08 7.42254 165.417 7.41846C165.362 7.41806 165.181 7.40544 166.061 7.40815ZM65.1947 42.5886C65.4259 42.5907 71.3402 42.5988 70.9848 42.5817C70.4826 42.5837 63.7601 42.5749 65.1947 42.5886ZM109.394 42.5927C108.351 42.5926 109.488 42.5764 110.044 42.5825C110.251 42.5847 109.657 42.5927 109.394 42.5927ZM141.302 7.41682C140.219 7.42568 140.443 7.39594 141.382 7.40613C141.419 7.40653 141.344 7.41647 141.302 7.41682ZM101.062 42.5834C104.659 42.5736 103.807 42.6248 99.1305 42.6075C99.2768 42.6053 99.4231 42.603 99.5695 42.6007C94.172 42.593 99.2003 42.5971 100.522 42.5942C101.024 42.5931 100.603 42.5846 101.058 42.5834C101.059 42.5834 101.061 42.5834 101.062 42.5834ZM114.879 42.5937C118.343 42.63 111.73 42.6063 109.833 42.6111C111.672 42.5961 114.066 42.5984 110.81 42.583C115.57 42.58 113.588 42.5945 113.778 42.5957C114.003 42.597 114.731 42.5921 114.879 42.5937ZM105.741 42.5939C105.541 42.595 104.033 42.5876 103.489 42.5888C104.249 42.5764 107.071 42.5867 105.741 42.5939ZM17.0128 42.4743C16.8907 42.4639 16.5838 42.4664 15.4424 42.2388C15.7936 42.3093 16.5286 42.4278 17.0128 42.4743ZM57.1253 7.40766C56.3054 7.40696 54.6726 7.4033 55.1733 7.41352C55.2281 7.41439 57.1228 7.4134 57.1253 7.40766ZM82.3725 42.5964C82.547 42.5976 87.057 42.5984 85.4992 42.5877C85.0294 42.5845 80.9259 42.5858 82.3725 42.5964ZM59.0176 42.5952C59.3951 42.5953 60.9284 42.5935 60.961 42.5912C61.0647 42.5832 59.1826 42.5876 59.0176 42.5952ZM52.9888 7.39771C52.8808 7.3967 50.3762 7.39849 50.6516 7.4032C51.1742 7.41212 53.3589 7.40118 52.9888 7.39771ZM169.689 7.38538C169.898 7.38502 170.175 7.39558 170.247 7.3957C170.418 7.39585 174.25 7.39179 172.786 7.40534C172.542 7.40761 167.028 7.40241 166.31 7.40107C166.033 7.38657 168.389 7.40036 168.962 7.39887C169.063 7.39859 169.127 7.38646 169.687 7.38544C169.688 7.38542 169.688 7.3854 169.689 7.38538ZM11.2224 40.7877C11.0018 40.8406 7.34517 38.3696 7.4674 38.295C8.60616 39.282 9.8709 40.1224 11.2224 40.7877ZM13.2854 41.6485C14.1728 41.9593 12.0867 41.2525 11.5142 40.9365C11.5017 40.9467 13.1493 41.6255 13.2854 41.6485ZM67.5632 42.6296C68.0159 42.6274 66.6236 42.6139 66.935 42.6113C67.1346 42.6097 68.1463 42.6147 68.4689 42.6105C68.5604 42.6092 67.5285 42.5966 67.23 42.5971C66.8061 42.5978 67.2173 42.6078 66.7546 42.6078C65.2186 42.6081 63.8567 42.601 62.4168 42.6011C62.2867 42.6012 63.2952 42.6082 62.186 42.6081C62.0146 42.6081 60.9848 42.5976 59.6579 42.5992C56.7275 42.6316 54.576 42.5998 50.8573 42.6114C50.9976 42.6145 53.7786 42.6227 53.9424 42.623C57.0507 42.6283 62.6193 42.6289 65.8749 42.629C66.7102 42.629 66.3046 42.6221 66.6644 42.6219C66.9487 42.6217 66.6106 42.6344 67.5632 42.6296ZM57.5609 7.40064C57.1701 7.38796 55.7991 7.39599 54.9235 7.39533C55.2317 7.40677 56.7052 7.39783 57.5609 7.40064ZM33.2769 42.6069C33.7159 42.6064 35.0766 42.6102 35.189 42.6064C35.3339 42.6014 33.3698 42.5982 33.2769 42.6069ZM191.268 7.44314C191.309 7.4386 192.337 7.55237 192.374 7.56548C193.289 7.67756 190.211 7.34766 191.268 7.44314ZM207.417 23.4401C207.471 24.0322 207.489 24.628 207.485 25C207.484 25.1186 207.481 25.2135 207.478 25.2774C207.479 25.203 207.48 25.1079 207.48 25C207.489 24.3823 207.407 23.3624 207.417 23.4401ZM184.9 42.6089C185.065 42.6224 182.655 42.6136 182.2 42.6124C182.369 42.6064 184.779 42.5992 184.9 42.6089ZM17.1777 42.5345C15.7456 42.3587 16.0444 42.4052 15.1479 42.2161C15.0037 42.1724 14.5355 42.0635 16.0887 42.3703C16.3714 42.4092 15.2617 42.2829 17.1777 42.5345ZM98.3687 42.6071C97.9941 42.616 96.8229 42.6134 96.0315 42.6127C96.209 42.606 97.8057 42.6077 98.3687 42.6071ZM48.4653 7.38752C47.7743 7.37493 44.5815 7.38427 45.3715 7.39258C45.4839 7.39367 48.0174 7.38704 48.4653 7.38752ZM153.354 7.39246C154.668 7.38255 151.947 7.37948 151.088 7.38917C151.477 7.38853 153.266 7.39311 153.354 7.39246ZM193.18 42.307C193.122 42.3317 191.773 42.5279 191.709 42.5209C191.153 42.5665 191.838 42.5143 192.497 42.4149C193.159 42.3171 193.792 42.1782 193.18 42.307ZM204.904 15.7862C205.235 16.1642 206.597 19.1052 206.723 19.829C206.648 19.1076 204.655 15.2272 204.904 15.7862ZM23.1992 42.6218C22.1482 42.6222 21.1509 42.6197 20.1853 42.6161C20.3885 42.6093 23.0882 42.6166 23.1992 42.6218ZM188.157 42.6171C188.082 42.617 188.009 42.6162 187.938 42.6161C188.013 42.6164 188.086 42.6168 188.157 42.6171ZM46.7259 42.6266C47.6068 42.6293 47.424 42.6167 47.3697 42.6163C46.7069 42.6123 45.7287 42.6235 46.7259 42.6266ZM56.5545 7.38196C56.2491 7.37061 54.7676 7.37942 53.9153 7.37671C54.1626 7.38568 55.868 7.38315 56.5545 7.38196ZM118.588 42.6169C119.695 42.6292 115.192 42.6435 114.243 42.6356C114.173 42.628 118.426 42.6153 118.588 42.6169ZM149.275 7.37543C149.187 7.36654 147.296 7.37727 147.698 7.38147C147.952 7.38415 149.328 7.38096 149.275 7.37543ZM111.979 42.6304C111.556 42.6331 110.57 42.6244 110.917 42.619C111.363 42.6122 112.088 42.6297 111.979 42.6304ZM74.0231 42.6376C74.2081 42.6389 76.6956 42.6298 75.668 42.6207C74.9549 42.6144 74.8414 42.6273 74.6738 42.6273C74.4864 42.6273 70.493 42.6115 74.0231 42.6376ZM143.807 42.6247C142.868 42.6281 141.733 42.6241 140.751 42.6244C141.151 42.6189 143.407 42.6174 143.807 42.6247ZM156.566 7.37305C156.338 7.36945 150.129 7.36729 153.656 7.37836C153.862 7.37899 157.258 7.38395 156.566 7.37305ZM17.1777 42.5345C17.3582 42.5531 17.5665 42.5723 17.81 42.5894C17.5682 42.573 17.3594 42.5536 17.1777 42.5345ZM33.8703 42.6289C33.5311 42.6354 35.24 42.6371 35.7443 42.6337C35.8996 42.6258 33.917 42.628 33.8703 42.6289ZM140.677 42.6334C140.111 42.6371 139.083 42.6332 138.383 42.6336C138.501 42.6276 140.432 42.6273 140.677 42.6334ZM180.42 42.6402C179.296 42.6366 177.913 42.6383 177.892 42.6456C177.868 42.6445 177.814 42.6433 177.723 42.642C177.632 42.6408 176.428 42.6442 175.905 42.6417C172.773 42.6268 187.998 42.6329 179.174 42.6537C179.589 42.6492 180.005 42.6447 180.42 42.6402ZM202.192 12.368C201.767 11.9049 200.391 10.8188 200.743 11.1078C201.015 11.2759 202.644 12.801 202.192 12.368ZM204.778 34.4572C204.899 34.3108 205.722 32.812 205.72 32.7611C205.305 33.6543 204.308 35.1679 204.778 34.4572ZM198.346 9.5078C198.003 9.31638 197.546 9.10987 197.587 9.13102C197.948 9.3022 198.918 9.83582 198.346 9.5078ZM20.1888 42.6665C20.7845 42.6706 22.6834 42.6602 23.0969 42.6506C23.1738 42.6525 23.3812 42.6549 23.7614 42.6578C23.7603 42.6578 23.7591 42.6578 23.7579 42.6578C24.2713 42.6616 39.619 42.6658 29.3243 42.6475C29.0019 42.6469 29.4423 42.6554 28.1305 42.6539C28.0438 42.6538 28.0007 42.6468 27.7331 42.6465C27.1171 42.6457 23.8361 42.6413 23.1767 42.647C23.171 42.6457 23.1285 42.6444 23.0379 42.6433C22.2292 42.6332 19.7266 42.6633 20.1888 42.6665ZM202.698 37.1281C202.944 36.8864 203.647 36.0531 203.706 35.9561C203.387 36.3945 202.143 37.7033 202.698 37.1281ZM156.373 7.34772C155.658 7.34264 153.846 7.35214 154.394 7.35718C154.729 7.36029 157.198 7.35355 156.373 7.34772ZM207.353 27.4528C206.578 31.3943 207.184 28.3976 207.076 29.0033C207.191 28.4896 207.283 27.9732 207.353 27.4528ZM4.2644 34.7063C4.62273 35.2377 4.17275 34.632 3.82088 34.0186C3.71003 33.8267 4.06457 34.4086 4.2644 34.7063ZM10.3373 9.61998C9.83905 9.84915 12.226 8.64535 11.2989 9.12044C11.252 9.1359 10.3688 9.59499 10.3373 9.61998ZM1.41281 26.56C1.46918 26.9904 1.47205 27.2773 1.69773 28.4824C1.39144 26.6932 1.62096 28.3618 1.41281 26.56ZM177.904 42.6468C177.897 42.6464 177.891 42.646 177.892 42.6456C177.9 42.646 177.903 42.6464 177.904 42.6468ZM194.86 8.06343C194.383 7.89601 193.001 7.60834 193.41 7.70458C193.453 7.70366 194.663 7.99987 194.86 8.06343ZM23.0969 42.6506C23.0287 42.649 23.0634 42.6479 23.1767 42.647C23.182 42.6482 23.1527 42.6493 23.0969 42.6506ZM201.456 11.67C201.434 11.6207 202.971 13.1206 203.006 13.2065C203.832 14.1225 202.163 12.2164 201.456 11.67ZM141.895 7.33814C141.782 7.33885 142.511 7.35645 142.957 7.34955C143.303 7.3442 142.318 7.33543 141.895 7.33814ZM1.52995 22.4035C1.62229 21.728 1.83896 20.7942 1.89455 20.6273C1.76518 21.0637 1.52354 22.4169 1.52995 22.4035ZM9.43564 10.1514C8.75403 10.5788 7.29628 11.7046 6.48349 12.5529C6.42031 12.5186 8.7557 10.5008 9.43564 10.1514ZM18.3198 42.6488C18.3432 42.6499 18.6575 42.6632 19 42.6629C19.4778 42.6632 20.0037 42.6624 19.866 42.6574C19.7238 42.6522 19.3534 42.6512 19 42.6521C18.4984 42.6542 18.0375 42.6331 18.3198 42.6488ZM145.272 7.34748C146.049 7.34151 144.26 7.32319 143.44 7.33734C143.018 7.34459 145.141 7.34848 145.272 7.34748ZM190.523 7.34972C189.518 7.31308 192.009 7.4299 192.352 7.51515C191.895 7.44213 190.88 7.35352 190.523 7.34972ZM206.12 31.9693C207.268 29.0101 206.605 30.6104 206.431 31.1442C206.41 31.2214 206.093 32.0413 206.12 31.9693ZM40.442 7.33533C39.9843 7.33896 41.6908 7.3521 41.9117 7.34345C42.0481 7.33803 40.7348 7.33302 40.442 7.33533ZM162.166 42.6541C162.303 42.654 162.438 42.6539 162.572 42.6539C162.472 42.6543 162.339 42.6544 162.166 42.6541ZM181.22 7.3031C183.497 7.33997 183.258 7.31155 183.455 7.31171C183.883 7.31211 184.876 7.32207 185.681 7.32044C184.759 7.32459 183.836 7.32874 182.914 7.33289C183.567 7.33527 188.715 7.34641 189.876 7.34441C190.009 7.34422 190.089 7.34507 190.103 7.34457C190.152 7.34312 190.052 7.33952 189.876 7.33847C189.379 7.3358 188.289 7.3371 188.246 7.33655C188.162 7.33548 187.851 7.31182 187.666 7.31092C187.362 7.30948 182.069 7.30899 181.22 7.3031ZM207.535 25.5255C207.516 26.0333 207.492 26.18 207.477 26.4158C207.471 26.4962 207.481 26.5103 207.456 26.784C207.497 26.3679 207.524 25.9436 207.535 25.5255ZM177.145 7.33625C176.5 7.32532 179.389 7.32947 179.482 7.33069C179.976 7.3381 177.671 7.34517 177.145 7.33625ZM200.631 10.9848C200.569 10.8942 198.756 9.68516 198.753 9.72563C199.285 9.96584 201.599 11.7344 200.631 10.9848ZM207.42 27.1235C207.346 27.8854 207.017 29.2972 207.063 29.1366C207.063 29.1355 207.063 29.1344 207.063 29.1333C207.221 28.4702 207.34 27.7984 207.42 27.1235ZM147.934 7.31903C146.489 7.29758 147.174 7.32469 148.452 7.33161C148.84 7.32198 148.17 7.32252 147.934 7.31903ZM143.311 7.30304C142.909 7.29918 138.768 7.30341 139.4 7.31476C139.625 7.31881 142.006 7.3086 142.116 7.30939C142.282 7.31055 141.522 7.32311 142.792 7.32062C142.718 7.31637 143.449 7.30433 143.311 7.30304ZM146.738 7.3053C145.303 7.28899 144.98 7.31907 146.06 7.31916C146.482 7.31921 146.943 7.30765 146.738 7.3053ZM152.601 7.30786C152.085 7.30501 150.709 7.30085 149.761 7.31085C151.03 7.31171 152.299 7.31256 153.568 7.31342C153.714 7.30775 153.053 7.31037 152.598 7.30786C152.599 7.30786 152.6 7.30786 152.601 7.30786ZM17.3499 7.33848C16.2305 7.42925 18.8085 7.20794 18.923 7.25322C19.2482 7.25356 17.8491 7.27961 17.3499 7.33848ZM31.5338 7.062C31.217 7.0586 31.0098 7.04741 30.3123 7.05328C31.0139 7.06154 31.7154 7.0698 32.417 7.07806C32.9622 7.05913 31.8802 7.06576 31.5338 7.062ZM28.8548 6.99285C28.9539 6.99239 28.4125 6.96329 29.6929 6.98272C30.5579 6.99584 25.8537 7.00862 25.0045 6.99572C25.9428 6.98972 28.0017 6.99659 28.8548 6.99285ZM20.6146 6.86687C20.5604 6.86455 22.3476 6.86114 22.5545 6.86278C23.6408 6.8714 20.9081 6.8793 20.6146 6.86687ZM26.3163 6.87242C25.4781 6.86677 27.3349 6.86313 27.8883 6.86638C27.942 6.8718 26.4458 6.87325 26.3163 6.87242ZM6.8272 11.5252C6.13847 12.1295 5.5986 12.7468 6.59733 11.7561C6.64552 11.7094 6.85649 11.4995 6.8272 11.5252ZM22.3619 6.83751C23.2001 6.84316 21.3433 6.8468 20.7899 6.84355C20.7384 6.83814 22.2343 6.83668 22.3619 6.83751ZM6.32421 11.9317C5.45243 12.7835 5.79742 12.5193 5.90036 12.4078C6.31489 11.9361 7.9348 10.5243 8.30764 10.2875C5.79086 12.2866 6.76895 11.5703 6.32421 11.9317ZM2.97562 16.4118C2.43967 17.4043 3.83192 14.8784 4.19387 14.4556C3.85494 14.904 3.11446 16.1211 2.97562 16.4118ZM0.926475 22.908C0.871683 23.3273 0.797311 24.3234 0.805152 25C0.805643 25.2974 0.814261 25.5295 0.819612 25.6217C0.814041 25.4662 0.808983 25.2478 0.809367 25C0.801725 24.1944 0.904743 23.1046 0.926475 22.908ZM0.799022 24.2776C0.781949 24.6222 0.78294 24.8739 0.785901 25C0.789005 25.1183 0.793251 25.1262 0.795424 25C0.797702 24.8911 0.798374 24.6821 0.806672 24.3602C0.807753 24.3177 0.800959 24.2428 0.799022 24.2776ZM1.3534 29.5756C1.4998 30.1847 1.73997 30.8533 1.45487 29.8854C1.37526 29.5958 1.33863 29.5109 1.3534 29.5756ZM5.23635 13.0042C4.64826 13.6798 3.95556 14.6001 5.16002 13.1196C4.72541 13.6302 4.31915 14.1644 3.94326 14.7194C5.41828 12.7026 5.3714 12.8968 5.84353 12.358C6.54812 11.6432 6.52058 11.7293 6.37724 11.8704C6.9101 11.2405 9.69583 9.08148 11.5921 8.33741C9.94534 9.01021 7.53115 10.6371 6.30034 11.892C5.94001 12.2393 5.61101 12.5971 5.32811 12.9162C4.87856 13.4316 5.26925 12.9664 5.23866 13.0015C5.23789 13.0024 5.23712 13.0033 5.23635 13.0042ZM4.37194 35.8745C5.49779 37.3224 4.77785 36.412 4.16719 35.5762C4.14058 35.5407 4.34419 35.8383 4.37194 35.8745ZM19.9605 6.74955C22.38 6.76165 20.6213 6.77769 25.683 6.75334C23.5565 6.77057 25.5654 6.76573 25.1503 6.77269C24.8173 6.77819 23.5696 6.77363 24.2949 6.78471C23.3416 6.77265 19.2028 6.77599 19.0183 6.77403C19.02 6.77403 19.0218 6.77403 19.0235 6.77403C18.9127 6.77287 19.1884 6.74571 19.9605 6.74955ZM0.850278 22.9081C0.754642 23.515 0.767567 23.7577 0.723345 24.9627C0.723657 24.9756 0.723979 24.9881 0.724307 25C0.735257 25.3367 0.739784 25.2864 0.741175 25C0.64546 24.0237 1.21392 20.3841 1.48872 19.8756C0.70911 23.0543 1.00795 22.0128 1.27557 20.7123C1.59441 19.4235 2.12022 17.9339 1.40435 20.1058C2.60742 16.537 1.78862 18.9324 1.96456 18.3778C2.14945 17.7789 3.1338 15.8838 3.08961 15.9826C3.08903 15.9837 3.08845 15.9847 3.08787 15.9857C2.444 17.1215 1.92249 18.3269 1.53645 19.5743C1.95089 18.3646 1.11985 20.9003 0.993353 21.8019C0.934177 22.1705 0.886807 22.5373 0.850278 22.9081ZM3.15594 15.9535C3.04207 16.04 1.86016 18.6151 1.97368 18.4644C2.01162 18.0648 3.95358 14.5437 3.15594 15.9535ZM12.4233 7.9733C11.4666 8.32389 10.0668 9.05245 9.60476 9.35939C10.4688 8.8186 11.9061 8.16939 12.4233 7.9733ZM20.7648 43.2499C22.0442 43.2412 18.1054 43.2386 19.2449 43.2489C19.301 43.2494 20.702 43.2503 20.7648 43.2499ZM0.756871 25.8573C0.835323 27.1764 0.80919 26.5505 0.760555 25.5762C0.758007 25.5198 0.753963 25.7967 0.756871 25.8573ZM21.9212 6.7454C22.0082 6.73703 25.5188 6.74291 26.141 6.74284C25.7875 6.75062 21.8214 6.755 21.9212 6.7454ZM14.1145 7.38104C12.1237 7.8423 9.70782 9.22411 9.47057 9.40288C9.21442 9.55963 9.60889 9.30165 9.55049 9.33753C9.37753 9.36086 6.81112 11.2716 6.74034 11.4292C6.65888 11.5039 7.09951 11.1299 6.61544 11.5772C7.40111 10.4781 12.5586 7.66525 12.9295 7.76361C13.1554 7.69785 11.4596 8.20925 14.1111 7.38198C14.1123 7.38166 14.1134 7.38135 14.1145 7.38104ZM8.83353 9.80642C9.4972 9.36294 7.64678 10.6243 7.25355 11.0016C6.31958 11.7613 8.711 9.81393 8.83353 9.80642ZM4.85571 13.4089C4.66198 13.5826 3.33823 15.4761 3.27619 15.6692C3.81002 14.7115 5.22097 12.9575 4.85571 13.4089ZM5.23018 37.0313C5.60945 37.4973 6.79524 38.645 6.88143 38.6904C6.41575 38.3091 5.28604 37.1076 5.23018 37.0313ZM33.8988 6.6796C32.9184 6.6733 35.1899 6.67072 35.8526 6.67374C35.8885 6.67877 33.9823 6.68015 33.8988 6.6796ZM0.696593 26.0849C0.703446 26.2611 0.811113 28.1757 1.38166 30.0881C1.91351 32.0097 2.91798 33.8394 3.18548 34.2695C2.92765 33.8462 1.93668 32.036 1.40725 30.1386C0.840107 28.251 0.723794 26.3612 0.714072 26.201C0.707086 26.1057 0.694371 26.0394 0.696593 26.0849ZM6.18757 11.8797C6.65691 11.4067 6.99934 11.137 7.06236 11.0818C7.67354 10.5273 9.08407 9.56083 8.78252 9.78421C7.52 10.5303 5.25819 12.8276 6.18757 11.8797ZM5.53746 37.4481C7.22725 39.2416 4.03075 35.7521 4.47661 36.1866C4.49159 36.2258 5.35341 37.2704 5.53746 37.4481ZM0.663801 25.2749C0.662391 25.2289 0.660407 25.1348 0.659852 25C0.364831 23.506 1.93782 17.4699 2.68304 16.6196C2.22775 17.5588 1.86955 18.3264 1.45326 19.6666C1.34532 20.0289 1.38215 19.9347 1.37046 19.9735C1.19704 20.6061 1.31742 20.1307 1.21569 20.5216C1.10566 20.7005 0.585207 23.9076 0.66727 25C0.666943 25.3138 0.670074 25.4463 0.663801 25.2749ZM6.45691 11.6114C6.65865 11.216 10.3975 8.62716 10.6309 8.66137C11.2492 8.36804 10.1552 8.8596 8.97694 9.63356C7.78689 10.3917 6.58076 11.4875 6.45691 11.6114ZM0.670762 25.9405C0.656433 25.7525 0.639339 25.3978 0.63824 25C0.628715 23.7637 0.822899 22.1536 0.676015 24.0204C0.669124 24.158 0.647702 24.5532 0.646749 25C0.645483 25.318 0.654468 25.6573 0.670762 25.9405ZM5.3464 37.2657C5.3953 37.3875 7.25581 39.1663 7.32382 39.1593C6.9711 38.991 4.41133 36.2487 5.3464 37.2657ZM4.47491 36.2551C4.51618 36.3014 4.14218 35.8282 4.90055 36.767C4.97287 36.8367 5.04587 37.0244 6.11801 38.0999C6.33713 38.3166 6.69564 38.6319 6.67087 38.6078C5.39617 37.6322 2.64219 33.7279 4.47491 36.2551ZM6.51038 11.5468C6.32813 11.7105 6.74439 11.2903 7.15849 10.9545C7.33722 10.8122 7.00925 11.0846 6.51038 11.5468ZM11.9446 41.9545C11.2568 41.6589 11.9794 42.0069 12.9401 42.3455C13.899 42.6931 15.1058 42.9612 15.225 42.9802C15.0604 43.0075 12.0604 42.0738 11.9446 41.9545ZM36.1944 6.60184C36.1933 6.60184 36.1921 6.60184 36.1909 6.60184C37.425 6.60413 36.6606 6.61251 36.7184 6.61277C39.347 6.62508 38.6498 6.6061 39.0609 6.60386C39.9423 6.59901 39.8002 6.62209 41.287 6.61252C38.8294 6.62666 41.0665 6.62073 41.1361 6.62894C41.4115 6.66245 37.864 6.61325 36.6386 6.62028C36.4679 6.62125 37.7284 6.63194 37.291 6.63499C35.8688 6.64484 31.4591 6.59311 36.1944 6.60184ZM7.47444 10.6919C7.84355 10.197 11.7139 8.0227 10.697 8.61553C10.4567 8.58454 6.7636 11.173 7.47444 10.6919ZM177.51 43.3867C176.466 43.3952 178.885 43.4052 179.334 43.3986C179.556 43.3953 177.968 43.3829 177.51 43.3867ZM194.527 42.8309C195.758 42.5091 196.991 41.9853 195.505 42.5138C195.348 42.5731 194.387 42.867 194.527 42.8309ZM113.036 43.4049C114.331 43.4176 114.254 43.394 113.303 43.3943C112.967 43.3944 112.995 43.4045 113.036 43.4049ZM162.459 43.4018C162.589 43.4026 164.086 43.4011 164.031 43.3957C163.478 43.3925 161.621 43.3962 162.459 43.4018ZM112.625 43.4082C113.392 43.404 112.071 43.3869 111.132 43.4036C111.609 43.4022 112.546 43.4087 112.625 43.4082ZM0.958064 28.6556C1.07685 29.3039 1.57666 31.0988 2.01374 32.0764C2.00358 32.2055 1.04362 29.4225 0.958064 28.6556ZM189.205 43.4088C190.379 43.4 187.864 43.3928 188.094 43.4044C188.126 43.4051 189.159 43.4092 189.205 43.4088ZM71.2573 43.4095C72.1106 43.402 69.401 43.392 70.1468 43.4051C70.1836 43.4057 71.2105 43.4099 71.2573 43.4095ZM59.4254 43.4052C60.0727 43.4077 62.8337 43.4069 61.7591 43.3996C61.5922 43.3985 59.474 43.3983 59.4254 43.4052ZM39.1337 6.59482C38.7849 6.58193 40.8098 6.585 41.0996 6.58725C41.2135 6.58819 39.5887 6.61159 39.1337 6.59482ZM121.446 43.4069C122.116 43.4053 123.854 43.4083 124.16 43.4016C123.34 43.403 121.226 43.3934 121.446 43.4069ZM183.852 43.4089C184.874 43.4229 186.621 43.4215 186.189 43.4032C184.26 43.4044 186.428 43.4197 183.852 43.4089ZM108.309 43.4233C108.847 43.4244 109.258 43.4068 109.198 43.406C108.616 43.3981 107.775 43.4165 108.309 43.4233ZM148.629 43.4088C148.66 43.4163 150.382 43.4129 150.152 43.4081C150.077 43.4065 148.604 43.4028 148.629 43.4088ZM16.8359 43.2834C17.6367 43.3935 15.1869 43.0923 14.4888 42.8582C14.1393 42.7939 16.7277 43.3176 16.8359 43.2834ZM93.4097 43.4189C93.3296 43.4301 96.0217 43.4238 94.9609 43.4145C94.6954 43.4122 93.4378 43.4152 93.4097 43.4189ZM67.6378 43.4323C69.4435 43.419 61.8609 43.4095 63.8534 43.4261C63.9959 43.4273 67.4805 43.4334 67.6378 43.4323ZM55.2541 43.424C55.5656 43.4254 55.4104 43.4629 54.1211 43.4485C53.9519 43.4466 54.7435 43.4367 54.6052 43.4344C54.5238 43.4331 51.7205 43.4279 51.5912 43.4287C51.4524 43.4297 51.6159 43.4417 51.475 43.4431C51.3162 43.4446 49.5905 43.434 48.6866 43.4339C46.9835 43.4337 46.7996 43.4437 46.66 43.4438C46.2531 43.4438 45.5692 43.4367 44.7444 43.4367C40.587 43.4368 34.2284 43.4453 30.9327 43.4241C33.8657 43.4326 36.6605 43.4236 39.5789 43.4208C38.7242 43.4417 43.8723 43.4047 40.8612 43.4288C42.2476 43.4236 54.233 43.4194 55.2506 43.424C55.2518 43.424 55.2529 43.424 55.2541 43.424ZM199.15 40.9341C198.517 41.3946 201.856 39.1761 202.033 38.8507C201.675 39.2493 199.262 40.9297 199.15 40.9341ZM181.329 43.4648C180.966 43.467 180.621 43.492 178.718 43.4793C178.716 43.4793 178.714 43.4793 178.712 43.4793C178.156 43.4756 178.79 43.4695 178.688 43.4674C178.651 43.4665 176.915 43.4541 178.357 43.4521C180.556 43.449 178.564 43.4706 179.736 43.4709C179.879 43.4709 182.098 43.4574 181.969 43.4544C181.956 43.4541 181.288 43.457 181.178 43.4557C180.762 43.4511 180.964 43.4433 180.906 43.4429C180.714 43.4419 177.205 43.4552 176.694 43.4436C176.529 43.4399 182.288 43.4312 182.512 43.4332C182.654 43.4344 182.594 43.4561 182.741 43.4582C182.817 43.4593 185.134 43.4512 185.434 43.4532C185.522 43.4537 185.588 43.4543 185.637 43.4549C185.287 43.4482 187.385 43.4486 187.32 43.4562C187.284 43.4592 185.84 43.4575 185.788 43.4569C185.766 43.4567 185.746 43.4564 185.728 43.4562C186.027 43.4644 181.138 43.464 182.193 43.4762C180.776 43.4828 182.394 43.4583 181.329 43.4648ZM174.517 43.4782C174.663 43.4759 174.81 43.4736 174.956 43.4713C172.475 43.4769 169.612 43.4659 166.754 43.466C166.029 43.466 166.863 43.48 165.912 43.4762C165.151 43.4731 164.308 43.4602 164.722 43.4573C164.823 43.4566 166.374 43.465 167.149 43.4641C169.441 43.4616 168.862 43.4496 168.996 43.4493C169.144 43.449 170.585 43.4574 171.373 43.457C173.353 43.456 174.257 43.4487 176.962 43.4583C175.401 43.4662 176.256 43.4833 174.517 43.4782ZM82.0394 43.4527C81.9451 43.4602 80.3215 43.4536 79.7317 43.4547C79.8245 43.4471 81.4492 43.4538 82.0394 43.4527ZM112.323 6.53751C111.825 6.54985 115.562 6.55291 114.577 6.54264C114.359 6.54036 112.793 6.5376 112.323 6.53751ZM129.114 6.54502C129.614 6.5416 127.601 6.53272 127.605 6.54227C127.608 6.54533 129.05 6.54546 129.114 6.54502ZM142.446 43.466C142.352 43.4664 140.976 43.4637 140.933 43.463C140.022 43.4499 144.549 43.4575 142.446 43.466ZM149.526 6.52982C147.784 6.53791 153.029 6.54142 151.426 6.5311C151.347 6.5306 149.61 6.52943 149.526 6.52982ZM156.818 6.52756C156.4 6.52799 154.545 6.52398 154.52 6.52774C154.483 6.53382 156.607 6.53797 156.818 6.52756ZM107.947 43.4699C108.148 43.4838 105.702 43.4733 104.851 43.4751C104.649 43.4611 107.096 43.4717 107.947 43.4699ZM123.388 43.4802C113.075 43.4912 115.348 43.4614 124.002 43.4734C124.014 43.4823 124.039 43.4795 123.388 43.4802ZM110.182 43.4785C110.556 43.4696 111.727 43.4723 112.519 43.473C112.376 43.4792 110.752 43.4769 110.182 43.4785ZM107.873 6.5184C108.52 6.50715 111.384 6.52103 110.875 6.52567C110.756 6.52667 107.635 6.52459 107.873 6.5184ZM141.582 43.4779C141.822 43.4915 138.726 43.4859 138.489 43.4829C137.533 43.4709 141.332 43.4809 141.582 43.4779ZM93.3091 43.4818C92.7623 43.4924 91.2091 43.487 90.2101 43.4868C90.665 43.4778 92.4615 43.4816 93.3091 43.4818ZM100.52 43.4901C100.458 43.4905 99.0644 43.4896 99.0021 43.4891C97.8605 43.4788 101.802 43.4814 100.52 43.4901ZM34.4836 6.50009C34.53 6.49975 35.585 6.50043 35.6218 6.50083C36.5635 6.511 33.397 6.50892 34.4836 6.50009Z" fill="white"/>
<path d="M14.9668 18.5583C15.3553 17.8228 16.4624 18.0418 16.541 18.8699L16.8105 21.7136C17.0563 21.6524 17.3134 21.6199 17.5781 21.6199C19.3268 21.6199 20.7449 23.0373 20.7451 24.7859C20.7451 25.2621 20.6365 25.7128 20.4482 26.1179L23.8213 26.9939C24.6196 27.2016 24.6516 28.3232 23.8662 28.5759C23.5112 28.6902 23.2776 29.0286 23.2959 29.4011L23.334 30.1804C23.3672 30.8564 22.7333 31.3692 22.0791 31.196L21.4258 31.0232C21.0489 30.9234 20.6528 31.0974 20.4707 31.4421C20.0821 32.1773 18.975 31.9576 18.8965 31.1296L18.5791 27.7898C18.2644 27.8946 17.928 27.9529 17.5781 27.9529C15.8294 27.9528 14.4121 26.5346 14.4121 24.7859C14.4122 24.4324 14.4702 24.0926 14.5771 23.7751L11.6172 23.0066C10.8186 22.7992 10.7861 21.6766 11.5713 21.4236C11.9263 21.3093 12.1609 20.9709 12.1426 20.5984L12.1045 19.8191C12.0713 19.1433 12.7044 18.6306 13.3584 18.8035L14.0127 18.9763C14.3893 19.0759 14.7847 18.9027 14.9668 18.5583Z" fill="white"/>
<g filter="url(#filter0_d_568_650)">
<path d="M50.4365 27.7C50.4965 27.74 50.5165 27.8 50.5165 27.84C50.5165 27.98 50.3565 28.1 50.1965 27.98C49.4165 27.4 48.5965 26.9 47.7365 26.48C46.3965 29.1 44.5965 31.26 42.2365 33.1C42.1765 33.14 42.1565 33.14 42.1165 33.14C41.9765 33.14 41.8965 33 42.0165 32.86C43.7565 30.9 45.1965 28.5 46.2565 25.84C45.1365 25.4 43.9165 25.08 42.6565 24.86C42.5165 24.84 42.4565 24.74 42.4565 24.66C42.4565 24.58 42.5565 24.48 42.6965 24.5C43.9965 24.72 45.2365 25.06 46.3965 25.5C47.1365 23.62 47.6965 21.64 48.0565 19.56H42.9765C42.2365 21.94 40.8965 24.26 39.4765 25.9C39.3565 26.04 39.1965 25.98 39.1965 25.84C39.1965 25.8 39.1965 25.78 39.2165 25.74C40.3765 23.42 41.1965 20.64 41.5965 18.24H41.0165C40.9165 18.24 40.8565 18.18 40.8565 18.08C40.8565 17.98 40.9165 17.92 41.0165 17.92H42.6565C43.1165 17.94 43.3365 18.24 43.2165 18.7C43.1765 18.88 43.1165 19.06 43.0765 19.24H49.2365C49.7765 19.24 50.0365 19.56 49.9165 20.1C49.4365 22.34 48.7765 24.36 47.8965 26.16C48.7765 26.6 49.6365 27.12 50.4365 27.7ZM66.0765 33H64.9365V24.18C63.2365 25.3 61.3165 26.12 59.1565 26.78C59.0165 26.82 58.9365 26.74 58.9365 26.66C58.9365 26.56 58.9765 26.52 59.0565 26.48C63.0965 24.64 65.9165 22 67.9365 18.46H67.0165C66.9165 18.46 66.8565 18.4 66.8565 18.3C66.8565 18.2 66.9165 18.14 67.0165 18.14H69.1765C69.6165 18.14 69.8565 18.34 69.8565 18.64C69.8565 18.76 69.8165 18.92 69.7165 19.08C68.8765 20.5 67.9365 21.68 66.8565 22.66V32.22C66.8565 32.74 66.5965 33 66.0765 33ZM90.7765 26.82C90.8965 26.86 90.9565 26.94 90.9565 27.04C90.9565 27.16 90.8565 27.26 90.6965 27.22C88.3365 26.68 86.1965 25.98 84.2765 25.12V32.02C84.2765 32.54 84.0165 32.8 83.4965 32.8H82.3565V24.14C81.3765 23.6 80.4365 22.98 79.5565 22.32C79.4965 22.26 79.4565 22.2 79.4565 22.14C79.4565 22 79.6165 21.88 79.7965 22C80.5965 22.62 81.4565 23.18 82.3565 23.68V17.82H81.8165C81.7165 17.82 81.6565 17.76 81.6565 17.66C81.6565 17.56 81.7165 17.5 81.8165 17.5H83.4965C84.0165 17.5 84.2765 17.76 84.2765 18.28V24.66C86.1965 25.56 88.3565 26.26 90.7765 26.82ZM100.22 18.2H101.68C102.12 18.2 102.38 18.46 102.38 18.9C102.38 26.24 101.08 30.04 97.6404 32.8C97.5004 32.92 97.3404 32.84 97.3404 32.72C97.3404 32.68 97.3604 32.64 97.4004 32.58C100.42 28.86 100.78 24.76 100.78 20.24V18.52H100.22C100.12 18.52 100.06 18.46 100.06 18.36C100.06 18.26 100.12 18.2 100.22 18.2ZM110.74 27.08C110.92 26.88 111.16 27 111.16 27.18C111.16 27.24 111.14 27.3 111.1 27.34C109.44 29.36 106.94 31.46 104.3 33.18V18.52H103.8C103.72 18.52 103.66 18.46 103.66 18.36C103.66 18.26 103.72 18.2 103.8 18.2H105.34C105.82 18.2 106.06 18.46 106.06 18.98V31.44C107.86 30.12 109.5 28.62 110.74 27.08ZM119.8 33.2H118.9V18.82H118.36C118.26 18.82 118.2 18.76 118.2 18.66C118.2 18.56 118.26 18.5 118.36 18.5H119.8C120.26 18.5 120.5 18.74 120.5 19.2V32.5C120.5 32.96 120.26 33.2 119.8 33.2ZM127.1 23.82H125.84L127.72 19.9H123.52C123.42 19.9 123.36 19.84 123.36 19.74C123.36 19.64 123.42 19.58 123.52 19.58H128.84C129.44 19.58 129.68 19.96 129.42 20.5L128.06 23.24C127.86 23.64 127.54 23.82 127.1 23.82ZM126.72 32.34C124.52 32.34 123.08 30.92 123.08 29.08C123.08 27.44 124.16 26.22 124.82 25.66C124.86 25.62 124.92 25.6 124.96 25.6C125.06 25.6 125.16 25.7 125.16 25.8C125.16 25.86 125.12 25.92 125.06 25.98C124.44 26.5 123.48 27.6 123.48 29.08C123.48 30.7 124.76 31.94 126.72 31.94C128.02 31.94 129.2 31.44 130 30.6C130.16 30.42 130.34 30.54 130.34 30.7C130.34 30.74 130.32 30.8 130.28 30.84C129.4 31.82 128.12 32.34 126.72 32.34ZM150.94 17.98H136.96C136.86 17.98 136.8 17.92 136.8 17.82C136.8 17.72 136.86 17.66 136.96 17.66H150.94C151.04 17.66 151.1 17.72 151.1 17.82C151.1 17.92 151.04 17.98 150.94 17.98ZM136.78 33.48C136.78 33.42 136.78 33.38 136.84 33.22C137.7 31.22 138.16 28.4 138.18 24.74V20.34C138.18 20.24 138.22 20.2 138.32 20.2H149.48C150 20.2 150.26 20.46 150.26 20.98V23.08C150.26 23.6 150 23.86 149.48 23.86H139.78V24.74C139.76 28.44 138.88 31.34 137.1 33.42C137 33.54 136.92 33.58 136.86 33.58C136.82 33.58 136.78 33.56 136.78 33.48ZM148.34 20.52H139.78V23.54H148.34V20.52ZM139.38 33.56C139.32 33.56 139.26 33.52 139.24 33.46C139.22 33.38 139.28 33.3 139.42 33.24C142 31.94 143.5 30.08 143.96 27.68H140.32C140.22 27.68 140.16 27.62 140.16 27.52C140.16 27.42 140.22 27.36 140.32 27.36H144.02C144.08 27 144.1 26.62 144.1 26.24V25.24H143.58C143.48 25.24 143.42 25.18 143.42 25.08C143.42 24.98 143.48 24.92 143.58 24.92H145.18C145.68 24.92 145.94 25.18 145.94 25.68V26.24C145.94 26.64 145.9 27.02 145.84 27.36H150.3C150.4 27.36 150.46 27.42 150.46 27.52C150.46 27.62 150.4 27.68 150.3 27.68H145.96C146.38 28.94 146.98 30.02 147.76 30.92C148.58 31.86 149.58 32.64 150.76 33.24C150.88 33.3 150.9 33.38 150.84 33.48C150.8 33.54 150.76 33.56 150.72 33.56C150.68 33.56 150.6 33.54 150.56 33.52C149.36 32.9 148.34 32.1 147.48 31.12C146.72 30.24 146.14 29.2 145.72 27.98C145.06 30.62 143 32.46 139.54 33.52C139.48 33.54 139.42 33.56 139.38 33.56ZM163.98 32.66H163.86C162.42 32.66 161.12 31.88 161.12 30.68C161.12 29.74 161.86 29.08 162.8 29.08C164.06 29.08 165.26 30.06 165.84 31.44C166.92 30.64 167.74 29.26 167.74 27.48C167.74 25.48 166.6 23.72 164.32 23.72C163.4 23.72 162.6 24.02 161.82 24.58L159.86 26.68C159.52 27.06 159.16 27.08 158.74 26.72L158.3 26.34L165.4 18.62H159.34C159.24 18.62 159.18 18.56 159.18 18.46C159.18 18.36 159.24 18.3 159.34 18.3H166.5C167.12 18.3 167.3 18.72 166.88 19.16L162.62 23.72C163.22 23.48 163.9 23.36 164.76 23.36C167.3 23.36 169.66 24.76 169.66 27.5C169.66 30.56 166.6 32.66 163.98 32.66ZM163.6 32.26C164.24 32.26 164.9 32.06 165.5 31.68C164.98 30.4 163.9 29.48 162.8 29.48C162.04 29.48 161.52 29.98 161.52 30.68C161.52 31.56 162.52 32.26 163.6 32.26Z" fill="white"/>
</g>
<path d="M188.405 18.5583C188.794 17.8228 189.901 18.0418 189.979 18.8699L190.249 21.7136C190.495 21.6524 190.752 21.6199 191.017 21.6199C192.765 21.6199 194.183 23.0373 194.184 24.7859C194.184 25.2621 194.075 25.7128 193.887 26.1179L197.26 26.9939C198.058 27.2016 198.09 28.3232 197.305 28.5759C196.95 28.6902 196.716 29.0286 196.734 29.4011L196.772 30.1804C196.806 30.8564 196.172 31.3692 195.518 31.196L194.864 31.0232C194.487 30.9234 194.091 31.0974 193.909 31.4421C193.521 32.1773 192.414 31.9576 192.335 31.1296L192.018 27.7898C191.703 27.8946 191.367 27.9529 191.017 27.9529C189.268 27.9528 187.851 26.5346 187.851 24.7859C187.851 24.4324 187.909 24.0926 188.016 23.7751L185.056 23.0066C184.257 22.7992 184.225 21.6766 185.01 21.4236C185.365 21.3093 185.599 20.9709 185.581 20.5984L185.543 19.8191C185.51 19.1433 186.143 18.6306 186.797 18.8035L187.451 18.9763C187.828 19.0759 188.223 18.9027 188.405 18.5583Z" fill="white"/>
<defs>
<filter id="filter0_d_568_650" x="22.1963" y="0.5" width="164.464" height="50.0801" filterUnits="userSpaceOnUse" color-interpolation-filters="sRGB">
<feFlood flood-opacity="0" result="BackgroundImageFix"/>
<feColorMatrix in="SourceAlpha" type="matrix" values="0 0 0 0 0 0 0 0 0 0 0 0 0 0 0 0 0 0 127 0" result="hardAlpha"/>
<feOffset/>
<feGaussianBlur stdDeviation="8.5"/>
<feComposite in2="hardAlpha" operator="out"/>
<feColorMatrix type="matrix" values="0 0 0 0 0 0 0 0 0 0 0 0 0 0 0 0 0 0 0.38 0"/>
<feBlend mode="normal" in2="BackgroundImageFix" result="effect1_dropShadow_568_650"/>
<feBlend mode="normal" in="SourceGraphic" in2="effect1_dropShadow_568_650" result="shape"/>
</filter>
</defs>
</svg>
