<svg width="86" height="51" viewBox="0 0 86 51" fill="none" xmlns="http://www.w3.org/2000/svg">
<path d="M36.0614 7.49201C36.1858 7.49074 36.6863 7.49383 36.903 7.4933C36.6574 7.50671 35.6126 7.49662 36.0614 7.49201ZM58.2856 6.51792C58.1058 6.52123 57.926 6.52455 57.7463 6.52787C58.2571 6.53002 58.9438 6.52759 59.4179 6.53073C59.4954 6.53126 59.2943 6.54086 59.4777 6.54129C59.6612 6.54172 59.6258 6.5286 59.8927 6.52719C60.1921 6.52566 61.5629 6.5348 62.0377 6.53458C62.8564 6.53417 63.6784 6.53236 64.501 6.53106C65.4886 6.52944 66.4757 6.60667 67.446 6.76525C65.5785 6.52343 67.4602 6.76344 67.9776 6.87413C68.0877 6.9115 68.0943 6.808 69.9115 7.33294C71.05 7.72007 70.0054 7.34599 71.8697 8.07944C70.4505 7.47784 71.8745 8.00578 72.9482 8.56566C73.1407 8.64593 74.6017 9.48768 75.1957 9.93718C75.4034 10.0838 75.7224 10.3048 75.9868 10.515C76.1685 10.6598 76.3008 10.7755 76.5627 11C77.7809 12.0493 78.8454 13.2369 79.7547 14.5667C79.1917 13.8122 80.1621 15.1823 80.1869 15.2566C80.3911 15.5805 79.4365 14.1342 79.8113 14.7081C80.3471 15.5017 80.821 16.3369 81.2272 17.2046C80.899 16.4901 81.6912 18.1381 81.7782 18.4672C81.8657 18.2827 82.9646 22.677 82.8817 23.3838C82.8808 23.5275 82.8809 22.5881 82.9599 24.7607C82.9614 24.973 82.9533 24.9223 82.9528 25C82.9527 25.0087 82.9526 25.0191 82.9527 25.0316C82.9533 25.1059 82.9798 25.5554 82.9374 26.0296C82.9036 26.2007 83.0278 25.0971 82.7773 27.5276C83.0034 26.5745 82.1838 30.8743 81.7481 31.5845C81.809 31.4357 81.8679 31.2862 81.9247 31.1363C81.6462 31.8805 81.588 32.0118 81.5208 32.1773C81.2421 32.8442 80.7864 33.7246 80.4438 34.303C80.04 34.9766 80.0571 34.9917 79.5264 35.7395C79.6561 35.5651 79.7831 35.3877 79.9065 35.2088C79.5553 35.7361 79.1771 36.2453 78.774 36.7335C79.6682 35.5717 78.582 36.9847 78.4939 37.0649C78.3716 37.2069 78.5416 36.9981 78.3359 37.2343C78.3138 37.2579 78.3553 37.232 78.0287 37.5879C77.334 38.32 77.428 38.1886 77.1236 38.4828C77.0938 38.5077 77.2056 38.4285 76.6599 38.9161C74.8697 40.4008 76.6761 38.9171 76.7308 38.844C76.8084 38.7557 76.2288 39.3002 77.6537 37.9369C77.1837 38.4037 77.1182 38.4313 77.0649 38.4833C77.0223 38.5347 76.1586 39.2886 76.1042 39.3221C75.6672 39.678 76.0612 39.3767 75.9765 39.4466C75.9142 39.5135 74.7924 40.3212 74.5287 40.511C73.9515 40.8376 74.8532 40.3089 75.7281 39.6266C75.8569 39.5294 74.8727 40.2447 74.8137 40.2724C73.4967 41.1255 74.2353 40.6692 73.9529 40.8653C73.803 40.9663 73.2366 41.2679 73.7614 40.9929C72.5136 41.6892 73.2644 41.2554 73.184 41.301C73.0611 41.3658 72.6177 41.5965 72.5601 41.6217C72.477 41.6606 72.7611 41.5153 72.4341 41.6702C72.3801 41.6958 71.8576 41.9548 72.5398 41.6394C71.6305 42.0654 71.7017 42.0262 71.3804 42.1385C70.7505 42.4289 70.9025 42.2962 70.647 42.3872C69.9614 42.6166 70.1675 42.5743 70.1324 42.5894C69.8923 42.7054 67.9411 43.1816 67.4452 43.2341C67.6383 43.1936 69.0059 42.9319 69.3031 42.8321C70.3041 42.5543 67.8803 43.1748 68.6054 42.9636C68.2986 43.0416 67.9913 43.1112 67.6811 43.1732C67.1043 43.2418 67.9206 43.1379 66.3738 43.3325C66.1229 43.3821 67.4677 43.1963 67.1986 43.2406C67.0433 43.2771 66.1421 43.3786 66.1257 43.3789C66.1079 43.3893 66.9211 43.2949 66.7935 43.3148C66.518 43.4113 63.5383 43.5137 65.8044 43.4027C65.2519 43.4398 64.9382 43.4234 64.501 43.4252C64.4374 43.4252 64.3714 43.4258 64.3016 43.427C64.1721 43.4294 64.3634 43.4368 64.501 43.4448C64.6222 43.4515 64.703 43.4583 64.501 43.4637C64.3135 43.4683 63.8752 43.4706 62.9806 43.4682C62.9183 43.4536 64.1493 43.4639 64.1812 43.4628C64.2261 43.4612 64.0034 43.4282 63.9648 43.4265C63.8285 43.4212 60.8435 43.4389 60.2127 43.4223C60.4624 43.4413 57.9571 43.4257 57.6842 43.4315C57.6116 43.4331 57.8831 43.4448 57.8054 43.446C57.321 43.4534 56.0106 43.4325 55.4027 43.432C54.7224 43.4314 54.8086 43.4415 54.7706 43.4414C54.4713 43.4409 54.7104 43.434 54.5274 43.434C54.251 43.4341 52.3513 43.4327 52.2559 43.4341C52.228 43.4346 52.5381 43.4461 52.124 43.4483C52.0522 43.4486 52.0977 43.435 50.8712 43.4409C49.3941 43.448 51.8969 43.4579 51.2832 43.4722C50.3344 43.4518 50.3652 43.472 50.1079 43.4704C50.0188 43.4698 49.3558 43.4527 48.6357 43.4538C49.1525 43.451 49.6693 43.4482 50.1861 43.4454C49.6781 43.4424 48.6915 43.4461 48.2729 43.4427C48.0687 43.4411 48.237 43.427 47.7934 43.4273C47.6993 43.4275 47.3257 43.4619 48.4877 43.4464C48.5806 43.4587 48.0277 43.4507 47.7712 43.4542C47.7324 43.4547 47.5794 43.4752 47.2518 43.4625C47.1732 43.4594 48.0295 43.3996 45.8211 43.4428C45.75 43.4442 45.9972 43.4517 45.9277 43.4533C45.8802 43.4543 45.3165 43.4513 45.2542 43.4524C45.1905 43.4535 45.4627 43.4617 45.3869 43.4633C44.9981 43.4716 44.4877 43.4391 45.2895 43.4416C45.0215 43.4376 44.7535 43.4336 44.4855 43.4296C44.7723 43.454 44.0646 43.4365 43.6938 43.4372C41.3174 43.442 42.9087 43.4579 42.5001 43.4662C41.843 43.4794 42.3449 43.4375 41.3694 43.4501C41.2791 43.4513 42.4583 43.469 40.1557 43.459C40.4956 43.4583 40.8354 43.4576 41.1753 43.4569C40.9793 43.4333 39.9481 43.4586 39.8688 43.4589C38.9646 43.4621 39.5759 43.4536 38.2333 43.4658C38.1133 43.4669 37.8522 43.461 37.5958 43.464C36.5329 43.4759 38.9982 43.4712 39.0656 43.4808C39.0975 43.4855 36.4463 43.4843 36.3553 43.4821C35.9688 43.4722 37.5572 43.4777 37.2544 43.4655C37.1439 43.4611 33.3651 43.4701 32.607 43.4653C31.7322 43.4597 31.3384 43.4277 31.3328 43.4637C31.0859 43.4284 30.8679 43.4525 30.7559 43.4522C29.4031 43.449 29.4006 43.4486 28.2404 43.452C27.9843 43.4527 27.768 43.442 27.6774 43.4438C27.6246 43.4449 27.7232 43.4564 27.4649 43.4599C27.106 43.4648 24.9493 43.453 24.7891 43.4466C24.6288 43.4403 25.6998 43.4439 25.5079 43.4334C24.7326 43.4324 23.9891 43.435 23.2087 43.4339C22.8846 43.4334 23.0511 43.4261 22.9111 43.4259C22.8515 43.4258 21.7321 43.4323 21.7795 43.435C21.8907 43.4412 25.3471 43.437 24.4369 43.4498C24.2614 43.4523 23.6409 43.4354 23.7396 43.4559C22.6601 43.4543 21.5805 43.4527 20.501 43.451C18.4401 43.4488 16.3852 43.1033 14.4404 42.4229C16.1597 43.0132 18.1918 43.4028 20.0941 43.4345C20.1806 43.4364 20.3357 43.4391 20.501 43.4389C20.8245 43.4387 21.1859 43.4373 21.116 43.4304C20.9165 43.43 20.711 43.4298 20.501 43.4297C19.0105 43.438 17.3063 43.2163 15.9934 42.8709C15.9453 42.8586 16.1241 42.894 15.9445 42.8472C15.6044 42.7683 14.5183 42.4449 14.3428 42.3693C14.3115 42.3598 14.9266 42.5538 14.7431 42.484C14.2728 42.3053 14.139 42.3021 13.7349 42.1445C13.4096 42.0532 11.3934 41.0516 10.9276 40.7378C10.4028 40.455 12.3614 41.5688 12.2213 41.4793C10.8512 40.805 9.56939 39.9208 8.47764 38.9803C8.45844 38.9637 8.61928 39.1151 8.37509 38.9054C7.95331 38.537 7.8585 38.4227 7.66337 38.2328C7.44812 38.0326 6.7356 37.276 6.65284 37.1639C6.64148 37.1503 6.7907 37.2991 6.81254 37.3223C7.11989 37.6537 7.22232 37.7781 7.25019 37.8084C7.35722 37.9201 7.46884 38.0234 7.56901 38.1226C7.73436 38.2856 7.82209 38.379 8.04727 38.5871C8.2034 38.7299 8.05989 38.5843 8.21084 38.7212C8.2631 38.7744 8.8616 39.318 8.93979 39.3409C8.95361 39.3458 7.65601 38.3202 6.53872 36.997C5.39728 35.6933 4.4936 34.1095 4.33986 33.8195C4.60856 34.3176 4.90004 34.8028 5.21315 35.2735C4.56651 34.3226 3.93203 33.0939 3.9225 32.9898C2.72361 30.5094 2.10182 27.7543 2.1068 25C2.1074 23.4984 2.28999 21.9975 2.65365 20.5419C2.85317 19.8085 2.74077 20.2099 3.12173 19.0201C3.01064 19.3231 2.9074 19.6298 2.8126 19.9381C2.9352 19.3022 4.03558 16.6823 4.30092 16.3007C4.33052 16.2496 4.34421 16.1618 4.70383 15.5503C5.02978 15.0111 5.10205 14.9373 5.29137 14.6595C5.45179 14.4268 5.63542 14.1683 5.686 14.1015C5.72476 14.0501 5.74627 14.0345 5.84072 13.9119C6.1422 13.5277 5.87981 13.8246 6.20274 13.4623C6.12943 13.5547 6.057 13.6478 5.98546 13.7416C6.34851 13.2775 6.8869 12.6797 6.33127 13.3451C6.23767 13.4609 6.31235 13.3567 6.24218 13.4429C3.71384 16.9837 5.64903 14.0935 6.6631 12.9497C6.90309 12.6372 8.47594 11.1063 8.55318 11.0828C8.63255 11.0197 8.35311 11.2701 8.73323 10.958C8.77969 10.8485 11.1792 9.16588 10.3206 9.77944C10.1336 9.89219 9.00362 10.7261 8.75368 10.9557C9.36298 10.4416 10.8938 9.37235 11.0863 9.28182C11.8126 8.84718 9.70977 10.1478 11.3409 9.16085C12.6239 8.45157 11.4101 9.09985 11.9017 8.82383C12.1704 8.6517 13.6945 7.9889 13.649 7.99813C14.1786 7.78622 13.873 7.92132 13.9387 7.89617C14.0008 7.86503 15.0574 7.48656 15.4106 7.40072C15.4531 7.38906 15.3233 7.43991 15.3674 7.42819C15.4509 7.3971 16.497 7.12894 16.5413 7.12602C16.5681 7.11901 16.3142 7.16509 16.4169 7.13901C16.536 7.10065 17.5572 6.90944 17.6157 6.90425C17.6923 6.87744 16.4324 7.1208 16.64 7.07159C17.2186 6.94409 18.1721 6.79581 18.5627 6.75032C18.4665 6.76109 17.8958 6.83224 17.6999 6.8639C17.7867 6.82162 19.0175 6.68456 18.5985 6.74531C18.864 6.71117 18.6818 6.72494 18.8312 6.70365C18.8702 6.6973 19.2504 6.66719 19.3241 6.66048C19.3335 6.6583 18.9399 6.68045 19.0183 6.67115C19.1604 6.64356 20.3163 6.59874 20.4129 6.60901C20.6802 6.61015 19.7341 6.62914 19.6578 6.64643C19.6459 6.64419 20.448 6.63955 20.4611 6.64498C20.5071 6.65443 19.6155 6.66548 19.7185 6.67812C19.9379 6.67161 20.1583 6.66896 20.3795 6.67023C19.5299 6.66958 17.9623 6.83094 17.5682 6.92457C18.8107 6.70997 20.1315 6.68945 20.1284 6.72398C20.1272 6.73614 19.5876 6.76316 19.609 6.76743C19.6879 6.77237 20.4387 6.74136 20.4675 6.74562C20.4905 6.74635 20.501 6.74712 20.501 6.74785C20.501 6.74785 20.501 6.74785 20.501 6.74785C20.4984 6.7482 19.4323 6.78366 19.3774 6.79814C19.288 6.80865 19.7649 6.80817 19.7637 6.81519C19.7483 6.81316 18.9876 6.86647 19.2449 6.85983C19.5064 6.84808 20.1673 6.82766 20.1918 6.83063C20.3179 6.82729 19.1583 6.87891 19.1238 6.89402C19.1052 6.89477 19.7305 6.86841 19.7475 6.87338C19.7638 6.87471 19.2899 6.90474 19.1049 6.93047C18.9668 6.94784 19.371 6.92403 19.3001 6.93053C19.2483 6.92657 18.1594 7.03368 18.1069 7.05011C18.0278 7.06228 18.283 7.03794 18.2463 7.04499C18.1939 7.05366 17.8442 7.09887 17.8902 7.09605C17.923 7.08105 19.2869 6.96934 19.2793 6.98972C19.2627 6.99696 17.8246 7.1005 19.1659 7.03352C19.1751 7.03248 19.502 7.00786 19.5114 7.00839C19.7131 7.00857 18.6679 7.07479 19.9462 7.01235C17.5713 7.17374 19.6509 7.04092 19.3011 7.08651C19.165 7.09781 18.2504 7.19387 18.2464 7.20103C18.3361 7.20031 18.6281 7.15887 18.7274 7.15526C18.7824 7.14887 17.9647 7.25781 18.1502 7.24394C18.2451 7.22982 19.1132 7.14144 19.1495 7.14459C19.4948 7.12741 19.0725 7.16495 19.1487 7.16484C19.1988 7.16253 19.7258 7.13289 19.7384 7.1348C19.7618 7.13218 19.0471 7.1876 18.9012 7.20957C18.7892 7.22267 19.2114 7.19344 19.1332 7.20182C18.6629 7.24209 17.655 7.3477 18.6269 7.26734C18.6866 7.26223 19.0509 7.22856 19.0621 7.22896C19.2883 7.22001 18.6174 7.27696 18.4966 7.3022C18.2916 7.3374 19.2574 7.22882 18.4545 7.32311C19.057 7.26693 19.396 7.23929 20.1018 7.21734C18.1423 7.31484 17.4642 7.46415 19.629 7.27648C18.9369 7.31481 19.0169 7.33812 18.812 7.3551C18.6843 7.36018 17.6883 7.47123 18.1492 7.45606C18.206 7.45154 18.8103 7.37737 18.6221 7.40993C17.176 7.5873 18.5905 7.41505 18.5937 7.42197C18.5651 7.37179 15.0747 8.05692 14.5258 8.36385C13.8585 8.60585 13.2939 8.88588 13.1543 8.95019C12.6961 9.16407 13.0716 8.97652 12.9675 9.02091C12.8549 9.05308 11.593 9.74844 11.538 9.79633C11.2963 9.93501 11.5327 9.77918 11.5075 9.79353C11.1915 9.9403 9.60362 11.051 9.20375 11.4193C9.21787 11.4096 10.0735 10.7393 9.54764 11.1684C8.9426 11.6757 8.89397 11.6891 8.8753 11.6992C6.14338 14.0817 4.16943 17.3223 3.32754 20.8476C3.32003 20.7983 4.01998 18.5374 4.07894 18.4999C4.12367 18.1835 2.97852 22.0142 3.02395 22.5271C3.07957 22.1602 3.14758 21.7911 3.22633 21.429C3.10888 22.0519 2.88811 23.4445 2.87903 24.3665C2.87207 24.6629 2.90067 24.0944 2.90249 24.1068C2.89282 24.4381 2.88035 24.9751 2.87566 24.5738C2.87388 24.7559 2.87446 24.8919 2.87496 25C2.87917 25.3756 2.87024 25.413 2.89092 25.8964C2.89315 25.929 2.88592 25.6591 2.91844 26.1546C2.92338 26.3871 3.06361 27.6148 3.10817 27.7748C3.11985 27.8405 3.06458 27.2187 3.02837 27.1448C2.9056 25.8079 2.96908 26.7198 2.92622 26.1993C2.92895 26.119 2.92195 26.3029 2.89515 25C2.89513 24.9962 2.89511 24.9923 2.89509 24.9885C2.89552 24.9921 2.89594 24.9959 2.89635 25C2.90827 25.285 2.97083 26.7532 3.01951 27.0066C3.07303 27.5138 2.8954 25.5323 2.9088 25C2.90792 24.9759 2.90702 24.9548 2.90606 24.9372C2.93064 25.1274 2.90402 24.7788 2.92418 24.2895C2.95045 23.754 2.94678 23.9868 2.96576 23.6969C3.03346 22.907 2.98552 23.2305 3.08148 22.5828C2.94524 23.209 3.23091 21.47 3.38503 20.9777C3.19699 21.7915 3.06789 22.616 2.99747 23.4478C3.00405 23.4006 3.01082 23.3535 3.01777 23.3065C2.99659 23.5242 2.97939 23.7432 2.96624 23.9632C2.96596 23.9278 2.96578 23.8924 2.9657 23.8571C2.93783 24.425 2.93704 24.7758 2.93387 25C2.93174 25.2225 2.93005 25.3145 2.9307 25.3607C2.9478 26.5505 3.11981 27.9205 3.40325 29.0891C3.45343 29.2619 3.40219 29.1486 3.77625 30.408C3.9046 30.8076 3.76599 30.4364 3.92329 30.885C4.15602 31.433 4.13492 31.429 4.19934 31.5937C4.39007 32.0633 4.53182 32.3408 4.55078 32.3833C4.81187 32.953 5.24631 33.7633 5.61757 34.3433C5.62451 34.3542 5.44249 34.0455 5.67804 34.4256C5.75588 34.5597 6.49802 35.7676 7.33914 36.6744C7.1284 36.4327 6.92411 36.1851 6.72698 35.9325C6.91848 36.2664 8.77692 38.1451 8.3355 37.6724C8.04967 37.3994 7.37133 36.7104 7.32514 36.6097C7.776 37.4102 11.6478 40.358 12.064 40.4076C12.1091 40.4339 11.8241 40.2849 11.8867 40.3209C11.9312 40.3567 12.9179 40.8676 13.054 40.9245C13.1322 40.9646 12.6873 40.7571 12.7222 40.7762C12.7472 40.8057 14.015 41.3724 14.0979 41.3785C13.7764 41.2652 12.9045 40.8658 13.3665 41.0639C13.4256 41.0899 13.7311 41.2285 13.8041 41.2561C14.4783 41.5305 12.477 40.6763 12.1963 40.4838C13.3956 41.1384 15.3786 41.9108 16.9401 42.1992C17.5642 42.3392 16.0093 42.0106 16.7155 42.1728C18.1865 42.4796 17.1092 42.2405 17.1554 42.2498C17.5199 42.325 18.7766 42.5329 18.7823 42.4874C19.3222 42.5391 19.1494 42.5377 19.9158 42.5661C19.815 42.5603 19.7144 42.5536 19.614 42.5461C19.854 42.5522 20.1708 42.5623 20.501 42.5652C21.3537 42.5732 22.2771 42.6014 22.1777 42.6043C21.8049 42.6152 20.8415 42.5982 20.7592 42.5986C20.7147 42.5988 20.6413 42.6039 20.501 42.6087C20.2607 42.6148 19.8271 42.628 19.0019 42.5402C18.4653 42.5464 21.0667 42.6528 19.8823 42.6261C20.0215 42.6304 20.2366 42.6364 20.501 42.6369C21.7716 42.6392 24.1326 42.6494 24.5321 42.6404C24.5898 42.639 24.3209 42.6143 25.1511 42.6268C25.5453 42.6328 24.5949 42.6331 24.7752 42.6387C25.3302 42.656 32.8779 42.645 34.3116 42.644C34.4047 42.644 34.3705 42.6517 34.462 42.6516C34.7429 42.6514 35.7666 42.64 36.2694 42.6435C35.2277 42.6293 37.2507 42.6282 37.7653 42.6298C38.5464 42.6321 38.498 42.6456 38.8355 42.6485C40.136 42.6596 42.1511 42.6275 43.1614 42.6575C43.1061 42.6277 44.9089 42.672 45.729 42.6723C46.3714 42.6725 47.3034 42.6528 46.4363 42.6409C47.5452 42.6422 48.7125 42.6367 49.7527 42.6349C49.9246 42.6346 49.6879 42.6434 49.9813 42.6426C50.008 42.6424 50.0447 42.6338 50.2966 42.6329C52.3762 42.6254 51.3643 42.6437 51.7534 42.6491C51.9711 42.6521 52.1318 42.6536 52.2498 42.6541C51.0376 42.6558 49.6395 42.6592 49.2656 42.6594C49.5845 42.6784 51.9522 42.6558 52.6456 42.6609C52.6697 42.6611 52.5859 42.6716 52.6103 42.6716C52.6108 42.6716 52.6113 42.6716 52.6119 42.6716C52.8717 42.6724 54.5267 42.6686 54.186 42.6561C54.0946 42.6527 53.3328 42.6527 52.4293 42.6539C52.6738 42.6515 52.4912 42.6398 52.5344 42.6393C53.0577 42.6335 54.3396 42.6449 54.7944 42.6465C54.8983 42.6468 54.8909 42.6393 54.9079 42.6393C55.3215 42.641 55.1518 42.6625 55.5761 42.6403C56.3251 42.6671 54.1724 42.6443 54.3241 42.6617C54.4406 42.6751 59.222 42.6679 59.2078 42.6468C59.2243 42.649 59.29 42.6518 59.4249 42.655C59.7239 42.6621 61.0548 42.6599 61.2844 42.656C61.3232 42.6552 61.3077 42.6348 61.3558 42.6346C61.476 42.6341 63.1026 42.6502 63.7101 42.6381C63.3821 42.6352 63.054 42.6323 62.7259 42.6295C64.7072 42.6293 64.4009 42.6232 63.7408 42.6171C63.7078 42.617 63.6757 42.6162 63.6442 42.6161C63.1325 42.6116 62.4766 42.6073 62.4666 42.6056C62.4438 42.6019 63.6756 42.5992 64.501 42.6019C65.0255 42.6031 65.3782 42.5856 65.1314 42.604C65.093 42.6067 64.7799 42.6158 64.501 42.6149C64.1376 42.6145 63.8358 42.6151 64.2686 42.6227C64.3021 42.6233 64.3887 42.6235 64.501 42.6235C64.8367 42.6261 65.3962 42.6008 65.4348 42.5984C65.6309 42.5931 65.019 42.6378 64.501 42.6426C64.1099 42.6481 63.7773 42.6539 63.8912 42.66C64.0789 42.6552 64.2855 42.653 64.501 42.652C64.8891 42.6504 65.298 42.6391 65.6842 42.6111C65.9548 42.5911 66.0196 42.5736 66.0529 42.5708C66.5477 42.5217 66.2714 42.5581 66.4372 42.5409C66.5287 42.538 67.4964 42.3746 67.318 42.4309C70.4827 41.7247 68.2136 42.347 66.2323 42.5491C66.8596 42.4874 68.0712 42.285 68.6075 42.1435C68.7996 42.0957 68.683 42.1152 69.0065 42.0293C69.6963 41.9273 72.7525 40.6917 73.4541 40.1807C73.0009 40.4477 73.1403 40.382 73.4906 40.1759C73.8382 39.966 73.538 40.1289 73.605 40.0866C73.6901 40.0615 75.2679 38.9927 75.4978 38.77C74.3602 39.6436 74.6305 39.4666 75.5924 38.7173C75.4575 38.8307 75.3209 38.9421 75.1826 39.0516C75.7599 38.6291 76.8816 37.625 77.1557 37.3141C77.2005 37.2672 77.0307 37.4269 77.0558 37.4005C77.3168 37.1485 78.136 36.2266 78.1627 36.174C78.1926 36.1356 77.8483 36.5332 77.9709 36.3813C77.9968 36.3499 78.3339 35.971 78.6299 35.5682C78.7396 35.4191 78.6656 35.503 78.693 35.4653C78.9169 35.1479 78.802 35.3475 79.1993 34.7582C79.4839 34.3223 79.6782 33.9867 80.0268 33.3575C78.8166 35.384 79.8692 33.6998 80.2922 32.8076C80.3575 32.6634 80.3 32.7865 80.6886 31.9262C79.879 33.7651 80.9647 31.4211 81.105 30.9072C81.1145 30.8798 81.1295 30.8748 81.2131 30.6293C81.2198 30.6084 81.2039 30.6365 81.2779 30.4069C81.9055 28.2101 81.5058 29.6155 81.6301 29.1994C81.6857 29.0225 81.896 27.9311 81.9304 27.6323C81.9401 27.5643 81.9445 27.5972 81.9799 27.3335C82.0414 26.8651 82.0687 26.4451 82.0877 26.1339C82.0882 26.098 82.1083 26.0954 82.1245 25.5078C82.1281 25.3421 82.1262 25.1554 82.1185 25.3912C82.104 26.1708 81.9707 27.6494 81.7702 28.5099C81.6172 29.2981 82.0628 26.805 82.0306 26.6662C82.0355 26.618 81.9931 27.1101 82.0428 26.6109C82.0792 26.2362 82.1023 25.5882 82.0995 25C82.0994 24.9169 82.099 24.8352 82.0985 24.7558C82.1001 24.7065 82.1017 24.1954 82.1022 24.2191C82.1081 24.2392 82.1272 25.0263 82.1287 24.9123C82.1308 24.8982 82.1213 24.3977 82.1208 24.333C82.1228 24.2533 82.1582 24.0366 82.1525 23.9286C82.1378 23.6535 82.1392 23.833 82.1273 23.6556C82.115 23.2763 81.944 21.9633 81.9104 21.9251C81.9472 22.1404 81.9801 22.357 82.0087 22.5724C81.823 21.3726 81.8873 21.8867 81.8583 21.7173C81.8198 21.5363 81.8467 21.5856 81.7617 21.1839C81.763 21.0911 81.301 19.4443 81.2868 19.4801C81.5802 20.3802 81.4523 20.0518 81.4674 20.0929C81.5122 20.2521 81.578 20.4547 81.632 20.6702C81.9823 22.1949 81.6173 20.6593 81.6953 21.0205C81.723 21.1443 81.784 21.3907 81.794 21.4439C81.8273 21.6153 81.8169 21.6203 81.8395 21.7346C81.8907 22.0021 81.8483 21.6866 81.8527 21.7077C81.9137 21.9446 82.0386 22.8915 81.936 22.3069C81.9824 22.6592 82.0067 22.6983 82.032 22.9807C82.0765 23.5434 81.9926 22.7019 81.9529 22.4786C81.8166 21.6719 81.7929 21.428 81.4964 20.309C81.3862 19.9068 81.2237 19.4402 81.1592 19.2581C81.129 19.1408 80.7409 18.0554 80.6704 18.0489C80.5012 17.6356 80.2263 16.9885 80.0021 16.5857C79.801 16.2235 79.8469 16.349 79.8278 16.3153C79.799 16.2635 79.5471 15.8324 79.4533 15.6911C79.345 15.5251 79.393 15.6116 79.2192 15.35C78.7787 14.7045 78.7949 14.7177 78.7512 14.6502C78.2043 13.8933 78.4239 14.2399 78.2966 14.0768C78.2132 13.8957 76.3752 11.9119 75.8969 11.5906C76.0756 11.7376 76.2514 11.888 76.4243 12.042C76.1283 11.7516 75.7781 11.485 75.7859 11.4637C75.7022 11.4328 75.0469 10.884 74.8347 10.7387C74.7525 10.6797 74.7556 10.689 74.6522 10.6159C74.2531 10.3225 73.3044 9.73564 73.0642 9.61476C72.0509 9.05141 74.6093 10.5492 74.7636 10.7385C74.4127 10.4208 72.1121 9.12428 73.1596 9.73701C73.3217 9.83112 73.6139 9.98803 73.7038 10.0436C74.3091 10.4202 73.8277 10.1325 73.8744 10.1634C73.9544 10.2146 74.3528 10.4611 74.4532 10.5343C74.4859 10.5595 74.2644 10.4131 74.8166 10.8082C74.555 10.598 72.9379 9.58457 72.7017 9.49293C72.6176 9.46142 73.1205 9.70495 71.6561 8.98459C71.6724 8.99453 71.6887 9.0045 71.7049 9.01449C70.8766 8.64161 70.018 8.33342 69.1423 8.09468C69.2392 8.11498 69.7334 8.24394 69.1137 8.07192C68.7549 7.97777 69.017 8.06033 68.9842 8.05191C68.7935 7.98871 66.5245 7.43776 64.501 7.47417C63.2196 7.47382 62.0589 7.47354 61.6111 7.47407C61.2134 7.47452 60.1046 7.4845 60.0201 7.48469C59.5146 7.48569 57.7244 7.47919 57.3673 7.4806C57.1443 7.4815 57.3563 7.49189 57.1571 7.4914C56.9719 7.49094 57.1638 7.4809 57.1088 7.48048C56.6532 7.47684 53.1926 7.49001 52.3709 7.48054C52.8731 7.48338 55.3794 7.46332 55.329 7.45625C55.3181 7.45527 54.709 7.44764 54.5833 7.45136C54.3757 7.44267 53.663 7.46913 53.2753 7.46394C53.2315 7.46335 53.4042 7.4485 52.7123 7.44581C52.4739 7.44489 51.8498 7.45646 51.2217 7.44349C50.3124 7.44972 45.5315 7.43047 45.2035 7.44642C45.1937 7.44726 45.867 7.45275 45.4121 7.4593C44.8074 7.468 45.3505 7.43869 44.6457 7.43616C44.5395 7.43578 42.5788 7.43875 42.5146 7.44056C41.9208 7.45701 43.6341 7.46367 43.6101 7.46558C43.5503 7.4704 42.1268 7.47331 42.0689 7.47218C42.0138 7.47099 43.1748 7.4492 41.7797 7.45747C41.9395 7.46007 42.0993 7.46267 42.2592 7.46528C41.603 7.47035 41.5405 7.45527 41.3815 7.45435C40.8874 7.45144 40.3528 7.47434 39.5611 7.44605C39.3518 7.43855 39.6993 7.43021 39.6731 7.42908C39.4216 7.41898 39.1008 7.44601 38.7226 7.42585C38.6942 7.42435 39.5742 7.41227 38.036 7.41224C38.1419 7.41417 38.2478 7.4161 38.3536 7.41804C38.1367 7.42235 36.5793 7.42492 36.3698 7.4239C35.7577 7.42091 36.2915 7.40704 35.6763 7.4087C36.0709 7.42771 34.2001 7.43019 34.3077 7.41382C34.0464 7.43438 32.4572 7.41852 31.7101 7.41804C31.2388 7.41774 30.2773 7.42671 30.1275 7.42567C29.9451 7.42438 30.0005 7.41035 29.6711 7.40723C29.5771 7.40634 28.5964 7.41662 27.7356 7.40211C27.5687 7.39931 27.2184 7.37552 27.5284 7.36957C28.0592 7.3594 29.0633 7.37856 29.0505 7.36451C29.0354 7.34947 27.683 7.35841 27.319 7.35645C25.6385 7.34737 26.6089 7.33139 26.5657 7.32654C26.4536 7.31478 25.5354 7.31515 25.497 7.31409C25.3383 7.30939 25.9889 7.30009 25.9988 7.29291C26.0106 7.28356 25.1255 7.2667 25.3267 7.26355C25.6148 7.25908 26.4282 7.27313 26.4798 7.27246C27.1511 7.2634 26.2309 7.24181 25.9773 7.2312C25.9004 7.22794 26.2067 7.22257 26.143 7.22162C25.17 7.2071 25.9379 7.25196 25.2907 7.24896C24.7133 7.24629 25.4562 7.2321 25.4341 7.23132C25.4056 7.23046 24.7152 7.22969 24.6072 7.22467C24.5539 7.22216 26.3483 7.19456 26.2734 7.18219C25.7008 7.18491 25.1283 7.18764 24.5558 7.19037C24.5109 7.17423 25.3344 7.18611 25.4196 7.18445C25.591 7.18111 25.1129 7.17294 25.1334 7.16784C25.1444 7.1646 25.7056 7.15302 25.1986 7.14825C25.0244 7.1466 24.6587 7.15791 24.0241 7.14636C26.2326 7.1316 24.7022 7.12253 24.6371 7.11682C24.5733 7.1111 25.6277 7.09765 24.3479 7.10003C24.2924 7.06863 24.3755 7.09011 24.7391 7.08459C25.1846 7.07781 24.155 7.06747 25.7832 7.07531C25.6906 7.06061 24.3819 7.06165 24.3126 7.06048C24.2527 7.05942 24.5436 7.05219 24.4399 7.04974C23.2131 7.02133 24.0557 7.0343 23.7004 7.01617C23.6688 7.01454 22.5092 7.00782 23.392 7.00518C25.0003 7.00038 25.6725 7.02121 25.9428 6.97667C24.7531 6.95733 23.3118 6.98607 22.9501 6.98656C22.3966 6.98726 22.97 6.97818 22.9018 6.97564C22.8781 6.97481 22.4011 6.97556 22.3947 6.97484C22.0546 6.94088 24.5181 6.97428 25.2938 6.96837C25.0859 6.96329 24.878 6.9582 24.6701 6.95311C24.9521 6.95291 25.2342 6.95271 25.5162 6.9525C24.1725 6.94228 25.4689 6.94863 25.8039 6.92113C25.8791 6.91495 24.9964 6.92555 26.0034 6.90837C25.2606 6.90441 25.4975 6.89879 24.825 6.90654C24.8424 6.89552 26.3555 6.88308 26.9523 6.87743C24.8439 6.86504 26.0463 6.90547 24.2236 6.88408C23.8856 6.89773 24.7556 6.89507 24.6846 6.89733C24.4301 6.90543 23.8334 6.89256 23.1135 6.92095C22.9963 6.92561 23.4923 6.93995 22.7583 6.93926C22.6772 6.93916 22.2095 6.9269 22.216 6.92601C22.278 6.91641 22.7408 6.92001 22.7599 6.916C22.7778 6.91221 22.2615 6.91449 22.2597 6.91344C22.2438 6.90141 22.6905 6.90884 22.6256 6.90508C22.4855 6.89689 20.6283 6.87101 23.0522 6.87859C21.0389 6.89218 22.7944 6.89187 23.5784 6.88664C23.7784 6.88533 23.829 6.87815 24.1139 6.87566C24.4803 6.87243 24.9093 6.87588 25.0989 6.87456C25.3028 6.8731 24.144 6.85612 25.82 6.86119C24.9671 6.8443 23.4604 6.86231 22.6226 6.85045C20.9321 6.82648 23.8012 6.82134 24.1001 6.81901C24.1797 6.81838 23.9127 6.80868 23.9658 6.80809C24.0526 6.80718 25.6809 6.81166 25.8415 6.80363C26.0016 6.79561 25.2451 6.804 25.1948 6.79564C25.1607 6.79 27.125 6.78002 26.0617 6.77617C25.3288 6.77353 23.9778 6.79616 23.7503 6.77183C24.8281 6.76982 25.9059 6.7678 26.9838 6.76579C26.3938 6.75653 25.8039 6.74727 25.214 6.73802C26.4237 6.73508 27.4696 6.74553 28.6186 6.73228C25.8576 6.70262 29.515 6.70861 29.5552 6.705C29.5687 6.70284 28.482 6.67876 28.3071 6.67436C29.2701 6.66509 32.1962 6.66057 30.4843 6.63084C30.795 6.63755 31.5475 6.62098 31.5375 6.61973C31.442 6.60659 29.8008 6.61511 30.0685 6.60325C30.3787 6.58948 30.8133 6.60816 31.2905 6.60666C33.7393 6.59889 33.0675 6.53032 35.5229 6.54117C35.474 6.53873 35.4252 6.53629 35.3763 6.53385C38.0452 6.53773 40.7141 6.54162 43.383 6.54551C44.4272 6.52457 47.2063 6.51182 48.5712 6.51413C48.8461 6.51458 50.1955 6.52557 50.2973 6.5275C50.4859 6.53119 49.449 6.5326 49.9176 6.53952C50.0165 6.54094 52.301 6.54556 52.1377 6.53385C51.8817 6.53249 51.0805 6.53838 50.9494 6.53562C50.0283 6.51591 57.0713 6.53165 57.4202 6.52371C57.2642 6.51991 57.1083 6.51611 56.9523 6.5123C57.3967 6.51417 57.8411 6.51604 58.2856 6.51792ZM37.8634 7.45881C37.5967 7.47056 36.9282 7.46174 36.5332 7.46503C35.9875 7.46966 35.0598 7.51492 35.4592 7.46955C36.2606 7.46597 37.062 7.46239 37.8634 7.45881ZM49.5762 7.47633C49.0388 7.47001 49.4556 7.44467 49.8961 7.45521C49.9449 7.4564 50.3033 7.48482 49.5762 7.47633ZM43.9423 7.4643C43.9649 7.46397 44.4293 7.46464 44.4455 7.46503C44.862 7.47521 43.4618 7.47313 43.9423 7.4643ZM70.8461 8.6334C70.3049 8.43057 70.6904 8.59594 71.0264 8.72028C71.0477 8.72797 70.8817 8.64685 70.8461 8.6334ZM70.4616 8.48875C70.0487 8.31215 69.1699 8.0931 69.857 8.30072C69.9245 8.31912 70.4815 8.49478 70.4616 8.48875ZM47.6606 7.46626C47.7211 7.45835 48.2754 7.46217 48.5121 7.46406C48.5057 7.47128 47.8928 7.46537 47.6606 7.46626ZM61.7155 7.46406C61.739 7.45784 59.8123 7.45819 59.681 7.46638C59.9851 7.4629 61.6933 7.46964 61.7155 7.46406ZM66.5989 7.57942C66.5514 7.56958 65.9062 7.50869 65.9244 7.51828C66.2381 7.54789 66.8116 7.60986 66.5989 7.57942ZM75.3317 11.1969C75.3575 11.2211 75.0088 10.8785 75.8826 11.6306C76.0099 11.7419 75.5414 11.3604 75.5859 11.4011C75.6817 11.4824 75.7573 11.5472 75.8182 11.5989C75.408 11.2535 74.9597 10.9224 74.9175 10.8892C74.7208 10.7296 75.3214 11.1847 75.3317 11.1969ZM78.8125 14.8046C78.8845 14.8894 79.2779 15.4767 79.3586 15.616C79.3726 15.6397 79.2971 15.5451 79.4658 15.8148C79.5991 16.0327 79.4163 15.6974 79.6687 16.1259C79.9185 16.5621 79.5727 15.9863 79.593 16.0255C79.6258 16.074 80.0124 16.7494 79.9896 16.7337C79.9793 16.7192 79.5746 15.9912 79.4606 15.8197C79.3197 15.5969 79.4813 15.8727 79.2468 15.5C79.0972 15.2674 79.1969 15.3854 79.1657 15.3359C79.1448 15.2912 78.5768 14.5066 78.8133 14.8059C78.8131 14.8055 78.8128 14.8051 78.8125 14.8046ZM75.9291 11.6924C75.8981 11.6666 75.8619 11.636 75.8182 11.5989C75.8555 11.6301 75.8926 11.6613 75.9291 11.6924ZM39.4161 7.45032C39.6955 7.45629 38.8663 7.46394 38.5523 7.45612C38.5469 7.44982 39.3716 7.4494 39.4161 7.45032ZM76.3122 12.0101C76.8905 12.5591 76.4674 12.152 75.9291 11.6924C76.1014 11.8368 76.1147 11.8295 76.3122 12.0101ZM54.5833 7.45136C54.6178 7.4528 54.6396 7.45505 54.6424 7.45875C54.5518 7.45471 54.5437 7.45254 54.5833 7.45136ZM56.4897 7.45795C57.1432 7.4467 55.8154 7.44715 55.8238 7.45521C55.8278 7.45825 56.4635 7.4584 56.4897 7.45795ZM71.5299 8.91672C71.4761 8.89425 72.3228 9.21955 71.103 8.72623C71.7486 8.99955 71.0649 8.71718 71.0733 8.72575C71.0997 8.73605 72.1806 9.20426 72.4076 9.33603C72.5984 9.41122 71.7081 8.99003 71.5313 8.91732C71.5308 8.91712 71.5304 8.91692 71.5299 8.91672ZM81.9717 23.197C81.9478 23.0374 81.8906 22.5347 81.835 22.1971C81.8708 22.3543 81.9391 22.854 81.9717 23.197ZM5.91817 34.7871C7.29416 36.6843 7.49866 36.9135 6.19366 35.2086C6.16728 35.1757 5.83444 34.6717 5.91817 34.7871ZM23.4872 42.5702C23.7136 42.5862 22.9643 42.5887 22.4723 42.5821C22.3609 42.5807 21.9492 42.5645 22.4193 42.5614C22.4043 42.5807 23.1314 42.5881 23.4872 42.5702ZM76.6486 12.3102C76.8261 12.4608 77.3231 12.9758 77.5708 13.2598C77.4136 13.0919 76.8902 12.5398 76.6486 12.3102ZM11.446 40.0716C11.6572 40.2001 11.8097 40.2699 11.7731 40.2479C11.6093 40.1496 11.2094 39.9188 11.446 40.0716ZM74.8833 10.826C74.8637 10.7968 75.6183 11.371 75.655 11.43C75.5026 11.2969 74.9018 10.8401 74.8833 10.826ZM81.8991 22.555C81.884 22.4079 81.9887 23.1646 82.0012 23.3935C81.9964 23.3766 81.9142 22.6492 81.8991 22.555ZM15.0617 41.7174C15.2724 41.7899 15.8017 41.9437 15.8635 41.9528C15.9371 41.9693 15.1598 41.7456 15.0617 41.7174ZM12.3338 9.41999C12.3582 9.40607 11.6138 9.83173 11.2909 10.0331C10.6672 10.4006 12.2946 9.41158 12.3338 9.41999ZM9.52151 38.7396C8.98813 38.2882 9.58072 38.7889 9.56672 38.7574C9.19313 38.4718 8.32743 37.6851 8.91756 38.2314C9.03287 38.3375 9.35018 38.603 9.52151 38.7396ZM10.0294 39.1369C10.0916 39.179 10.5086 39.4611 10.1551 39.2075C9.99239 39.0897 9.72424 38.9058 10.0294 39.1369ZM8.07579 12.5618C7.6007 12.9717 9.71959 11.032 9.8232 11.0273C9.85854 11.0017 9.88197 10.9853 9.89548 10.9762C9.97589 10.9075 10.4148 10.5892 10.4732 10.5631C10.3383 10.654 9.98102 10.9168 9.9399 10.9479C9.92186 10.9609 9.90838 10.9706 9.89901 10.9771C9.73111 11.0744 8.14156 12.4558 8.07579 12.5618ZM5.19008 16.3268C5.5322 15.6964 5.63724 15.6111 5.60277 15.6628C5.20566 16.3342 5.4523 15.8889 5.43821 15.9084C5.40655 15.9529 5.13848 16.4381 5.19119 16.3248C5.19082 16.3255 5.19045 16.3261 5.19008 16.3268ZM7.40155 13.2662C7.419 13.2423 7.82975 12.8024 7.84908 12.7867C8.19252 12.4332 7.03327 13.6791 7.40155 13.2662ZM80.687 18.0973C80.8504 18.4956 80.6799 18.1094 80.5662 17.8463C80.5565 17.825 80.5384 17.7469 80.687 18.0973ZM10.3095 39.3367C10.3645 39.4351 12.5563 40.7526 12.4463 40.6323C12.2211 40.588 9.79341 38.9943 10.3095 39.3367ZM28.9178 42.5927C28.4567 42.5926 28.9595 42.5764 29.2055 42.5825C29.2967 42.5847 29.0341 42.5927 28.9178 42.5927ZM73.8353 10.0962C73.4323 9.85803 73.5307 9.88236 73.8702 10.1055C73.8834 10.1144 73.851 10.1057 73.8353 10.0962ZM25.234 42.5834C26.8243 42.5736 26.4477 42.6248 24.3802 42.6075C24.4449 42.6053 24.5096 42.603 24.5743 42.6007C22.1879 42.593 24.411 42.5971 24.9954 42.5942C25.2175 42.5931 25.0313 42.5846 25.2325 42.5834C25.233 42.5834 25.2335 42.5834 25.234 42.5834ZM31.3428 42.5937C32.8743 42.63 29.9505 42.6063 29.1119 42.6111C29.9249 42.5961 30.9834 42.5984 29.5438 42.583C31.6486 42.58 30.7724 42.5945 30.8564 42.5957C30.9559 42.597 31.2775 42.5921 31.3428 42.5937ZM27.303 42.5939C27.2145 42.595 26.5475 42.5876 26.3072 42.5888C26.6432 42.5764 27.8907 42.5867 27.303 42.5939ZM3.38259 20.9571C3.38683 20.9021 3.4044 20.7705 3.54431 20.2735C3.5057 20.4281 3.42693 20.7472 3.38259 20.9571ZM37.3571 7.40766C36.9946 7.40696 36.2727 7.4033 36.4941 7.41352C36.5183 7.41439 37.356 7.4134 37.3571 7.40766ZM17.0707 42.2623C17.1391 42.3037 19.0728 42.5624 18.4059 42.4643C18.2011 42.4602 16.4594 42.1367 17.0707 42.2623ZM8.2558 37.6352C8.37041 37.7515 8.86143 38.1968 8.87528 38.2023C8.91155 38.2289 8.30901 37.683 8.2558 37.6352ZM35.5282 7.39771C35.4805 7.3967 34.3732 7.39849 34.4949 7.4032C34.7259 7.41212 35.6919 7.40118 35.5282 7.39771ZM81.2588 19.5573C81.2872 19.6434 81.313 19.7614 81.322 19.7911C81.3615 19.8554 81.7697 21.462 81.6037 20.8509C81.6143 20.7389 80.8953 18.465 80.7357 18.194C80.707 18.0754 81.0727 19.0277 81.1462 19.2633C81.1604 19.3046 81.1821 19.3265 81.2585 19.5566C81.2586 19.5569 81.2587 19.5571 81.2588 19.5573ZM4.18389 18.4028C4.17787 18.3218 5.01281 16.559 5.03348 16.5961C4.71647 17.1812 4.43228 17.7853 4.18389 18.4028ZM3.83759 19.329C3.69772 19.7203 4.00775 18.7983 4.12337 18.5345C4.12644 18.5325 3.85362 19.2707 3.83759 19.329ZM11.138 39.9406C11.3046 40.0437 10.8034 39.7087 10.9187 39.7788C10.9911 39.8255 11.3598 40.0627 11.4823 40.1291C11.5165 40.1492 11.1416 39.9064 11.0336 39.836C10.8791 39.7374 11.0229 39.8424 10.8552 39.7332C10.3 39.3683 9.83012 39.0115 9.3483 38.6175C9.30468 38.582 9.63794 38.8634 9.26688 38.5594C9.21002 38.5117 8.87232 38.221 8.45331 37.8291C7.51671 36.9756 6.90186 36.2641 5.97024 34.9539C5.99386 35.0116 6.70505 35.9827 6.75742 36.0321C7.56906 37.1093 9.34174 38.7691 10.5275 39.5385C10.8267 39.7421 10.6852 39.6373 10.8149 39.7235C10.9183 39.7903 10.7871 39.7233 11.138 39.9406ZM37.5497 7.40064C37.3769 7.38796 36.7707 7.39599 36.3836 7.39533C36.5199 7.40677 37.1713 7.39783 37.5497 7.40064ZM3.14188 27.9605C3.17127 28.1487 3.28305 28.7249 3.29952 28.772C3.31345 28.8323 3.15211 28.0002 3.14188 27.9605ZM81.7034 28.7894C81.7012 28.8079 81.5964 29.2523 81.5905 29.2684C81.4875 29.6628 81.7995 28.3299 81.7034 28.7894ZM76.2915 38.0786C76.0359 38.3122 75.7698 38.5392 75.6732 38.6049C75.847 38.4686 76.3182 38.0475 76.2915 38.0786ZM62.3009 42.6089C62.374 42.6224 61.3085 42.6136 61.1072 42.6124C61.1818 42.6064 62.2473 42.5992 62.3009 42.6089ZM3.32437 21.0205C3.47359 20.4017 3.42478 20.5266 3.54143 20.1385C3.56291 20.076 3.65546 19.8799 3.45743 20.5529C3.42501 20.6746 3.53026 20.193 3.32437 21.0205ZM24.0434 42.6071C23.8777 42.616 23.3599 42.6134 23.01 42.6127C23.0885 42.606 23.7945 42.6077 24.0434 42.6071ZM33.5283 7.38752C33.2228 7.37493 31.8112 7.38427 32.1605 7.39258C32.2101 7.39367 33.3303 7.38704 33.5283 7.38752ZM77.7943 13.4534C78.1735 13.8772 77.4075 12.9821 77.1334 12.7296C77.2547 12.8465 77.7716 13.4224 77.7943 13.4534ZM65.9696 42.5559C65.9435 42.561 65.3389 42.5986 65.3132 42.5968C64.82 42.6176 66.5218 42.509 65.9696 42.5559ZM78.7112 35.4284C78.6008 35.6174 77.6913 36.7211 77.4563 36.9402C77.6787 36.7247 78.8767 35.2159 78.7112 35.4284ZM2.93297 23.6131C2.96768 23.1616 3.02129 22.7292 3.08746 22.3192C3.07145 22.4041 2.93242 23.5654 2.93297 23.6131ZM63.7408 42.6171C63.7078 42.617 63.6757 42.6162 63.6442 42.6161C63.6771 42.6164 63.7093 42.6168 63.7408 42.6171ZM5.02188 33.4388C5.2041 33.7743 5.17827 33.6978 5.16647 33.6775C5.02778 33.4261 4.82046 33.0573 5.02188 33.4388ZM37.1047 7.38196C36.9697 7.37061 36.3147 7.37942 35.9379 7.37671C36.0472 7.38568 36.8012 7.38315 37.1047 7.38196ZM32.9829 42.6169C33.4723 42.6292 31.4815 42.6435 31.062 42.6356C31.031 42.628 32.9113 42.6153 32.9829 42.6169ZM76.5839 12.1692C76.5653 12.1329 75.9474 11.5956 76.074 11.7151C76.1571 11.7874 76.5981 12.1873 76.5839 12.1692ZM30.0609 42.6304C29.8739 42.6331 29.4379 42.6244 29.5914 42.619C29.7884 42.6122 30.1092 42.6297 30.0609 42.6304ZM13.612 41.2416C13.6817 41.2815 14.6922 41.6577 14.2791 41.4909C13.9926 41.3751 13.9433 41.3669 13.8758 41.3401C13.7963 41.3217 12.2266 40.5931 13.612 41.2416ZM44.1326 42.6247C43.7177 42.6281 43.216 42.6241 42.7817 42.6244C42.9586 42.6189 43.9561 42.6174 44.1326 42.6247ZM78.6793 14.5251C78.6576 14.4158 76.894 12.3853 77.8903 13.5431C77.96 13.6016 78.8561 14.767 78.6793 14.5251ZM3.32437 21.0205C3.30619 21.0989 3.28541 21.1895 3.26197 21.2948C3.28473 21.1901 3.30572 21.0994 3.32437 21.0205ZM3.16491 28.2173C3.13 28.0744 3.26825 28.8012 3.32579 29.0126C3.34454 29.0774 3.16433 28.2375 3.16491 28.2173ZM42.7487 42.6334C42.4985 42.6371 42.0443 42.6332 41.7345 42.6336C41.7869 42.6276 42.6405 42.6273 42.7487 42.6334ZM60.3201 42.6402C59.8233 42.6366 59.2118 42.6383 59.2024 42.6456C59.1921 42.6445 59.168 42.6433 59.128 42.642C59.0876 42.6408 58.5553 42.6442 58.324 42.6417C56.9395 42.6268 63.6706 42.6329 59.7693 42.6537C59.9529 42.6492 60.1365 42.6447 60.3201 42.6402ZM79.7836 33.8203C79.9345 33.5876 80.2824 32.8959 80.1859 33.0722C80.1264 33.1987 79.6397 34.0567 79.7836 33.8203ZM72.0904 40.9369C72.1676 40.9066 72.8384 40.5569 72.8512 40.5404C72.4691 40.7463 71.747 41.0909 72.0904 40.9369ZM80.7437 31.9252C80.8135 31.7661 80.8825 31.5556 80.8742 31.5742C80.8055 31.736 80.6209 32.19 80.7437 31.9252ZM3.03745 22.3131C2.98922 22.5653 2.90744 23.3884 2.90769 23.5666C2.90326 23.5997 2.89334 23.689 2.87979 23.8538C2.87983 23.8533 2.87986 23.8528 2.87989 23.8523C2.87561 23.9109 2.84084 24.3878 2.84055 25C2.8178 26.771 3.29064 29.5585 2.89828 26.2669C2.89059 26.1274 2.88896 26.318 2.86269 25.75C2.8613 25.7125 2.86728 25.6937 2.86378 25.578C2.86112 25.488 2.85532 25.2667 2.85597 25C2.85375 24.4761 2.89527 23.7913 2.9086 23.6014C2.91009 23.5991 2.91273 23.5808 2.91705 23.5418C2.94538 23.1947 3.06673 22.1141 3.03745 22.3131ZM70.7122 41.525C70.8566 41.4755 71.302 41.2928 71.3448 41.2664C71.1263 41.3607 70.3791 41.6435 70.7122 41.525ZM78.6499 14.443C78.4722 14.188 77.9655 13.5871 78.1122 13.774C78.2091 13.8827 78.8611 14.7314 78.6499 14.443ZM74.938 39.2294C73.4771 40.2415 74.5921 39.4753 74.3741 39.6387C74.5649 39.5059 74.7529 39.3694 74.938 39.2294ZM6.12765 14.7659C5.96266 14.9964 6.13787 14.712 6.33241 14.4675C6.39332 14.3908 6.22002 14.637 6.12765 14.7659ZM16.5303 7.79969C16.2896 7.83283 17.4488 7.59922 17.0001 7.70288C16.9795 7.70599 16.5468 7.79515 16.5303 7.79969ZM8.68053 11.8856C8.54589 12.0237 8.45061 12.1052 8.06257 12.4837C8.63689 11.9233 8.08991 12.4281 8.68053 11.8856ZM59.2078 42.6468C59.2046 42.6464 59.2019 42.646 59.2024 42.6456C59.206 42.646 59.2075 42.6464 59.2078 42.6468ZM81.3231 30.3581C81.4025 30.1497 81.5698 29.549 81.5106 29.7253C81.5068 29.7434 81.3468 30.2692 81.3231 30.3581ZM2.90769 23.5666C2.91171 23.5373 2.91149 23.5524 2.9086 23.6014C2.90721 23.6036 2.90704 23.5908 2.90769 23.5666ZM80.0164 33.4366C80.0259 33.417 79.5489 34.2371 79.524 34.2669C79.2458 34.7358 79.8375 33.7867 80.0164 33.4366ZM74.0942 10.168C74.0529 10.1419 74.3078 10.3284 74.4709 10.433C74.5977 10.5133 74.2505 10.2643 74.0942 10.168ZM10.1069 10.7218C10.349 10.5436 10.7004 10.3061 10.7703 10.2709C10.6001 10.3782 10.1042 10.7289 10.1069 10.7218ZM16.0788 7.89797C15.7348 7.99265 14.9573 8.22473 14.4718 8.4044C14.4543 8.3852 15.751 7.96962 16.0788 7.89797ZM3.18398 21.51C3.17482 21.5327 3.04041 22.2754 3.06818 22.1757C3.10044 22.0274 3.22891 21.3027 3.18398 21.51ZM75.2834 11.0221C75.5538 11.2243 74.9523 10.7317 74.6498 10.5423C74.4984 10.4403 75.2414 10.9832 75.2834 11.0221ZM81.8211 28.4758C81.9043 28.0389 81.676 29.1184 81.639 29.2673C81.6904 29.0698 81.7934 28.6311 81.8211 28.4758ZM73.2103 40.3794C74.4309 39.6854 73.7477 40.0343 73.5385 40.1683C73.5094 40.1876 73.1807 40.3965 73.2103 40.3794ZM29.981 7.33533C29.7786 7.33896 30.5331 7.3521 30.6308 7.34345C30.6911 7.33803 30.1104 7.33302 29.981 7.33533ZM52.2498 42.6541C52.3101 42.654 52.37 42.6539 52.4293 42.6539C52.3848 42.6543 52.3264 42.6544 52.2498 42.6541ZM82.1896 24.454C82.1879 24.6936 82.1838 24.8697 82.1812 25C82.1713 25.4072 82.185 25.3627 82.1842 25.4281C82.1802 25.6138 82.1532 26.0438 82.1265 26.3934C82.1535 25.9923 82.1669 25.594 82.1671 25.1922C82.2172 25.5123 81.9056 28.2424 81.8514 28.2928C81.8485 28.3768 81.9903 27.5219 81.9892 27.4977C81.9955 27.4621 82.0372 27.3317 82.0481 27.252C82.0705 27.1526 82.2068 25.8096 82.1945 25C82.1954 24.7432 82.1909 24.5427 82.1896 24.454ZM75.6288 38.7228C75.4516 38.8625 75.3948 38.894 75.3136 38.9602C75.2858 38.9826 75.287 38.9935 75.1914 39.0693C75.339 38.9561 75.4849 38.8405 75.6288 38.7228ZM82.0155 22.6929C81.9963 22.4132 82.1325 23.6603 82.1233 23.7012C82.1349 23.9149 82.0444 22.9203 82.0155 22.6929ZM80.2446 33.0211C80.2719 32.9834 80.6862 32.1147 80.6721 32.1167C80.5767 32.3534 79.9921 33.4996 80.2446 33.0211ZM75.0714 39.1606C74.8021 39.3651 74.2676 39.7173 74.3354 39.6863C74.3358 39.6861 74.3362 39.6858 74.3367 39.6855C74.5861 39.5167 74.8312 39.3416 75.0714 39.1606ZM76.1921 11.7357C75.7307 11.3096 75.9428 11.5198 76.3517 11.8951C76.4826 12.001 76.2673 11.8058 76.1921 11.7357ZM74.6238 10.4822C74.4957 10.3584 72.954 9.42881 73.1798 9.5871C73.2667 9.63176 74.1544 10.1631 74.19 10.1962C74.2493 10.2374 73.9686 10.0642 74.4281 10.3687C74.4041 10.3466 74.6724 10.5172 74.6238 10.4822ZM75.8064 11.3873C75.3342 10.9789 75.201 10.9216 75.5695 11.2115C75.7123 11.326 75.8732 11.4462 75.8064 11.3873ZM77.6412 13.1529C77.4944 12.9831 77.0864 12.545 76.781 12.2679C77.1772 12.6513 77.5557 13.0532 77.9146 13.4717C77.9604 13.5162 77.7713 13.2999 77.6401 13.1518C77.6405 13.1522 77.6408 13.1526 77.6412 13.1529ZM19.77 7.27754C19.2743 7.28834 20.416 7.24259 20.4669 7.25308C20.6112 7.25874 19.9906 7.26916 19.77 7.27754ZM26.0425 7.062C25.9024 7.0586 25.8108 7.04741 25.5024 7.05328C25.8126 7.06154 26.1228 7.0698 26.433 7.07806C26.674 7.05913 26.1956 7.06576 26.0425 7.062ZM24.858 6.99285C24.9018 6.99239 24.6625 6.96329 25.2285 6.98272C25.611 6.99584 23.5312 7.00862 23.1557 6.99572C23.5706 6.98972 24.4808 6.99659 24.858 6.99285ZM21.2148 6.86687C21.1909 6.86455 21.9811 6.86114 22.0725 6.86278C22.5528 6.8714 21.3446 6.8793 21.2148 6.86687ZM23.7357 6.87242C23.3651 6.86677 24.1861 6.86313 24.4307 6.86638C24.4544 6.8718 23.7929 6.87325 23.7357 6.87242ZM14.7037 7.78634C14.314 7.89797 13.9902 8.06303 14.5721 7.84624C14.6 7.83606 14.7203 7.78168 14.7037 7.78634ZM21.9874 6.83751C22.3579 6.84316 21.537 6.8468 21.2923 6.84355C21.2696 6.83814 21.9309 6.83668 21.9874 6.83751ZM14.4189 7.83487C13.9078 8.00478 14.1032 7.98683 14.1667 7.96419C14.4257 7.8684 15.3237 7.55836 15.5107 7.50702C14.153 7.92734 14.6626 7.76479 14.4189 7.83487ZM12.1542 8.84826C11.713 9.0808 12.8514 8.50703 13.073 8.40657C12.8457 8.50566 12.2784 8.77929 12.1542 8.84826ZM9.58413 10.4457C9.36513 10.6017 8.74335 11.1031 8.64932 11.1994C8.86767 11.0032 9.49559 10.5168 9.58413 10.4457ZM9.09009 10.8013C8.75782 11.0588 8.69986 11.1465 9.06841 10.8325C9.08281 10.8204 9.10246 10.7921 9.09009 10.8013ZM7.34238 12.3892C7.14292 12.5805 6.95147 12.832 7.25627 12.5055C7.34751 12.4093 7.36364 12.3692 7.34238 12.3892ZM13.7685 8.02419C13.3994 8.16651 12.9392 8.38465 13.7188 8.06321C13.4453 8.17621 13.1735 8.2964 12.9057 8.4228C13.9205 7.98438 13.8427 8.01024 14.1389 7.89403C14.5561 7.74293 14.5317 7.78062 14.4501 7.81614C14.7834 7.66881 16.2651 7.22504 17.147 7.07729C16.3724 7.20545 15.1384 7.52622 14.4082 7.79074C14.2 7.86323 14.0002 7.94537 13.8246 8.01371C13.5433 8.12436 13.7892 8.01627 13.77 8.02361C13.7695 8.0238 13.769 8.024 13.7685 8.02419ZM5.39185 14.8032C4.9351 15.4728 5.23619 15.0573 5.49067 14.6768C5.50137 14.6604 5.40328 14.7865 5.39185 14.8032ZM20.9256 6.74955C21.9954 6.76165 21.2178 6.77769 23.4557 6.75334C22.5155 6.77057 23.4037 6.76573 23.2202 6.77269C23.0729 6.77819 22.5213 6.77363 22.842 6.78471C22.4205 6.77265 20.5906 6.77599 20.5091 6.77403C20.5098 6.77403 20.5106 6.77403 20.5114 6.77403C20.4624 6.77287 20.5843 6.74571 20.9256 6.74955ZM9.53555 10.3875C9.2984 10.524 9.24574 10.6295 8.8164 10.9456C8.2842 11.4151 10.3552 9.72978 10.6773 9.62764C8.27307 11.2376 12.2992 8.61519 10.5766 9.67103C12.0033 8.81144 11.0378 9.37855 11.253 9.2373C11.4832 9.08502 12.3212 8.65172 12.2747 8.66568C12.2743 8.66591 12.2738 8.66615 12.2733 8.66638C11.7587 8.92715 11.2561 9.21258 10.7682 9.52107C11.2616 9.24559 10.2574 9.86058 9.92339 10.0828C9.79263 10.1827 9.66343 10.2842 9.53555 10.3875ZM12.3171 8.69271C12.261 8.70812 11.1665 9.31742 11.2436 9.2889C11.3788 9.18796 12.9595 8.37542 12.3171 8.69271ZM17.5395 6.99125C17.0943 7.0603 16.4128 7.20166 16.1779 7.27251C16.6146 7.16289 17.2983 7.03863 17.5395 6.99125ZM2.4237 22.4798C2.34627 23.0475 2.62034 21.3043 2.53053 21.8068C2.52306 21.831 2.42442 22.4522 2.4237 22.4798ZM8.52402 11.2125C8.08022 11.5914 8.3071 11.4313 8.62774 11.1421C8.64635 11.1254 8.54462 11.1951 8.52402 11.2125ZM21.7925 6.7454C21.831 6.73703 23.3831 6.74291 23.6582 6.74284C23.5019 6.75062 21.7484 6.755 21.7925 6.7454ZM18.3194 6.84967C17.4236 6.91465 16.2376 7.21911 16.1114 7.25538C15.9827 7.28645 16.1811 7.2238 16.1518 7.23076C16.0821 7.233 14.7231 7.62783 14.6624 7.66358C14.6163 7.67988 14.8643 7.61578 14.59 7.71456C15.1114 7.46975 17.6346 6.91289 17.7757 6.93269C17.8787 6.9185 17.1008 7.00318 18.3179 6.84985C18.3184 6.84979 18.3189 6.84973 18.3194 6.84967ZM15.7874 7.33425C16.1305 7.24964 15.1746 7.50836 14.948 7.58564C14.4379 7.7388 15.7394 7.33357 15.7874 7.33425ZM13.5304 8.08912C13.4225 8.12367 12.492 8.5442 12.4209 8.59698C12.8551 8.38588 13.7685 7.99353 13.5304 8.08912ZM4.99515 15.3042C4.85134 15.5275 4.4831 16.1559 4.47205 16.198C4.59547 15.9624 4.97666 15.3421 4.99515 15.3042ZM27.0881 6.6796C26.6546 6.6733 27.6589 6.67072 27.9519 6.67374C27.9678 6.67877 27.125 6.68015 27.0881 6.6796ZM8.40201 11.2234C8.23578 11.2774 6.02956 13.6144 5.82026 14.0258C6.03246 13.6284 8.21833 11.3158 8.37016 11.2652C8.40117 11.2367 8.41733 11.2104 8.40201 11.2234ZM14.3489 7.71905C14.6223 7.61006 14.8102 7.56424 14.8455 7.55279C15.1914 7.43747 15.9192 7.23821 15.7625 7.29237C15.1354 7.4385 13.8051 7.93747 14.3489 7.71905ZM4.83254 15.4717C4.27225 16.406 5.37318 14.6263 5.2278 14.8591C5.21562 14.8721 4.88864 15.3736 4.83254 15.4717ZM8.67162 10.9868C8.80769 10.7702 11.4574 8.94508 11.9536 8.77007C11.5539 9.00155 11.2228 9.17199 10.6979 9.50344C10.5569 9.59355 10.5985 9.57556 10.5833 9.58521C10.3407 9.7434 10.5178 9.61824 10.3686 9.71643C10.252 9.74859 8.40486 11.1942 8.67162 10.9868ZM14.5048 7.6562C14.6648 7.56392 16.6 7.03278 16.6869 7.04338C17.2732 6.90342 14.6398 7.55774 14.5048 7.6562ZM8.43841 11.1676C8.67623 10.9131 9.95058 9.94888 9.093 10.6266C9.01136 10.6914 8.66327 10.9639 8.43841 11.1676ZM4.87793 15.3628C4.84172 15.4036 4.2734 16.39 4.27682 16.4146C4.33925 16.261 5.20087 14.8441 4.87793 15.3628ZM5.17883 14.8547C5.16444 14.8781 5.31896 14.6604 5.02685 15.1069C5.00469 15.1452 4.93971 15.2035 4.60355 15.784C4.53568 15.9021 4.44033 16.0907 4.44833 16.0777C4.77996 15.4623 5.95317 13.7136 5.17883 14.8547ZM14.5361 7.63408C14.432 7.66421 14.6729 7.56224 14.9005 7.49872C14.9982 7.4719 14.8204 7.53645 14.5361 7.63408ZM3.28946 18.5966C3.50102 17.9688 2.80798 19.9289 2.80994 20.04C2.82147 19.9736 3.25507 18.6544 3.28946 18.5966ZM28.103 6.60184C28.1025 6.60184 28.102 6.60184 28.1015 6.60184C28.6471 6.60413 28.3092 6.61251 28.3347 6.61277C29.4969 6.62508 29.1886 6.6061 29.3704 6.60386C29.76 6.59901 29.6973 6.62209 30.3546 6.61252C29.268 6.62666 30.2571 6.62073 30.2879 6.62894C30.4096 6.66245 28.8412 6.61325 28.2994 6.62028C28.2239 6.62125 28.7813 6.63194 28.5879 6.63499C27.9591 6.64484 26.0094 6.59311 28.103 6.60184ZM15.0736 7.44278C15.3091 7.32994 17.2243 6.89945 16.7192 7.02554C16.6298 7.01781 14.7104 7.55215 15.0736 7.44278ZM59.0336 43.3867C58.5722 43.3952 59.6416 43.4052 59.8399 43.3986C59.9383 43.3953 59.2363 43.3829 59.0336 43.3867ZM66.5755 43.3076C67.1349 43.2431 67.7089 43.1117 67.0225 43.2199C66.95 43.232 66.5113 43.3107 66.5755 43.3076ZM30.5281 43.4049C31.1006 43.4176 31.0665 43.394 30.6462 43.3943C30.4978 43.3944 30.51 43.4045 30.5281 43.4049ZM52.3794 43.4018C52.4367 43.4026 53.0986 43.4011 53.0744 43.3957C52.8298 43.3925 52.0088 43.3962 52.3794 43.4018ZM30.3463 43.4082C30.6857 43.404 30.1014 43.3869 29.6865 43.4036C29.8972 43.4022 30.3113 43.4087 30.3463 43.4082ZM7.51954 11.9528C7.31747 12.1618 6.75159 12.7582 6.45148 13.1231C6.40223 13.148 7.27218 12.1831 7.51954 11.9528ZM64.2042 43.4088C64.7232 43.4 63.6112 43.3928 63.7132 43.4044C63.7274 43.4051 64.1837 43.4092 64.2042 43.4088ZM12.1762 41.4241C12.5215 41.5955 11.4419 41.0188 11.734 41.1869C11.7475 41.1964 12.1563 41.4161 12.1762 41.4241ZM7.82504 38.3444C8.02764 38.5567 8.97886 39.3652 8.61369 39.0447C8.55262 38.9998 7.84177 38.3589 7.82504 38.3444ZM29.4026 6.59482C29.2483 6.58193 30.1436 6.585 30.2718 6.58725C30.3221 6.58819 29.6037 6.61159 29.4026 6.59482ZM34.2464 43.4069C34.5426 43.4053 35.3109 43.4083 35.4462 43.4016C35.0838 43.403 34.149 43.3934 34.2464 43.4069ZM61.8375 43.4089C62.2895 43.4229 63.0618 43.4215 62.8709 43.4032C62.0178 43.4044 62.9763 43.4197 61.8375 43.4089ZM28.4384 43.4233C28.6759 43.4244 28.858 43.4068 28.8311 43.406C28.5737 43.3981 28.2023 43.4165 28.4384 43.4233ZM46.2645 43.4088C46.2782 43.4163 47.0397 43.4129 46.9381 43.4081C46.9047 43.4065 46.2534 43.4028 46.2645 43.4088ZM2.58908 20.7318C2.4981 21.0773 2.7477 20.015 2.85702 19.711C2.90664 19.5618 2.59107 20.6865 2.58908 20.7318ZM21.8509 43.4189C21.8155 43.4301 23.0057 43.4238 22.5367 43.4145C22.4193 43.4122 21.8633 43.4152 21.8509 43.4189ZM10.7397 40.6383C11.0921 40.8462 10.5321 40.5072 10.0063 40.1375C9.47869 39.7702 8.98445 39.375 9.3351 39.6588C9.37595 39.7121 10.6694 40.6152 10.7397 40.6383ZM6.51231 36.9905C6.60455 37.0972 6.52426 37.0734 6.16487 36.6122C6.11767 36.5519 6.35266 36.8228 6.31481 36.7727C6.28408 36.7501 5.51283 35.7421 5.48691 35.6887C5.44964 35.6381 5.48277 35.7054 5.44472 35.6541C5.39919 35.5979 4.96693 34.9469 4.75771 34.5945C4.36071 33.9341 4.32314 33.8585 4.29044 33.8044C4.20232 33.6426 4.06308 33.3662 3.9 33.0295C3.02906 31.3528 2.2846 28.5392 2.18926 27.0462C2.32805 28.3666 2.61087 29.6086 3.03196 30.86C2.86977 30.507 3.72499 32.6755 3.21751 31.4096C3.25233 32.0901 6.05167 36.7536 6.51129 36.9893C6.51163 36.9897 6.51197 36.9901 6.51231 36.9905ZM68.7594 42.9392C68.4296 43.0436 70.141 42.5893 70.2735 42.5065C70.0538 42.5903 68.8029 42.9383 68.7594 42.9392ZM60.7221 43.4648C60.5616 43.467 60.4093 43.492 59.5676 43.4793C59.5668 43.4793 59.566 43.4793 59.5653 43.4793C59.3192 43.4756 59.5996 43.4695 59.5545 43.4674C59.5381 43.4665 58.7706 43.4541 59.408 43.4521C60.3801 43.449 59.4995 43.4706 60.0179 43.4709C60.0812 43.4709 61.0622 43.4574 61.0052 43.4544C60.9993 43.4541 60.7041 43.457 60.6554 43.4557C60.4713 43.4511 60.5609 43.4433 60.5349 43.4429C60.45 43.4419 58.8987 43.4552 58.6731 43.4436C58.5998 43.4399 61.1461 43.4312 61.2453 43.4332C61.3081 43.4344 61.2816 43.4561 61.3466 43.4582C61.38 43.4593 62.4042 43.4512 62.5372 43.4532C62.5758 43.4537 62.6053 43.4543 62.6269 43.4549C62.472 43.4482 63.3995 43.4486 63.3711 43.4562C63.3549 43.4592 62.7165 43.4575 62.6937 43.4569C62.6836 43.4567 62.6749 43.4564 62.6668 43.4562C62.799 43.4644 60.6375 43.464 61.1041 43.4762C60.4776 43.4828 61.193 43.4583 60.7221 43.4648ZM57.7103 43.4782C57.775 43.4759 57.8397 43.4736 57.9044 43.4713C56.8075 43.4769 55.5417 43.4659 54.2781 43.466C53.9575 43.466 54.3263 43.48 53.906 43.4762C53.5693 43.4731 53.1967 43.4602 53.3798 43.4573C53.4244 43.4566 54.1099 43.465 54.453 43.4641C55.4659 43.4616 55.21 43.4496 55.2692 43.4493C55.3346 43.449 55.9721 43.4574 56.3202 43.457C57.1955 43.456 57.5953 43.4487 58.7912 43.4583C58.1011 43.4662 58.4791 43.4833 57.7103 43.4782ZM16.757 43.0726C16.712 43.0742 15.996 42.9063 15.7381 42.8341C15.7812 42.841 16.4919 43.0236 16.757 43.0726ZM61.7615 6.53751C61.541 6.54985 63.1935 6.55291 62.758 6.54264C62.6617 6.54036 61.9691 6.5376 61.7615 6.53751ZM69.2507 7.16211C69.4713 7.21409 68.5891 6.98141 68.587 6.99621C68.5888 6.99698 69.2221 7.15197 69.2507 7.16211ZM43.5312 43.466C43.4893 43.4664 42.8813 43.4637 42.8622 43.463C42.4593 43.4499 44.4608 43.4575 43.5312 43.466ZM77.2466 11.6322C76.6783 11.0834 78.3607 12.7642 77.8553 12.2422C77.8336 12.2127 77.2773 11.6552 77.2466 11.6322ZM79.4265 14.114C79.319 13.9581 78.8013 13.2937 78.7883 13.2903C78.7772 13.2776 79.3671 14.0392 79.4265 14.114ZM28.278 43.4699C28.367 43.4838 27.2855 43.4733 26.9094 43.4751C26.8202 43.4611 27.9021 43.4717 28.278 43.4699ZM35.1048 43.4802C30.5452 43.4912 31.5504 43.4614 35.3764 43.4734C35.3819 43.4823 35.3926 43.4795 35.1048 43.4802ZM29.2661 43.4785C29.4318 43.4696 29.9496 43.4723 30.2995 43.473C30.2365 43.4792 29.5185 43.4769 29.2661 43.4785ZM59.7938 6.5184C60.0797 6.50715 61.3461 6.52103 61.1209 6.52567C61.0685 6.52667 59.6888 6.52459 59.7938 6.5184ZM43.1491 43.4779C43.2553 43.4915 41.8861 43.4859 41.7813 43.4829C41.3587 43.4709 43.0382 43.4809 43.1491 43.4779ZM21.8064 43.4818C21.5761 43.4919 20.9423 43.4875 20.501 43.4869C20.4782 43.4869 20.4559 43.4868 20.4342 43.4867C20.4521 43.486 20.4746 43.4854 20.501 43.4848C20.7714 43.4784 21.464 43.4817 21.8064 43.4818ZM24.9947 43.4901C24.9669 43.4905 24.351 43.4896 24.3234 43.4891C23.8187 43.4788 25.5612 43.4814 24.9947 43.4901ZM27.3466 6.50009C27.3672 6.49975 27.8336 6.50043 27.8499 6.50083C28.2662 6.511 26.8662 6.50892 27.3466 6.50009Z" fill="white"/>
<g filter="url(#filter0_d_523_910)">
<path d="M20.301 26.78H19.301C18.361 26.78 17.901 26.22 17.901 25.1V18.42H17.481C17.381 18.42 17.321 18.36 17.321 18.26C17.321 18.16 17.381 18.1 17.481 18.1H18.861C19.261 18.1 19.501 18.34 19.501 18.74V25.04C19.501 25.98 19.761 26.46 20.301 26.46C20.381 26.46 20.441 26.52 20.441 26.62C20.441 26.72 20.381 26.78 20.301 26.78ZM23.221 33.68C23.101 33.68 23.021 33.52 23.141 33.38C24.541 31.56 25.081 29.48 25.081 26.18V18.42H24.541C24.441 18.42 24.381 18.36 24.381 18.26C24.381 18.16 24.441 18.1 24.541 18.1H26.221C26.741 18.1 27.001 18.36 27.001 18.88V25.18C27.001 29.4 25.801 31.9 23.381 33.62C23.321 33.66 23.281 33.68 23.221 33.68ZM47.041 32.24H46.941C46.301 32.24 44.961 32.06 44.961 29.92V21.12C44.961 20.32 44.601 20.02 44.101 20.02C43.881 20.02 43.601 20.06 43.321 20.14C42.101 20.48 40.981 21.04 39.941 21.84V31.3C39.941 31.76 39.701 32 39.241 32H38.341V23.32C37.441 24.32 36.661 25.46 36.001 26.46C35.841 26.66 35.541 26.46 35.701 26.22C36.421 25.14 37.281 23.9 38.341 22.82V21.06H35.481C35.381 21.06 35.321 21 35.321 20.9C35.321 20.8 35.381 20.74 35.481 20.74H38.341V17.82H37.801C37.701 17.82 37.641 17.76 37.641 17.66C37.641 17.56 37.701 17.5 37.801 17.5H39.241C39.701 17.5 39.941 17.74 39.941 18.2V21.4C40.881 20.7 41.941 20.16 43.241 19.76C43.961 19.54 44.401 19.48 44.881 19.48C46.001 19.48 46.881 19.96 46.881 21.58V31.08C46.881 31.7 47.141 31.84 47.421 31.84C48.301 31.86 49.001 30.66 49.141 29.1C49.141 28.96 49.241 28.9 49.341 28.9C49.441 28.9 49.541 28.98 49.541 29.12L49.521 29.34C49.321 31.08 48.481 32.24 47.041 32.24ZM62.301 32.82C59.601 32.82 57.261 31.68 57.261 29.22C57.261 27.04 59.361 26 61.681 26C62.581 26 63.301 26.12 63.961 26.38V23.86H57.021C56.921 23.86 56.861 23.8 56.861 23.7C56.861 23.6 56.921 23.54 57.021 23.54H63.961V20.86H57.021C56.921 20.86 56.861 20.8 56.861 20.7C56.861 20.6 56.921 20.54 57.021 20.54H63.961V17.82H63.421C63.321 17.82 63.261 17.76 63.261 17.66C63.261 17.56 63.321 17.5 63.421 17.5H64.981C65.481 17.5 65.721 17.74 65.721 18.24V20.54H68.141C68.241 20.54 68.301 20.6 68.301 20.7C68.301 20.8 68.241 20.86 68.141 20.86H65.721V23.54H68.141C68.241 23.54 68.301 23.6 68.301 23.7C68.301 23.8 68.241 23.86 68.141 23.86H65.721V27.76C65.721 28.26 65.481 28.5 64.981 28.5H63.961V26.76C63.341 26.5 62.721 26.36 62.121 26.36C60.001 26.36 58.861 27.6 58.861 29.24C58.861 31.12 60.181 32.46 62.741 32.46C64.301 32.46 65.881 31.9 66.661 31.26C66.701 31.22 66.761 31.2 66.801 31.2C66.961 31.2 67.101 31.42 66.941 31.54C66.061 32.24 64.501 32.82 62.301 32.82Z" fill="white"/>
</g>
<defs>
<filter id="filter0_d_523_910" x="0.321289" y="0.5" width="84.9795" height="50.1802" filterUnits="userSpaceOnUse" color-interpolation-filters="sRGB">
<feFlood flood-opacity="0" result="BackgroundImageFix"/>
<feColorMatrix in="SourceAlpha" type="matrix" values="0 0 0 0 0 0 0 0 0 0 0 0 0 0 0 0 0 0 127 0" result="hardAlpha"/>
<feOffset/>
<feGaussianBlur stdDeviation="8.5"/>
<feComposite in2="hardAlpha" operator="out"/>
<feColorMatrix type="matrix" values="0 0 0 0 0 0 0 0 0 0 0 0 0 0 0 0 0 0 0.38 0"/>
<feBlend mode="normal" in2="BackgroundImageFix" result="effect1_dropShadow_523_910"/>
<feBlend mode="normal" in="SourceGraphic" in2="effect1_dropShadow_523_910" result="shape"/>
</filter>
</defs>
</svg>
