<svg width="149" height="52" viewBox="0 0 149 52" fill="none" xmlns="http://www.w3.org/2000/svg">
<path d="M44.9096 8.49201C45.1168 8.49074 45.9502 8.49383 46.3109 8.4933C45.902 8.50671 44.1623 8.49662 44.9096 8.49201ZM81.915 7.51792C81.6157 7.52123 81.3163 7.52455 81.017 7.52787C81.8676 7.53002 83.011 7.52759 83.8004 7.53073C83.9295 7.53126 83.5945 7.54086 83.9 7.54129C84.2056 7.54172 84.1467 7.5286 84.5911 7.52719C85.0896 7.52566 87.3722 7.5348 88.1626 7.53458C91.1191 7.53369 94.101 7.5262 97.0633 7.53165C94.0051 7.54136 97.0868 7.55124 97.9434 7.54703C98.1333 7.54606 98.1029 7.52166 101.171 7.5278C103.121 7.5317 101.32 7.56658 104.574 7.54911C102.072 7.52471 104.533 7.52642 106.494 7.52561C106.832 7.52546 109.563 7.52913 110.77 7.52805C111.182 7.52767 111.811 7.51489 112.359 7.51456C112.735 7.51434 113.02 7.52132 113.58 7.52097C116.188 7.51939 118.753 7.51885 121.365 7.52121C119.839 7.55405 122.564 7.53521 122.686 7.53678C123.309 7.54569 120.493 7.54823 121.607 7.55381C123.163 7.55279 124.718 7.55177 126.274 7.55075C124.997 7.54672 127.965 7.5231 128.511 7.53385C128.441 7.52543 129.008 7.52402 129.876 7.52603C132.08 7.40351 136.003 8.47831 136.724 8.86196C136.928 8.9881 135.561 8.22319 138.802 9.8372C139.144 10.0296 139.01 9.96494 139.188 10.0671C139.294 10.128 139.953 10.4833 140.59 10.9597C140.79 11.1736 139.411 9.93345 142.516 12.5627C141.918 12.0123 143.023 12.9091 144.155 14.2904C145.311 15.6544 146.335 17.5645 146.598 18.1782C146.488 17.9353 146.372 17.6929 146.252 17.4545C146.843 18.6382 146.91 18.8709 147.028 19.1439C147.485 20.2559 147.913 21.8583 148.083 22.9636C148.271 24.2564 148.303 24.2634 148.342 25.7876C148.342 25.4239 148.332 25.0655 148.31 24.7015C148.34 25.1365 148.354 25.5638 148.354 26C148.354 26.6241 148.322 27.245 148.26 27.8619C148.412 25.4253 148.241 28.3892 148.173 28.5798C148.129 28.8881 148.187 28.4436 148.108 28.9596C148.097 29.012 148.132 28.9406 147.978 29.7283C147.611 31.3688 147.627 31.0992 147.425 31.7746C147.398 31.834 147.505 31.6309 147.075 32.7721C145.488 36.3051 147.122 32.7702 147.129 32.6129C147.162 32.4187 146.81 33.6966 147.759 30.5522C147.473 31.619 147.398 31.711 147.364 31.8306C147.353 31.9428 146.646 33.7178 146.579 33.8034C146.176 34.6511 146.546 33.9121 146.467 34.0775C146.432 34.2294 145.281 36.2228 144.959 36.6595C144.273 37.5255 145.382 36.1743 146.227 34.5283C146.365 34.2966 145.354 36.0541 145.272 36.128C143.762 38.2604 144.606 37.0864 144.279 37.5559C144.101 37.7988 143.387 38.5935 144.046 37.8599C142.466 39.6371 143.412 38.5478 143.313 38.666C143.156 38.8365 142.568 39.4242 142.488 39.4916C142.375 39.5947 142.759 39.228 142.316 39.6355C142.242 39.7031 141.527 40.3599 142.461 39.5263C141.215 40.6426 141.296 40.5265 140.837 40.8588C139.924 41.5636 140.138 41.3183 139.76 41.566C138.732 42.1928 139.038 42.0257 138.987 42.0634C138.644 42.3567 135.568 43.6796 134.742 43.8197C135.061 43.7478 137.255 42.9869 137.709 42.7239C138.483 42.3383 137.939 42.6143 137.326 42.8816C136.714 43.1493 136.027 43.3893 136.609 43.1536C136.121 43.3535 135.627 43.5319 135.124 43.689C134.186 43.911 135.525 43.6378 132.986 44.1651C132.575 44.2742 134.782 43.7921 134.34 43.8925C134.087 43.9809 132.605 44.2592 132.574 44.2535C132.548 44.2739 133.885 44.0221 133.675 44.0643C133.234 44.3044 128.274 44.6153 132.043 44.3222C131.131 44.4243 130.601 44.4208 129.876 44.4252C129.77 44.4252 129.66 44.4258 129.544 44.427C129.329 44.4294 129.647 44.4368 129.876 44.4448C130.078 44.4511 130.212 44.4573 129.876 44.4637C129.564 44.4683 128.834 44.4706 127.344 44.4682C127.241 44.4536 129.29 44.4639 129.344 44.4628C129.418 44.4612 129.048 44.4282 128.983 44.4265C128.756 44.4212 123.786 44.4389 122.736 44.4223C123.151 44.4413 118.98 44.4257 118.526 44.4315C118.405 44.4331 118.857 44.4448 118.727 44.446C117.921 44.4534 115.739 44.4325 114.727 44.432C113.594 44.4314 113.737 44.4415 113.674 44.4414C113.176 44.4409 113.574 44.434 113.269 44.434C112.809 44.4341 109.646 44.4327 109.487 44.4341C109.44 44.4346 109.957 44.4461 109.267 44.4483C109.148 44.4486 109.223 44.435 107.181 44.4409C104.722 44.448 108.889 44.4579 107.867 44.4722C106.287 44.4518 106.339 44.472 105.91 44.4704C105.762 44.4698 104.658 44.4527 103.459 44.4538C104.319 44.451 105.18 44.4482 106.041 44.4454C105.195 44.4424 103.552 44.4461 102.855 44.4427C102.515 44.4411 102.795 44.427 102.056 44.4273C101.9 44.4275 101.278 44.4619 103.212 44.4464C103.367 44.4587 102.446 44.4507 102.019 44.4542C101.955 44.4547 101.7 44.4752 101.155 44.4625C101.024 44.4594 102.449 44.3996 98.7723 44.4428C98.6539 44.4442 99.0656 44.4517 98.9498 44.4533C98.8707 44.4543 97.932 44.4513 97.8283 44.4524C97.7222 44.4535 98.1756 44.4617 98.0493 44.4633C97.4019 44.4716 96.552 44.4391 97.8871 44.4416C97.4408 44.4376 96.9946 44.4336 96.5484 44.4296C97.026 44.454 95.8475 44.4365 95.2301 44.4372C91.2731 44.442 93.9228 44.4579 93.2425 44.4662C92.1483 44.4794 92.984 44.4375 91.3597 44.4501C91.2094 44.4513 93.173 44.469 89.3389 44.459C89.9048 44.4583 90.4707 44.4576 91.0365 44.4569C90.7102 44.4333 88.9932 44.4586 88.8612 44.4589C87.3556 44.4621 88.3734 44.4536 86.1378 44.4658C85.9381 44.4669 85.5032 44.461 85.0763 44.464C83.3065 44.4759 87.4115 44.4712 87.5238 44.4808C87.5769 44.4855 83.1623 44.4843 83.0108 44.4821C82.3673 44.4722 85.012 44.4777 84.5079 44.4655C84.3239 44.4611 78.0319 44.4701 76.7696 44.4653C75.3129 44.4597 74.6572 44.4277 74.6479 44.4637C74.2368 44.4284 73.8737 44.4525 73.6873 44.4522C71.4347 44.449 71.4305 44.4486 69.4988 44.452C69.0723 44.4527 68.7121 44.442 68.5612 44.4438C68.4734 44.4449 68.6375 44.4564 68.2074 44.4599C67.6098 44.4648 64.0188 44.453 63.7519 44.4466C63.485 44.4403 65.2684 44.4439 64.9488 44.4334C63.6579 44.4324 62.42 44.435 61.1205 44.4339C60.5808 44.4334 60.8581 44.4261 60.6249 44.4259C60.5256 44.4258 58.6618 44.4323 58.7408 44.435C58.9258 44.4412 64.6811 44.437 63.1656 44.4498C62.8732 44.4523 61.8402 44.4354 62.0045 44.4559C56.8626 44.4513 51.7208 44.4466 46.5789 44.442C49.5332 44.4267 52.8579 44.4404 55.9523 44.4389C56.3764 44.4388 57.8102 44.4407 57.6359 44.4304C55.0045 44.4277 51.7332 44.4331 49.2065 44.4264C49.1256 44.4261 49.4225 44.4168 49.1196 44.4154C48.5535 44.4126 46.7101 44.4276 46.4001 44.4237C46.3471 44.4228 47.3961 44.4106 47.0771 44.4028C46.2582 44.3828 46.0504 44.4271 45.3463 44.4265C44.8018 44.4261 41.143 44.4047 40.2317 44.4182C39.2627 44.4326 42.9282 44.4266 42.6574 44.4384C40.1773 44.4502 37.6661 44.4376 35.3228 44.4391C35.2815 44.4391 35.64 44.4483 35.1171 44.4496C34.2072 44.4519 33.9683 44.4388 33.5255 44.4367C33.0479 44.4344 31.3589 44.4363 31.133 44.4315C31.1042 44.4309 31.4464 44.4179 31.4983 44.4176C32.234 44.4122 32.4954 44.4291 32.5624 44.4293C32.8139 44.4299 33.061 44.4235 33.2905 44.4239C33.6683 44.4245 33.8763 44.4305 34.3749 44.431C34.719 44.4314 34.387 44.4199 34.7186 44.4204C34.8403 44.4207 36.1532 44.4469 36.2757 44.4201C36.3137 44.4117 25.5766 44.4009 24.5034 44.4076C25.424 44.4108 26.3445 44.414 27.2651 44.4173C25.3957 44.4094 23.1501 44.4308 22.991 44.3992C21.6607 44.3987 20.3303 44.3982 19 44.3977C13.2572 44.4393 7.60317 41.5702 4.21646 36.9423C3.49669 35.9038 3.851 36.4967 2.81052 34.6975C3.0597 35.174 3.32958 35.6391 3.61967 36.0921C2.88614 35.2756 1.09331 30.8803 1.07178 30.0884C1.05583 29.9905 0.977102 29.8669 0.791397 28.6983C0.647813 27.6593 0.665469 27.4899 0.633017 26.9288C0.617565 26.5972 0.609716 26.2338 0.609483 26C0.609218 25.9045 0.60979 25.8311 0.610459 25.7904C0.612635 25.6831 0.620573 25.6405 0.629935 25.3835C0.671547 24.5742 0.609379 25.2273 0.694437 24.4249C0.678877 24.6204 0.66638 24.8167 0.656989 25.0138C0.707553 24.033 0.918149 22.7079 0.74622 24.1428C0.723413 24.3888 0.735383 24.1767 0.718532 24.3605C0.66181 25.0057 0.646912 25.5465 0.646996 26C0.788673 29.083 0.702549 27.8471 0.655829 26C0.651924 25.092 0.738371 24.0421 0.849831 23.2895C0.857436 22.6233 1.89964 19.1153 2.02816 19.0317C2.09657 18.8775 1.86328 19.4568 2.18921 18.7057C2.22018 18.6252 2.73645 17.4708 3.27259 16.5987C3.80082 15.7233 4.27192 15.0994 3.77613 15.8246C3.54497 16.107 2.39814 18.1486 2.21105 18.684C2.69526 17.44 4.40089 14.8314 4.66571 14.5917C5.54091 13.4871 3.02178 16.7426 4.98123 14.2456C6.60864 12.4273 5.05943 14.1154 5.68881 13.4183C6.00902 12.988 8.13442 11.2172 8.08663 11.2766C8.85429 10.7178 8.41236 11.0553 8.50754 10.9869C8.59012 10.9046 10.1663 9.90133 10.7232 9.65645C10.7889 9.62365 10.5887 9.74007 10.6568 9.70643C10.7798 9.61972 12.4236 8.89152 12.4995 8.88453C12.5419 8.86661 12.1381 9.01238 12.3014 8.94553C12.4855 8.84635 14.1328 8.31416 14.2307 8.30531C14.3514 8.23987 12.3194 8.90582 12.6565 8.79133C13.5779 8.43544 15.1399 8.03835 15.7823 7.93036C15.625 7.95489 14.6867 8.15167 14.3676 8.24127C14.5067 8.15611 16.5307 7.77574 15.8412 7.91876C16.2813 7.83735 15.9793 7.88305 16.2273 7.83667C16.2912 7.82237 16.9209 7.73941 17.0438 7.72631C17.0589 7.72139 16.4066 7.79515 16.5367 7.77584C16.7705 7.711 18.6931 7.58393 18.8535 7.60937C19.2972 7.60382 17.7268 7.64556 17.5965 7.68024C17.5785 7.67177 18.9116 7.63236 18.9335 7.64505C19.0097 7.64606 17.5279 7.6948 17.6978 7.70726C18.0662 7.68415 18.4294 7.67225 18.7978 7.67093C17.3767 7.64615 14.7898 8.10623 14.1536 8.33927C16.1737 7.75277 18.3913 7.6932 18.3806 7.73056C18.3801 7.73937 17.4792 7.79996 17.5151 7.80555C17.6485 7.79641 18.896 7.73508 18.9443 7.74567C18.9825 7.74634 19 7.74712 19 7.74785C19 7.74785 19 7.74785 19 7.74785C18.9972 7.73544 17.2172 7.82486 17.1323 7.85858C16.984 7.877 17.7733 7.83166 17.7733 7.84122C17.7444 7.83386 16.4865 7.97113 16.9124 7.93568C17.3419 7.88606 18.4475 7.82858 18.4858 7.83518C18.6963 7.81557 16.7674 7.94947 16.7116 7.98542C16.6815 7.9843 17.7151 7.89249 17.7462 7.90067C17.7714 7.89903 16.9876 7.97025 16.6802 8.02459C16.4513 8.06005 17.1215 7.98404 17.004 8.0001C16.9151 7.98795 15.1199 8.28518 15.035 8.32872C14.9049 8.35918 15.3243 8.27624 15.2641 8.29202C15.1773 8.31066 14.6042 8.44165 14.6798 8.42814C14.73 8.38229 16.9787 8.01958 16.9695 8.06197C16.9413 8.05786 14.5602 8.40162 16.7814 8.12006C16.7966 8.11653 17.3389 8.0549 17.3534 8.05591C17.6889 8.03894 15.9529 8.19588 18.0785 8.02714C14.1365 8.44514 17.5857 8.07045 17.0058 8.15656C16.7781 8.17244 15.2688 8.43281 15.2646 8.45015C15.4132 8.42823 15.8891 8.32937 16.0551 8.30931C16.1428 8.28656 14.8026 8.56722 15.1067 8.51543C15.2615 8.46914 16.6926 8.22651 16.7543 8.23381C17.327 8.17321 16.6267 8.26369 16.7531 8.25427C16.8368 8.24163 17.7075 8.15915 17.731 8.16316C17.7672 8.15378 16.5846 8.28272 16.3437 8.33507C16.1585 8.36473 16.8566 8.27316 16.7273 8.2935C15.9425 8.38872 14.296 8.72471 15.8893 8.44044C15.9868 8.42251 16.5918 8.3301 16.6097 8.33059C16.9853 8.28784 15.87 8.44537 15.6754 8.50041C15.3373 8.57329 16.9289 8.28583 15.6066 8.5299C16.6015 8.35737 17.1572 8.28184 18.3365 8.22509C15.0805 8.48307 13.9704 8.83354 17.5484 8.31394C16.4025 8.42117 16.5356 8.44956 16.1959 8.49623C15.9806 8.51044 14.3502 8.85402 15.1055 8.73101C15.1996 8.70803 16.1904 8.51591 15.8816 8.58529C13.5086 9.08229 15.8308 8.5858 15.835 8.60276C15.8247 8.61937 14.3481 8.86657 12.8394 9.43695C11.3195 9.98238 9.8213 10.8744 9.40148 11.1597C8.40951 11.8023 7.62548 12.504 7.4332 12.672C6.80304 13.2319 7.3181 12.7585 7.17484 12.8811C7.0007 12.9773 5.36669 14.7345 5.32028 14.8523C5.02537 15.2109 5.3108 14.8357 5.28027 14.8731C4.85047 15.2712 3.12661 18.0055 2.83336 18.8693C2.83547 18.8389 3.64785 17.2216 3.15239 18.2373C2.6025 19.4313 2.57851 19.5037 2.55635 19.5319C1.74682 21.5849 1.33353 23.7909 1.33516 26C1.32344 29.8316 2.60759 33.6462 4.93472 36.6876C4.8173 36.6747 2.79347 33.2886 2.85346 33.1563C2.75904 32.9081 3.34024 34.3377 4.29213 35.7509C5.21886 37.1823 6.54224 38.5181 6.84167 38.7929C6.39488 38.3624 5.97076 37.9085 5.57178 37.4339C6.25018 38.2459 7.94481 39.8838 9.25118 40.6954C9.66503 40.9657 8.87922 40.4332 8.89857 40.4397C9.35566 40.7556 10.1145 41.2236 9.54207 40.8814C10.7052 41.579 10.5339 41.4813 11.4654 41.9462C11.5146 41.9675 11.1116 41.7753 11.8616 42.1139C12.2028 42.2996 14.1471 42.9759 14.4242 43.0098C14.5318 43.0413 13.5427 42.7175 13.4133 42.697C11.3224 41.9094 12.7372 42.4673 11.9322 42.1398C11.8203 42.0656 12.0621 42.266 10.1419 41.2186C10.4949 41.4451 12.7703 42.5215 13.1983 42.6157C14.0246 42.9443 10.619 41.5854 10.0742 41.1662C10.3592 41.3016 9.84309 41.0452 9.16575 40.5873C8.43098 40.0763 8.7562 40.2925 8.36715 40.0046C7.33086 39.1826 7.74237 39.5427 6.94332 38.8001C7.68112 39.5715 5.58008 37.5133 5.11808 36.7849C5.97307 37.8801 6.95779 38.8739 8.04463 39.7385C7.98412 39.6871 7.92397 39.6352 7.86419 39.583C8.14643 39.8151 8.43649 40.0389 8.73255 40.253C8.68368 40.2206 8.63497 40.188 8.58641 40.1551C10.1299 41.2399 10.5705 41.4055 10.6968 41.4926C12.435 42.4444 14.6397 43.1632 16.6274 43.4171C16.9271 43.4334 16.7152 43.4963 18.9052 43.5723C18.94 43.5726 18.9715 43.5729 19 43.5731C19.5553 43.5774 18.9836 43.588 19.7542 43.5864C20.7683 43.5542 20.7491 43.5798 21.0507 43.5799C21.9159 43.5799 22.4448 43.5719 22.5248 43.5718C23.5938 43.5706 25.1596 43.5719 26.3339 43.5707C26.3559 43.5706 25.7449 43.5607 26.5076 43.5637C26.7756 43.5647 29.1782 43.6069 31.2786 43.5931C30.7323 43.5903 30.186 43.5874 29.6397 43.5846C30.2822 43.5886 34.7833 43.5779 33.6826 43.5666C33.008 43.5597 31.3609 43.5869 31.1802 43.5608C32.6781 43.5686 40.9506 43.5569 41.5946 43.563C41.6837 43.5638 41.1356 43.5723 41.2587 43.5734C41.354 43.5742 43.2489 43.5722 43.5005 43.5755C43.6502 43.5774 42.8129 43.5826 42.881 43.5857C42.9406 43.5879 45.307 43.5915 45.4421 43.5809C44.8609 43.5851 43.2276 43.5814 44.0842 43.5724C44.1944 43.5713 44.7654 43.5782 44.8992 43.5768C46.1412 43.5637 42.4297 43.5669 41.8552 43.5668C44.1867 43.5532 47.7927 43.5692 50.4941 43.5604C51.5857 43.5692 48.8758 43.5739 50.1109 43.5812C52.673 43.5964 50.7926 43.569 50.8722 43.5679C51.5086 43.5589 53.6762 43.6068 53.6773 43.5704C54.6061 43.5759 54.3055 43.5804 55.6163 43.5757C55.4439 43.5732 55.2714 43.5706 55.099 43.5681C56.5543 43.547 59.6346 43.6002 59.4037 43.6043C58.783 43.6152 57.1789 43.5982 57.0419 43.5986C56.839 43.5992 56.2785 43.6362 54.0592 43.6031C53.1505 43.6279 57.5767 43.6199 55.5627 43.6368C56.9229 43.634 62.5185 43.6513 63.324 43.6404C63.4201 43.639 62.9724 43.6143 64.3548 43.6268C65.0111 43.6328 63.4286 43.6331 63.7289 43.6387C64.6529 43.656 77.2206 43.645 79.6079 43.644C79.7628 43.644 79.706 43.6517 79.8583 43.6516C80.326 43.6514 82.0306 43.64 82.8677 43.6435C81.1333 43.6293 84.5017 43.6282 85.3586 43.6298C86.6592 43.6321 86.5787 43.6456 87.1405 43.6485C89.306 43.6596 92.6614 43.6275 94.3436 43.6575C94.2516 43.6277 97.2534 43.672 98.619 43.6723C99.6886 43.6725 101.241 43.6528 99.7967 43.6409C101.643 43.6422 103.587 43.6367 105.319 43.6349C105.605 43.6346 105.211 43.6434 105.699 43.6426C105.744 43.6424 105.805 43.6338 106.224 43.6329C109.687 43.6254 108.002 43.6437 108.65 43.6491C109.013 43.6521 109.28 43.6536 109.477 43.6541C107.458 43.6558 105.13 43.6592 104.508 43.6594C105.039 43.6784 108.981 43.6558 110.136 43.6609C110.176 43.6611 110.036 43.6716 110.077 43.6716C110.078 43.6716 110.079 43.6716 110.08 43.6716C110.512 43.6724 113.268 43.6686 112.701 43.6561C112.548 43.6527 111.28 43.6527 109.776 43.6539C110.183 43.6515 109.879 43.6398 109.951 43.6393C110.822 43.6335 112.956 43.6449 113.714 43.6465C113.887 43.6468 113.874 43.6393 113.903 43.6393C114.591 43.641 114.309 43.6625 115.015 43.6403C116.262 43.6671 112.678 43.6443 112.931 43.6617C113.125 43.6751 121.086 43.6679 121.062 43.6468C121.09 43.649 121.199 43.6518 121.424 43.655C121.922 43.6621 124.138 43.6599 124.52 43.656C124.585 43.6552 124.559 43.6348 124.639 43.6346C124.839 43.6341 127.548 43.6502 128.559 43.6381C128.013 43.6352 127.467 43.6323 126.92 43.6295C130.219 43.6293 129.71 43.6232 128.61 43.6171C128.555 43.617 128.502 43.6162 128.449 43.6161C127.597 43.6116 126.505 43.6073 126.489 43.6056C126.451 43.6019 128.502 43.5992 129.876 43.6019C130.747 43.6022 131.337 43.5464 130.924 43.5844C130.858 43.5901 130.341 43.6169 129.876 43.6149C129.271 43.6145 128.768 43.6151 129.489 43.6227C129.545 43.6233 129.689 43.6235 129.876 43.6235C130.434 43.6308 131.367 43.5637 131.43 43.5552C131.757 43.5301 130.736 43.6425 129.876 43.6426C129.225 43.6481 128.671 43.6539 128.861 43.66C129.173 43.6552 129.517 43.653 129.876 43.652C130.52 43.6509 131.207 43.6152 131.842 43.5419C132.292 43.4889 132.398 43.4586 132.453 43.4513C133.274 43.3189 132.815 43.4015 133.088 43.3543C133.238 43.3471 134.824 42.9339 134.531 43.0345C139.585 41.134 136.025 42.8397 132.751 43.3999C133.788 43.2494 135.762 42.6775 136.601 42.2962C136.904 42.167 136.722 42.2378 137.229 42.0071C138.383 41.7185 142.798 38.4045 143.54 37.1278C142.98 37.8014 143.156 37.6156 143.587 37.0932C144.007 36.5631 143.642 36.999 143.723 36.8945C143.863 36.8218 145.599 34.1608 145.758 33.6449C144.641 35.7561 144.932 35.302 145.85 33.4925C145.729 33.7589 145.6 34.0237 145.465 34.2839C146.067 33.2519 146.913 30.8866 147.03 30.2046C147.055 30.1 146.952 30.4729 146.966 30.4141C147.147 29.8368 147.464 27.8072 147.443 27.7075C147.453 27.6259 147.343 28.4969 147.378 28.1732C147.386 28.106 147.501 27.2675 147.514 26.4366C147.519 26.1278 147.506 26.3136 147.507 26.2358C147.507 26.1361 147.507 26.0606 147.508 26C147.502 25.6665 147.534 25.7861 147.476 24.7858C147.408 23.9241 147.324 23.2785 147.074 22.109C147.69 25.989 147.296 22.7034 146.806 21.1287C146.72 20.8803 146.818 21.0841 146.282 19.6078C147.397 22.7645 146.05 18.6714 145.543 17.9312C145.52 17.8886 145.526 17.8671 145.319 17.4881C145.3 17.4565 145.322 17.5041 145.122 17.1567C143.041 13.9738 144.368 16.0112 143.972 15.4063C143.808 15.1426 142.591 13.7455 142.215 13.4156C142.133 13.3361 142.179 13.3645 141.855 13.0615C141.278 12.528 140.721 12.0977 140.303 11.7919C140.252 11.7602 140.269 11.7307 139.449 11.1918C139.216 11.0426 138.95 10.8844 139.28 11.0947C140.394 11.7668 142.304 13.3532 143.227 14.5031C144.127 15.4936 141.255 12.3986 140.999 12.3498C140.937 12.2978 141.576 12.8192 140.93 12.2852C140.379 11.8287 139.297 11.0884 138.362 10.5781C138.294 10.5337 137.544 10.1298 137.578 10.1498C137.616 10.1542 138.77 10.7713 138.603 10.6803C138.586 10.6644 137.854 10.2694 137.756 10.222C137.639 10.1575 137.335 9.96116 137.173 9.88729C136.756 9.69852 137.024 9.82836 136.753 9.71066C136.184 9.42405 134.076 8.77878 133.996 8.80674C134.347 8.8916 134.7 8.98849 135.046 9.09515C133.099 8.55772 133.922 8.8147 133.645 8.7413C133.342 8.68192 133.433 8.6779 132.761 8.56054C132.633 8.50036 130.264 8.28501 129.876 8.33324C129.838 8.33371 129.819 8.3342 129.824 8.33472C129.842 8.33462 129.859 8.33452 129.876 8.33442C131.39 8.35462 130.817 8.37542 130.889 8.37147C131.166 8.38814 131.516 8.40542 131.886 8.44761C134.463 8.82776 131.862 8.44766 132.47 8.54448C132.679 8.57507 133.097 8.63999 133.184 8.65814C133.47 8.71464 133.472 8.72727 133.663 8.76728C134.106 8.86478 133.593 8.7334 133.627 8.74115C134.031 8.80021 135.555 9.25819 134.599 9.00018C135.168 9.16838 135.24 9.17341 135.683 9.33252C136.558 9.66447 135.243 9.1792 134.874 9.08737C133.559 8.74133 133.164 8.60881 131.246 8.42606C130.784 8.39029 130.269 8.37798 129.876 8.38186C129.675 8.38344 129.508 8.38465 129.397 8.38483C129.19 8.38517 127.234 8.3512 127.176 8.40436C126.415 8.39922 125.222 8.36419 124.439 8.36579C123.735 8.36725 123.959 8.38606 123.893 8.38678C123.793 8.38793 122.942 8.38645 122.654 8.3891C122.317 8.39224 122.485 8.39942 121.95 8.40235C120.619 8.40961 120.654 8.39041 120.517 8.38917C118.929 8.37474 119.624 8.40205 119.272 8.40424C118.944 8.40625 114.346 8.39574 113.378 8.40265C113.772 8.39881 114.166 8.39496 114.559 8.39112C113.855 8.37914 113.107 8.39868 113.094 8.3772C112.951 8.41187 111.497 8.3887 111.059 8.38959C110.887 8.38996 110.901 8.39587 110.685 8.39612C109.843 8.39716 107.945 8.39246 107.488 8.39545C105.513 8.40835 110.563 8.4298 110.961 8.4311C110.165 8.43072 105.662 8.43848 107.732 8.45515C108.052 8.45772 108.619 8.4422 108.799 8.4416C110.015 8.4376 109.058 8.4515 109.154 8.45283C109.316 8.45496 110.116 8.44152 110.328 8.44312C110.398 8.44364 109.944 8.45622 111.104 8.45649C110.534 8.46869 107.273 8.45875 106.845 8.46162C106.693 8.46264 107.648 8.48872 104.858 8.46339C104.89 8.46581 104.923 8.46823 104.955 8.47065C103.401 8.47165 101.848 8.47264 100.294 8.47364C100.463 8.46806 101.335 8.45686 100.236 8.45924C99.6038 8.46061 100.072 8.47304 100.014 8.4734C99.4464 8.47682 89.3995 8.47268 87.4524 8.47407C86.7901 8.47452 84.9439 8.4845 84.8031 8.48469C83.9614 8.48569 80.9806 8.47919 80.386 8.4806C80.0147 8.4815 80.3677 8.49189 80.036 8.4914C79.7277 8.49094 80.0471 8.4809 79.9555 8.48048C79.197 8.47684 73.4348 8.49001 72.0665 8.48054C72.9028 8.48338 77.0759 8.46332 76.992 8.45625C76.9739 8.45527 75.9596 8.44764 75.7504 8.45136C75.4048 8.44267 74.218 8.46913 73.5725 8.46394C73.4995 8.46335 73.787 8.4485 72.6349 8.44581C72.2381 8.44489 71.1989 8.45646 70.153 8.44349C68.6389 8.44972 60.6782 8.43047 60.132 8.44642C60.1158 8.44726 61.2368 8.45275 60.4795 8.4593C59.4726 8.468 60.3768 8.43869 59.2034 8.43616C59.0265 8.43578 55.7617 8.43875 55.6548 8.44056C54.666 8.45701 57.5189 8.46367 57.4789 8.46558C57.3794 8.4704 55.009 8.47331 54.9127 8.47218C54.821 8.47099 56.7542 8.4492 54.4311 8.45747C54.6972 8.46007 54.9634 8.46267 55.2295 8.46528C54.137 8.47035 54.0328 8.45527 53.7682 8.45435C52.9454 8.45144 52.0553 8.47434 50.737 8.44605C50.3884 8.43855 50.9671 8.43021 50.9235 8.42908C50.5047 8.41898 49.9705 8.44601 49.3408 8.42585C49.2934 8.42435 50.7588 8.41227 48.1976 8.41224C48.3738 8.41417 48.5501 8.4161 48.7264 8.41804C48.3652 8.42235 45.772 8.42492 45.4231 8.4239C44.4039 8.42091 45.2927 8.40704 44.2684 8.4087C44.9254 8.42771 41.8104 8.43019 41.9895 8.41382C41.5545 8.43438 38.9083 8.41852 37.6644 8.41804C36.8795 8.41774 35.2785 8.42671 35.0291 8.42567C34.7253 8.42438 34.8177 8.41035 34.2691 8.40723C34.1127 8.40634 32.4797 8.41662 31.0463 8.40211C30.7685 8.39931 30.1851 8.37552 30.7014 8.36957C31.5852 8.3594 33.257 8.37856 33.2357 8.36451C33.2106 8.34947 30.9588 8.35841 30.3527 8.35645C27.5544 8.34737 29.1703 8.33139 29.0983 8.32654C28.9117 8.31478 27.3827 8.31515 27.3189 8.31409C27.0545 8.30939 28.138 8.30009 28.1543 8.29291C28.1741 8.28356 26.7003 8.2667 27.0354 8.26355C27.515 8.25908 28.8694 8.27313 28.9553 8.27246C30.0731 8.2634 28.5409 8.24181 28.1186 8.2312C27.9906 8.22794 28.5006 8.22257 28.3945 8.22162C26.7743 8.2071 28.053 8.25196 26.9753 8.24896C26.0139 8.24629 27.2509 8.2321 27.2142 8.23132C27.1667 8.23046 26.0172 8.22969 25.8372 8.22467C25.7485 8.22216 28.7364 8.19456 28.6116 8.18219C27.6583 8.18491 26.705 8.18764 25.7516 8.19037C25.6769 8.17423 27.0481 8.18611 27.1899 8.18445C27.4754 8.18111 26.6793 8.17294 26.7135 8.16784C26.7318 8.1646 27.6662 8.15302 26.822 8.14825C26.5319 8.1466 25.9231 8.15791 24.8664 8.14636C28.5437 8.1316 25.9954 8.12253 25.887 8.11682C25.7808 8.1111 27.5364 8.09765 25.4054 8.10003C25.313 8.06863 25.4514 8.09011 26.0569 8.08459C26.7987 8.07781 25.0843 8.06747 27.7954 8.07531C27.6412 8.06061 25.462 8.06165 25.3467 8.06048C25.2471 8.05942 25.7314 8.05219 25.5587 8.04974C23.5159 8.02133 24.919 8.0343 24.3273 8.01617C24.2747 8.01454 22.3439 8.00782 23.8138 8.00518C26.4918 8.00038 27.6111 8.02121 28.0611 7.97667C26.0803 7.95733 23.6802 7.98607 23.0781 7.98656C22.1564 7.98726 23.1112 7.97818 22.9976 7.97564C22.9581 7.97481 22.1639 7.97556 22.1533 7.97484C21.5869 7.94088 25.689 7.97428 26.9804 7.96837C26.6343 7.96329 26.2881 7.9582 25.9419 7.95311C26.4116 7.95291 26.8812 7.95271 27.3509 7.9525C25.1135 7.94228 27.272 7.94863 27.8299 7.92113C27.9551 7.91495 26.4853 7.92555 28.162 7.90837C26.9253 7.90441 27.3198 7.89879 26.2 7.90654C26.2289 7.89552 28.7484 7.88308 29.7421 7.87743C26.2315 7.86504 28.2334 7.90547 25.1985 7.88408C24.6357 7.89773 26.0843 7.89507 25.9662 7.89733C25.5424 7.90543 24.5489 7.89256 23.3502 7.92095C23.155 7.92561 23.9809 7.93995 22.7587 7.93926C22.6236 7.93916 21.8448 7.9269 21.8556 7.92601C21.9589 7.91641 22.7295 7.92001 22.7613 7.916C22.7911 7.91221 21.9314 7.91449 21.9284 7.91344C21.902 7.90141 22.6458 7.90884 22.5377 7.90508C22.3045 7.89689 19.212 7.87101 23.248 7.87859C19.8957 7.89218 22.8188 7.89187 24.1242 7.88664C24.4572 7.88533 24.5415 7.87815 25.0158 7.87566C25.626 7.87243 26.3402 7.87588 26.656 7.87456C26.9956 7.8731 25.0661 7.85612 27.8567 7.86119C26.4365 7.8443 23.9278 7.86231 22.5326 7.85045C19.7179 7.82648 24.4952 7.82134 24.9928 7.81901C25.1254 7.81838 24.6809 7.80868 24.7693 7.80809C24.9138 7.80718 27.6251 7.81166 27.8925 7.80363C28.1591 7.79561 26.8994 7.804 26.8157 7.79564C26.7589 7.79 30.0297 7.78002 28.2591 7.77617C27.0387 7.77353 24.7893 7.79616 24.4104 7.77183C26.2051 7.76982 27.9998 7.7678 29.7945 7.76579C28.8122 7.75653 27.8299 7.74727 26.8476 7.73802C28.862 7.73508 30.6034 7.74553 32.5166 7.73228C27.9193 7.70262 34.0092 7.70861 34.0762 7.705C34.0986 7.70284 32.2891 7.67876 31.9979 7.67436C33.6014 7.66509 38.4737 7.66057 35.6231 7.63084C36.1405 7.63755 37.3935 7.62098 37.377 7.61973C37.2178 7.60659 34.4851 7.61511 34.9308 7.60325C35.4473 7.58948 36.171 7.60816 36.9656 7.60666C41.0431 7.59889 39.9244 7.53032 44.0129 7.54117C43.9316 7.53873 43.8502 7.53629 43.7689 7.53385C48.2129 7.53773 52.6569 7.54162 57.1008 7.54551C58.8395 7.52457 63.4669 7.51182 65.7397 7.51413C66.1973 7.51458 68.4442 7.52557 68.6138 7.5275C68.9277 7.53119 67.2013 7.5326 67.9815 7.53952C68.1462 7.54094 71.9502 7.54556 71.6782 7.53385C71.2519 7.53249 69.9179 7.53838 69.6995 7.53562C68.1658 7.51591 79.8932 7.53165 80.4741 7.52371C80.2144 7.51991 79.9547 7.51611 79.6949 7.5123C80.435 7.51417 81.175 7.51604 81.915 7.51792ZM47.9101 8.45881C47.466 8.47056 46.3529 8.46174 45.6952 8.46503C44.7865 8.46966 43.2418 8.51492 43.9069 8.46955C45.2413 8.46597 46.5757 8.46239 47.9101 8.45881ZM67.413 8.47633C66.5182 8.47001 67.2122 8.44467 67.9457 8.45521C68.027 8.4564 68.6237 8.48482 67.413 8.47633ZM58.032 8.4643C58.0697 8.46397 58.843 8.46464 58.87 8.46503C59.5635 8.47521 57.2321 8.47313 58.032 8.4643ZM103.349 8.4513C102.363 8.4524 103.077 8.47543 103.69 8.46595C103.729 8.46535 103.414 8.45125 103.349 8.4513ZM102.648 8.45069C101.882 8.43006 100.34 8.47187 101.566 8.46766C101.685 8.46723 102.683 8.4517 102.648 8.45069ZM64.2234 8.46626C64.3241 8.45835 65.2472 8.46217 65.6413 8.46406C65.6306 8.47128 64.61 8.46537 64.2234 8.46626ZM87.6261 8.46406C87.6653 8.45784 84.4571 8.45819 84.2385 8.46638C84.7449 8.4629 87.5893 8.46964 87.6261 8.46406ZM95.8537 8.45533C95.7724 8.45426 94.664 8.45589 94.6964 8.46137C95.2374 8.46857 96.2198 8.46019 95.8537 8.45533ZM112.207 8.4557C112.267 8.45432 111.437 8.41942 113.403 8.44239C113.692 8.44575 112.661 8.45487 112.764 8.45612C112.978 8.45857 113.148 8.4597 113.285 8.45991C112.369 8.4628 111.417 8.46416 111.325 8.46204C110.893 8.45205 112.18 8.45627 112.207 8.4557ZM120.792 8.42969C120.981 8.424 122.186 8.42705 122.46 8.42939C122.507 8.42983 122.302 8.44479 122.845 8.44367C123.28 8.44275 122.629 8.42743 123.478 8.42988C124.336 8.43234 123.19 8.44326 123.265 8.44404C123.365 8.44506 124.692 8.43818 124.651 8.44709C124.62 8.45369 123.199 8.44923 122.847 8.45063C122.397 8.45243 122.943 8.46343 122.19 8.46107C121.718 8.45959 121.98 8.44025 121.88 8.43928C121.796 8.43849 120.144 8.44962 120.794 8.42976C120.793 8.42973 120.793 8.42971 120.792 8.42969ZM113.532 8.45905C113.464 8.45971 113.383 8.46005 113.285 8.45991C113.368 8.45965 113.451 8.45934 113.532 8.45905ZM50.4955 8.45032C50.9607 8.45629 49.5801 8.46394 49.0572 8.45612C49.0482 8.44982 50.4215 8.4494 50.4955 8.45032ZM114.382 8.44331C115.743 8.44815 114.742 8.45481 113.532 8.45905C113.916 8.45541 113.925 8.44169 114.382 8.44331ZM75.7504 8.45136C75.8078 8.4528 75.8442 8.45505 75.8488 8.45875C75.698 8.45471 75.6844 8.45254 75.7504 8.45136ZM78.9247 8.45795C80.0129 8.4467 77.8019 8.44715 77.8159 8.45521C77.8225 8.45825 78.8811 8.4584 78.9247 8.45795ZM104.614 8.4524C104.514 8.4513 106.061 8.41732 103.816 8.44282C105.014 8.44682 103.75 8.45052 103.768 8.4535C103.817 8.46205 105.83 8.45383 106.276 8.45753C106.625 8.44222 104.943 8.45603 104.616 8.4524C104.616 8.4524 104.615 8.4524 104.614 8.4524ZM135.981 9.52781C135.73 9.44015 134.931 9.16724 134.379 9.02606C134.64 9.08171 135.449 9.32443 135.981 9.52781ZM27.2485 43.5608C31.2493 43.5525 31.7676 43.589 28.1069 43.5746C28.0352 43.5743 27.0056 43.5645 27.2485 43.5608ZM61.5842 43.5702C61.9612 43.5862 60.7136 43.5887 59.8943 43.5821C59.7088 43.5807 59.0233 43.5645 59.8061 43.5614C59.7811 43.5807 60.9918 43.5881 61.5842 43.5702ZM115.151 8.43311C115.547 8.4225 116.767 8.43005 117.409 8.43165C117.017 8.44039 115.719 8.43643 115.151 8.43311ZM40.3952 43.5798C40.8169 43.581 41.1016 43.5672 41.0288 43.566C40.7029 43.5607 39.9147 43.5719 40.3952 43.5798ZM111.214 8.43146C111.158 8.42512 112.774 8.41902 112.886 8.4347C112.541 8.43356 111.254 8.43544 111.214 8.43146ZM134.964 9.18118C134.732 9.10172 135.942 9.47965 136.294 9.63628C136.266 9.62191 135.121 9.21871 134.964 9.18118ZM47.1844 43.5751C47.5621 43.5763 48.5055 43.5767 48.61 43.5711C48.7397 43.5641 47.3563 43.5665 47.1844 43.5751ZM6.33491 13.7973C6.36189 13.759 5.40938 14.823 5.03434 15.3352C4.28261 16.2772 6.24851 13.7896 6.33491 13.7973ZM36.4034 43.587C35.2125 43.5738 36.5348 43.5866 36.4826 43.5727C35.6812 43.5722 33.6878 43.5715 35.0583 43.5851C35.3253 43.5878 36.0298 43.5861 36.4034 43.587ZM37.5019 43.5916C37.6296 43.5871 38.488 43.573 37.7459 43.574C37.4029 43.5745 36.85 43.5902 37.5019 43.5916ZM2.02351 21.412C1.89047 21.9172 2.09439 21.002 2.46691 19.9854C2.82807 18.9639 3.39827 17.8704 3.43372 17.8124C3.46857 17.7488 3.492 17.7074 3.5056 17.684C3.57982 17.5243 4.03598 16.7452 4.10507 16.6647C3.95616 16.8915 3.58993 17.5323 3.55082 17.6093C3.53272 17.6416 3.51929 17.6656 3.5099 17.6821C3.2841 17.9287 1.99529 21.1928 2.02351 21.412ZM1.70847 29.2642C1.48236 28.0903 1.5247 27.8715 1.52963 27.9748C1.7089 29.2603 1.57795 28.424 1.58 28.4642C1.58427 28.5538 1.7539 29.4635 1.70778 29.2605C1.70801 29.2617 1.70824 29.2629 1.70847 29.2642ZM1.66949 22.9953C1.67047 22.9455 1.87232 21.9644 1.88915 21.926C2.06439 21.1248 1.50145 23.901 1.66949 22.9953ZM127.263 8.40815C127.997 8.41121 127.277 8.42254 126.789 8.41846C126.749 8.41806 126.615 8.40544 127.263 8.40815ZM38.0883 43.5886C38.2585 43.5907 42.6125 43.5988 42.3508 43.5817C41.9811 43.5837 37.0321 43.5749 38.0883 43.5886ZM70.6267 43.5927C69.8589 43.5926 70.696 43.5764 71.1057 43.5825C71.2576 43.5847 70.8203 43.5927 70.6267 43.5927ZM109.036 8.41682C108.239 8.42568 108.404 8.39594 109.095 8.40613C109.122 8.40653 109.067 8.41647 109.036 8.41682ZM64.4928 43.5834C67.1407 43.5736 66.5136 43.6248 63.0711 43.6075C63.1788 43.6053 63.2865 43.603 63.3942 43.6007C59.4207 43.593 63.1225 43.5971 64.0955 43.5942C64.4653 43.5931 64.1552 43.5846 64.4902 43.5834C64.4911 43.5834 64.4919 43.5834 64.4928 43.5834ZM74.6645 43.5937C77.2146 43.63 72.3463 43.6063 70.9499 43.6111C72.3035 43.5961 74.066 43.5984 71.669 43.583C75.1737 43.58 73.7147 43.5945 73.8546 43.5957C74.0202 43.597 74.5558 43.5921 74.6645 43.5937ZM67.9378 43.5939C67.7905 43.595 66.6799 43.5876 66.2798 43.5888C66.8392 43.5764 68.9165 43.5867 67.9378 43.5939ZM5.09259 36.7636C5.03246 36.6963 4.87716 36.5337 4.39622 35.8235C4.547 36.0417 4.86827 36.4843 5.09259 36.7636ZM47.0671 8.40766C46.4634 8.40696 45.2614 8.4033 45.63 8.41352C45.6704 8.41439 47.0652 8.4134 47.0671 8.40766ZM50.7342 43.5964C50.8627 43.5976 54.1828 43.5984 53.0361 43.5877C52.6902 43.5845 49.6693 43.5858 50.7342 43.5964ZM33.5408 43.5952C33.8187 43.5953 34.9475 43.5935 34.9715 43.5912C35.0479 43.5832 33.6622 43.5876 33.5408 43.5952ZM44.0218 8.39771C43.9423 8.3967 42.0985 8.39849 42.3012 8.4032C42.6859 8.41212 44.2943 8.40118 44.0218 8.39771ZM129.933 8.38547C130.085 8.38531 130.284 8.39996 130.336 8.40159C130.46 8.35341 133.206 8.66217 132.157 8.55177C132.068 8.54024 130.987 8.39934 129.876 8.40447C128.799 8.40329 127.704 8.40172 127.447 8.40107C127.243 8.38657 128.977 8.40036 129.399 8.39887C129.469 8.3986 129.516 8.38759 129.876 8.38566C129.894 8.38556 129.912 8.38552 129.932 8.38553C129.932 8.38551 129.933 8.38549 129.933 8.38547ZM2.82351 32.9344C2.69773 32.8528 1.72007 29.756 1.80564 29.7731C2.0435 30.8561 2.38485 31.9162 2.82351 32.9344ZM3.54194 34.4157C3.86832 35.0269 3.08597 33.6048 2.91349 33.1584C2.90696 33.156 3.48348 34.3329 3.54194 34.4157ZM39.8319 43.6296C40.1651 43.6274 39.1402 43.6139 39.3695 43.6113C39.5164 43.6097 40.2612 43.6147 40.4987 43.6105C40.5661 43.6092 39.8063 43.5966 39.5866 43.5971C39.2745 43.5978 39.5772 43.6078 39.2366 43.6078C38.1058 43.6081 37.1033 43.601 36.0432 43.6011C35.9475 43.6012 36.6899 43.6082 35.8733 43.6081C35.7472 43.6081 34.989 43.5976 34.0122 43.5992C31.8549 43.6316 30.271 43.5998 27.5334 43.6114C27.6367 43.6145 29.6839 43.6227 29.8045 43.623C32.0928 43.6283 36.1923 43.6289 38.589 43.629C39.204 43.629 38.9053 43.6221 39.1702 43.6219C39.3796 43.6217 39.1306 43.6344 39.8319 43.6296ZM47.3877 8.40064C47.1 8.38796 46.0907 8.39599 45.4461 8.39533C45.673 8.40677 46.7578 8.39783 47.3877 8.40064ZM14.7286 43.0853C15.033 43.169 15.9943 43.3612 16.0762 43.3648C16.1773 43.3885 14.7919 43.107 14.7286 43.0853ZM143.528 14.874C143.551 14.8949 144.018 15.4959 144.031 15.5216C144.439 16.0641 143.037 14.2668 143.528 14.874ZM146.427 32.026C146.232 32.5698 146.001 33.1035 145.911 33.2755C146.074 32.9448 146.448 31.9622 146.427 32.026ZM126.213 43.6089C126.334 43.6224 124.56 43.6136 124.225 43.6124C124.349 43.6064 126.123 43.5992 126.213 43.6089ZM5.13616 36.8881C4.49206 36.0436 4.61568 36.2297 4.24435 35.6664C4.18956 35.5706 4.01316 35.2616 4.6642 36.2293C4.78883 36.3985 4.2819 35.7506 5.13616 36.8881ZM62.5103 43.6071C62.2345 43.616 61.3723 43.6134 60.7897 43.6127C60.9203 43.606 62.0958 43.6077 62.5103 43.6071ZM40.6917 8.38752C40.183 8.37493 37.8326 8.38427 38.4142 8.39258C38.4969 8.39367 40.362 8.38704 40.6917 8.38752ZM117.909 8.39246C118.876 8.38255 116.873 8.37948 116.241 8.38917C116.527 8.38853 117.844 8.39311 117.909 8.39246ZM132.315 43.4487C132.272 43.4623 131.273 43.5682 131.228 43.5641C130.41 43.6403 133.23 43.3341 132.315 43.4487ZM147.5 26.1679C147.546 26.5323 147.318 28.9035 147.163 29.4188C147.331 28.9221 147.543 25.7229 147.5 26.1679ZM8.2363 39.9535C7.63667 39.4906 7.09865 39.0112 6.60666 38.5193C6.69701 38.6374 8.15939 39.9203 8.2363 39.9535ZM128.61 43.6171C128.555 43.617 128.502 43.6162 128.449 43.6161C128.504 43.6164 128.558 43.6168 128.61 43.6171ZM24.4919 43.6266C25.1404 43.6293 25.0058 43.6167 24.9658 43.6163C24.4779 43.6123 23.7578 43.6235 24.4919 43.6266ZM46.6468 8.38196C46.422 8.37061 45.3314 8.37942 44.7039 8.37671C44.886 8.38568 46.1414 8.38315 46.6468 8.38196ZM77.3955 43.6169C78.2103 43.6292 74.8954 43.6435 74.197 43.6356C74.1454 43.628 77.2762 43.6153 77.3955 43.6169ZM114.906 8.37543C114.841 8.36654 113.449 8.37727 113.745 8.38147C113.932 8.38415 114.945 8.38096 114.906 8.37543ZM72.53 43.6304C72.2186 43.6331 71.4926 43.6244 71.7482 43.619C72.0763 43.6122 72.6105 43.6297 72.53 43.6304ZM44.5875 43.6376C44.7237 43.6389 46.555 43.6298 45.7985 43.6207C45.2735 43.6144 45.19 43.6273 45.0665 43.6273C44.9286 43.6273 41.9888 43.6115 44.5875 43.6376ZM95.9608 43.6247C95.2699 43.6281 94.4345 43.6241 93.7113 43.6244C94.0059 43.6189 95.6669 43.6174 95.9608 43.6247ZM120.273 8.37305C120.105 8.36945 115.534 8.36729 118.131 8.37836C118.282 8.37899 120.783 8.38395 120.273 8.37305ZM5.13616 36.8881C5.21893 36.9935 5.31526 37.1143 5.42912 37.2529C5.31564 37.1157 5.21921 36.9945 5.13616 36.8881ZM15.1394 43.205C14.8982 43.1632 16.1043 43.4176 16.4675 43.4532C16.5786 43.4732 15.1704 43.2256 15.1394 43.205ZM93.6564 43.6334C93.2398 43.6371 92.4836 43.6332 91.9677 43.6336C92.055 43.6276 93.4763 43.6273 93.6564 43.6334ZM122.915 43.6402C122.087 43.6366 121.069 43.6383 121.053 43.6456C121.036 43.6445 120.996 43.6433 120.93 43.642C120.862 43.6408 119.976 43.6442 119.591 43.6417C117.285 43.6268 128.494 43.6329 121.997 43.6537C122.303 43.6492 122.609 43.6447 122.915 43.6402ZM147.257 22.9592C147.202 22.502 146.878 21.2529 146.954 21.5789C147.03 21.7991 147.335 23.4133 147.257 22.9592ZM141.777 39.0315C141.887 38.9483 142.774 38.0538 142.785 38.0197C142.298 38.5558 141.306 39.4459 141.777 39.0315ZM146.315 19.5545C146.212 19.2846 146.052 18.9522 146.065 18.9836C146.181 19.253 146.483 20.0101 146.315 19.5545ZM6.57301 38.5569C6.86597 38.8738 7.91057 39.7659 8.16024 39.931C8.20301 39.9664 8.31934 40.0612 8.53846 40.2265C8.53779 40.2261 8.53711 40.2256 8.53644 40.2251C8.66139 40.3626 11.0593 41.9692 12.8653 42.5664C13.7505 42.8942 14.4323 43.061 14.4317 43.0608C14.4371 43.0438 13.7323 42.9345 12.0192 42.2131C11.8075 42.1162 12.0881 42.2666 11.2339 41.8585C11.1777 41.8306 11.1525 41.8112 10.9806 41.7233C10.5639 41.5573 8.56313 40.2856 8.208 39.9635C8.2056 39.96 8.18199 39.9402 8.13119 39.899C7.66014 39.5528 6.33012 38.3284 6.57301 38.5569ZM139.822 40.5815C140.036 40.4449 140.678 39.9639 140.737 39.9044C140.43 40.1586 139.333 40.9077 139.822 40.5815ZM120.131 8.34772C119.605 8.34264 118.271 8.35214 118.674 8.35718C118.921 8.36029 120.739 8.35355 120.131 8.34772ZM145.218 34.723C143.647 37.2292 144.852 35.3268 144.62 35.7162C144.83 35.3918 145.03 35.0602 145.218 34.723ZM1.35869 26.2554C1.36491 26.6202 1.34503 26.3735 1.34378 26C1.34362 25.8898 1.34549 25.769 1.35001 25.6505C1.35494 25.5324 1.35359 25.7624 1.35596 26C1.35676 26.0908 1.35795 26.1823 1.35869 26.2554ZM12.4904 9.59055C12.1044 9.70948 13.959 9.05093 13.2396 9.31725C13.2052 9.32552 12.516 9.57698 12.4904 9.59055ZM2.40664 19.9554C2.31157 20.2602 2.22852 20.4549 1.98111 21.3213C2.35915 20.042 1.97464 21.2169 2.40664 19.9554ZM121.062 43.6468C121.057 43.6464 121.053 43.646 121.053 43.6456C121.059 43.646 121.062 43.6464 121.062 43.6468ZM145.095 17.0561C144.923 16.7274 144.343 15.8643 144.508 16.127C144.528 16.149 145.019 16.9257 145.095 17.0561ZM8.16024 39.931C8.12244 39.8994 8.14278 39.9141 8.208 39.9635C8.21028 39.9668 8.19283 39.9548 8.16024 39.931ZM147.129 22.224C147.13 22.1878 147.399 23.7435 147.39 23.8091C147.508 24.7103 147.296 22.8568 147.129 22.224ZM109.473 8.33814C109.39 8.33885 109.926 8.35645 110.255 8.34955C110.509 8.3442 109.784 8.33543 109.473 8.33814ZM3.69817 17.1784C3.94519 16.7433 4.33444 16.154 4.41646 16.0529C4.21886 16.3242 3.69336 17.1877 3.69817 17.1784ZM11.7763 9.87992C11.2361 10.1209 10.038 10.7514 9.32203 11.2351C9.28528 11.2072 11.2514 10.072 11.7763 9.87992ZM5.64806 37.5616C5.66637 37.6003 6.52325 38.5193 6.41481 38.3854C6.23935 38.2062 5.41677 37.2935 5.64806 37.5616ZM111.959 8.34748C112.531 8.34151 111.214 8.32319 110.61 8.33734C110.3 8.34459 111.862 8.34848 111.959 8.34748ZM143.212 14.4199C142.725 13.862 143.915 15.2605 144.056 15.4766C143.856 15.1995 143.39 14.6151 143.212 14.4199ZM143.245 37.5559C144.738 35.7562 143.896 36.7147 143.648 37.046C143.614 37.0937 143.209 37.6001 143.245 37.5559ZM34.7852 8.33533C34.4482 8.33896 35.7045 8.3521 35.8671 8.34345C35.9676 8.33803 35.0007 8.33302 34.7852 8.33533ZM109.477 43.6541C109.577 43.654 109.677 43.6539 109.776 43.6539C109.702 43.6543 109.604 43.6544 109.477 43.6541ZM137.968 10.2574C139.401 11.0706 139.238 11.0043 139.366 11.0701C139.628 11.2346 140.218 11.6454 140.678 12.0028C140.147 11.5981 139.595 11.2237 139.022 10.8814C139.565 11.031 143.031 14.0263 143.003 14.1914C143.11 14.28 142.112 13.2424 142.072 13.223C142.03 13.1804 141.882 13.009 141.783 12.9185C141.684 12.6924 138.572 10.4474 137.968 10.2574ZM145.892 33.4667C145.73 33.8048 145.671 33.8958 145.595 34.0521C145.568 34.1052 145.572 34.1183 145.479 34.2986C145.624 34.0254 145.762 33.7469 145.892 33.4667ZM135.235 9.16371C134.8 8.99552 136.77 9.69119 136.819 9.74689C137.147 9.88462 135.603 9.26613 135.235 9.16371ZM146.951 21.4549C146.95 21.3753 146.463 19.8484 146.446 19.8684C146.623 20.2559 147.177 22.3279 146.951 21.4549ZM145.36 34.5193C145.095 35.0176 144.504 35.9037 144.581 35.8074C144.581 35.8067 144.581 35.8061 144.582 35.8054C144.859 35.3881 145.119 34.959 145.36 34.5193ZM113.918 8.31903C112.855 8.29758 113.359 8.32469 114.3 8.33161C114.585 8.32198 114.093 8.32252 113.918 8.31903ZM110.515 8.30304C110.22 8.29918 107.171 8.30341 107.636 8.31476C107.801 8.31881 109.554 8.3086 109.635 8.30939C109.758 8.31055 109.198 8.32311 110.133 8.32062C110.079 8.31637 110.617 8.30433 110.515 8.30304ZM113.038 8.3053C111.981 8.28899 111.744 8.31907 112.539 8.31916C112.849 8.31921 113.189 8.30765 113.038 8.3053ZM117.354 8.30786C116.974 8.30501 115.961 8.30085 115.263 8.31085C116.197 8.31171 117.132 8.31256 118.066 8.31342C118.174 8.30775 117.687 8.31037 117.352 8.30786C117.353 8.30786 117.354 8.30786 117.354 8.30786ZM17.7839 8.30378C16.9573 8.3491 18.8595 8.22765 18.9433 8.25314C19.1822 8.25654 18.1543 8.27356 17.7839 8.30378ZM28.2271 8.062C27.9939 8.0586 27.8414 8.04741 27.3279 8.05328C27.8444 8.06154 28.3608 8.0698 28.8773 8.07806C29.2787 8.05913 28.4821 8.06576 28.2271 8.062ZM26.2549 7.99285C26.3278 7.99239 25.9293 7.96329 26.8719 7.98272C27.5087 7.99584 24.0455 8.00862 23.4204 7.99572C24.1111 7.98972 25.6269 7.99659 26.2549 7.99285ZM20.1887 7.86687C20.1487 7.86455 21.4645 7.86114 21.6168 7.86278C22.4164 7.8714 20.4047 7.8793 20.1887 7.86687ZM24.3861 7.87242C23.769 7.86677 25.136 7.86313 25.5434 7.86638C25.5829 7.8718 24.4814 7.87325 24.3861 7.87242ZM9.64928 10.4307C9.06273 10.7646 8.58579 11.1353 9.45217 10.5678C9.49378 10.541 9.67428 10.4165 9.64928 10.4307ZM21.475 7.83751C22.092 7.84316 20.7251 7.8468 20.3177 7.84355C20.2798 7.83814 21.381 7.83668 21.475 7.83751ZM9.22072 10.6409C8.46235 11.1198 8.7563 10.9908 8.84862 10.9275C9.22391 10.6599 10.5855 9.85523 10.8811 9.72222C8.79965 10.8484 9.59224 10.44 9.22072 10.6409ZM6.03424 13.2603C5.45289 13.8533 6.9557 12.3544 7.27949 12.1076C6.95863 12.368 6.19362 13.0855 6.03424 13.2603ZM3.02466 17.2891C2.79636 17.6736 2.23263 18.8803 2.16598 19.0939C2.33721 18.6357 2.93125 17.4526 3.02466 17.2891ZM2.54399 18.1807C2.24041 18.811 2.20122 18.9771 2.52767 18.2401C2.54069 18.2117 2.55554 18.1578 2.54399 18.1807ZM1.24069 21.8851C1.12612 22.3316 1.05598 22.8513 1.20573 22.1227C1.25313 21.9066 1.25322 21.8382 1.24069 21.8851ZM8.26316 11.232C7.72916 11.6186 7.07695 12.161 8.19224 11.306C7.79665 11.6014 7.41334 11.9125 7.04305 12.2387C8.46188 11.0682 8.37628 11.1763 8.80428 10.8664C9.42062 10.4596 9.3897 10.5196 9.267 10.6029C9.74945 10.235 12.0342 9.02823 13.4723 8.62253C12.2154 8.98764 10.2809 9.88482 9.20298 10.5986C8.89167 10.7956 8.60016 11.003 8.34504 11.1861C7.93787 11.4819 8.29304 11.2104 8.26526 11.2304C8.26456 11.2309 8.26386 11.2315 8.26316 11.232ZM0.802089 27.0243C0.89133 28.3721 0.839187 27.5198 0.799656 26.7582C0.797596 26.7258 0.799992 26.9899 0.802089 27.0243ZM19.7071 7.74955C21.4883 7.76165 20.1936 7.77769 23.9199 7.75334C22.3544 7.77057 23.8333 7.76573 23.5277 7.77269C23.2826 7.77819 22.364 7.77363 22.898 7.78471C22.1962 7.77265 19.1493 7.77599 19.0135 7.77403C19.0148 7.77403 19.016 7.77403 19.0173 7.77403C18.9357 7.77287 19.1387 7.74571 19.7071 7.74955ZM2.95513 17.2585C2.71236 17.64 2.66873 17.8183 2.27736 18.6138C1.78232 19.6859 3.72635 15.6844 4.19512 15.3418C1.51884 19.3462 6.05472 12.7604 4.07584 15.4778C5.77094 13.2837 4.62222 14.7513 4.87602 14.4062C5.14671 14.0337 6.2393 12.9045 6.18215 12.96C6.18153 12.9606 6.18092 12.9612 6.1803 12.9618C5.49568 13.6363 4.86412 14.3644 4.29328 15.1375C4.87877 14.4018 3.69062 15.963 3.34975 16.5383C3.21294 16.7752 3.08135 17.0153 2.95513 17.2585ZM6.24294 12.9609C6.15341 13.0061 4.76219 14.5601 4.87066 14.4755C5.00527 14.2216 7.09494 12.1267 6.24294 12.9609ZM14.1073 8.41555C13.3837 8.60625 12.2918 9.00551 11.924 9.18035C12.6105 8.88072 13.7159 8.52727 14.1073 8.41555ZM6.47173 39.2704C7.15669 39.9345 5.0808 37.8557 5.67223 38.4658C5.69527 38.5018 6.43221 39.2437 6.47173 39.2704ZM2.03462 19.2262C1.67805 20.1314 1.86499 19.7091 2.12603 19.0398C2.14129 19.0011 2.05144 19.1845 2.03462 19.2262ZM21.1505 7.7454C21.2146 7.73703 23.799 7.74291 24.2571 7.74284C23.9968 7.75062 21.077 7.755 21.1505 7.7454ZM15.3837 8.07854C13.9009 8.31404 12.0132 9.0901 11.8182 9.18999C11.6146 9.27665 11.9283 9.1276 11.882 9.14734C11.759 9.15774 9.66133 10.2275 9.58249 10.3197C9.51318 10.3623 9.88684 10.1587 9.47465 10.4145C10.2134 9.77995 14.2411 8.23484 14.4918 8.29129C14.6612 8.2548 13.3851 8.52425 15.3811 8.07904C15.382 8.07887 15.3828 8.0787 15.3837 8.07854ZM11.3093 9.41254C11.8438 9.1689 10.3535 9.87186 10.0145 10.0847C9.23638 10.5097 11.2256 9.41359 11.3093 9.41254ZM7.91829 11.4527C7.75453 11.5496 6.46292 12.6551 6.37767 12.7758C6.95225 12.2113 8.25768 11.1933 7.91829 11.4527ZM0.83235 28.0855C0.871192 28.526 1.07926 29.7218 1.10939 29.7867C1.00536 29.3573 0.839235 28.155 0.83235 28.0855ZM29.9682 7.6796C29.2465 7.6733 30.9187 7.67072 31.4065 7.67374C31.433 7.67877 30.0297 7.68015 29.9682 7.6796ZM1.90704 19.3532C1.62916 19.5419 0.482257 24.7823 0.677232 25.5567C0.495247 24.7986 1.62537 19.6097 1.8857 19.4371C1.91008 19.3712 1.91954 19.3222 1.90704 19.3532ZM9.11104 10.5537C9.51836 10.2796 9.80372 10.1337 9.85706 10.1025C10.3774 9.78925 11.5135 9.25008 11.2695 9.37935C10.2754 9.78853 8.30316 11.1025 9.11104 10.5537ZM0.829238 28.4684C1.08514 30.2638 0.63832 26.8095 0.711355 27.2606C0.706535 27.2908 0.796183 28.2831 0.829238 28.4684ZM2.12964 18.7992C2.10917 18.3373 4.9914 13.8069 5.7536 13.3166C5.23726 13.8862 4.81617 14.3426 4.20178 15.1734C4.03805 15.3988 4.08803 15.3431 4.0704 15.3673C3.79306 15.7621 3.9935 15.4615 3.82457 15.7067C3.62797 15.8096 1.85323 19.2902 2.12964 18.7992ZM9.34373 10.3978C9.55674 10.1655 12.5745 8.72156 12.7311 8.74506C13.2085 8.58699 12.37 8.85674 11.426 9.28743C10.4772 9.70847 9.4524 10.3274 9.34373 10.3978ZM1.92936 19.2473C2.08239 18.6854 3.32541 16.3308 2.50332 17.9551C2.42564 18.11 2.1073 18.7753 1.92936 19.2473ZM0.78623 28.2784C0.772503 28.37 1.10884 30.2357 1.14556 30.2627C1.03162 30.0032 0.655743 27.2699 0.78623 28.2784ZM0.670936 27.3026C0.676413 27.3476 0.647998 26.9056 0.721996 27.7894C0.734745 27.8609 0.707522 28.0065 0.889329 29.1087C0.927534 29.3328 1.00458 29.6747 1.00044 29.6496C0.707376 28.5158 0.562034 25.009 0.670936 27.3026ZM9.39019 10.3565C9.23413 10.4469 9.59352 10.2011 9.93937 10.0156C10.0881 9.93705 9.8166 10.0944 9.39019 10.3565ZM2.47829 34.0153C1.96108 33.0414 3.56181 36.1109 3.73147 36.215C3.64429 36.1381 2.49579 34.1313 2.47829 34.0153ZM31.6582 7.60184C31.6573 7.60184 31.6565 7.60184 31.6556 7.60184C32.5641 7.60413 32.0014 7.61251 32.0439 7.61277C33.9791 7.62508 33.4658 7.6061 33.7684 7.60386C34.4172 7.59901 34.3127 7.62209 35.4072 7.61252C33.598 7.62666 35.2449 7.62073 35.2961 7.62894C35.4989 7.66245 32.8873 7.61325 31.9852 7.62028C31.8595 7.62125 32.7875 7.63194 32.4655 7.63499C31.4185 7.64484 28.1721 7.59311 31.6582 7.60184ZM10.2031 9.86694C10.5428 9.58053 13.5832 8.38355 12.7824 8.715C12.6214 8.69438 9.63403 10.1407 10.2031 9.86694ZM120.772 44.3867C120.004 44.3952 121.785 44.4052 122.115 44.3986C122.279 44.3953 121.11 44.3829 120.772 44.3867ZM133.318 44.1022C134.237 43.9266 135.174 43.625 134.051 43.9153C133.932 43.9479 133.212 44.1196 133.318 44.1022ZM73.3079 44.4049C74.2612 44.4176 74.2045 44.394 73.5046 44.3943C73.2575 44.3944 73.2779 44.4045 73.3079 44.4049ZM109.693 44.4018C109.788 44.4026 110.89 44.4011 110.85 44.3957C110.442 44.3925 109.075 44.3962 109.693 44.4018ZM73.0052 44.4082C73.5704 44.404 72.5975 44.3869 71.9066 44.4036C72.2575 44.4022 72.947 44.4087 73.0052 44.4082ZM1.24401 21.1382C1.11464 21.6044 0.823259 22.945 0.742457 23.7269C0.694739 23.8068 1.06115 21.6725 1.24401 21.1382ZM129.382 44.4088C130.246 44.4 128.395 44.3928 128.564 44.4044C128.588 44.4051 129.348 44.4092 129.382 44.4088ZM42.5514 44.4095C43.1796 44.402 41.1849 44.392 41.7339 44.4051C41.7609 44.4057 42.5169 44.4099 42.5514 44.4095ZM33.841 44.4052C34.3176 44.4077 36.3501 44.4069 35.5591 44.3996C35.4362 44.3985 33.8768 44.3983 33.841 44.4052ZM33.822 7.59482C33.5652 7.58193 35.0559 7.585 35.2693 7.58725C35.3531 7.58819 34.157 7.61159 33.822 7.59482ZM79.4993 44.4069C79.9926 44.4053 81.2718 44.4083 81.4971 44.4016C80.8937 44.403 79.3371 44.3934 79.4993 44.4069ZM125.441 44.4089C126.194 44.4229 127.48 44.4215 127.162 44.4032C125.741 44.4044 127.337 44.4197 125.441 44.4089ZM69.8284 44.4233C70.2239 44.4244 70.527 44.4068 70.4824 44.406C70.0538 44.3981 69.4353 44.4165 69.8284 44.4233ZM99.5106 44.4088C99.5335 44.4163 100.801 44.4129 100.632 44.4081C100.577 44.4065 99.4922 44.4028 99.5106 44.4088ZM4.40292 37.2188C4.75637 37.6975 3.65156 36.2544 3.39431 35.7805C3.24986 35.5637 4.33685 37.1734 4.40292 37.2188ZM58.8596 44.4189C58.8006 44.4301 60.7824 44.4238 60.0015 44.4145C59.8061 44.4122 58.8803 44.4152 58.8596 44.4189ZM39.8868 44.4323C41.2162 44.419 35.634 44.4095 37.1009 44.4261C37.2057 44.4273 39.771 44.4334 39.8868 44.4323ZM30.7702 44.424C30.9996 44.4254 30.8853 44.4629 29.9361 44.4485C29.8115 44.4466 30.3943 44.4367 30.2925 44.4344C30.2326 44.4331 28.1688 44.4279 28.0737 44.4287C27.9715 44.4297 28.0918 44.4417 27.9881 44.4431C27.8712 44.4446 26.6008 44.434 25.9354 44.4339C24.6816 44.4337 24.5462 44.4437 24.4434 44.4438C24.1438 44.4438 23.6404 44.4367 23.0332 44.4367C21.8552 44.4368 20.4372 44.438 19 44.4384C16.641 44.4589 14.267 43.9068 12.8399 43.369C14.8488 44.087 16.8851 44.4215 19 44.4211C19.0767 44.421 19.1535 44.4209 19.2305 44.4208C18.6012 44.4417 22.3911 44.4047 20.1744 44.4288C21.1951 44.4236 30.0185 44.4194 30.7677 44.424C30.7685 44.424 30.7694 44.424 30.7702 44.424ZM136.853 43.0675C136.339 43.33 139.019 42.0944 139.199 41.8999C138.879 42.1269 136.93 43.066 136.853 43.0675ZM123.584 44.4648C123.317 44.467 123.063 44.492 121.661 44.4793C121.66 44.4793 121.659 44.4793 121.658 44.4793C121.248 44.4756 121.715 44.4695 121.64 44.4674C121.612 44.4665 120.334 44.4541 121.396 44.4521C123.014 44.449 121.548 44.4706 122.411 44.4709C122.517 44.4709 124.15 44.4574 124.055 44.4544C124.045 44.4541 123.554 44.457 123.473 44.4557C123.166 44.4511 123.315 44.4433 123.272 44.4429C123.131 44.4419 120.548 44.4552 120.172 44.4436C120.05 44.4399 124.29 44.4312 124.455 44.4332C124.56 44.4344 124.516 44.4561 124.624 44.4582C124.679 44.4593 126.385 44.4512 126.606 44.4532C126.67 44.4537 126.72 44.4543 126.756 44.4549C126.498 44.4482 128.042 44.4486 127.995 44.4562C127.968 44.4592 126.905 44.4575 126.867 44.4569C126.85 44.4567 126.836 44.4564 126.822 44.4562C127.042 44.4644 123.443 44.464 124.22 44.4762C123.177 44.4828 124.368 44.4583 123.584 44.4648ZM118.569 44.4782C118.677 44.4759 118.784 44.4736 118.892 44.4713C117.066 44.4769 114.958 44.4659 112.854 44.466C112.32 44.466 112.934 44.48 112.234 44.4762C111.674 44.4731 111.053 44.4602 111.358 44.4573C111.433 44.4566 112.574 44.465 113.145 44.4641C114.832 44.4616 114.406 44.4496 114.504 44.4493C114.613 44.449 115.675 44.4574 116.254 44.457C117.712 44.456 118.378 44.4487 120.369 44.4583C119.22 44.4662 119.849 44.4833 118.569 44.4782ZM50.489 44.4527C50.4195 44.4602 49.2243 44.4536 48.7901 44.4547C48.8584 44.4471 50.0545 44.4538 50.489 44.4527ZM87.7028 7.53751C87.3356 7.54985 90.0873 7.55291 89.3621 7.54264C89.2016 7.54036 88.0485 7.5376 87.7028 7.53751ZM100.064 7.54502C100.432 7.5416 98.9498 7.53272 98.9526 7.54227C98.9547 7.54533 100.016 7.54546 100.064 7.54502ZM94.9593 44.466C94.8897 44.4664 93.8772 44.4637 93.8455 44.463C93.1747 44.4499 96.5073 44.4575 94.9593 44.466ZM115.091 7.52982C113.808 7.53791 117.67 7.54142 116.49 7.5311C116.431 7.5306 115.153 7.52943 115.091 7.52982ZM120.458 7.52756C120.151 7.52799 118.785 7.52398 118.767 7.52774C118.74 7.53382 120.303 7.53797 120.458 7.52756ZM69.5614 44.4699C69.7096 44.4838 67.9087 44.4733 67.2826 44.4751C67.1339 44.4611 68.9355 44.4717 69.5614 44.4699ZM80.9287 44.4802C73.3364 44.4912 75.0102 44.4614 81.3809 44.4734C81.39 44.4823 81.4079 44.4795 80.9287 44.4802ZM71.2066 44.4785C71.4826 44.4696 72.3447 44.4723 72.9273 44.473C72.8225 44.4792 71.6268 44.4769 71.2066 44.4785ZM84.4263 7.5184C84.9025 7.50715 87.0111 7.52103 86.6362 7.52567C86.5489 7.52667 84.2515 7.52459 84.4263 7.5184ZM94.3232 44.4779C94.5 44.4915 92.2202 44.4859 92.0456 44.4829C91.342 44.4709 94.1386 44.4809 94.3232 44.4779ZM58.7855 44.4818C58.3829 44.4924 57.2395 44.487 56.5041 44.4868C56.8389 44.4778 58.1615 44.4816 58.7855 44.4818ZM64.0942 44.4901C64.0481 44.4905 63.0224 44.4896 62.9765 44.4891C62.1362 44.4788 65.0376 44.4814 64.0942 44.4901ZM30.3987 7.50009C30.4329 7.49975 31.2096 7.50043 31.2366 7.50083C31.9299 7.511 29.5987 7.50892 30.3987 7.50009Z" fill="#381169"/>
<path d="M14.9668 19.5586C15.3553 18.8231 16.4624 19.0421 16.541 19.8701L16.8105 22.7139C17.0563 22.6527 17.3134 22.6201 17.5781 22.6201C19.3268 22.6201 20.7449 24.0376 20.7451 25.7861C20.7451 26.2623 20.6365 26.713 20.4482 27.1182L23.8213 27.9941C24.6196 28.2018 24.6516 29.3234 23.8662 29.5762C23.5112 29.6905 23.2776 30.0289 23.2959 30.4014L23.334 31.1807C23.3672 31.8566 22.7333 32.3695 22.0791 32.1963L21.4258 32.0234C21.0489 31.9237 20.6528 32.0976 20.4707 32.4424C20.0821 33.1775 18.975 32.9579 18.8965 32.1299L18.5791 28.79C18.2644 28.8949 17.928 28.9531 17.5781 28.9531C15.8294 28.953 14.4121 27.5349 14.4121 25.7861C14.4122 25.4327 14.4702 25.0928 14.5771 24.7754L11.6172 24.0068C10.8186 23.7995 10.7861 22.6769 11.5713 22.4238C11.9263 22.3096 12.1609 21.9711 12.1426 21.5986L12.1045 20.8193C12.0713 20.1436 12.7044 19.6308 13.3584 19.8037L14.0127 19.9766C14.3893 20.0761 14.7847 19.9029 14.9668 19.5586Z" fill="#381169"/>
<g filter="url(#filter0_d_565_640)">
<path d="M40.058 33.4H39.158V19.62H38.618C38.518 19.62 38.458 19.56 38.458 19.46C38.458 19.36 38.518 19.3 38.618 19.3H40.058C40.518 19.3 40.758 19.54 40.758 20V32.7C40.758 33.16 40.518 33.4 40.058 33.4ZM45.798 33.52H45.738C44.258 33.52 43.318 32.74 43.318 31.54C43.318 30.08 44.698 29.22 46.598 29.22C46.838 29.22 47.078 29.24 47.318 29.26V22.66H43.718C43.618 22.66 43.558 22.6 43.558 22.5C43.558 22.4 43.618 22.34 43.718 22.34H47.318V19.62H46.818C46.738 19.62 46.678 19.56 46.678 19.46C46.678 19.36 46.738 19.3 46.818 19.3H48.358C48.838 19.3 49.078 19.56 49.078 20.08V22.34H50.538C50.638 22.34 50.698 22.4 50.698 22.5C50.698 22.6 50.638 22.66 50.538 22.66H49.078V29.58C49.618 29.74 50.198 29.96 50.758 30.22C50.838 30.26 50.878 30.32 50.878 30.38C50.878 30.48 50.758 30.6 50.638 30.54C50.118 30.3 49.578 30.12 49.078 29.96V30.62C49.078 32.96 47.358 33.52 45.798 33.52ZM45.358 33.16C46.378 33.16 47.318 32.72 47.318 31.16V29.62C47.058 29.6 46.818 29.58 46.598 29.58C44.878 29.58 43.678 30.3 43.678 31.54C43.678 32.56 44.518 33.16 45.358 33.16ZM64.278 33.66H64.198C62.098 33.66 60.358 32.66 60.358 29.38V19.82H59.818C59.718 19.82 59.658 19.76 59.658 19.66C59.658 19.56 59.718 19.5 59.818 19.5H61.498C62.018 19.5 62.278 19.76 62.278 20.28V29.38C62.278 31.88 62.698 33.26 64.578 33.26C66.498 33.26 68.658 31.48 70.058 28.74C70.158 28.56 70.438 28.62 70.438 28.8C70.438 28.82 70.438 28.86 70.418 28.9C68.958 31.78 66.758 33.66 64.278 33.66ZM66.858 21.78C66.618 21.78 66.418 21.7 66.238 21.52C66.058 21.34 65.978 21.14 65.978 20.9C65.978 20.66 66.058 20.46 66.238 20.28C66.398 20.1 66.598 20.02 66.858 20.02C67.118 20.02 67.338 20.1 67.498 20.28C67.658 20.46 67.738 20.66 67.738 20.9C67.738 21.14 67.658 21.34 67.498 21.52C67.318 21.7 67.118 21.78 66.858 21.78ZM69.218 21.78C68.978 21.78 68.778 21.7 68.598 21.52C68.418 21.34 68.338 21.14 68.338 20.9C68.338 20.66 68.418 20.46 68.598 20.28C68.758 20.1 68.958 20.02 69.218 20.02C69.478 20.02 69.698 20.1 69.858 20.28C70.018 20.46 70.098 20.66 70.098 20.9C70.098 21.14 70.018 21.34 69.858 21.52C69.678 21.7 69.478 21.78 69.218 21.78ZM84.378 34.22C84.218 34.22 84.158 34.02 84.318 33.92C86.938 32.26 88.598 29.86 88.598 26.64C88.598 24.8 87.938 23.06 86.498 22.22C85.398 26.62 82.878 30.3 80.498 30.3C79.198 30.3 78.278 29.08 78.278 27.4C78.278 25.58 79.218 23.78 80.758 22.62C80.418 21.4 80.178 20.06 80.058 18.54C80.038 18.4 80.158 18.3 80.278 18.3C80.378 18.3 80.498 18.36 80.498 18.5C80.618 19.92 80.838 21.2 81.138 22.34C82.198 21.68 83.478 21.26 84.898 21.26C85.378 21.26 85.818 21.3 86.238 21.38C86.458 20.34 86.598 19.26 86.638 18.2C86.638 18.04 86.758 17.98 86.858 17.98C86.978 17.98 87.078 18.04 87.078 18.2C87.038 19.3 86.898 20.42 86.678 21.5C89.118 22.18 90.518 24.28 90.518 26.7C90.518 30.36 87.578 32.98 84.478 34.2C84.418 34.22 84.398 34.22 84.378 34.22ZM83.798 27.38C84.758 25.96 85.578 24.06 86.078 22.02C85.598 21.82 85.018 21.7 84.378 21.7C83.278 21.7 82.198 22.12 81.278 22.78C81.838 24.62 82.658 26.12 83.798 27.38ZM80.498 29.86C81.518 29.86 82.598 29.04 83.558 27.72C82.358 26.46 81.478 24.94 80.898 23.08C79.598 24.16 78.718 25.78 78.718 27.4C78.718 28.86 79.458 29.86 80.498 29.86ZM104.478 33.66H104.358C102.918 33.66 101.618 32.88 101.618 31.68C101.618 30.74 102.358 30.08 103.298 30.08C104.558 30.08 105.758 31.06 106.338 32.44C107.418 31.64 108.238 30.26 108.238 28.48C108.238 26.48 107.098 24.72 104.818 24.72C103.898 24.72 103.098 25.02 102.318 25.58L100.358 27.68C100.018 28.06 99.658 28.08 99.238 27.72L98.798 27.34L105.898 19.62H99.838C99.738 19.62 99.678 19.56 99.678 19.46C99.678 19.36 99.738 19.3 99.838 19.3H106.998C107.618 19.3 107.798 19.72 107.378 20.16L103.118 24.72C103.718 24.48 104.398 24.36 105.258 24.36C107.798 24.36 110.158 25.76 110.158 28.5C110.158 31.56 107.098 33.66 104.478 33.66ZM104.098 33.26C104.738 33.26 105.398 33.06 105.998 32.68C105.478 31.4 104.398 30.48 103.298 30.48C102.538 30.48 102.018 30.98 102.018 31.68C102.018 32.56 103.018 33.26 104.098 33.26Z" fill="#381169"/>
</g>
<path d="M128.405 19.5586C128.793 18.8231 129.9 19.0421 129.979 19.8701L130.249 22.7139C130.494 22.6527 130.751 22.6201 131.016 22.6201C132.765 22.6201 134.183 24.0376 134.183 25.7861C134.183 26.2623 134.075 26.713 133.886 27.1182L137.259 27.9941C138.058 28.2018 138.09 29.3234 137.304 29.5762C136.949 29.6905 136.716 30.0289 136.734 30.4014L136.772 31.1807C136.805 31.8566 136.171 32.3695 135.517 32.1963L134.864 32.0234C134.487 31.9237 134.091 32.0976 133.909 32.4424C133.52 33.1775 132.413 32.9579 132.334 32.1299L132.017 28.79C131.702 28.8949 131.366 28.9531 131.016 28.9531C129.267 28.953 127.85 27.5349 127.85 25.7861C127.85 25.4327 127.908 25.0928 128.015 24.7754L125.055 24.0068C124.257 23.7995 124.224 22.6769 125.009 22.4238C125.364 22.3096 125.599 21.9711 125.581 21.5986L125.542 20.8193C125.509 20.1436 126.142 19.6308 126.796 19.8037L127.451 19.9766C127.827 20.0761 128.223 19.9029 128.405 19.5586Z" fill="#381169"/>
<defs>
<filter id="filter0_d_565_640" x="21.458" y="0.97998" width="105.7" height="50.2402" filterUnits="userSpaceOnUse" color-interpolation-filters="sRGB">
<feFlood flood-opacity="0" result="BackgroundImageFix"/>
<feColorMatrix in="SourceAlpha" type="matrix" values="0 0 0 0 0 0 0 0 0 0 0 0 0 0 0 0 0 0 127 0" result="hardAlpha"/>
<feOffset/>
<feGaussianBlur stdDeviation="8.5"/>
<feComposite in2="hardAlpha" operator="out"/>
<feColorMatrix type="matrix" values="0 0 0 0 0 0 0 0 0 0 0 0 0 0 0 0 0 0 0.38 0"/>
<feBlend mode="normal" in2="BackgroundImageFix" result="effect1_dropShadow_565_640"/>
<feBlend mode="normal" in="SourceGraphic" in2="effect1_dropShadow_565_640" result="shape"/>
</filter>
</defs>
</svg>
