<svg width="146" height="52" viewBox="0 0 146 52" fill="none" xmlns="http://www.w3.org/2000/svg">
<path d="M0 26C0 16.0589 8.05887 8 18 8H128C137.941 8 146 16.0589 146 26C146 35.9411 137.941 44 128 44H18C8.05888 44 0 35.9411 0 26Z" fill="white"/>
<path d="M16.5284 19.5586C16.9168 18.823 18.024 19.0421 18.1026 19.8701L18.3721 22.7139C18.6179 22.6526 18.875 22.6201 19.1397 22.6201C20.8883 22.6201 22.3064 24.0375 22.3067 25.7861C22.3067 26.2623 22.1981 26.713 22.0098 27.1181L25.3829 27.9941C26.1812 28.2018 26.2132 29.3234 25.4278 29.5762C25.0728 29.6904 24.8392 30.0289 24.8575 30.4014L24.8956 31.1806C24.9288 31.8566 24.2949 32.3695 23.6407 32.1963L22.9874 32.0234C22.6105 31.9236 22.2144 32.0976 22.0323 32.4424C21.6437 33.1775 20.5366 32.9579 20.4581 32.1299L20.1407 28.79C19.826 28.8948 19.4896 28.9531 19.1397 28.9531C17.391 28.953 15.9737 27.5349 15.9737 25.7861C15.9738 25.4326 16.0318 25.0928 16.1387 24.7754L13.1788 24.0068C12.3801 23.7994 12.3477 22.6768 13.1329 22.4238C13.4879 22.3096 13.7225 21.9711 13.7042 21.5986L13.6661 20.8193C13.6329 20.1436 14.2659 19.6308 14.92 19.8037L15.5743 19.9765C15.9509 20.0761 16.3462 19.9029 16.5284 19.5586Z" fill="#622688"/>
<g filter="url(#filter0_d_591_1346)">
<path d="M38.62 33.4H37.72V19.62H37.18C37.08 19.62 37.02 19.56 37.02 19.46C37.02 19.36 37.08 19.3 37.18 19.3H38.62C39.08 19.3 39.32 19.54 39.32 20V32.7C39.32 33.16 39.08 33.4 38.62 33.4ZM44.36 33.52H44.3C42.82 33.52 41.88 32.74 41.88 31.54C41.88 30.08 43.26 29.22 45.16 29.22C45.4 29.22 45.64 29.24 45.88 29.26V22.66H42.28C42.18 22.66 42.12 22.6 42.12 22.5C42.12 22.4 42.18 22.34 42.28 22.34H45.88V19.62H45.38C45.3 19.62 45.24 19.56 45.24 19.46C45.24 19.36 45.3 19.3 45.38 19.3H46.92C47.4 19.3 47.64 19.56 47.64 20.08V22.34H49.1C49.2 22.34 49.26 22.4 49.26 22.5C49.26 22.6 49.2 22.66 49.1 22.66H47.64V29.58C48.18 29.74 48.76 29.96 49.32 30.22C49.4 30.26 49.44 30.32 49.44 30.38C49.44 30.48 49.32 30.6 49.2 30.54C48.68 30.3 48.14 30.12 47.64 29.96V30.62C47.64 32.96 45.92 33.52 44.36 33.52ZM43.92 33.16C44.94 33.16 45.88 32.72 45.88 31.16V29.62C45.62 29.6 45.38 29.58 45.16 29.58C43.44 29.58 42.24 30.3 42.24 31.54C42.24 32.56 43.08 33.16 43.92 33.16ZM62.84 33.66H62.76C60.66 33.66 58.92 32.66 58.92 29.38V19.82H58.38C58.28 19.82 58.22 19.76 58.22 19.66C58.22 19.56 58.28 19.5 58.38 19.5H60.06C60.58 19.5 60.84 19.76 60.84 20.28V29.38C60.84 31.88 61.26 33.26 63.14 33.26C65.06 33.26 67.22 31.48 68.62 28.74C68.72 28.56 69 28.62 69 28.8C69 28.82 69 28.86 68.98 28.9C67.52 31.78 65.32 33.66 62.84 33.66ZM65.42 21.78C65.18 21.78 64.98 21.7 64.8 21.52C64.62 21.34 64.54 21.14 64.54 20.9C64.54 20.66 64.62 20.46 64.8 20.28C64.96 20.1 65.16 20.02 65.42 20.02C65.68 20.02 65.9 20.1 66.06 20.28C66.22 20.46 66.3 20.66 66.3 20.9C66.3 21.14 66.22 21.34 66.06 21.52C65.88 21.7 65.68 21.78 65.42 21.78ZM67.78 21.78C67.54 21.78 67.34 21.7 67.16 21.52C66.98 21.34 66.9 21.14 66.9 20.9C66.9 20.66 66.98 20.46 67.16 20.28C67.32 20.1 67.52 20.02 67.78 20.02C68.04 20.02 68.26 20.1 68.42 20.28C68.58 20.46 68.66 20.66 68.66 20.9C68.66 21.14 68.58 21.34 68.42 21.52C68.24 21.7 68.04 21.78 67.78 21.78ZM82.94 34.22C82.78 34.22 82.72 34.02 82.88 33.92C85.5 32.26 87.16 29.86 87.16 26.64C87.16 24.8 86.5 23.06 85.06 22.22C83.96 26.62 81.44 30.3 79.06 30.3C77.76 30.3 76.84 29.08 76.84 27.4C76.84 25.58 77.78 23.78 79.32 22.62C78.98 21.4 78.74 20.06 78.62 18.54C78.6 18.4 78.72 18.3 78.84 18.3C78.94 18.3 79.06 18.36 79.06 18.5C79.18 19.92 79.4 21.2 79.7 22.34C80.76 21.68 82.04 21.26 83.46 21.26C83.94 21.26 84.38 21.3 84.8 21.38C85.02 20.34 85.16 19.26 85.2 18.2C85.2 18.04 85.32 17.98 85.42 17.98C85.54 17.98 85.64 18.04 85.64 18.2C85.6 19.3 85.46 20.42 85.24 21.5C87.68 22.18 89.08 24.28 89.08 26.7C89.08 30.36 86.14 32.98 83.04 34.2C82.98 34.22 82.96 34.22 82.94 34.22ZM82.36 27.38C83.32 25.96 84.14 24.06 84.64 22.02C84.16 21.82 83.58 21.7 82.94 21.7C81.84 21.7 80.76 22.12 79.84 22.78C80.4 24.62 81.22 26.12 82.36 27.38ZM79.06 29.86C80.08 29.86 81.16 29.04 82.12 27.72C80.92 26.46 80.04 24.94 79.46 23.08C78.16 24.16 77.28 25.78 77.28 27.4C77.28 28.86 78.02 29.86 79.06 29.86ZM103.04 33.66H102.92C101.48 33.66 100.18 32.88 100.18 31.68C100.18 30.74 100.92 30.08 101.86 30.08C103.12 30.08 104.32 31.06 104.9 32.44C105.98 31.64 106.8 30.26 106.8 28.48C106.8 26.48 105.66 24.72 103.38 24.72C102.46 24.72 101.66 25.02 100.88 25.58L98.92 27.68C98.58 28.06 98.22 28.08 97.8 27.72L97.36 27.34L104.46 19.62H98.4C98.3 19.62 98.24 19.56 98.24 19.46C98.24 19.36 98.3 19.3 98.4 19.3H105.56C106.18 19.3 106.36 19.72 105.94 20.16L101.68 24.72C102.28 24.48 102.96 24.36 103.82 24.36C106.36 24.36 108.72 25.76 108.72 28.5C108.72 31.56 105.66 33.66 103.04 33.66ZM102.66 33.26C103.3 33.26 103.96 33.06 104.56 32.68C104.04 31.4 102.96 30.48 101.86 30.48C101.1 30.48 100.58 30.98 100.58 31.68C100.58 32.56 101.58 33.26 102.66 33.26Z" fill="#622688"/>
</g>
<path d="M123.967 19.5586C124.355 18.823 125.462 19.0421 125.541 19.8701L125.811 22.7139C126.056 22.6526 126.313 22.6201 126.578 22.6201C128.327 22.6201 129.745 24.0375 129.745 25.7861C129.745 26.2623 129.637 26.713 129.448 27.1181L132.821 27.9941C133.62 28.2018 133.652 29.3234 132.866 29.5762C132.511 29.6904 132.278 30.0289 132.296 30.4014L132.334 31.1806C132.367 31.8566 131.733 32.3695 131.079 32.1963L130.426 32.0234C130.049 31.9236 129.653 32.0976 129.471 32.4424C129.082 33.1775 127.975 32.9579 127.897 32.1299L127.579 28.79C127.264 28.8948 126.928 28.9531 126.578 28.9531C124.829 28.953 123.412 27.5349 123.412 25.7861C123.412 25.4326 123.47 25.0928 123.577 24.7754L120.617 24.0068C119.819 23.7994 119.786 22.6768 120.571 22.4238C120.926 22.3096 121.161 21.9711 121.143 21.5986L121.105 20.8193C121.071 20.1436 121.704 19.6308 122.358 19.8037L123.013 19.9765C123.389 20.0761 123.785 19.9029 123.967 19.5586Z" fill="#622688"/>
<defs>
<filter id="filter0_d_591_1346" x="20.0195" y="0.97998" width="105.7" height="50.2402" filterUnits="userSpaceOnUse" color-interpolation-filters="sRGB">
<feFlood flood-opacity="0" result="BackgroundImageFix"/>
<feColorMatrix in="SourceAlpha" type="matrix" values="0 0 0 0 0 0 0 0 0 0 0 0 0 0 0 0 0 0 127 0" result="hardAlpha"/>
<feOffset/>
<feGaussianBlur stdDeviation="8.5"/>
<feComposite in2="hardAlpha" operator="out"/>
<feColorMatrix type="matrix" values="0 0 0 0 0 0 0 0 0 0 0 0 0 0 0 0 0 0 0.38 0"/>
<feBlend mode="normal" in2="BackgroundImageFix" result="effect1_dropShadow_591_1346"/>
<feBlend mode="normal" in="SourceGraphic" in2="effect1_dropShadow_591_1346" result="shape"/>
</filter>
</defs>
</svg>
