<svg width="126" height="128" viewBox="0 0 126 128" fill="none" xmlns="http://www.w3.org/2000/svg">
<mask id="path-1-outside-1_2376_1748" maskUnits="userSpaceOnUse" x="0" y="0" width="126" height="128" fill="black">
<rect fill="white" width="126" height="128"/>
<path d="M97.448 27.648H35.732C31.292 39.34 25.372 46.296 15.604 46.296C8.648 46.296 2.432 41.264 2.432 33.42C2.432 23.8 9.536 17.436 20.044 17.436H29.368L31.884 5.152C32.18 3.37599 33.364 2.488 34.992 2.488C35.436 2.488 35.732 2.488 36.176 2.63599L38.988 3.08C41.06 3.52399 42.096 5.29999 41.504 7.51999C40.764 11.072 39.876 14.328 38.988 17.436H97.448C99.816 17.436 101 18.768 101 20.988V24.096C101 26.316 99.816 27.648 97.448 27.648ZM15.604 37.564C20.34 37.564 23.596 33.864 26.26 27.648H18.416C12.792 27.648 11.312 30.312 11.312 33.42C11.312 35.936 12.792 37.564 15.604 37.564ZM36.916 37.564H89.012C91.38 37.564 92.564 38.748 92.564 41.116V44.076C92.564 46.296 91.38 47.628 89.012 47.628H36.916C34.548 47.628 33.364 46.296 33.364 44.076V41.116C33.364 38.748 34.548 37.564 36.916 37.564ZM122.904 105.496C123.052 108.9 123.348 115.708 123.348 120.888C123.348 123.7 121.868 125.624 119.352 125.624C118.76 125.624 118.02 125.476 117.132 125.18C94.784 117.336 94.192 98.54 94.192 69.236C94.192 68.348 93.6 67.756 92.86 67.756H19.304C17.084 67.756 15.752 66.72 15.752 64.352V61.244C15.752 59.172 17.084 57.692 19.304 57.692H98.78C102.332 57.692 104.404 59.764 104.404 63.612C104.404 84.628 103.22 104.164 111.656 108.752C112.692 109.344 113.136 108.9 113.284 107.864L113.58 105.496C114.32 99.576 115.652 96.468 118.464 96.468C121.276 96.468 122.756 99.872 122.904 105.496ZM61.336 96.764C65.184 100.02 69.032 103.572 72.732 107.272C74.212 109.196 74.212 111.12 72.436 112.6L69.772 114.524C67.996 115.708 66.516 115.856 64.888 114.228C61.632 110.676 58.08 107.272 54.38 104.164C45.796 111.564 36.176 116.152 24.04 118.52C21.968 119.112 20.34 118.224 20.044 115.708L19.452 112.748C19.008 110.232 20.192 109.196 22.412 108.604C31.884 106.532 39.728 102.98 46.24 97.504C42.096 94.544 37.656 91.584 33.216 88.92C31.144 87.736 30.552 86.108 31.588 84.184L33.216 81.372C34.252 79.448 35.88 78.708 37.804 79.892C43.28 83 48.312 86.404 53.196 90.104C56.304 86.108 58.968 81.52 61.188 76.192C62.224 73.972 63.704 73.38 65.628 73.972L69.18 75.156C71.4 75.896 72.288 77.524 71.4 79.596C68.736 86.108 65.332 91.88 61.336 96.764Z"/>
</mask>
<path d="M97.448 27.648H35.732C31.292 39.34 25.372 46.296 15.604 46.296C8.648 46.296 2.432 41.264 2.432 33.42C2.432 23.8 9.536 17.436 20.044 17.436H29.368L31.884 5.152C32.18 3.37599 33.364 2.488 34.992 2.488C35.436 2.488 35.732 2.488 36.176 2.63599L38.988 3.08C41.06 3.52399 42.096 5.29999 41.504 7.51999C40.764 11.072 39.876 14.328 38.988 17.436H97.448C99.816 17.436 101 18.768 101 20.988V24.096C101 26.316 99.816 27.648 97.448 27.648ZM15.604 37.564C20.34 37.564 23.596 33.864 26.26 27.648H18.416C12.792 27.648 11.312 30.312 11.312 33.42C11.312 35.936 12.792 37.564 15.604 37.564ZM36.916 37.564H89.012C91.38 37.564 92.564 38.748 92.564 41.116V44.076C92.564 46.296 91.38 47.628 89.012 47.628H36.916C34.548 47.628 33.364 46.296 33.364 44.076V41.116C33.364 38.748 34.548 37.564 36.916 37.564ZM122.904 105.496C123.052 108.9 123.348 115.708 123.348 120.888C123.348 123.7 121.868 125.624 119.352 125.624C118.76 125.624 118.02 125.476 117.132 125.18C94.784 117.336 94.192 98.54 94.192 69.236C94.192 68.348 93.6 67.756 92.86 67.756H19.304C17.084 67.756 15.752 66.72 15.752 64.352V61.244C15.752 59.172 17.084 57.692 19.304 57.692H98.78C102.332 57.692 104.404 59.764 104.404 63.612C104.404 84.628 103.22 104.164 111.656 108.752C112.692 109.344 113.136 108.9 113.284 107.864L113.58 105.496C114.32 99.576 115.652 96.468 118.464 96.468C121.276 96.468 122.756 99.872 122.904 105.496ZM61.336 96.764C65.184 100.02 69.032 103.572 72.732 107.272C74.212 109.196 74.212 111.12 72.436 112.6L69.772 114.524C67.996 115.708 66.516 115.856 64.888 114.228C61.632 110.676 58.08 107.272 54.38 104.164C45.796 111.564 36.176 116.152 24.04 118.52C21.968 119.112 20.34 118.224 20.044 115.708L19.452 112.748C19.008 110.232 20.192 109.196 22.412 108.604C31.884 106.532 39.728 102.98 46.24 97.504C42.096 94.544 37.656 91.584 33.216 88.92C31.144 87.736 30.552 86.108 31.588 84.184L33.216 81.372C34.252 79.448 35.88 78.708 37.804 79.892C43.28 83 48.312 86.404 53.196 90.104C56.304 86.108 58.968 81.52 61.188 76.192C62.224 73.972 63.704 73.38 65.628 73.972L69.18 75.156C71.4 75.896 72.288 77.524 71.4 79.596C68.736 86.108 65.332 91.88 61.336 96.764Z" fill="#E23232"/>
<path d="M35.732 27.648V25.648H34.3521L33.8623 26.938L35.732 27.648ZM29.368 17.436V19.436H30.9999L31.3273 17.8373L29.368 17.436ZM31.884 5.152L33.8433 5.5533L33.8507 5.51717L33.8568 5.48079L31.884 5.152ZM36.176 2.63599L35.5436 4.53336L35.7006 4.5857L35.8641 4.61152L36.176 2.63599ZM38.988 3.08L39.4071 1.12439L39.3538 1.11297L39.2999 1.10447L38.988 3.08ZM41.504 7.51999L39.5715 7.00467L39.5573 7.05802L39.546 7.11208L41.504 7.51999ZM38.988 17.436L37.065 16.8866L36.3365 19.436H38.988V17.436ZM26.26 27.648L28.0983 28.4358L29.2931 25.648H26.26V27.648ZM122.904 105.496L120.905 105.549L120.905 105.566L120.906 105.583L122.904 105.496ZM117.132 125.18L116.47 127.067L116.485 127.072L116.5 127.077L117.132 125.18ZM111.656 108.752L112.648 107.016L112.63 107.005L112.612 106.995L111.656 108.752ZM113.284 107.864L115.264 108.147L115.266 108.129L115.269 108.112L113.284 107.864ZM113.58 105.496L111.595 105.248L111.595 105.248L113.58 105.496ZM61.336 96.764L59.7881 95.4975L58.5424 97.0201L60.0441 98.2908L61.336 96.764ZM72.732 107.272L74.3173 106.053L74.2381 105.95L74.1462 105.858L72.732 107.272ZM72.436 112.6L73.607 114.221L73.6632 114.181L73.7164 114.136L72.436 112.6ZM69.772 114.524L70.8814 116.188L70.9126 116.167L70.943 116.145L69.772 114.524ZM64.888 114.228L63.4137 115.579L63.4431 115.611L63.4738 115.642L64.888 114.228ZM54.38 104.164L55.6664 102.633L54.3632 101.538L53.0741 102.649L54.38 104.164ZM24.04 118.52L23.657 116.557L23.5729 116.573L23.4906 116.597L24.04 118.52ZM20.044 115.708L22.0303 115.474L22.0209 115.395L22.0052 115.316L20.044 115.708ZM19.452 112.748L17.4824 113.096L17.4864 113.118L17.4908 113.14L19.452 112.748ZM22.412 108.604L21.9846 106.65L21.9404 106.66L21.8967 106.672L22.412 108.604ZM46.24 97.504L47.5272 99.0347L49.5007 97.3752L47.4025 95.8765L46.24 97.504ZM33.216 88.92L34.245 87.205L34.2268 87.1941L34.2083 87.1835L33.216 88.92ZM31.588 84.184L29.8572 83.1819L29.8417 83.2086L29.8271 83.2358L31.588 84.184ZM33.216 81.372L34.9469 82.3741L34.9623 82.3474L34.9769 82.3202L33.216 81.372ZM37.804 79.892L36.7558 81.5953L36.786 81.6139L36.8168 81.6314L37.804 79.892ZM53.196 90.104L51.9883 91.6982L53.5623 92.8906L54.7747 91.3319L53.196 90.104ZM61.188 76.192L59.3756 75.3462L59.3579 75.3841L59.3419 75.4228L61.188 76.192ZM65.628 73.972L66.2605 72.0746L66.2384 72.0673L66.2162 72.0604L65.628 73.972ZM69.18 75.156L68.5475 77.0534L68.5475 77.0534L69.18 75.156ZM71.4 79.596L69.5617 78.8082L69.5552 78.8234L69.5489 78.8387L71.4 79.596ZM97.448 27.648V25.648H35.732V27.648V29.648H97.448V27.648ZM35.732 27.648L33.8623 26.938C31.6873 32.6653 29.2239 37.0208 26.264 39.9302C23.3667 42.778 19.9425 44.296 15.604 44.296V46.296V48.296C21.0335 48.296 25.4533 46.3359 29.068 42.7828C32.6201 39.2912 35.3367 34.3227 37.6017 28.358L35.732 27.648ZM15.604 46.296V44.296C9.60007 44.296 4.432 40.0129 4.432 33.42H2.432H0.432001C0.432001 42.5151 7.69593 48.296 15.604 48.296V46.296ZM2.432 33.42H4.432C4.432 29.1301 6.00112 25.689 8.63886 23.304C11.2952 20.9022 15.1896 19.436 20.044 19.436V17.436V15.436C14.3904 15.436 9.47885 17.1518 5.95614 20.337C2.41488 23.539 0.432001 28.0898 0.432001 33.42H2.432ZM20.044 17.436V19.436H29.368V17.436V15.436H20.044V17.436ZM29.368 17.436L31.3273 17.8373L33.8433 5.5533L31.884 5.152L29.9247 4.75069L27.4087 17.0347L29.368 17.436ZM31.884 5.152L33.8568 5.48079C33.9409 4.97613 34.1136 4.77755 34.2136 4.69478C34.3207 4.60615 34.5426 4.488 34.992 4.488V2.488V0.487996C33.8134 0.487996 32.6293 0.813836 31.6634 1.61321C30.6904 2.41844 30.1231 3.55186 29.9112 4.8232L31.884 5.152ZM34.992 2.488V4.488C35.2352 4.488 35.3172 4.48979 35.385 4.49657C35.4215 4.50022 35.4612 4.5059 35.5436 4.53336L36.176 2.63599L36.8085 0.738625C36.0333 0.480253 35.4545 0.487996 34.992 0.487996V2.488ZM36.176 2.63599L35.8641 4.61152L38.6761 5.05552L38.988 3.08L39.2999 1.10447L36.4879 0.660468L36.176 2.63599ZM38.988 3.08L38.569 5.0356C39.119 5.15346 39.3804 5.40215 39.5085 5.62627C39.6443 5.86382 39.7584 6.30383 39.5715 7.00467L41.504 7.51999L43.4365 8.03532C43.8416 6.51616 43.7337 4.95817 42.9815 3.64172C42.2216 2.31184 40.929 1.45053 39.4071 1.12439L38.988 3.08ZM41.504 7.51999L39.546 7.11208C38.8211 10.592 37.9489 13.7927 37.065 16.8866L38.988 17.436L40.9111 17.9854C41.8031 14.8633 42.7069 11.552 43.462 7.9279L41.504 7.51999ZM38.988 17.436V19.436H97.448V17.436V15.436H38.988V17.436ZM97.448 17.436V19.436C98.2617 19.436 98.5652 19.6573 98.6762 19.7718C98.7977 19.8971 99 20.2174 99 20.988H101H103C103 19.5386 102.61 18.0829 101.548 16.9872C100.475 15.8807 99.0023 15.436 97.448 15.436V17.436ZM101 20.988H99V24.096H101H103V20.988H101ZM101 24.096H99C99 24.8666 98.7977 25.1869 98.6762 25.3122C98.5652 25.4267 98.2617 25.648 97.448 25.648V27.648V29.648C99.0023 29.648 100.475 29.2033 101.548 28.0968C102.61 27.0011 103 25.5454 103 24.096H101ZM15.604 37.564V39.564C21.6599 39.564 25.3938 34.7463 28.0983 28.4358L26.26 27.648L24.4217 26.8602C21.7982 32.9817 19.0201 35.564 15.604 35.564V37.564ZM26.26 27.648V25.648H18.416V27.648V29.648H26.26V27.648ZM18.416 27.648V25.648C15.325 25.648 12.9447 26.3779 11.3531 27.942C9.75122 29.5163 9.312 31.5769 9.312 33.42H11.312H13.312C13.312 32.155 13.6128 31.3297 14.1569 30.795C14.7113 30.2501 15.8831 29.648 18.416 29.648V27.648ZM11.312 33.42H9.312C9.312 35.0667 9.80318 36.6636 10.9893 37.8497C12.1777 39.0381 13.8133 39.564 15.604 39.564V37.564V35.564C14.5827 35.564 14.0723 35.2759 13.8177 35.0213C13.5608 34.7644 13.312 34.2893 13.312 33.42H11.312ZM36.916 37.564V39.564H89.012V37.564V35.564H36.916V37.564ZM89.012 37.564V39.564C89.8877 39.564 90.1772 39.7816 90.2618 39.8662C90.3464 39.9508 90.564 40.2403 90.564 41.116H92.564H94.564C94.564 39.6237 94.1896 38.1371 93.0902 37.0378C91.9909 35.9384 90.5043 35.564 89.012 35.564V37.564ZM92.564 41.116H90.564V44.076H92.564H94.564V41.116H92.564ZM92.564 44.076H90.564C90.564 44.8466 90.3617 45.1669 90.2402 45.2922C90.1292 45.4067 89.8257 45.628 89.012 45.628V47.628V49.628C90.5663 49.628 92.0388 49.1833 93.1118 48.0768C94.1743 46.9811 94.564 45.5254 94.564 44.076H92.564ZM89.012 47.628V45.628H36.916V47.628V49.628H89.012V47.628ZM36.916 47.628V45.628C36.1023 45.628 35.7988 45.4067 35.6878 45.2922C35.5663 45.1669 35.364 44.8466 35.364 44.076H33.364H31.364C31.364 45.5254 31.7537 46.9811 32.8162 48.0768C33.8892 49.1833 35.3617 49.628 36.916 49.628V47.628ZM33.364 44.076H35.364V41.116H33.364H31.364V44.076H33.364ZM33.364 41.116H35.364C35.364 40.2403 35.5816 39.9508 35.6662 39.8662C35.7509 39.7816 36.0403 39.564 36.916 39.564V37.564V35.564C35.4237 35.564 33.9371 35.9384 32.8378 37.0378C31.7384 38.1371 31.364 39.6237 31.364 41.116H33.364ZM122.904 105.496L120.906 105.583C121.054 108.997 121.348 115.76 121.348 120.888H123.348H125.348C125.348 115.656 125.05 108.803 124.902 105.409L122.904 105.496ZM123.348 120.888H121.348C121.348 121.963 121.064 122.656 120.749 123.04C120.47 123.379 120.054 123.624 119.352 123.624V125.624V127.624C121.166 127.624 122.748 126.907 123.838 125.581C124.892 124.3 125.348 122.625 125.348 120.888H123.348ZM119.352 125.624V123.624C119.063 123.624 118.553 123.545 117.764 123.283L117.132 125.18L116.5 127.077C117.487 127.407 118.458 127.624 119.352 127.624V125.624ZM117.132 125.18L117.794 123.293C112.446 121.416 108.504 118.922 105.561 115.864C102.618 112.806 100.587 109.094 99.1892 104.655C96.3587 95.665 96.192 83.9776 96.192 69.236H94.192H92.192C92.192 83.7984 92.3213 96.161 95.3738 105.856C96.9177 110.76 99.225 115.049 102.679 118.637C106.131 122.225 110.644 125.022 116.47 127.067L117.132 125.18ZM94.192 69.236H96.192C96.192 67.3856 94.8416 65.756 92.86 65.756V67.756V69.756C92.677 69.756 92.478 69.6747 92.3379 69.5239C92.2002 69.3756 92.192 69.2434 92.192 69.236H94.192ZM92.86 67.756V65.756H19.304V67.756V69.756H92.86V67.756ZM19.304 67.756V65.756C18.4696 65.756 18.1467 65.5583 18.0408 65.4621C17.9702 65.3979 17.752 65.1634 17.752 64.352H15.752H13.752C13.752 65.9086 14.1998 67.3761 15.3502 68.4219C16.4654 69.4357 17.9184 69.756 19.304 69.756V67.756ZM15.752 64.352H17.752V61.244H15.752H13.752V64.352H15.752ZM15.752 61.244H17.752C17.752 60.6386 17.9403 60.2801 18.1307 60.0839C18.3119 59.8973 18.6542 59.692 19.304 59.692V57.692V55.692C17.7338 55.692 16.3001 56.2267 15.2603 57.298C14.2297 58.3599 13.752 59.7774 13.752 61.244H15.752ZM19.304 57.692V59.692H98.78V57.692V55.692H19.304V57.692ZM98.78 57.692V59.692C100.168 59.692 100.994 60.0882 101.483 60.5963C101.983 61.115 102.404 62.0337 102.404 63.612H104.404H106.404C106.404 61.3423 105.789 59.301 104.365 57.8217C102.93 56.3318 100.944 55.692 98.78 55.692V57.692ZM104.404 63.612H102.404C102.404 74.0175 102.105 84.3211 102.875 92.5293C103.262 96.6462 103.926 100.382 105.096 103.435C106.268 106.49 108.021 109.052 110.7 110.509L111.656 108.752L112.612 106.995C111.073 106.158 109.811 104.557 108.831 102.003C107.851 99.4448 107.23 96.1233 106.858 92.1557C106.111 84.1949 106.404 74.2225 106.404 63.612H104.404ZM111.656 108.752L110.664 110.488C111.342 110.876 112.637 111.403 113.885 110.601C114.948 109.917 115.183 108.716 115.264 108.147L113.284 107.864L111.304 107.581C111.282 107.738 111.261 107.765 111.283 107.715C111.306 107.663 111.42 107.43 111.721 107.236C112.056 107.021 112.393 107 112.593 107.026C112.75 107.048 112.781 107.091 112.648 107.016L111.656 108.752ZM113.284 107.864L115.269 108.112L115.565 105.744L113.58 105.496L111.595 105.248L111.299 107.616L113.284 107.864ZM113.58 105.496L115.565 105.744C115.929 102.825 116.416 100.862 117.025 99.6738C117.318 99.1024 117.588 98.8132 117.789 98.6679C117.963 98.5427 118.159 98.468 118.464 98.468V96.468V94.468C117.363 94.468 116.338 94.7818 115.448 95.4244C114.586 96.0468 113.949 96.9046 113.465 97.8502C112.52 99.6958 111.971 102.247 111.595 105.248L113.58 105.496ZM118.464 96.468V98.468C118.847 98.468 119.345 98.6147 119.877 99.7329C120.442 100.918 120.834 102.85 120.905 105.549L122.904 105.496L124.903 105.443C124.826 102.518 124.404 99.9357 123.489 98.0131C122.541 96.0233 120.893 94.468 118.464 94.468V96.468ZM61.336 96.764L60.0441 98.2908C63.8474 101.509 67.6547 105.023 71.3178 108.686L72.732 107.272L74.1462 105.858C70.4093 102.121 66.5206 98.5311 62.6279 95.2372L61.336 96.764ZM72.732 107.272L71.1468 108.491C71.7053 109.218 71.8185 109.73 71.8067 110.021C71.797 110.257 71.6979 110.612 71.1556 111.064L72.436 112.6L73.7164 114.136C74.9501 113.108 75.739 111.761 75.8033 110.184C75.8655 108.662 75.2387 107.25 74.3173 106.053L72.732 107.272ZM72.436 112.6L71.265 110.979L68.601 112.903L69.772 114.524L70.943 116.145L73.607 114.221L72.436 112.6ZM69.772 114.524L68.6626 112.86C67.919 113.356 67.5197 113.436 67.321 113.431C67.1916 113.428 66.8764 113.388 66.3022 112.814L64.888 114.228L63.4738 115.642C64.5276 116.696 65.7664 117.396 67.228 117.43C68.6203 117.462 69.849 116.876 70.8814 116.188L69.772 114.524ZM64.888 114.228L66.3623 112.877C63.0479 109.261 59.4332 105.797 55.6664 102.633L54.38 104.164L53.0936 105.695C56.7268 108.747 60.2161 112.091 63.4137 115.579L64.888 114.228ZM54.38 104.164L53.0741 102.649C44.7728 109.805 35.4775 114.251 23.657 116.557L24.04 118.52L24.423 120.483C36.8745 118.053 46.8192 113.323 55.6859 105.679L54.38 104.164ZM24.04 118.52L23.4906 116.597C22.8203 116.788 22.545 116.655 22.4752 116.609C22.4159 116.57 22.1335 116.352 22.0303 115.474L20.044 115.708L18.0577 115.942C18.2505 117.58 18.9301 119.064 20.2768 119.95C21.613 120.829 23.1877 120.844 24.5894 120.443L24.04 118.52ZM20.044 115.708L22.0052 115.316L21.4132 112.356L19.452 112.748L17.4908 113.14L18.0828 116.1L20.044 115.708ZM19.452 112.748L21.4216 112.4C21.2605 111.488 21.4555 111.253 21.4947 111.204C21.6064 111.064 21.9436 110.799 22.9273 110.536L22.412 108.604L21.8967 106.672C20.6604 107.001 19.2956 107.55 18.3713 108.705C17.3745 109.951 17.1995 111.492 17.4824 113.096L19.452 112.748ZM22.412 108.604L22.8394 110.558C32.5606 108.431 40.7192 104.76 47.5272 99.0347L46.24 97.504L44.9528 95.9733C38.7368 101.2 31.2074 104.633 21.9846 106.65L22.412 108.604ZM46.24 97.504L47.4025 95.8765C43.2237 92.8917 38.7388 89.9013 34.245 87.205L33.216 88.92L32.187 90.635C36.5732 93.2667 40.9683 96.1963 45.0775 99.1315L46.24 97.504ZM33.216 88.92L34.2083 87.1835C33.418 86.7319 33.1882 86.3522 33.1249 86.1708C33.0783 86.0372 33.0225 85.7385 33.3489 85.1322L31.588 84.184L29.8271 83.2358C29.1175 84.5535 28.8397 86.0308 29.3481 87.4882C29.8398 88.8978 30.942 89.9241 32.2237 90.6565L33.216 88.92ZM31.588 84.184L33.3189 85.1861L34.9469 82.3741L33.216 81.372L31.4852 80.3699L29.8572 83.1819L31.588 84.184ZM33.216 81.372L34.9769 82.3202C35.3554 81.6173 35.6981 81.4041 35.8497 81.35C35.9306 81.3211 36.1859 81.2446 36.7558 81.5953L37.804 79.892L38.8522 78.1887C37.4981 77.3554 35.9774 77.0569 34.5043 77.583C33.1019 78.0839 32.1126 79.2027 31.4551 80.4238L33.216 81.372ZM37.804 79.892L36.8168 81.6314C42.2034 84.6887 47.1618 88.0418 51.9883 91.6982L53.196 90.104L54.4037 88.5098C49.4622 84.7662 44.3566 81.3113 38.7912 78.1526L37.804 79.892ZM53.196 90.104L54.7747 91.3319C58.0005 87.1845 60.7514 82.4398 63.0342 76.9612L61.188 76.192L59.3419 75.4228C57.1846 80.6002 54.6075 85.0315 51.6173 88.8761L53.196 90.104ZM61.188 76.192L63.0004 77.0378C63.402 76.177 63.7577 75.9174 63.9331 75.8341C64.0865 75.7612 64.3915 75.6841 65.0398 75.8836L65.628 73.972L66.2162 72.0604C64.9405 71.6679 63.5435 71.5908 62.2169 72.2209C60.9123 72.8406 60.01 73.987 59.3756 75.3462L61.188 76.192ZM65.628 73.972L64.9955 75.8694L68.5475 77.0534L69.18 75.156L69.8125 73.2586L66.2605 72.0746L65.628 73.972ZM69.18 75.156L68.5475 77.0534C69.3406 77.3177 69.6 77.6411 69.6754 77.7883C69.7297 77.8943 69.8317 78.1782 69.5617 78.8082L71.4 79.596L73.2383 80.3838C73.8563 78.9418 73.9583 77.3757 73.2356 75.9647C72.534 74.5949 71.2394 73.7343 69.8125 73.2586L69.18 75.156ZM71.4 79.596L69.5489 78.8387C66.9537 85.1825 63.648 90.7798 59.7881 95.4975L61.336 96.764L62.8839 98.0305C67.016 92.9802 70.5183 87.0335 73.2511 80.3533L71.4 79.596Z" fill="#5A1111" mask="url(#path-1-outside-1_2376_1748)"/>
</svg>
