<svg width="118" height="97" viewBox="0 0 118 97" fill="none" xmlns="http://www.w3.org/2000/svg">
<mask id="path-1-outside-1_2287_486" maskUnits="userSpaceOnUse" x="0" y="0" width="118" height="97" fill="black">
<rect fill="white" width="118" height="97"/>
<path d="M114.308 74.252C115.048 78.1 115.196 78.544 115.196 78.84C115.196 80.468 114.16 81.652 112.236 82.096L99.656 84.464C89 86.536 81.6 81.504 81.6 69.96C81.6 65.52 82.044 57.084 82.636 50.128C83.08 42.876 83.672 36.956 83.672 32.368C83.672 27.928 82.34 24.82 77.012 24.82C71.98 24.82 65.024 30 49.484 41.692C45.192 44.948 40.604 48.648 36.016 52.644C36.756 65.52 37.052 78.396 35.572 89.792C35.276 91.864 34.092 93.196 32.168 93.492L27.284 94.232H26.396C24.916 94.232 23.584 93.492 22.696 90.828C20.18 84.02 16.184 78.248 12.928 74.548L12.04 75.436C10.264 76.916 8.636 77.064 6.86 75.584L3.9 72.92C3.012 72.18 2.568 71.292 2.568 70.404C2.568 69.516 3.012 68.48 3.752 67.74C9.968 61.672 17.368 54.716 24.768 48.204C24.472 43.764 24.176 39.176 24.028 34.736C18.7 35.772 13.668 36.512 9.228 36.66C6.86 36.808 5.528 35.624 5.528 33.256V29.556C5.528 27.484 6.416 26.004 8.488 26.004C12.928 25.56 18.108 24.82 23.584 23.636C23.436 16.976 23.584 10.908 24.324 5.28399C24.62 3.21199 25.656 2.028 27.728 2.028H28.32L32.464 2.47199C34.536 2.61999 35.868 3.80399 35.572 6.172C34.24 15.94 34.684 27.484 35.276 39.324C38.088 37.104 40.9 34.884 43.564 32.96C61.472 19.344 69.76 14.016 78.64 14.016C89.296 14.016 94.772 20.38 94.772 30.74C94.772 35.92 94.18 43.764 93.736 51.016C93.292 57.972 92.552 64.484 92.552 68.48C92.552 73.364 94.032 74.844 97.584 74.104L109.72 71.588C112.088 71.144 113.864 72.032 114.308 74.252ZM25.508 79.876C25.656 73.956 25.656 68.184 25.508 62.264C22.548 65.076 19.588 67.888 16.924 70.552C19.44 73.216 22.548 76.324 25.508 79.876Z"/>
</mask>
<path d="M114.308 74.252C115.048 78.1 115.196 78.544 115.196 78.84C115.196 80.468 114.16 81.652 112.236 82.096L99.656 84.464C89 86.536 81.6 81.504 81.6 69.96C81.6 65.52 82.044 57.084 82.636 50.128C83.08 42.876 83.672 36.956 83.672 32.368C83.672 27.928 82.34 24.82 77.012 24.82C71.98 24.82 65.024 30 49.484 41.692C45.192 44.948 40.604 48.648 36.016 52.644C36.756 65.52 37.052 78.396 35.572 89.792C35.276 91.864 34.092 93.196 32.168 93.492L27.284 94.232H26.396C24.916 94.232 23.584 93.492 22.696 90.828C20.18 84.02 16.184 78.248 12.928 74.548L12.04 75.436C10.264 76.916 8.636 77.064 6.86 75.584L3.9 72.92C3.012 72.18 2.568 71.292 2.568 70.404C2.568 69.516 3.012 68.48 3.752 67.74C9.968 61.672 17.368 54.716 24.768 48.204C24.472 43.764 24.176 39.176 24.028 34.736C18.7 35.772 13.668 36.512 9.228 36.66C6.86 36.808 5.528 35.624 5.528 33.256V29.556C5.528 27.484 6.416 26.004 8.488 26.004C12.928 25.56 18.108 24.82 23.584 23.636C23.436 16.976 23.584 10.908 24.324 5.28399C24.62 3.21199 25.656 2.028 27.728 2.028H28.32L32.464 2.47199C34.536 2.61999 35.868 3.80399 35.572 6.172C34.24 15.94 34.684 27.484 35.276 39.324C38.088 37.104 40.9 34.884 43.564 32.96C61.472 19.344 69.76 14.016 78.64 14.016C89.296 14.016 94.772 20.38 94.772 30.74C94.772 35.92 94.18 43.764 93.736 51.016C93.292 57.972 92.552 64.484 92.552 68.48C92.552 73.364 94.032 74.844 97.584 74.104L109.72 71.588C112.088 71.144 113.864 72.032 114.308 74.252ZM25.508 79.876C25.656 73.956 25.656 68.184 25.508 62.264C22.548 65.076 19.588 67.888 16.924 70.552C19.44 73.216 22.548 76.324 25.508 79.876Z" fill="#E23232"/>
<path d="M114.308 74.252L116.272 73.8743L116.271 73.867L116.269 73.8598L114.308 74.252ZM112.236 82.096L112.606 84.0615L112.646 84.0539L112.686 84.0448L112.236 82.096ZM99.656 84.464L99.286 82.4985L99.2743 82.5008L99.656 84.464ZM82.636 50.128L84.6288 50.2976L84.6308 50.2739L84.6323 50.2502L82.636 50.128ZM49.484 41.692L48.2816 40.0938L48.2752 40.0986L49.484 41.692ZM36.016 52.644L34.7024 51.1358L33.963 51.7798L34.0193 52.7588L36.016 52.644ZM35.572 89.792L37.5519 90.0748L37.5537 90.0622L37.5553 90.0496L35.572 89.792ZM32.168 93.492L32.4676 95.4694L32.4721 95.4687L32.168 93.492ZM27.284 94.232V96.232H27.4347L27.5836 96.2094L27.284 94.232ZM22.696 90.828L24.5934 90.1955L24.5832 90.1649L24.572 90.1347L22.696 90.828ZM12.928 74.548L14.4294 73.2267L13.0211 71.6264L11.5138 73.1338L12.928 74.548ZM12.04 75.436L13.3204 76.9724L13.3901 76.9144L13.4542 76.8502L12.04 75.436ZM6.86 75.584L5.52207 77.0706L5.55038 77.0961L5.57963 77.1204L6.86 75.584ZM3.9 72.92L5.23793 71.4334L5.20963 71.4079L5.18037 71.3836L3.9 72.92ZM3.752 67.74L2.35493 66.3089L2.34631 66.3173L2.33779 66.3258L3.752 67.74ZM24.768 48.204L26.0893 49.7054L26.8291 49.0543L26.7636 48.071L24.768 48.204ZM24.028 34.736L26.0269 34.6694L25.9488 32.3251L23.6463 32.7728L24.028 34.736ZM9.228 36.66L9.16137 34.6611L9.13229 34.6621L9.10325 34.6639L9.228 36.66ZM8.488 26.004V28.004H8.58775L8.68701 27.9941L8.488 26.004ZM23.584 23.636L24.0067 25.5908L25.6202 25.242L25.5835 23.5916L23.584 23.636ZM24.324 5.28399L22.3441 5.00115L22.3425 5.01211L22.3411 5.02308L24.324 5.28399ZM28.32 2.028L28.5331 0.0393798L28.4268 0.0279984H28.32V2.028ZM32.464 2.47199L32.2509 4.46061L32.2862 4.46439L32.3215 4.46691L32.464 2.47199ZM35.572 6.172L37.5537 6.44222L37.5552 6.43115L37.5566 6.42007L35.572 6.172ZM35.276 39.324L33.2785 39.4239L33.4721 43.2963L36.5153 40.8938L35.276 39.324ZM43.564 32.96L44.735 34.5814L44.7549 34.567L44.7745 34.5521L43.564 32.96ZM93.736 51.016L95.732 51.1434L95.7323 51.1382L93.736 51.016ZM97.584 74.104L97.178 72.1456L97.1761 72.146L97.584 74.104ZM109.72 71.588L109.351 69.6223L109.333 69.6258L109.314 69.6296L109.72 71.588ZM25.508 79.876L23.9716 81.1564L27.3745 85.2399L27.5074 79.926L25.508 79.876ZM25.508 62.264L27.5074 62.214L27.3948 57.7129L24.1305 60.814L25.508 62.264ZM16.924 70.552L15.5098 69.1378L14.1354 70.5122L15.47 71.9252L16.924 70.552ZM114.308 74.252L112.344 74.6297C112.716 76.566 112.94 77.6486 113.071 78.2813C113.227 79.0425 113.196 78.9537 113.196 78.84H115.196H117.196C117.196 78.4303 117.091 77.9714 116.988 77.4747C116.86 76.8494 116.64 75.786 116.272 73.8743L114.308 74.252ZM115.196 78.84H113.196C113.196 79.2035 113.092 79.4175 112.951 79.5741C112.791 79.7522 112.454 79.9932 111.786 80.1472L112.236 82.096L112.686 84.0448C113.942 83.7548 115.085 83.1818 115.924 82.2499C116.782 81.2965 117.196 80.1045 117.196 78.84H115.196ZM112.236 82.096L111.866 80.1305L99.286 82.4985L99.656 84.464L100.026 86.4295L112.606 84.0615L112.236 82.096ZM99.656 84.464L99.2743 82.5008C94.2984 83.4683 90.431 82.7124 87.8496 80.7314C85.2999 78.7746 83.6 75.3094 83.6 69.96H81.6H79.6C79.6 76.1546 81.6001 80.9774 85.4144 83.9046C89.197 86.8076 94.3576 87.5317 100.038 86.4272L99.656 84.464ZM81.6 69.96H83.6C83.6 65.5999 84.0391 57.2264 84.6288 50.2976L82.636 50.128L80.6432 49.9584C80.0489 56.9416 79.6 65.4401 79.6 69.96H81.6ZM82.636 50.128L84.6323 50.2502C85.0687 43.122 85.672 37.0351 85.672 32.368H83.672H81.672C81.672 36.8769 81.0913 42.63 80.6397 50.0058L82.636 50.128ZM83.672 32.368H85.672C85.672 30.0317 85.3397 27.5953 83.94 25.729C82.4435 23.7337 80.0748 22.82 77.012 22.82V24.82V26.82C79.2772 26.82 80.2385 27.4603 80.74 28.129C81.3383 28.9267 81.672 30.2643 81.672 32.368H83.672ZM77.012 24.82V22.82C73.8655 22.82 70.4359 24.4209 66.111 27.1866C61.721 29.9939 56.0254 34.2675 48.2816 40.0938L49.484 41.692L50.6864 43.2902C58.4826 37.4245 64.035 33.2621 68.266 30.5564C72.5621 27.8091 75.1265 26.82 77.012 26.82V24.82ZM49.484 41.692L48.2752 40.0986C43.9497 43.3801 39.3265 47.1084 34.7024 51.1358L36.016 52.644L37.3296 54.1522C41.8815 50.1876 46.4343 46.5159 50.6928 43.2854L49.484 41.692ZM36.016 52.644L34.0193 52.7588C34.7581 65.614 35.0433 78.3339 33.5887 89.5344L35.572 89.792L37.5553 90.0496C39.0607 78.4581 38.7539 65.426 38.0127 52.5292L36.016 52.644ZM35.572 89.792L33.5921 89.5092C33.488 90.2381 33.2503 90.6888 33.0026 90.9605C32.7677 91.2181 32.4215 91.4295 31.8639 91.5153L32.168 93.492L32.4721 95.4687C33.8385 95.2585 35.0463 94.6559 35.9584 93.6555C36.8577 92.6692 37.36 91.4179 37.5519 90.0748L35.572 89.792ZM32.168 93.492L31.8684 91.5146L26.9844 92.2546L27.284 94.232L27.5836 96.2094L32.4676 95.4694L32.168 93.492ZM27.284 94.232V92.232H26.396V94.232V96.232H27.284V94.232ZM26.396 94.232V92.232C26.0167 92.232 25.794 92.1487 25.5954 91.9851C25.3556 91.7877 24.9669 91.3162 24.5934 90.1955L22.696 90.828L20.7986 91.4605C21.3131 93.0038 22.0344 94.2343 23.0526 95.0729C24.112 95.9453 25.2953 96.232 26.396 96.232V94.232ZM22.696 90.828L24.572 90.1347C21.9529 83.0476 17.8097 77.068 14.4294 73.2267L12.928 74.548L11.4266 75.8693C14.5583 79.428 18.4072 84.9924 20.82 91.5213L22.696 90.828ZM12.928 74.548L11.5138 73.1338L10.6258 74.0218L12.04 75.436L13.4542 76.8502L14.3422 75.9622L12.928 74.548ZM12.04 75.436L10.7596 73.8996C10.0568 74.4853 9.61369 74.611 9.36313 74.6219C9.15042 74.6311 8.77031 74.5725 8.14037 74.0476L6.86 75.584L5.57963 77.1204C6.72569 78.0755 8.04758 78.6829 9.53688 78.6181C10.9883 78.555 12.2472 77.8667 13.3204 76.9724L12.04 75.436ZM6.86 75.584L8.19793 74.0974L5.23793 71.4334L3.9 72.92L2.56207 74.4066L5.52207 77.0706L6.86 75.584ZM3.9 72.92L5.18037 71.3836C4.647 70.9391 4.568 70.578 4.568 70.404H2.568H0.568001C0.568001 72.0059 1.37701 73.4209 2.61963 74.4564L3.9 72.92ZM2.568 70.404H4.568C4.568 70.1077 4.75561 69.5648 5.16622 69.1542L3.752 67.74L2.33779 66.3258C1.26839 67.3952 0.568001 68.9243 0.568001 70.404H2.568ZM3.752 67.74L5.14908 69.1711C11.3462 63.1216 18.7206 56.1899 26.0893 49.7054L24.768 48.204L23.4467 46.7026C16.0154 53.2421 8.58981 60.2224 2.35493 66.3089L3.752 67.74ZM24.768 48.204L26.7636 48.071C26.4674 43.6291 26.1736 39.0719 26.0269 34.6694L24.028 34.736L22.0291 34.8026C22.1784 39.2801 22.4766 43.8989 22.7724 48.337L24.768 48.204ZM24.028 34.736L23.6463 32.7728C18.3603 33.8006 13.4471 34.5182 9.16137 34.6611L9.228 36.66L9.29463 38.6589C13.8889 38.5057 19.0397 37.7434 24.4097 36.6992L24.028 34.736ZM9.228 36.66L9.10325 34.6639C8.24949 34.7173 7.93337 34.511 7.83751 34.4236C7.75279 34.3463 7.528 34.079 7.528 33.256H5.528H3.528C3.528 34.801 3.96921 36.3097 5.14249 37.3794C6.30464 38.439 7.83852 38.7507 9.35276 38.6561L9.228 36.66ZM5.528 33.256H7.528V29.556H5.528H3.528V33.256H5.528ZM5.528 29.556H7.528C7.528 28.7627 7.70425 28.3689 7.81972 28.2179C7.86743 28.1555 7.91551 28.1174 7.98236 28.0868C8.05596 28.0532 8.209 28.004 8.488 28.004V26.004V24.004C6.92253 24.004 5.55507 24.5945 4.64229 25.7881C3.79575 26.8951 3.528 28.2773 3.528 29.556H5.528ZM8.488 26.004L8.68701 27.9941C13.1906 27.5437 18.4463 26.7931 24.0067 25.5908L23.584 23.636L23.1613 21.6812C17.7697 22.8469 12.6654 23.5763 8.28899 24.0139L8.488 26.004ZM23.584 23.636L25.5835 23.5916C25.4366 16.98 25.5858 11.0257 26.3069 5.5449L24.324 5.28399L22.3411 5.02308C21.5822 10.7903 21.4354 16.972 21.5845 23.6804L23.584 23.636ZM24.324 5.28399L26.3039 5.56684C26.4174 4.77231 26.6362 4.43127 26.7742 4.29321C26.871 4.19644 27.092 4.028 27.728 4.028V2.028V0.0279984C26.292 0.0279984 24.959 0.451558 23.9458 1.46478C22.9739 2.43671 22.5266 3.72368 22.3441 5.00115L24.324 5.28399ZM27.728 2.028V4.028H28.32V2.028V0.0279984H27.728V2.028ZM28.32 2.028L28.1069 4.01662L32.2509 4.46061L32.464 2.47199L32.6771 0.483374L28.5331 0.0393798L28.32 2.028ZM32.464 2.47199L32.3215 4.46691C33.0392 4.51817 33.3289 4.72787 33.4261 4.83484C33.4894 4.90445 33.6835 5.15532 33.5874 5.92393L35.572 6.172L37.5566 6.42007C37.7565 4.82067 37.4326 3.29554 36.3859 2.14415C35.3731 1.03011 33.9608 0.573809 32.6065 0.477075L32.464 2.47199ZM35.572 6.172L33.5903 5.90177C32.2291 15.8844 32.688 27.6141 33.2785 39.4239L35.276 39.324L37.2735 39.2241C36.68 27.3539 36.2509 15.9956 37.5537 6.44222L35.572 6.172ZM35.276 39.324L36.5153 40.8938C39.3351 38.6676 42.1122 36.4756 44.735 34.5814L43.564 32.96L42.393 31.3386C39.6878 33.2924 36.841 35.5404 34.0367 37.7542L35.276 39.324ZM43.564 32.96L44.7745 34.5521C53.7397 27.7355 60.1835 23.083 65.4643 20.1272C70.7024 17.1953 74.6541 16.016 78.64 16.016V14.016V12.016C73.7459 12.016 69.1136 13.5007 63.5107 16.6368C57.9505 19.749 51.2963 24.5685 42.3535 31.3679L43.564 32.96ZM78.64 14.016V16.016C83.5641 16.016 87.0102 17.4752 89.2418 19.8596C91.4934 22.2655 92.772 25.8943 92.772 30.74H94.772H96.772C96.772 25.2257 95.3126 20.4925 92.1622 17.1264C88.9918 13.7388 84.3719 12.016 78.64 12.016V14.016ZM94.772 30.74H92.772C92.772 35.8389 92.1877 43.5776 91.7397 50.8938L93.736 51.016L95.7323 51.1382C96.1723 43.9504 96.772 36.0011 96.772 30.74H94.772ZM93.736 51.016L91.7401 50.8886C91.3077 57.6617 90.552 64.4101 90.552 68.48H92.552H94.552C94.552 64.5579 95.2763 58.2823 95.7319 51.1434L93.736 51.016ZM92.552 68.48H90.552C90.552 70.9638 90.8924 73.2587 92.2617 74.7524C93.8052 76.4362 95.9945 76.4781 97.9919 76.062L97.584 74.104L97.1761 72.146C95.6215 72.4699 95.2948 72.1418 95.2103 72.0495C94.9516 71.7673 94.552 70.8802 94.552 68.48H92.552ZM97.584 74.104L97.99 76.0624L110.126 73.5464L109.72 71.588L109.314 69.6296L97.178 72.1456L97.584 74.104ZM109.72 71.588L110.089 73.5537C110.97 73.3884 111.495 73.5188 111.761 73.6674C111.972 73.7855 112.222 74.0212 112.347 74.6442L114.308 74.252L116.269 73.8598C115.95 72.2628 115.09 70.9445 113.71 70.1746C112.385 69.4352 110.838 69.3436 109.351 69.6223L109.72 71.588ZM25.508 79.876L27.5074 79.926C27.6562 73.9727 27.6562 68.1673 27.5074 62.214L25.508 62.264L23.5086 62.314C23.6558 68.2007 23.6558 73.9393 23.5086 79.826L25.508 79.876ZM25.508 62.264L24.1305 60.814C21.1747 63.622 18.1953 66.4523 15.5098 69.1378L16.924 70.552L18.3382 71.9662C20.9807 69.3237 23.9213 66.53 26.8855 63.714L25.508 62.264ZM16.924 70.552L15.47 71.9252C18.0353 74.6414 21.0645 77.6678 23.9716 81.1564L25.508 79.876L27.0444 78.5956C24.0315 74.9802 20.8447 71.7905 18.378 69.1788L16.924 70.552Z" fill="#5A1111" mask="url(#path-1-outside-1_2287_486)"/>
</svg>
