<svg width="93" height="108" viewBox="0 0 93 108" fill="none" xmlns="http://www.w3.org/2000/svg">
<mask id="path-1-outside-1_2376_1750" maskUnits="userSpaceOnUse" x="0" y="0" width="93" height="108" fill="black">
<rect fill="white" width="93" height="108"/>
<path d="M54.352 97.344C55.684 99.416 55.092 101.34 52.872 102.524L49.468 104.448C48.728 104.892 47.988 105.04 47.396 105.04C46.212 105.04 45.324 104.448 44.436 103.116C40.144 96.16 34.816 89.5 28.304 82.84C21.644 76.032 14.096 69.372 4.624 62.12C2.996 60.788 2.404 59.604 2.256 57.532L2.108 54.572V53.98C2.108 52.352 2.7 51.02 4.032 49.836C16.02 38.292 26.084 27.488 31.708 19.644C35.556 14.316 38.072 9.72799 39.7 5.73199C40.292 3.956 41.476 2.91999 43.104 2.91999C43.4 2.91999 43.696 2.91999 44.14 3.06799L47.988 3.956C50.504 4.54799 51.392 6.028 50.652 8.39599C49.024 13.28 46.36 18.608 42.216 24.528C36.296 32.964 26.38 43.916 14.54 55.46C23.124 62.416 30.672 68.928 36.888 75.44C43.844 82.692 49.468 89.796 54.352 97.344ZM79.512 10.616L90.02 25.86C90.316 26.452 90.612 27.044 90.612 27.488C90.612 28.376 90.168 29.116 89.428 29.708L85.432 32.52C84.1 33.556 82.472 33.26 81.584 31.928L71.076 16.536C70.188 15.204 70.336 13.724 71.668 12.688L75.664 9.87599C76.996 8.84 78.624 9.28399 79.512 10.616ZM65.008 19.94L75.664 35.184C76.552 36.516 76.256 37.996 74.924 38.884L70.928 41.696C69.596 42.732 67.968 42.288 67.08 40.956L56.572 25.86C55.684 24.528 55.832 23.048 57.164 22.012L61.16 19.2C62.492 18.164 63.972 18.608 65.008 19.94Z"/>
</mask>
<path d="M54.352 97.344C55.684 99.416 55.092 101.34 52.872 102.524L49.468 104.448C48.728 104.892 47.988 105.04 47.396 105.04C46.212 105.04 45.324 104.448 44.436 103.116C40.144 96.16 34.816 89.5 28.304 82.84C21.644 76.032 14.096 69.372 4.624 62.12C2.996 60.788 2.404 59.604 2.256 57.532L2.108 54.572V53.98C2.108 52.352 2.7 51.02 4.032 49.836C16.02 38.292 26.084 27.488 31.708 19.644C35.556 14.316 38.072 9.72799 39.7 5.73199C40.292 3.956 41.476 2.91999 43.104 2.91999C43.4 2.91999 43.696 2.91999 44.14 3.06799L47.988 3.956C50.504 4.54799 51.392 6.028 50.652 8.39599C49.024 13.28 46.36 18.608 42.216 24.528C36.296 32.964 26.38 43.916 14.54 55.46C23.124 62.416 30.672 68.928 36.888 75.44C43.844 82.692 49.468 89.796 54.352 97.344ZM79.512 10.616L90.02 25.86C90.316 26.452 90.612 27.044 90.612 27.488C90.612 28.376 90.168 29.116 89.428 29.708L85.432 32.52C84.1 33.556 82.472 33.26 81.584 31.928L71.076 16.536C70.188 15.204 70.336 13.724 71.668 12.688L75.664 9.87599C76.996 8.84 78.624 9.28399 79.512 10.616ZM65.008 19.94L75.664 35.184C76.552 36.516 76.256 37.996 74.924 38.884L70.928 41.696C69.596 42.732 67.968 42.288 67.08 40.956L56.572 25.86C55.684 24.528 55.832 23.048 57.164 22.012L61.16 19.2C62.492 18.164 63.972 18.608 65.008 19.94Z" fill="#E9B741"/>
<path d="M54.352 97.344L56.0344 96.2625L56.0311 96.2575L54.352 97.344ZM52.872 102.524L51.9308 100.759L51.9092 100.771L51.8879 100.783L52.872 102.524ZM49.468 104.448L48.4839 102.707L48.4613 102.72L48.439 102.733L49.468 104.448ZM44.436 103.116L42.7339 104.166L42.7524 104.196L42.7719 104.225L44.436 103.116ZM28.304 82.84L29.734 81.4418L29.7337 81.4414L28.304 82.84ZM4.624 62.12L3.35753 63.6679L3.38253 63.6884L3.40818 63.708L4.624 62.12ZM2.256 57.532L0.258497 57.6319L0.259564 57.6532L0.261085 57.6745L2.256 57.532ZM2.108 54.572H0.108004V54.622L0.110499 54.6719L2.108 54.572ZM4.032 49.836L5.36073 51.3308L5.39055 51.3043L5.41928 51.2766L4.032 49.836ZM31.708 19.644L30.0866 18.473L30.0826 18.4786L31.708 19.644ZM39.7 5.73199L41.5522 6.48659L41.5768 6.42626L41.5974 6.36445L39.7 5.73199ZM44.14 3.06799L43.5075 4.96536L43.5977 4.99541L43.6903 5.01677L44.14 3.06799ZM47.988 3.956L48.4461 2.00914L48.4377 2.00722L47.988 3.956ZM50.652 8.39599L52.5494 9.02845L52.5553 9.01055L52.561 8.99254L50.652 8.39599ZM42.216 24.528L43.8531 25.6769L43.8545 25.6749L42.216 24.528ZM14.54 55.46L13.1438 54.028L11.5336 55.598L13.2808 57.0139L14.54 55.46ZM36.888 75.44L35.4413 76.821L35.4446 76.8244L36.888 75.44ZM79.512 10.616L77.8479 11.7254L77.8565 11.7383L77.8653 11.7511L79.512 10.616ZM90.02 25.86L91.8089 24.9656L91.7462 24.8403L91.6667 24.7249L90.02 25.86ZM89.428 29.708L90.579 31.3436L90.6293 31.3082L90.6774 31.2697L89.428 29.708ZM85.432 32.52L84.281 30.8844L84.2419 30.9119L84.2041 30.9413L85.432 32.52ZM81.584 31.928L83.2481 30.8186L83.242 30.8094L83.2358 30.8003L81.584 31.928ZM71.076 16.536L69.4119 17.6454L69.418 17.6546L69.4242 17.6637L71.076 16.536ZM71.668 12.688L70.517 11.0524L70.4779 11.0799L70.4401 11.1093L71.668 12.688ZM75.664 9.87599L76.815 11.5116L76.8541 11.4841L76.8919 11.4547L75.664 9.87599ZM65.008 19.94L66.6472 18.7941L66.618 18.7524L66.5867 18.7121L65.008 19.94ZM75.664 35.184L77.3281 34.0746L77.3159 34.0562L77.3032 34.0381L75.664 35.184ZM74.924 38.884L73.8146 37.2199L73.7936 37.2339L73.773 37.2484L74.924 38.884ZM70.928 41.696L69.777 40.0604L69.7379 40.0879L69.7001 40.1173L70.928 41.696ZM67.08 40.956L68.7441 39.8466L68.733 39.8299L68.7215 39.8134L67.08 40.956ZM56.572 25.86L54.9079 26.9694L54.9191 26.9861L54.9305 27.0026L56.572 25.86ZM57.164 22.012L56.013 20.3764L55.9739 20.4039L55.9361 20.4333L57.164 22.012ZM61.16 19.2L62.311 20.8356L62.3501 20.8081L62.3879 20.7787L61.16 19.2ZM54.352 97.344L52.6696 98.4255C53.1093 99.1094 53.0808 99.5122 53.024 99.707C52.9599 99.9269 52.7254 100.336 51.9308 100.759L52.872 102.524L53.8132 104.289C55.2386 103.528 56.4101 102.383 56.864 100.827C57.3252 99.2458 56.9267 97.6506 56.0344 96.2625L54.352 97.344ZM52.872 102.524L51.8879 100.783L48.4839 102.707L49.468 104.448L50.4521 106.189L53.8561 104.265L52.872 102.524ZM49.468 104.448L48.439 102.733C48.0397 102.973 47.662 103.04 47.396 103.04V105.04V107.04C48.314 107.04 49.4163 106.811 50.497 106.163L49.468 104.448ZM47.396 105.04V103.04C47.1709 103.04 47.0373 102.994 46.8995 102.904C46.7248 102.789 46.4587 102.544 46.1001 102.007L44.436 103.116L42.7719 104.225C43.3013 105.02 43.9232 105.737 44.7105 106.251C45.5347 106.79 46.4371 107.04 47.396 107.04V105.04ZM44.436 103.116L46.1381 102.066C41.7561 94.9639 36.3313 88.1889 29.734 81.4418L28.304 82.84L26.874 84.2382C33.3008 90.8111 38.5319 97.3561 42.7339 104.166L44.436 103.116ZM28.304 82.84L29.7337 81.4414C22.9979 74.5559 15.3764 67.8334 5.83982 60.532L4.624 62.12L3.40818 63.708C12.8156 70.9106 20.2902 77.5081 26.8743 84.2386L28.304 82.84ZM4.624 62.12L5.89048 60.5721C5.20969 60.0151 4.86936 59.5901 4.66464 59.1909C4.4589 58.7897 4.31347 58.2652 4.25092 57.3895L2.256 57.532L0.261085 57.6745C0.346532 58.8708 0.571103 59.9743 1.10537 61.0161C1.64065 62.0599 2.41032 62.8929 3.35753 63.6679L4.624 62.12ZM2.256 57.532L4.25351 57.4321L4.10551 54.4721L2.108 54.572L0.110499 54.6719L0.258497 57.6319L2.256 57.532ZM2.108 54.572H4.108V53.98H2.108H0.108004V54.572H2.108ZM2.108 53.98H4.108C4.108 52.9482 4.4367 52.1522 5.36073 51.3308L4.032 49.836L2.70328 48.3412C0.963298 49.8878 0.108004 51.7558 0.108004 53.98H2.108ZM4.032 49.836L5.41928 51.2766C17.4251 39.7155 27.5985 28.8081 33.3334 20.8094L31.708 19.644L30.0826 18.4786C24.5695 26.1679 14.6149 36.8685 2.64472 48.3954L4.032 49.836ZM31.708 19.644L33.3294 20.815C37.2536 15.3814 39.854 10.6548 41.5522 6.48659L39.7 5.73199L37.8478 4.9774C36.29 8.80122 33.8584 13.2506 30.0866 18.473L31.708 19.644ZM39.7 5.73199L41.5974 6.36445C41.8068 5.73617 42.074 5.38082 42.2987 5.19238C42.5002 5.0234 42.7443 4.91999 43.104 4.91999V2.91999V0.919994C41.8357 0.919994 40.6738 1.33459 39.7283 2.12761C38.806 2.90117 38.1852 3.95182 37.8026 5.09954L39.7 5.73199ZM43.104 2.91999V4.91999C43.2602 4.91999 43.3039 4.92162 43.3456 4.92626C43.3725 4.92924 43.4195 4.93601 43.5075 4.96536L44.14 3.06799L44.7725 1.17063C44.0158 0.918402 43.4584 0.919994 43.104 0.919994V2.91999ZM44.14 3.06799L43.6903 5.01677L47.5383 5.90478L47.988 3.956L48.4377 2.00722L44.5897 1.11921L44.14 3.06799ZM47.988 3.956L47.5299 5.90283C48.522 6.13625 48.7723 6.44952 48.826 6.53899C48.8666 6.60655 49.019 6.91627 48.743 7.79944L50.652 8.39599L52.561 8.99254C53.025 7.50773 53.1035 5.89344 52.256 4.481C51.4217 3.09047 49.97 2.36774 48.4461 2.00916L47.988 3.956ZM50.652 8.39599L48.7546 7.76354C47.1968 12.4371 44.6287 17.5937 40.5775 23.3811L42.216 24.528L43.8545 25.6749C48.0913 19.6223 50.8512 14.1228 52.5494 9.02845L50.652 8.39599ZM42.216 24.528L40.5789 23.3791C34.7652 31.6637 24.9528 42.5142 13.1438 54.028L14.54 55.46L15.9362 56.892C27.8072 45.3178 37.8268 34.2643 43.8531 25.6769L42.216 24.528ZM14.54 55.46L13.2808 57.0139C21.846 63.9546 29.3148 70.4028 35.4413 76.821L36.888 75.44L38.3347 74.059C32.0292 67.4532 24.402 60.8774 15.7992 53.9061L14.54 55.46ZM36.888 75.44L35.4446 76.8244C42.3181 83.9904 47.8619 90.9953 52.6729 98.4305L54.352 97.344L56.0311 96.2575C51.0742 88.5967 45.3699 81.3936 38.3314 74.0555L36.888 75.44ZM79.512 10.616L77.8653 11.7511L88.3733 26.9951L90.02 25.86L91.6667 24.7249L81.1587 9.4809L79.512 10.616ZM90.02 25.86L88.2312 26.7544C88.3882 27.0685 88.4958 27.2867 88.57 27.4723C88.6046 27.5586 88.6187 27.6061 88.6229 27.6229C88.628 27.643 88.612 27.5912 88.612 27.488H90.612H92.612C92.612 26.876 92.4209 26.329 92.284 25.9867C92.1362 25.6173 91.9478 25.2435 91.8089 24.9656L90.02 25.86ZM90.612 27.488H88.612C88.612 27.6156 88.578 27.8268 88.1786 28.1463L89.428 29.708L90.6774 31.2697C91.758 30.4052 92.612 29.1364 92.612 27.488H90.612ZM89.428 29.708L88.277 28.0724L84.281 30.8844L85.432 32.52L86.583 34.1556L90.579 31.3436L89.428 29.708ZM85.432 32.52L84.2041 30.9413C83.9351 31.1505 83.7476 31.1517 83.6616 31.1378C83.5716 31.1232 83.4104 31.0621 83.2481 30.8186L81.584 31.928L79.9199 33.0374C80.6456 34.1259 81.7424 34.8788 83.0214 35.0862C84.3044 35.2943 85.5969 34.9255 86.6599 34.0987L85.432 32.52ZM81.584 31.928L83.2358 30.8003L72.7278 15.4083L71.076 16.536L69.4242 17.6637L79.9322 33.0557L81.584 31.928ZM71.076 16.536L72.7401 15.4266C72.5137 15.087 72.5076 14.8691 72.5205 14.7761C72.5312 14.6993 72.5789 14.5132 72.8959 14.2667L71.668 12.688L70.4401 11.1093C69.4251 11.8988 68.7328 12.9707 68.5585 14.2259C68.3864 15.4649 68.7503 16.653 69.4119 17.6454L71.076 16.536ZM71.668 12.688L72.819 14.3236L76.815 11.5116L75.664 9.87599L74.513 8.24038L70.517 11.0524L71.668 12.688ZM75.664 9.87599L76.8919 11.4547C77.0113 11.3618 77.1029 11.3276 77.1604 11.3141C77.2182 11.3005 77.2734 11.3002 77.3318 11.3128C77.4492 11.3382 77.6567 11.4386 77.8479 11.7254L79.512 10.616L81.1761 9.50659C80.4793 8.46141 79.4289 7.6738 78.1772 7.40317C76.8938 7.12569 75.553 7.42859 74.4361 8.29729L75.664 9.87599ZM65.008 19.94L63.3688 21.0859L74.0248 36.3299L75.664 35.184L77.3032 34.0381L66.6472 18.7941L65.008 19.94ZM75.664 35.184L73.9999 36.2934C74.1918 36.5812 74.1768 36.7509 74.1653 36.8083C74.1539 36.8656 74.1024 37.028 73.8146 37.2199L74.924 38.884L76.0334 40.5481C77.0776 39.852 77.8401 38.8304 78.0877 37.5927C78.3352 36.3551 78.0242 35.1188 77.3281 34.0746L75.664 35.184ZM74.924 38.884L73.773 37.2484L69.777 40.0604L70.928 41.696L72.079 43.3316L76.075 40.5196L74.924 38.884ZM70.928 41.696L69.7001 40.1173C69.5807 40.2102 69.4891 40.2444 69.4316 40.2579C69.3738 40.2715 69.3186 40.2718 69.2602 40.2592C69.1429 40.2338 68.9353 40.1334 68.7441 39.8466L67.08 40.956L65.4159 42.0654C66.1127 43.1106 67.1632 43.8982 68.4148 44.1688C69.6982 44.4463 71.039 44.1434 72.1559 43.2747L70.928 41.696ZM67.08 40.956L68.7215 39.8134L58.2135 24.7174L56.572 25.86L54.9305 27.0026L65.4385 42.0986L67.08 40.956ZM56.572 25.86L58.2361 24.7506C58.0097 24.411 58.0036 24.1931 58.0165 24.1001C58.0272 24.0233 58.0749 23.8372 58.3919 23.5907L57.164 22.012L55.9361 20.4333C54.9211 21.2228 54.2288 22.2947 54.0545 23.5499C53.8824 24.7889 54.2463 25.977 54.9079 26.9694L56.572 25.86ZM57.164 22.012L58.315 23.6476L62.311 20.8356L61.16 19.2L60.009 17.5644L56.013 20.3764L57.164 22.012ZM61.16 19.2L62.3879 20.7787C62.5223 20.6742 62.6113 20.6441 62.6502 20.6346C62.6866 20.6257 62.7185 20.6249 62.7611 20.6344C62.8574 20.6558 63.1149 20.7636 63.4293 21.1679L65.008 19.94L66.5867 18.7121C65.8652 17.7844 64.8646 17.0042 63.6289 16.7296C62.3317 16.4414 61.0274 16.7694 59.9321 17.6213L61.16 19.2Z" fill="#5A1111" mask="url(#path-1-outside-1_2376_1750)"/>
</svg>
