<svg width="79" height="109" viewBox="0 0 79 109" fill="none" xmlns="http://www.w3.org/2000/svg">
<mask id="path-1-outside-1_2305_502" maskUnits="userSpaceOnUse" x="0" y="0" width="79" height="109" fill="black">
<rect fill="white" width="79" height="109"/>
<path d="M73.78 84.36C75.408 84.952 76.296 86.136 76.296 87.616C76.296 87.912 76.148 88.504 76 89.096L74.668 92.796C73.928 94.868 72.3 95.46 69.932 94.572C64.9 92.648 58.24 90.28 50.84 88.208C49.212 99.604 39.444 106.56 26.272 106.56C12.656 106.56 2.888 100.048 2.888 89.244C2.888 79.772 11.324 73.112 24.2 73.112C29.38 73.112 34.856 73.704 40.184 74.592C39.888 69.56 39.592 64.528 39.148 59.052C36.188 59.2 33.228 59.348 31.008 59.348C17.688 59.348 9.104 56.388 9.104 47.36C9.104 37.888 18.28 32.116 33.968 29.008L9.548 26.936C7.18 26.788 6.144 25.456 6.292 23.088L6.588 19.536C6.736 17.168 8.216 15.984 10.436 16.132L36.336 18.352C36.188 14.356 36.04 10.212 36.04 6.216C36.04 3.99599 37.372 2.812 39.592 2.812H42.996C45.364 2.812 46.548 3.99599 46.548 6.216C46.548 10.508 46.696 14.8 46.844 19.092L70.82 21.164C73.04 21.312 74.224 22.792 74.076 25.012L73.928 28.86C73.78 30.932 72.596 32.412 70.228 32.412C62.384 32.56 54.688 33.004 47.732 33.892C48.028 38.48 48.324 42.92 48.768 47.36C53.504 46.916 58.388 46.176 62.532 45.436C64.604 45.14 66.232 46.028 66.676 48.396L67.416 51.948C67.86 54.02 66.824 55.796 64.456 56.092C60.016 56.98 54.688 57.72 49.656 58.312C50.248 64.824 50.692 71.04 50.988 76.96C59.868 79.18 68.008 81.992 73.78 84.36ZM29.38 48.544C31.6 48.544 35.004 48.396 38.26 48.248C37.964 44.104 37.52 39.812 37.224 35.52C27.012 37.592 20.204 40.552 20.204 44.104C20.204 47.064 23.164 48.544 29.38 48.544ZM26.272 95.756C34.56 95.756 39.888 92.204 40.48 85.84C35.004 84.804 29.528 84.064 24.2 84.064C17.392 84.064 13.84 85.988 13.84 89.244C13.84 93.684 18.872 95.756 26.272 95.756Z"/>
</mask>
<path d="M73.78 84.36C75.408 84.952 76.296 86.136 76.296 87.616C76.296 87.912 76.148 88.504 76 89.096L74.668 92.796C73.928 94.868 72.3 95.46 69.932 94.572C64.9 92.648 58.24 90.28 50.84 88.208C49.212 99.604 39.444 106.56 26.272 106.56C12.656 106.56 2.888 100.048 2.888 89.244C2.888 79.772 11.324 73.112 24.2 73.112C29.38 73.112 34.856 73.704 40.184 74.592C39.888 69.56 39.592 64.528 39.148 59.052C36.188 59.2 33.228 59.348 31.008 59.348C17.688 59.348 9.104 56.388 9.104 47.36C9.104 37.888 18.28 32.116 33.968 29.008L9.548 26.936C7.18 26.788 6.144 25.456 6.292 23.088L6.588 19.536C6.736 17.168 8.216 15.984 10.436 16.132L36.336 18.352C36.188 14.356 36.04 10.212 36.04 6.216C36.04 3.99599 37.372 2.812 39.592 2.812H42.996C45.364 2.812 46.548 3.99599 46.548 6.216C46.548 10.508 46.696 14.8 46.844 19.092L70.82 21.164C73.04 21.312 74.224 22.792 74.076 25.012L73.928 28.86C73.78 30.932 72.596 32.412 70.228 32.412C62.384 32.56 54.688 33.004 47.732 33.892C48.028 38.48 48.324 42.92 48.768 47.36C53.504 46.916 58.388 46.176 62.532 45.436C64.604 45.14 66.232 46.028 66.676 48.396L67.416 51.948C67.86 54.02 66.824 55.796 64.456 56.092C60.016 56.98 54.688 57.72 49.656 58.312C50.248 64.824 50.692 71.04 50.988 76.96C59.868 79.18 68.008 81.992 73.78 84.36ZM29.38 48.544C31.6 48.544 35.004 48.396 38.26 48.248C37.964 44.104 37.52 39.812 37.224 35.52C27.012 37.592 20.204 40.552 20.204 44.104C20.204 47.064 23.164 48.544 29.38 48.544ZM26.272 95.756C34.56 95.756 39.888 92.204 40.48 85.84C35.004 84.804 29.528 84.064 24.2 84.064C17.392 84.064 13.84 85.988 13.84 89.244C13.84 93.684 18.872 95.756 26.272 95.756Z" fill="#E97941"/>
<path d="M73.78 84.36L73.0209 86.2103L73.0584 86.2257L73.0965 86.2396L73.78 84.36ZM76 89.096L77.8818 89.7734L77.9159 89.6787L77.9403 89.5811L76 89.096ZM74.668 92.796L72.7862 92.1186L72.7845 92.1233L74.668 92.796ZM69.932 94.572L69.2177 96.4401L69.2298 96.4447L69.932 94.572ZM50.84 88.208L51.3793 86.2821L49.1827 85.667L48.8601 87.9252L50.84 88.208ZM40.184 74.592L39.8552 76.5648L42.3277 76.9769L42.1806 74.4746L40.184 74.592ZM39.148 59.052L41.1415 58.8904L40.9848 56.9577L39.0481 57.0545L39.148 59.052ZM33.968 29.008L34.3567 30.9699L34.1371 27.0152L33.968 29.008ZM9.548 26.936L9.71709 24.9432L9.69494 24.9413L9.67276 24.9399L9.548 26.936ZM6.292 23.088L4.29891 22.9219L4.29719 22.9426L4.2959 22.9632L6.292 23.088ZM6.588 19.536L8.58109 19.7021L8.58282 19.6814L8.58411 19.6608L6.588 19.536ZM10.436 16.132L10.6068 14.1393L10.5879 14.1377L10.569 14.1364L10.436 16.132ZM36.336 18.352L36.1652 20.3447L38.4183 20.5378L38.3346 18.278L36.336 18.352ZM46.844 19.092L44.8452 19.1609L44.9063 20.932L46.6718 21.0846L46.844 19.092ZM70.82 21.164L70.6478 23.1566L70.6674 23.1583L70.687 23.1596L70.82 21.164ZM74.076 25.012L72.0804 24.879L72.0786 24.907L72.0775 24.9351L74.076 25.012ZM73.928 28.86L75.9229 29.0025L75.9253 28.9697L75.9265 28.9369L73.928 28.86ZM70.228 32.412V30.412H70.2091L70.1903 30.4124L70.228 32.412ZM47.732 33.892L47.4787 31.9081L45.6152 32.146L45.7362 34.0208L47.732 33.892ZM48.768 47.36L46.7779 47.559L46.9757 49.5368L48.9547 49.3513L48.768 47.36ZM62.532 45.436L62.2492 43.4561L62.2147 43.461L62.1804 43.4671L62.532 45.436ZM66.676 48.396L64.7103 48.7646L64.714 48.7843L64.718 48.8039L66.676 48.396ZM67.416 51.948L65.458 52.3559L65.4604 52.3671L67.416 51.948ZM64.456 56.092L64.2079 54.1074L64.1354 54.1165L64.0638 54.1308L64.456 56.092ZM49.656 58.312L49.4223 56.3257L47.4879 56.5533L47.6642 58.4931L49.656 58.312ZM50.988 76.96L48.9905 77.0599L49.0645 78.5407L50.5029 78.9003L50.988 76.96ZM38.26 48.248L38.3508 50.2459L40.4012 50.1527L40.2549 48.1055L38.26 48.248ZM37.224 35.52L39.2193 35.3824L39.0623 33.1063L36.8263 33.5599L37.224 35.52ZM40.48 85.84L42.4714 86.0252L42.64 84.2132L40.8518 83.8749L40.48 85.84ZM73.78 84.36L73.0965 86.2396C74.0699 86.5936 74.296 87.1129 74.296 87.616H76.296H78.296C78.296 85.1591 76.7461 83.3104 74.4635 82.4804L73.78 84.36ZM76.296 87.616H74.296C74.296 87.5446 74.303 87.5242 74.2933 87.588C74.2854 87.6404 74.271 87.7182 74.2479 87.8259C74.2009 88.0452 74.1359 88.306 74.0597 88.6109L76 89.096L77.9403 89.5811C78.0121 89.294 78.0951 88.9628 78.1591 88.6641C78.2131 88.4121 78.296 88.0006 78.296 87.616H76.296ZM76 89.096L74.1182 88.4186L72.7862 92.1186L74.668 92.796L76.5498 93.4734L77.8818 89.7734L76 89.096ZM74.668 92.796L72.7845 92.1233C72.5543 92.7678 72.3101 92.8835 72.213 92.9196C72.0447 92.9822 71.5806 93.0542 70.6343 92.6993L69.932 94.572L69.2298 96.4447C70.6515 96.9778 72.1853 97.1978 73.608 96.6684C75.102 96.1125 76.0417 94.8962 76.5515 93.4687L74.668 92.796ZM69.932 94.572L70.6463 92.7039C65.578 90.766 58.8568 88.3758 51.3793 86.2821L50.84 88.208L50.3007 90.1339C57.6232 92.1842 64.222 94.53 69.2177 96.4401L69.932 94.572ZM50.84 88.208L48.8601 87.9252C47.4106 98.0718 38.741 104.56 26.272 104.56V106.56V108.56C40.147 108.56 51.0134 101.136 52.8199 88.4908L50.84 88.208ZM26.272 106.56V104.56C19.7546 104.56 14.354 102.998 10.6413 100.329C6.98691 97.7029 4.888 93.9624 4.888 89.244H2.888H0.888002C0.888002 95.3296 3.6731 100.247 8.30673 103.578C12.882 106.866 19.1734 108.56 26.272 108.56V106.56ZM2.888 89.244H4.888C4.888 85.162 6.68159 81.7039 9.93187 79.2136C13.2206 76.6939 18.0879 75.112 24.2 75.112V73.112V71.112C17.4361 71.112 11.6474 72.8601 7.49914 76.0384C3.31242 79.2461 0.888002 83.854 0.888002 89.244H2.888ZM24.2 73.112V75.112C29.2363 75.112 34.5968 75.6884 39.8552 76.5648L40.184 74.592L40.5128 72.6192C35.1152 71.7196 29.5237 71.112 24.2 71.112V73.112ZM40.184 74.592L42.1806 74.4746C41.8847 69.4448 41.5875 64.3916 41.1415 58.8904L39.148 59.052L37.1545 59.2136C37.5965 64.6644 37.8913 69.6752 38.1875 74.7094L40.184 74.592ZM39.148 59.052L39.0481 57.0545C36.0694 57.2034 33.1667 57.348 31.008 57.348V59.348V61.348C33.2893 61.348 36.3066 61.1966 39.2479 61.0495L39.148 59.052ZM31.008 59.348V57.348C24.4226 57.348 19.3276 56.6039 15.9415 54.9437C14.2832 54.1307 13.1016 53.13 12.3267 51.9463C11.5573 50.7712 11.104 49.2872 11.104 47.36H9.104H7.104C7.104 49.9468 7.72372 52.2183 8.9801 54.1373C10.2309 56.0477 12.0278 57.4798 14.1805 58.5353C18.4164 60.6121 24.2734 61.348 31.008 61.348V59.348ZM9.104 47.36H11.104C11.104 43.4013 12.9689 40.151 16.8094 37.4293C20.7296 34.6511 26.6261 32.5014 34.3567 30.9699L33.968 29.008L33.5793 27.0461C25.6219 28.6226 19.0864 30.9129 14.4966 34.1657C9.82706 37.475 7.104 41.8467 7.104 47.36H9.104ZM33.968 29.008L34.1371 27.0152L9.71709 24.9432L9.548 26.936L9.37891 28.9288L33.7989 31.0008L33.968 29.008ZM9.548 26.936L9.67276 24.9399C8.83029 24.8872 8.58628 24.6526 8.51655 24.5685C8.42641 24.4597 8.23153 24.1179 8.28811 23.2127L6.292 23.088L4.2959 22.9632C4.20447 24.4261 4.4536 25.9343 5.43646 27.1205C6.43973 28.3314 7.89772 28.8368 9.42325 28.9321L9.548 26.936ZM6.292 23.088L8.28509 23.2541L8.58109 19.7021L6.588 19.536L4.59491 19.3699L4.29891 22.9219L6.292 23.088ZM6.588 19.536L8.58411 19.6608C8.63342 18.8718 8.87926 18.5445 9.04005 18.406C9.20849 18.261 9.5688 18.0786 10.303 18.1276L10.436 16.132L10.569 14.1364C9.08321 14.0374 7.59352 14.373 6.42996 15.375C5.25874 16.3835 4.69059 17.8322 4.5919 19.4112L6.588 19.536ZM10.436 16.132L10.2652 18.1247L36.1652 20.3447L36.336 18.352L36.5068 16.3593L10.6068 14.1393L10.436 16.132ZM36.336 18.352L38.3346 18.278C38.1865 14.2778 38.04 10.1695 38.04 6.216H36.04H34.04C34.04 10.2545 34.1895 14.4342 34.3374 18.426L36.336 18.352ZM36.04 6.216H38.04C38.04 5.51176 38.2403 5.24495 38.3529 5.13919C38.485 5.01508 38.8211 4.812 39.592 4.812V2.812V0.811999C38.1429 0.811999 36.703 1.20092 35.6142 2.2238C34.5057 3.26504 34.04 4.70023 34.04 6.216H36.04ZM39.592 2.812V4.812H42.996V2.812V0.811999H39.592V2.812ZM42.996 2.812V4.812C43.8715 4.812 44.1776 5.03001 44.2684 5.11798C44.3482 5.19526 44.548 5.44754 44.548 6.216H46.548H48.548C48.548 4.76445 48.1558 3.31473 47.0516 2.24502C45.9584 1.18598 44.4885 0.811999 42.996 0.811999V2.812ZM46.548 6.216H44.548C44.548 10.5482 44.6974 14.8747 44.8452 19.1609L46.844 19.092L48.8428 19.0231C48.6946 14.7253 48.548 10.4678 48.548 6.216H46.548ZM46.844 19.092L46.6718 21.0846L70.6478 23.1566L70.82 21.164L70.9922 19.1714L47.0162 17.0994L46.844 19.092ZM70.82 21.164L70.687 23.1596C71.3687 23.205 71.6638 23.4284 71.7996 23.5914C71.9472 23.7685 72.1294 24.1446 72.0804 24.879L74.076 25.012L76.0716 25.145C76.1706 23.6594 75.8348 22.1855 74.8724 21.0306C73.8982 19.8615 72.4913 19.271 70.953 19.1684L70.82 21.164ZM74.076 25.012L72.0775 24.9351L71.9295 28.7831L73.928 28.86L75.9265 28.9369L76.0745 25.0889L74.076 25.012ZM73.928 28.86L71.9331 28.7175C71.8826 29.425 71.6712 29.8183 71.4753 30.02C71.3073 30.1931 70.9737 30.412 70.228 30.412V32.412V34.412C71.8503 34.412 73.2927 33.8909 74.3457 32.8059C75.3708 31.7497 75.8255 30.367 75.9229 29.0025L73.928 28.86ZM70.228 32.412L70.1903 30.4124C62.3011 30.5612 54.5287 31.0081 47.4787 31.9081L47.732 33.892L47.9853 35.8759C54.8473 34.9999 62.4669 34.5588 70.2657 34.4116L70.228 32.412ZM47.732 33.892L45.7362 34.0208C46.032 38.6068 46.33 43.0795 46.7779 47.559L48.768 47.36L50.7581 47.161C50.318 42.7605 50.024 38.3532 49.7279 33.7632L47.732 33.892ZM48.768 47.36L48.9547 49.3513C53.7625 48.9005 58.7043 48.1512 62.8836 47.4049L62.532 45.436L62.1804 43.4671C58.0717 44.2008 53.2455 44.9315 48.5813 45.3687L48.768 47.36ZM62.532 45.436L62.8148 47.4159C63.5156 47.3158 63.9049 47.4476 64.1051 47.5811C64.2805 47.698 64.5636 47.9822 64.7103 48.7646L66.676 48.396L68.6417 48.0274C68.3444 46.4418 67.5915 45.098 66.3239 44.2529C65.0811 43.4244 63.6204 43.2602 62.2492 43.4561L62.532 45.436ZM66.676 48.396L64.718 48.8039L65.458 52.3559L67.416 51.948L69.374 51.5401L68.634 47.9881L66.676 48.396ZM67.416 51.948L65.4604 52.3671C65.5922 52.9823 65.4698 53.3641 65.3328 53.5671C65.2097 53.7494 64.9214 54.0183 64.2079 54.1074L64.456 56.092L64.7041 58.0766C66.3586 57.8697 67.7723 57.1026 68.6482 55.8049C69.5102 54.5279 69.6838 52.9857 69.3716 51.5289L67.416 51.948ZM64.456 56.092L64.0638 54.1308C59.7016 55.0033 54.4351 55.736 49.4223 56.3257L49.656 58.312L49.8897 60.2983C54.9409 59.704 60.3304 58.9567 64.8482 58.0532L64.456 56.092ZM49.656 58.312L47.6642 58.4931C48.254 64.9808 48.696 71.1696 48.9905 77.0599L50.988 76.96L52.9855 76.8601C52.688 70.9104 52.242 64.6672 51.6478 58.1309L49.656 58.312ZM50.988 76.96L50.5029 78.9003C59.2851 81.0958 67.3336 83.8771 73.0209 86.2103L73.78 84.36L74.5391 82.5097C68.6824 80.1069 60.4509 77.2642 51.4731 75.0197L50.988 76.96ZM29.38 48.544V50.544C31.6555 50.544 35.1109 50.3932 38.3508 50.2459L38.26 48.248L38.1692 46.2501C34.8971 46.3988 31.5445 46.544 29.38 46.544V48.544ZM38.26 48.248L40.2549 48.1055C40.1056 46.015 39.9191 43.8894 39.7345 41.7662C39.5494 39.6373 39.3659 37.5081 39.2193 35.3824L37.224 35.52L35.2287 35.6576C35.3781 37.8239 35.5647 39.9867 35.7495 42.1128C35.9349 44.2446 36.1184 46.337 36.2651 48.3905L38.26 48.248ZM37.224 35.52L36.8263 33.5599C31.6554 34.6091 27.2117 35.9072 24.0125 37.4571C22.4166 38.2303 21.0232 39.1166 20.003 40.1516C18.9723 41.1972 18.204 42.5243 18.204 44.104H20.204H22.204C22.204 43.9077 22.2867 43.5328 22.8517 42.9596C23.4271 42.3759 24.3739 41.7267 25.7565 41.0569C28.5144 39.7208 32.5806 38.5029 37.6217 37.4801L37.224 35.52ZM20.204 44.104H18.204C18.204 45.1943 18.4825 46.2419 19.1059 47.1654C19.7203 48.0756 20.5885 48.7458 21.5842 49.2315C23.5162 50.174 26.1802 50.544 29.38 50.544V48.544V46.544C26.3638 46.544 24.4399 46.174 23.3379 45.6365C22.8165 45.3822 22.5562 45.1274 22.4213 44.9276C22.2955 44.7411 22.204 44.4937 22.204 44.104H20.204ZM26.272 95.756V97.756C30.6738 97.756 34.5176 96.8163 37.3972 94.8311C40.3375 92.8041 42.1217 89.7843 42.4714 86.0252L40.48 85.84L38.4886 85.6548C38.2463 88.2597 37.0705 90.1979 35.1268 91.5379C33.1225 92.9197 30.1582 93.756 26.272 93.756V95.756ZM40.48 85.84L40.8518 83.8749C35.3168 82.8277 29.704 82.064 24.2 82.064V84.064V86.064C29.352 86.064 34.6913 86.7803 40.1082 87.8051L40.48 85.84ZM24.2 84.064V82.064C20.6604 82.064 17.7039 82.5557 15.5574 83.6518C13.3048 84.8021 11.84 86.7045 11.84 89.244H13.84H15.84C15.84 88.5275 16.1512 87.8399 17.3766 87.2142C18.7081 86.5343 20.9316 86.064 24.2 86.064V84.064ZM13.84 89.244H11.84C11.84 92.421 13.7255 94.6459 16.3988 95.9599C18.977 97.2271 22.4373 97.756 26.272 97.756V95.756V93.756C22.7067 93.756 19.9511 93.2489 18.1632 92.3701C16.4705 91.5381 15.84 90.507 15.84 89.244H13.84Z" fill="#5A1111" mask="url(#path-1-outside-1_2305_502)"/>
</svg>
